<?xml version="1.0" encoding="UTF-8"?>
<svg id="Layer_1" data-name="Layer 1" xmlns="http://www.w3.org/2000/svg" viewBox="0 0 320 123.51">
  <defs>
    <style>
      .cls-1 {
        fill: #FFF5E9;
      }
    </style>
  </defs>
  <g>
    <g>
      <path class="cls-1" d="M143.23,21.91c1.31.14,2.62.44,2.83.51s.51.36.58.73c.15.36.07.8-.15.94-.22.22-.73.44-1.45.44-.58,0-1.74-.29-2.62-.65-.8-.36-1.96-.65-2.47-.65-.65,0-1.67.44-3.34,1.31-1.38.73-2.91,1.82-3.49,2.33-.58.58-1.89,2.18-2.98,3.56-1.09,1.38-2.18,3.12-2.54,3.85-.29.8-.94,1.89-1.31,2.62l-1.24,2.33c-.44.94-.51,1.31-.36,2.11.14.65.51,1.24.87,1.53.36.22,1.53.58,2.54.8,1.6.36,2.69.36,6.9.14,3.27-.14,5.81-.44,7.34-.73l2.98-.73c.36-.15.8-.58,1.09-.95.29-.36.87-1.16,1.38-1.67.8-.8,1.09-.94,2.11-.94.65,0,1.53.14,1.96.36.36.22.8.65.94,1.02.22.36.36,1.24.36,2.03,0,.73-.22,1.67-.44,2.03-.14.44-.51.8-.73.87-.22.15-.87.22-1.38.22s-1.6-.36-2.32-.65c-1.09-.51-1.67-.65-2.54-.58l-3.56.65c-1.82.36-3.85.58-7.92.73-5.16.14-5.67.07-7.63-.44-1.89-.44-2.18-.44-2.83-.14-.36.22-.87.65-1.02,1.09-.15.36-.51,1.16-.65,1.74-.22.58-.65,1.6-1.09,2.25-.36.65-.94,1.67-1.16,2.33l-.94,2.91c-.36,1.24-.8,2.11-1.31,2.62-.44.36-1.24.87-1.74,1.02-.58.15-1.24.51-1.53.8-.22.29-.87,1.53-1.38,2.83l-1.82,3.78c-.51.87-2.03,3.27-3.41,5.3-1.38,2.03-3.49,4.79-4.58,6.18l-3.12,3.71c-.58.65-1.89,1.82-2.91,2.61-1.02.73-2.47,2.03-3.27,2.76-.94.8-2.4,1.67-3.85,2.4-1.31.58-3.27,1.38-4.36,1.74-1.16.36-2.91.73-4,.95-1.02.07-2.91.22-4.14.22-1.31,0-2.76-.14-3.34-.29-.58-.22-1.45-.73-1.96-1.24-.8-.8-1.16-1.45-1.74-3.56-.51-1.38-1.02-2.76-1.24-2.98-.22-.22-.87-.58-1.45-.73-.58-.15-1.31-.51-1.6-.8-.44-.36-.58-.8-.58-1.38,0-.51.22-1.31.51-1.74.29-.44,1.31-1.38,2.25-2.03.94-.73,2.18-1.53,2.76-1.74.58-.29,1.53-.51,2.11-.51.8,0,1.24.15,1.67.58.44.36.65.94.65,1.38s-.15,1.02-.29,1.31c-.15.22-.94.8-1.82,1.24-.94.44-1.67,1.02-1.96,1.53s-.51,1.09-.51,1.45c0,.29.36,1.82.87,3.34.65,2.18,1.09,2.98,1.67,3.56.8.73.87.73,4,.8,2.25.07,3.78,0,5.23-.29,1.09-.22,2.91-.8,4-1.16,1.09-.44,2.62-1.09,3.34-1.53.8-.44,2.18-1.38,3.12-2.18l3.34-2.76c.94-.73,2.25-2.03,2.91-2.91.65-.8,1.89-2.32,2.76-3.27.8-.94,2.76-3.56,4.29-5.81,1.53-2.32,3.12-4.87,3.56-5.67.44-.8,1.16-2.4,1.67-3.56.51-1.31.94-2.62,1.02-3.85.15-1.09.44-2.18.58-2.47.22-.29,1.09-1.02,1.96-1.67.94-.65,1.74-1.53,2.11-2.11.29-.58.65-1.67.8-2.4.15-1.02.15-1.67-.07-2.25-.22-.65-.51-.94-1.45-1.31-.94-.36-1.82-.44-3.85-.44-2.33.07-3.27.22-6.54,1.09-2.11.58-4.07,1.24-4.36,1.45-.36.14-.87.73-1.24,1.31-.29.51-.87,1.16-1.24,1.53-.44.36-1.09.58-1.89.73-.87.07-1.38,0-1.96-.29-.51-.29-1.02-.73-1.16-1.09-.14-.36-.29-1.31-.29-2.11,0-.87.22-1.82.44-2.25.14-.36.51-.73.73-.87.22-.07.8-.15,1.24-.15s1.45.29,2.18.65c.73.36,1.74.65,2.25.65s2.62-.51,4.65-1.09c2.91-.8,4.29-1.02,6.47-1.09,2.11-.14,3.2-.07,4.58.29,1.74.36,1.82.36,2.47-.07.36-.29.73-.8.8-1.09.14-.36.22-1.16.22-1.82.07-.8.22-1.31.51-1.67.29-.22,1.02-.51,1.6-.58.73-.14,1.38-.44,1.74-.73.22-.29,1.09-1.74,1.74-3.2.8-1.6,1.96-3.56,3.12-5.01,1.02-1.31,2.25-2.76,2.69-3.2.36-.51,1.24-1.16,1.74-1.53.58-.44,2.11-1.24,3.27-1.89,1.6-.8,2.62-1.16,3.27-1.16.58,0,2.11.22,3.34.44ZM121.65,10.21l4.07.8,6.54,1.45c3.49.8,5.01,1.09,8.28,1.24,3.12.15,4.36.36,5.38.73l3.2,1.45c1.02.51,2.54,1.02,3.49,1.24.94.22,2.54.36,3.49.36,1.45,0,2.03-.15,3.12-.65.65-.29,2.03-1.38,2.98-2.33l2.69-2.62c.44-.51,1.24-1.09,1.67-1.31.51-.22,1.45-.36,2.11-.36s1.38.14,1.6.36c.22.15.58.51.73.8.15.29.29,1.38.29,2.33,0,1.38-.07,1.82-.51,2.4-.44.51-.8.65-1.45.65-.58-.07-1.6-.36-2.4-.8-.73-.44-1.74-.73-2.18-.73-.58,0-1.16.29-2.4,1.38-.94.8-2.11,1.67-2.76,1.96-1.02.44-1.67.51-3.71.51-1.53,0-3.27-.22-4.21-.44-.87-.29-2.62-.94-3.85-1.53-1.16-.58-2.62-1.24-3.2-1.38-.58-.14-2.83-.36-5.01-.51-2.76-.14-4.65-.36-6.47-.8l-6.61-1.6q-4.14-.94-9.74-.94h-5.59l-2.4.8c-1.38.44-3.2,1.16-4.14,1.6-.87.36-2.03,1.09-2.47,1.53-.51.44-1.16,1.38-1.53,2.03-.58,1.16-.65,1.6-.73,4.29,0,2.11.15,3.78.44,5.59.29,1.45.8,2.98,1.02,3.42.29.44.87.94,1.31,1.16.44.15,1.53.29,2.4.29s2.54-.29,3.85-.58c1.24-.29,2.69-.8,3.2-1.02.51-.29,1.38-.87,1.82-1.24.51-.44,1.24-1.38,1.53-2.11.65-1.24.65-1.31.29-2.69-.22-.73-.36-1.74-.36-2.33,0-.65.14-1.09.65-1.53.51-.51.8-.65,2.25-.65.94,0,1.96.15,2.33.36.36.14.8.58,1.02.94.22.36.36,1.31.36,2.03,0,1.09-.14,1.53-.58,1.96-.36.44-1.24.87-2.03,1.09-1.24.36-1.6.58-2.18,1.45-.36.58-1.31,1.67-2.11,2.47-1.02,1.02-1.82,1.53-2.91,1.96-.87.29-2.47.8-3.71,1.02-1.16.29-2.91.51-3.85.51-1.02,0-1.96-.15-2.69-.51-.58-.22-1.38-.8-1.67-1.31-.36-.44-.87-1.45-1.02-2.18l-.73-2.83c-.15-.73-.44-1.53-.58-1.67-.15-.14-.94-.44-1.82-.8-1.16-.36-1.53-.73-1.89-1.38-.22-.51-.29-1.09-.22-1.67.15-.51.44-1.09.73-1.45.36-.29,1.24-.73,1.96-1.02,1.31-.51,1.53-.73,2.32-2.18.51-.87,1.31-2.03,1.82-2.62.51-.44,1.45-1.09,1.96-1.38.58-.29,2.25-1.02,3.78-1.6,1.53-.51,3.63-1.16,4.58-1.31,1.02-.22,3.34-.36,5.23-.36s4.29.07,5.23.22Z"/>
      <path class="cls-1" d="M77.55,92.7c-1.27,0-2.8-.13-3.49-.31-.7-.26-1.66-.81-2.24-1.39-.92-.92-1.31-1.71-1.9-3.82-.39-1.04-.92-2.49-1.1-2.74-.1-.1-.66-.42-1.15-.54-.6-.15-1.47-.55-1.88-.96-.67-.56-.76-1.3-.76-1.81,0-.57.23-1.5.61-2.08.35-.53,1.46-1.54,2.41-2.2.9-.7,2.2-1.55,2.89-1.81.58-.29,1.62-.55,2.32-.55.8,0,1.47.13,2.1.76.49.4.83,1.13.83,1.81,0,.49-.15,1.17-.35,1.57-.3.46-1.29,1.1-2.08,1.5-.98.45-1.53.97-1.71,1.29-.28.49-.43.96-.43,1.16.01.21.32,1.58.84,3.15.65,2.16,1.05,2.85,1.53,3.33q.61.55,3.56.62c2.28.07,3.76,0,5.12-.28,1.07-.21,2.92-.81,3.92-1.14,1.1-.44,2.56-1.07,3.22-1.47.73-.4,2.09-1.32,3.04-2.12l3.35-2.77c.91-.7,2.19-1.98,2.81-2.8l.23-.28c.71-.87,1.77-2.17,2.57-3.04.8-.95,2.75-3.55,4.23-5.74,1.52-2.32,3.11-4.84,3.53-5.62.42-.77,1.15-2.38,1.65-3.51.43-1.12.9-2.44.97-3.65.15-1.17.46-2.33.64-2.7l.06-.09c.37-.5,1.8-1.58,2.08-1.79.91-.63,1.65-1.45,1.96-1.95.24-.48.58-1.53.72-2.2.13-.93.12-1.48-.05-1.92-.14-.43-.24-.62-1.11-.96-.82-.31-1.56-.4-3.63-.4-2.31.07-3.21.22-6.38,1.07-2.3.63-3.92,1.21-4.17,1.36l-.13.07c-.16.06-.57.47-.95,1.07-.31.54-.9,1.22-1.32,1.63-.52.44-1.21.71-2.21.89-1.04.09-1.66,0-2.34-.34-.29-.17-1.18-.71-1.45-1.41-.19-.47-.33-1.49-.33-2.33,0-.88.21-1.94.5-2.52.17-.44.61-.89.93-1.1l.14-.07c.33-.11,1-.18,1.42-.18.56,0,1.66.32,2.45.72.68.34,1.61.59,1.98.59s2.25-.43,4.49-1.07c2.9-.8,4.32-1.04,6.61-1.11,2.14-.15,3.3-.07,4.75.31q1.52.32,1.99,0c.25-.2.52-.61.55-.74.11-.29.2-.95.2-1.67.09-1,.28-1.59.64-2.05l.11-.11c.41-.31,1.25-.62,1.88-.7.62-.13,1.12-.37,1.38-.55.24-.35,1.02-1.66,1.63-3.02.95-1.9,2.14-3.82,3.2-5.14.96-1.23,2.24-2.75,2.73-3.25.25-.36.88-.92,1.82-1.59.45-.34,1.39-.86,2.38-1.4l.94-.52c1.75-.87,2.8-1.24,3.56-1.24.64,0,2.18.22,3.43.44,1.33.15,2.66.44,2.94.53.38.13.83.55.97,1.12.21.59.07,1.26-.33,1.58-.39.36-1.07.58-1.84.58-.67,0-1.89-.3-2.85-.7-.75-.34-1.83-.61-2.24-.61-.6,0-1.83.6-3.06,1.24-1.32.69-2.8,1.75-3.37,2.24-.44.45-1.6,1.82-2.9,3.48-1.07,1.35-2.13,3.05-2.48,3.75-.19.53-.57,1.24-.91,1.86-.15.27-.29.53-.4.75l-1.24,2.34c-.38.82-.42,1.06-.3,1.72.12.53.42.98.66,1.17.17.1,1.19.44,2.29.68,1.49.34,2.43.36,6.74.13,2.89-.13,5.54-.39,7.26-.72l2.95-.72c.12-.05.48-.38.76-.74l.24-.31c.32-.42.77-1,1.19-1.41.87-.87,1.31-1.12,2.53-1.12.69,0,1.67.15,2.23.43.46.28,1.02.79,1.23,1.33.27.43.41,1.46.41,2.26s-.22,1.78-.49,2.28c-.19.51-.61.99-1.01,1.16-.47.26-1.37.28-1.64.28-.76,0-2.26-.58-2.55-.7-1.05-.49-1.53-.6-2.27-.54l-3.5.65c-2,.4-4.17.6-8.01.74-5.12.14-5.75.08-7.8-.46-1.87-.43-1.98-.38-2.44-.18-.28.17-.62.52-.69.73l-.13.33c-.16.38-.4.96-.51,1.37-.11.31-.61,1.59-1.17,2.44l-.07.12c-.33.6-.84,1.51-1.02,2.06l-.94,2.9c-.39,1.33-.87,2.27-1.45,2.85-.44.37-1.33.98-2,1.17-.5.13-1.06.43-1.27.65-.1.15-.74,1.32-1.25,2.63l-1.83,3.82c-.55.96-2.1,3.37-3.46,5.38-1.45,2.13-3.64,5-4.6,6.21l-3.14,3.72c-.65.73-2.03,1.94-3,2.7-1.08.77-2.7,2.25-3.24,2.73-.93.79-2.34,1.67-3.99,2.49-1.31.58-3.3,1.4-4.44,1.78-1.18.37-2.88.73-4.07.96l-.3.03c-1.04.08-2.79.2-3.96.2ZM73.26,75.7c-.51,0-1.37.21-1.84.44-.54.21-1.71.95-2.67,1.68-.98.68-1.9,1.57-2.12,1.89-.21.32-.41.99-.41,1.41,0,.45.1.7.37.92.23.23.85.55,1.36.68.62.15,1.4.55,1.73.88.27.27.55.96,1.37,3.17.59,2.11.9,2.66,1.62,3.37.44.44,1.24.9,1.75,1.1.46.11,1.87.25,3.13.25,1.13,0,2.85-.12,3.87-.2l.22-.02c1.08-.22,2.75-.57,3.86-.92,1.06-.35,3.02-1.15,4.3-1.72,1.52-.76,2.88-1.6,3.71-2.31.93-.85,2.31-2.08,3.31-2.79,1.01-.8,2.28-1.94,2.81-2.52l3.11-3.69c.94-1.19,3.11-4.02,4.54-6.13,1.35-1.99,2.87-4.37,3.39-5.27l1.79-3.74c.5-1.28,1.18-2.58,1.44-2.93.44-.45,1.2-.86,1.86-1.02.38-.11,1.1-.56,1.51-.9.39-.4.78-1.19,1.12-2.32l.95-2.92c.22-.66.74-1.59,1.12-2.27l.09-.17c.41-.62.82-1.55,1.05-2.17.1-.44.36-1.04.54-1.48l.12-.28c.19-.57.8-1.1,1.27-1.38.92-.41,1.4-.36,3.28.07,1.89.49,2.35.57,7.48.42,4.3-.15,6.18-.39,7.82-.72l3.57-.66c1.02-.09,1.69.06,2.91.63.84.33,1.75.6,2.07.6.5,0,.95-.08,1.06-.13l.12-.06s.26-.23.35-.49l.05-.12c.14-.24.35-1.06.35-1.73,0-.82-.16-1.53-.28-1.73-.13-.3-.46-.64-.74-.81-.29-.14-1.06-.28-1.65-.28-.84,0-.98.07-1.68.77-.36.36-.78.9-1.08,1.3l-.25.32c-.21.26-.76.9-1.34,1.13l-3.06.75c-1.8.34-4.51.61-7.46.74-4.2.22-5.35.23-7.06-.16-.97-.21-2.25-.59-2.72-.87-.57-.45-.98-1.16-1.15-1.91-.18-.99-.06-1.49.4-2.49l1.25-2.36c.11-.22.26-.49.41-.78.32-.59.68-1.26.86-1.76.4-.81,1.52-2.6,2.64-4.02,1.06-1.34,2.41-3,3.03-3.61.62-.54,2.17-1.66,3.63-2.43,1.95-1.02,2.9-1.38,3.62-1.38.63,0,1.88.32,2.72.71.85.36,1.92.6,2.37.6.63,0,.96-.19,1.03-.26l.09-.08s-.03-.09-.08-.22l-.03-.11c-.03-.14-.15-.26-.19-.28-.15-.05-1.42-.34-2.7-.48h-.04c-1.38-.25-2.77-.43-3.24-.43-.54,0-1.52.36-3,1.1-.28.16-.6.33-.93.51-.91.5-1.85,1.02-2.25,1.32-1.1.79-1.48,1.21-1.62,1.39-.47.49-1.69,1.92-2.7,3.22-1.01,1.27-2.16,3.1-3.06,4.91-.64,1.43-1.53,2.93-1.8,3.29l-.1.11c-.46.37-1.21.69-2,.85-.49.06-1.05.28-1.29.43-.17.26-.27.65-.33,1.29,0,.58-.07,1.5-.26,1.98-.1.4-.58,1.02-.98,1.34-.92.62-1.23.55-2.97.19-1.36-.36-2.38-.42-4.41-.28-2.2.07-3.56.3-6.35,1.07-1.44.41-4.08,1.11-4.81,1.11-.61,0-1.71-.31-2.52-.72-.71-.36-1.62-.59-1.91-.59-.36,0-.78.06-.97.1-.15.12-.36.36-.43.54-.2.4-.39,1.27-.39,2.03s.15,1.63.25,1.88c.06.14.38.5.9.79.45.22.84.28,1.61.21.71-.13,1.24-.33,1.55-.59.34-.34.86-.94,1.1-1.36.19-.31.81-1.24,1.47-1.54.65-.39,3.18-1.14,4.48-1.5,3.26-.87,4.26-1.04,6.68-1.11h.01c2,0,3.01.07,4.07.48,1.08.42,1.52.82,1.81,1.68.27.73.24,1.54.1,2.53-.16.81-.54,1.95-.86,2.58-.42.67-1.27,1.62-2.3,2.33-.89.67-1.58,1.27-1.79,1.5-.11.27-.36,1.2-.5,2.23-.08,1.32-.58,2.76-1.05,3.99-.54,1.24-1.26,2.82-1.7,3.63-.44.8-2.05,3.36-3.58,5.71-1.51,2.23-3.49,4.88-4.33,5.87-.79.86-1.84,2.15-2.54,3l-.21.26c-.67.89-2.02,2.25-3,3l-3.33,2.75c-.91.77-2.33,1.76-3.22,2.24-.89.54-2.83,1.33-3.41,1.56-1.29.43-3.02.98-4.1,1.19-1.46.29-3.02.38-5.37.3-3.16-.07-3.42-.08-4.38-.95-.75-.74-1.21-1.71-1.84-3.83-.47-1.4-.9-3.08-.9-3.51,0-.67.45-1.51.59-1.75.36-.63,1.19-1.29,2.23-1.77.79-.4,1.46-.9,1.58-1.04.06-.13.18-.62.18-.96,0-.28-.15-.68-.44-.92-.32-.32-.57-.44-1.29-.44ZM104.65,34.86c-1.2,0-2.2-.19-2.96-.57-.61-.22-1.5-.86-1.9-1.5-.41-.52-.95-1.59-1.11-2.41l-.72-2.8c-.12-.62-.33-1.19-.43-1.39-.17-.09-.59-.26-.94-.4l-.67-.27c-1.29-.4-1.75-.87-2.18-1.64-.28-.65-.38-1.34-.29-2.04.19-.68.52-1.33.85-1.75l.09-.09c.45-.36,1.41-.83,2.11-1.11,1.17-.45,1.28-.56,2.02-1.91.55-.95,1.38-2.13,1.89-2.72.62-.54,1.6-1.21,2.12-1.51.67-.34,2.4-1.08,3.86-1.64.82-.28,3.52-1.16,4.7-1.34,1.11-.24,3.58-.37,5.32-.37,1.86,0,4.31.07,5.32.22h.02s4.07.8,4.07.8l6.55,1.46c3.44.79,4.93,1.08,8.18,1.22,3.29.15,4.53.4,5.55.76l3.24,1.47c1.02.51,2.49.99,3.38,1.2.9.21,2.46.35,3.35.35,1.38,0,1.88-.13,2.87-.6.57-.25,1.91-1.3,2.81-2.21l2.69-2.62c.45-.53,1.31-1.16,1.82-1.42.66-.28,1.71-.43,2.38-.43.15,0,1.42.01,1.97.49.26.19.69.6.89,1,.22.44.35,1.69.35,2.59,0,1.36-.06,1.99-.63,2.76-.56.66-1.08.89-1.93.89-.71-.08-1.8-.39-2.68-.87-.66-.4-1.57-.65-1.89-.65-.37,0-.84.21-2,1.23-.45.38-1.98,1.64-2.91,2.06-1.14.49-1.9.56-3.95.56-1.57,0-3.38-.23-4.35-.45-.88-.29-2.68-.96-3.97-1.57-1.3-.65-2.63-1.23-3.09-1.34-.51-.13-2.67-.34-4.91-.49-2.88-.15-4.79-.39-6.57-.81l-6.61-1.6q-4.07-.93-9.6-.93h-5.5l-2.31.77c-1.32.42-3.11,1.13-4.08,1.57-.87.36-1.94,1.05-2.3,1.4-.46.39-1.07,1.27-1.42,1.9-.5,1-.58,1.33-.65,4.01,0,1.96.13,3.61.43,5.48.28,1.41.78,2.89.96,3.24.19.28.68.71,1.04.89.29.09,1.31.23,2.13.23s2.45-.29,3.72-.57c1.23-.29,2.64-.79,3.09-.98.42-.25,1.26-.81,1.67-1.14.43-.37,1.1-1.23,1.35-1.87q.58-1.11.27-2.31c-.22-.72-.38-1.79-.38-2.48,0-.88.25-1.46.86-1.98.64-.64,1.14-.8,2.64-.8.7,0,2.04.09,2.63.45.45.17.97.73,1.22,1.15.33.55.45,1.7.45,2.34,0,1.06-.12,1.75-.76,2.39-.48.58-1.55,1.04-2.3,1.25-1.13.33-1.35.48-1.84,1.21-.41.66-1.43,1.81-2.18,2.56-1.02,1.02-1.89,1.61-3.11,2.09-1.11.37-2.64.84-3.82,1.05-1.12.28-2.92.52-3.96.52ZM95.19,20.89c-.23.3-.46.78-.58,1.19-.04.39.02.86.19,1.27.26.46.5.72,1.52,1.05l.71.29c.82.33,1.16.47,1.35.66.36.36.67,1.58.75,1.98l.72,2.8c.13.65.59,1.58.9,1.95l.06.09c.2.35.86.86,1.36,1.04.65.32,1.46.47,2.48.47.84,0,2.53-.2,3.71-.49.92-.16,2.17-.51,3.66-1,1.03-.41,1.76-.91,2.67-1.82.81-.81,1.7-1.85,2.02-2.37.69-1.04,1.21-1.32,2.52-1.71.74-.2,1.48-.59,1.74-.9.31-.32.44-.56.44-1.58,0-.77-.17-1.54-.28-1.72-.17-.28-.51-.61-.72-.7-.28-.16-1.1-.32-2.1-.32-1.35,0-1.47.12-1.83.48-.37.32-.48.57-.48,1.1,0,.49.13,1.46.34,2.15.41,1.55.38,1.78-.33,3.14-.31.78-1.11,1.81-1.67,2.28-.47.39-1.38,1-1.91,1.3-.56.24-2.03.77-3.36,1.08-1.24.28-3.02.6-3.99.6-.9,0-2.06-.14-2.59-.32-.62-.3-1.28-.89-1.62-1.4-.29-.56-.81-2.16-1.11-3.63-.31-1.96-.45-3.67-.45-5.71.07-2.67.14-3.25.79-4.55.41-.73,1.09-1.73,1.67-2.22.48-.48,1.7-1.24,2.63-1.62.98-.45,2.83-1.19,4.19-1.62l2.58-.83h5.59q5.66,0,9.87.96l6.62,1.6c1.72.41,3.5.63,6.36.78,2.05.14,4.46.36,5.13.53.74.18,2.43.98,3.32,1.43,1.23.58,2.97,1.23,3.77,1.49.85.19,2.54.41,4.02.41,2.01,0,2.57-.07,3.47-.46.5-.22,1.55-.97,2.61-1.87,1.29-1.14,1.99-1.52,2.79-1.52.55,0,1.68.33,2.49.81.69.37,1.63.65,2.16.72.43,0,.61-.09.92-.45.29-.38.37-.64.37-2.01,0-.96-.15-1.88-.23-2.06-.08-.17-.36-.46-.52-.56l-.09-.08c-.09-.06-.58-.19-1.17-.19s-1.47.14-1.87.32c-.32.16-1.06.69-1.45,1.15l-2.73,2.65c-.9.9-2.36,2.09-3.15,2.44-1.13.53-1.78.71-3.37.71-.95,0-2.61-.14-3.62-.38-.95-.22-2.54-.74-3.62-1.28l-3.18-1.44c-.87-.31-2.01-.53-5.16-.67-3.33-.15-4.95-.46-8.39-1.25l-6.54-1.45-4.04-.79c-.92-.14-3.27-.21-5.13-.21s-4.19.15-5.11.35c-.9.14-2.91.76-4.51,1.29-1.54.58-3.17,1.3-3.7,1.57-.43.25-1.35.88-1.84,1.3-.4.47-1.19,1.6-1.69,2.46-.87,1.58-1.19,1.88-2.62,2.44-.68.27-1.43.65-1.75.89Z"/>
    </g>
    <path class="cls-1" d="M127.53,75.9c0-8.39,11.5-10.3,16.08-11.17v-1.85c0-5.23-2.51-7.52-5.99-7.52-3.81,0-6.81,2.72-6.81,6.92,0,.93.16,2.07.49,3.16h-.33l-2.83-7.08c1.58-1.8,4.52-4.31,10.24-4.31s8.5,2.51,8.5,8.17v15.15c0,2.18.33,2.94,1.8,2.94.54,0,1.09-.11,1.69-.16v.55l-6.27,1.74h-.49v-6.49c-.6,1.91-3.54,7.08-9.1,7.08-4.09,0-6.98-2.83-6.98-7.14ZM135.76,81.08c3.87,0,6.76-4.03,7.85-6.65v-8.77c-3.11.76-12.53,2.45-12.53,9.7,0,3.05,1.47,5.72,4.69,5.72Z"/>
    <path class="cls-1" d="M153.25,67.4c0-6.54,3.92-13.35,10.63-13.35,3.65,0,5.94,2.07,7.47,4.09v-13.9c0-3.38-.71-3.81-3.54-3.38v-.54l6.16-1.47h.65v43.6h-3.27c-13.24-.11-18.09-8.01-18.09-15.04ZM171.34,81.52v-21.91c-1.47-1.74-3.87-3.71-6.7-3.71-4.52,0-8.01,4.63-8.01,11.01,0,7.36,4.74,14.01,14.71,14.6Z"/>
    <path class="cls-1" d="M194.61,80.97c4.14,0,7.96-2.73,10.03-8.12h.33c-1.74,5.72-5.83,10.19-12.04,10.19-7.9,0-12.48-6.98-12.48-14.28,0-8.12,5.78-14.71,12.7-14.71,5.78,0,10.19,4.47,10.19,11.77v1.03h-20v.05c0,7.79,4.9,14.06,11.28,14.06ZM199.84,65.39c0-5.56-2.56-9.54-7.3-9.54-5.23,0-8.61,4.09-9.16,9.54h16.46Z"/>
    <path class="cls-1" d="M207.74,79.12l3.11-7.79h.27c-.38,1.25-.6,2.45-.6,3.54,0,4.09,2.62,6.48,7.41,6.48,4.52,0,7.47-2.62,7.47-5.61,0-3.21-3.38-4.47-9.21-6.1-4.85-1.36-7.25-3.71-7.25-7.74,0-4.9,3.98-7.85,8.83-7.85,4.09,0,6.76,1.91,8.23,3.6l-2.62,6.21h-.33c.27-.93.44-1.8.44-2.62,0-3.43-2.56-5.5-6.32-5.5-3.43,0-6.43,1.91-6.43,5.07,0,2.56,2.02,3.87,6.98,5.23,5.01,1.36,9.16,2.45,9.16,8.07,0,6.1-4.52,8.94-9.37,8.94-5.23,0-8.45-2.56-9.76-3.92Z"/>
  </g>
  <g>
    <path class="cls-1" d="M78.91,108.41c0,.81-1.3,1.15-1.94,2-.29.38.03.92.35.93.69.02.43-.72,1.13-1.1,1.32-.73,9.66.6,9.66-1.21s-4.83-5.13-16.91-5.13-24.16,4.53-33.22,7.85c-9.06,3.32-19.63,6.95-23.56,7.85s-4.53.6-4.83.3,2.11-3.02,2.72-4.53.75-3.72,1.21-4.9c.46-1.18,1.34-2.56.82-2.95-.51-.39-3.03,1.97-3.44,2.74s.1,1.03-.72,2.83c-.82,1.8-1.49,2.98-3.03,4.93-1.54,1.95-5.55,4.11-5.5,4.78.05.67,3.08,1.18,8.64,0,5.55-1.18,16.09-5.71,28.22-9.97,12.13-4.27,24.01-6.73,31.15-6.73s9.25,1.13,9.25,2.31Z"/>
    <path class="cls-1" d="M2.52,120.43c.64.25,2.91-7.66,8.04-12.06s8.04-5.56,11.55-5.6,3.85,1.97,4.79,2.01c.94.04,2.27-1.67,2.18-2.91-.09-1.24-1.5-2.91-4.66-2.91s-9.67,2.22-14.2,7.06c-4.53,4.83-8.81,13.99-7.7,14.42Z"/>
    <path class="cls-1" d="M6.37,108.25c.06-.97-.74.17-.52-1.26.23-1.43,2.29-5.09,4.86-7.78,2.58-2.69,5.61-4.24,6.81-4.41s1.66.29,1.89,0c.23-.29.46-1.72-.74-3.32-1.2-1.6-2.48-2.4-2.95-2-.48.4.23.36-.43,1.41-.66,1.04-5.44,7.98-6.25,7.63s2.27-4.78,1.62-11.07c-.66-6.28-3.62-8.21-6.48-8.1-2.85.12-3.49,1.31-3.71,2.7s.16,1.85.36,1.85.08-1.47,2.51-1.31c2.43.15,4.47,4.67,4.16,9.21-.31,4.55-1.16,7.79-2.04,9.14s-1.08.62-1.58,1.35c-.5.73-2.93,7.33-3.47,10.26-.54,2.93-.56,9.05.07,9.15,1.19.2,1.37-5.15,2.58-8.41,1.2-3.26,3.26-4.06,3.32-5.04Z"/>
    <path class="cls-1" d="M18.46,95.82c-1.08.21-3.93,1.44-6.73,4.34-2.8,2.9-5.71,6.91-4.76,7.43.51.28,2.83-3.69,6.53-6.45,2.96-2.2,4.19-1.99,5.32-2.18s1.47-1.19,1.39-1.88c-.08-.69-.67-1.47-1.75-1.26Z"/>
    <path class="cls-1" d="M4.56,100.06c.64,0,1.9-4.96,1.9-8.3s-1.29-7.04-2.78-7.9c-1.18-.67-2.08.42-2.03,1.01.2,2.24,2.38,1.37,3,7.25.57,5.33-.79,7.95-.1,7.94Z"/>
    <path class="cls-1" d="M245.5,108c-.12-.27-.38-.45-.67-.42l-1.64.16c-.44.04-.73.49-.59.9.2.56.65,1.26,1.65,1.59,1.81.6,11.78.3,11.78,2.11s-37.45,5.44-96.04,5.38c-58.59.05-96.04-3.57-96.04-5.38s9.97-1.51,11.78-2.11c1-.33,1.45-1.03,1.65-1.59.15-.41-.15-.86-.59-.9l-1.64-.16c-.29-.03-.54.15-.67.42-1.27,2.71-21.71-1.15-21.71,3.44,0,3.62,18.72,8.75,107.21,8.75s107.21-5.13,107.21-8.75c0-4.59-20.44-.73-21.71-3.44Z"/>
    <path class="cls-1" d="M312.85,118.02c-1.54-1.95-2.21-3.14-3.03-4.93-.82-1.8-.31-2.06-.72-2.83-.41-.77-2.93-3.14-3.44-2.74-.51.39.36,1.77.82,2.95.46,1.18.6,3.39,1.21,4.9s3.02,4.23,2.72,4.53-.91.6-4.83-.3-14.5-4.53-23.56-7.85c-9.06-3.32-21.14-7.85-33.22-7.85s-16.91,3.32-16.91,5.13,8.34.48,9.66,1.21c.7.39.44,1.12,1.13,1.1.32,0,.64-.54.35-.93-.64-.85-1.94-1.2-1.94-2,0-1.18,2.11-2.31,9.25-2.31s19.02,2.47,31.15,6.73c12.13,4.27,22.67,8.79,28.22,9.97,5.55,1.18,8.58.67,8.64,0,.05-.67-3.96-2.83-5.5-4.78Z"/>
    <path class="cls-1" d="M293.1,104.78c.94-.04,1.28-2.05,4.79-2.01s6.42,1.2,11.55,5.6c5.13,4.41,7.4,12.31,8.04,12.06,1.11-.43-3.17-9.58-7.7-14.42-4.53-4.83-11.04-7.06-14.2-7.06s-4.58,1.67-4.66,2.91c-.09,1.24,1.24,2.95,2.18,2.91Z"/>
    <path class="cls-1" d="M316.13,102.29c-.5-.73-.69,0-1.58-1.35s-1.73-4.59-2.04-9.14c-.31-4.55,1.73-9.06,4.16-9.21,2.43-.15,2.31,1.31,2.51,1.31s.58-.46.36-1.85-.86-2.58-3.71-2.7c-2.85-.12-5.82,1.81-6.48,8.1-.66,6.28,2.43,10.72,1.62,11.07s-5.59-6.59-6.25-7.63c-.66-1.04.05-1-.43-1.41-.48-.4-1.75.4-2.95,2-1.2,1.6-.97,3.03-.74,3.32.23.29.69-.17,1.89,0,1.2.17,4.24,1.72,6.81,4.41,2.58,2.69,4.64,6.35,4.86,7.78.23,1.43-.57.29-.52,1.26s2.12,1.77,3.32,5.04c1.2,3.26,1.39,8.61,2.58,8.41.63-.1.61-6.22.07-9.15-.54-2.93-2.97-9.52-3.47-10.26Z"/>
    <path class="cls-1" d="M301.54,95.82c-1.08-.21-1.67.57-1.75,1.26-.08.69.26,1.7,1.39,1.88s2.36-.03,5.32,2.18c3.7,2.76,6.02,6.73,6.53,6.45.95-.51-1.95-4.52-4.76-7.43-2.8-2.9-5.65-4.14-6.73-4.34Z"/>
    <path class="cls-1" d="M318.35,84.87c.05-.59-.85-1.69-2.03-1.01-1.49.86-2.78,4.56-2.78,7.9s1.26,8.3,1.9,8.3c.69,0-.66-2.62-.1-7.94.63-5.88,2.8-5.01,3-7.25Z"/>
  </g>
  <g>
    <path class="cls-1" d="M304.45,51.49c.18.46,1.02.51,1.43.18.93-.75.23-2.37,1.3-2.47s2.79,2.09,5.77,14.84c2.98,12.75,1.65,13.81,2.63,13.79.54-.01,1.19-5.52-2.79-21.56-3.12-12.59-6.75-17.49-8.4-16.52-1.64.98,1.28,10.07.84,10.66-.44.59-1.02.51-.79,1.08Z"/>
    <path class="cls-1" d="M233.7,3.71c1.96.17,7.73.62,8.26.62s2.11-1.03,1.9-1.23c-.44-.44-8.33-.66-8.52-1.23s.47-.32,1.14-.44c.66-.13.89-.41.95-.73.06-.32-.2-.73-.86-.69-.52.03-.56.57-1.16.87s-2.09.1-3.11,0-3.67.13-3.77,1.11c-.09.98,3.2,1.55,5.16,1.73Z"/>
    <path class="cls-1" d="M240.92,7.52c.5,3.1,19.48,1.68,26.76,2.97,7.27,1.29,12.98,4.22,13.18,4.6.28.53-.59.11-.83.25-.39.21-.17.59-.05.64.48.21.77-.18,1.45,0,.68.18,3.44,2.39,4.1,2.55s3.73.95,3.99-.21c.26-1.16-3.49-4.91-9.48-7.75-5.99-2.84-16.23-4.96-19.77-5.49s-6.2-.76-7.35-.71c-1.16.05-3.2.89-3.07,1.18.13.29,4.96.21,9.27.84,4.31.63,8.35,1.55,8.22,2.02s-15.55-.76-17.36-1.05c-1.81-.29-2.55-.6-2.55-1.05s2.89-2.49,7.77-3.28c4.88-.79,10.45-.63,12.55-.45.21-.13,1.52-.95,1.39-1.18s-6.36-.93-11.6-.74c-7.09.25-17.13,3.76-16.63,6.86Z"/>
    <path class="cls-1" d="M290.69,14.92c-.38.96,4.82,3.64,6.27,2.84,1.24-.69-.96-4.37-5.26-7.17-4.3-2.8-14.98-7.17-16.51-7.26-1.53-.1-2.53.57-2.12,1.08s5.81,1,11.77,4.07c5.95,3.06,8.54,5.95,8.2,6.65-.33.69-1.96-1.15-2.34-.19Z"/>
    <path class="cls-1" d="M268.7,3.14c-.04.57.51.85,1.43,1.08.92.23,2.23.07,2.19-.21-.04-.32-.43-.2-.45-.53-.02-.33.68-.96,3.27-1.17s9.25.6,13.68,3.14c4.43,2.54,7.56,5.77,8.19,7.57.63,1.8.55,2.87,1.5,3.71.95.84,2.93.47,3.14.21.21-.27-.65-1.59-.28-2.68.36-1.09,1.75-2.21,3.46-2.24,1.7-.03,1.64,1.01,2.27.93.63-.08,2.04-2.02,2.63-2.97.6-.95,1.61-2.52,1.61-4.94s-1.66-3.93-2.93-4.43c-1.28-.5-2.4.14-2.41.46-.02.32.35.25.73.36.38.11,1.03.68,1.03,2.07s-1.26,3.82-5.11,3.82-5.6-.84-7.89-1.7c-2.29-.87-6.94-2.67-7.28-2.91s.05-.85-.11-1.03c-.16-.17-2.48-1.39-9.34-1.28-6.85.11-9.27,2.18-9.31,2.75Z"/>
    <path class="cls-1" d="M302.11,6.2c3.52,0,4.43-1.55,4.56-2.38.15-.97-.2-2.06-1.29-1.85-.54.11-.27.89-1.32,1.53-1.13.69-5.02.63-8.93-.2-4.1-.86-6.72-1.91-6.77-1.33-.03.39,10.23,4.23,13.74,4.23Z"/>
    <path class="cls-1" d="M314.57,51.7c.74-.36-.02-8.29-3.61-17.25s-8.79-13.37-10.12-12.93c-.72.24-.21,1.69.39,2.97.75,1.57,1.01,1.46,1.12,2.13.07.39,0,.61.09,1.03.14.56.71.69.95.44.3-.32.05-.83.5-.93.46-.1,3.31,3.39,6.25,10.11,2.94,6.72,3.88,14.69,4.43,14.42Z"/>
    <path class="cls-1" d="M315.55,4c-1.2,1.39-5.27,6.29-5.02,6.6.26.33,6.48-4.08,7.59-4.95s2.08-2.28,1.1-3.15c-.97-.87-2.46.1-3.67,1.5Z"/>
    <path class="cls-1" d="M311.75,7.53c.28-.1,1.28-1.67,2.31-2.92,1.03-1.26,2.9-2.63,2.53-3.08-.23-.27-4.79.18-5.02.54s.49.77.67,2.28c.18,1.51-.86,3.32-.49,3.18Z"/>
    <path class="cls-1" d="M318.25,6.68c-1.52,1.08-5.31,3.21-4.99,3.47.23.19,2.53-.21,3.75.37,1.22.59,1.4,1.14,1.7.99l.31-.16s.41-.97.49-2.85c.08-1.88-.12-2.41-.45-2.41-.33,0-.53.38-.81.59Z"/>
    <path class="cls-1" d="M319.36,13.55c-.91-1.38-3.53-2.59-6.36-2.59s-4.76,2.13-4.99,2.71.44,1.92,0,3.22c-.44,1.29-2.19,2.56-3.06,2.62-.87.06-1.61-1.06-2.16-.68-.55.38.14,2.11.68,2.84.54.73,1.86,1.77,2.59,2.08.73.32,1.14-.13,1.59.13s2.14,1.55,4.51,7.48c2.37,5.93,3.5,11.2,3.59,15.3.09,4.1-.5,6.37-.93,6.37s-.21-.95-.62-.69c-.41.25.16,3.53,1.29,3.6,1.14.06,2.05-4.58,2.05-9.59s-.56-10.63-.69-10.79c-.13-.17-.34.15-.97-.39-.63-.54-1.12-1.66-1.62-3.11-.5-1.45-1.86-6.63-2.09-9.93-.22-3.3.7-5.12,1.9-6.11,1.28-1.06,3.1-.65,3.55-.35.34.22.73.66.81,1.06.1.54-.1.88.23.91,1.24.12,1.89-2.26.69-4.07Z"/>
    <path class="cls-1" d="M317.2,16.64c-.52-.4-1.74-.57-2.57.21-.83.78-1.37,2.47-1.25,6.57s2.64,11.3,3,11.16-.41-2.64-.68-4.83c-.27-2.2-.54-6.36.44-10.5.23-.96.9-1.28,1.4-1.06.18.08.58-.85-.34-1.54Z"/>
  </g>
  <g>
    <path class="cls-1" d="M78.03,4.33c.54,0,6.3-.44,8.26-.62,1.96-.17,5.26-.74,5.16-1.73-.09-.98-2.75-1.2-3.77-1.11s-2.5.29-3.11,0-.64-.84-1.16-.87c-.66-.04-.93.37-.86.69.06.32.28.6.95.73.66.13,1.33-.13,1.14.44s-8.07.79-8.52,1.23c-.21.21,1.36,1.23,1.9,1.23Z"/>
    <path class="cls-1" d="M52.24,2.59c2.1-.18,7.67-.34,12.55.45,4.88.79,7.77,2.84,7.77,3.28s-.74.76-2.55,1.05c-1.81.29-17.23,1.52-17.36,1.05s3.91-1.39,8.22-2.02c4.31-.63,9.14-.55,9.27-.84.13-.29-1.92-1.13-3.07-1.18-1.16-.05-3.81.18-7.35.71s-13.79,2.65-19.77,5.49c-5.99,2.84-9.74,6.59-9.48,7.75.26,1.16,3.33.37,3.99.21s3.41-2.36,4.1-2.55c.68-.18.97.2,1.45,0,.12-.05.35-.43-.05-.64-.24-.13-1.11.28-.83-.25.2-.37,5.91-3.31,13.18-4.6,7.27-1.29,26.26.13,26.76-2.97.5-3.1-9.54-6.6-16.63-6.86-5.25-.19-11.47.5-11.6.74s1.18,1.05,1.39,1.18Z"/>
    <path class="cls-1" d="M35.16,8.46c5.95-3.06,11.36-3.56,11.77-4.07s-.59-1.17-2.12-1.08c-1.53.1-12.2,4.46-16.51,7.26-4.3,2.8-6.5,6.48-5.26,7.17,1.45.81,6.65-1.88,6.27-2.84-.38-.96-2.01.88-2.34.19-.33-.69,2.25-3.59,8.2-6.65Z"/>
    <path class="cls-1" d="M12.91,12.95c.63.08.57-.96,2.27-.93s3.09,1.15,3.46,2.24c.36,1.09-.49,2.41-.28,2.68.21.27,2.19.63,3.14-.21.95-.84.87-1.91,1.5-3.71.63-1.8,3.75-5.03,8.19-7.57,4.43-2.54,11.09-3.34,13.68-3.14s3.28.84,3.27,1.17c-.02.33-.41.21-.45.53-.03.28,1.27.44,2.19.21.92-.23,1.47-.51,1.43-1.08-.04-.57-2.46-2.65-9.31-2.75-6.85-.11-9.18,1.11-9.34,1.28-.16.17.23.79-.11,1.03s-4.99,2.04-7.28,2.91c-2.29.87-4.04,1.7-7.89,1.7s-5.11-2.43-5.11-3.82.65-1.96,1.03-2.07.74-.05.73-.36-1.14-.96-2.41-.46c-1.28.5-2.93,2.02-2.93,4.43s1.01,3.99,1.61,4.94c.6.95,2,2.89,2.63,2.97Z"/>
    <path class="cls-1" d="M13.33,3.82c.13.83,1.04,2.38,4.56,2.38s13.78-3.83,13.74-4.23c-.05-.57-2.67.47-6.77,1.33-3.91.82-7.8.89-8.93.2-1.05-.64-.77-1.42-1.32-1.53-1.09-.21-1.44.88-1.29,1.85Z"/>
    <path class="cls-1" d="M16.61,28.09c.24.25.81.12.95-.44.1-.42.03-.64.09-1.03.11-.67.38-.56,1.12-2.13.61-1.28,1.12-2.73.39-2.97-1.33-.44-6.52,3.97-10.12,12.93-3.6,8.96-4.35,16.89-3.61,17.25.55.27,1.49-7.7,4.43-14.42,2.94-6.72,5.79-10.21,6.25-10.11.46.1.2.61.5.93Z"/>
    <path class="cls-1" d="M1.89,5.66c1.1.87,7.33,5.28,7.59,4.95.24-.32-3.82-5.21-5.02-6.6C3.25,2.61,1.76,1.63.79,2.5c-.97.87,0,2.28,1.1,3.15Z"/>
    <path class="cls-1" d="M5.94,4.61c1.03,1.26,2.03,2.82,2.31,2.92.38.14-.67-1.67-.49-3.18.18-1.51.9-1.92.67-2.28s-4.8-.81-5.02-.54c-.37.44,1.51,1.82,2.53,3.08Z"/>
    <path class="cls-1" d="M.94,6.09c-.34,0-.53.53-.45,2.41.08,1.88.49,2.85.49,2.85l.31.16c.31.16.48-.4,1.7-.99,1.22-.59,3.52-.18,3.75-.37.32-.27-3.47-2.4-4.99-3.47-.29-.2-.48-.59-.81-.59Z"/>
    <path class="cls-1" d="M4.5,55.94c1.14-.06,1.7-3.34,1.29-3.6-.41-.25-.2.69-.62.69s-1.02-2.27-.93-6.37c.09-4.1,1.22-9.37,3.59-15.3s4.05-7.23,4.51-7.48c.45-.25.86.19,1.59-.13.73-.32,2.05-1.36,2.59-2.08.54-.73,1.23-2.46.68-2.84-.55-.38-1.29.74-2.16.68s-2.62-1.33-3.06-2.62c-.44-1.29.22-2.63,0-3.22s-2.16-2.71-4.99-2.71-5.44,1.2-6.36,2.59c-1.2,1.81-.55,4.19.69,4.07.33-.03.13-.37.23-.91.07-.4.47-.83.81-1.06.45-.3,2.27-.71,3.55.35,1.2,1,2.12,2.81,1.9,6.11-.22,3.3-1.58,8.48-2.09,9.93-.5,1.45-.99,2.57-1.62,3.11-.63.54-.84.22-.97.39-.13.17-.69,5.78-.69,10.79s.92,9.66,2.05,9.59Z"/>
    <path class="cls-1" d="M3.86,19.24c.98,4.14.71,8.3.44,10.5-.27,2.2-1.04,4.69-.68,4.83s2.88-7.06,3-11.16-.42-5.79-1.25-6.57c-.83-.78-2.05-.61-2.57-.21-.92.7-.52,1.62-.34,1.54.5-.22,1.17.1,1.4,1.06Z"/>
    <path class="cls-1" d="M15.55,51.49c-.18.46-1.02.51-1.43.18-.93-.75-.23-2.37-1.3-2.47s-2.79,2.09-5.77,14.84c-2.98,12.75-1.65,13.81-2.63,13.79-.54-.01-1.19-5.52,2.79-21.56,3.12-12.59,6.75-17.49,8.4-16.52,1.64.98-1.28,10.07-.84,10.66.44.59,1.02.51.79,1.08Z"/>
  </g>
</svg>