<?xml version="1.0" encoding="UTF-8"?>
<svg id="Layer_1" data-name="Layer 1" xmlns="http://www.w3.org/2000/svg" viewBox="0 0 320 123.51">
  <defs>
    <style>
      .cls-1 {
        fill: #FFF5E9;
      }
    </style>
  </defs>
  <g>
    <path class="cls-1" d="M115.34,78.46v-16.69c0-2.53-.35-3.44-1.87-3.44-.4,0-.86.1-1.42.15v-.51l5.66-1.37h.66v6.88h.05c.86-3.09,2.98-7.64,6.73-7.64,2.43,0,3.79,1.97,4.45,3.19l-3.34,7.89h-.25c.56-1.87.96-3.49.96-5.16,0-2.28-1.06-3.79-2.68-3.79-3.08,0-5.21,5.66-5.92,10.12v10.37c0,2.38.76,2.78,3.39,3.24v.51h-9.71v-.51c2.53-.46,3.29-.96,3.29-3.24Z"/>
    <path class="cls-1" d="M134.35,78.82v-17.04c0-2.53-.35-3.44-1.87-3.44-.4,0-.86.1-1.42.15v-.51l5.66-1.37h.66v22.25c0,2.38.76,2.38,3.29,2.83v.51h-9.61v-.51c2.53-.46,3.29-.56,3.29-2.88ZM135.47,45.84c1.47,0,2.48,1.11,2.48,2.53s-1.01,2.48-2.48,2.48-2.48-1.06-2.48-2.48,1.01-2.53,2.48-2.53Z"/>
    <path class="cls-1" d="M146.14,78.62v-16.84c0-2.53-.35-3.44-1.87-3.44-.4,0-.86.1-1.42.15v-.51l5.66-1.37h.66v5.61c.86-2.07,3.24-6.37,8.5-6.37,4.05,0,6.73,2.07,6.73,7.69v15.07c0,2.17.86,2.63,3.29,3.09v.51h-9.46v-.51c2.33-.4,3.08-.91,3.08-3.09v-13.81c0-5.46-2.33-7.13-4.96-7.13-3.54,0-6.22,3.59-7.18,6.78v14.16c0,2.17.76,2.63,3.14,3.09v.51h-9.46v-.51c2.53-.46,3.29-.91,3.29-3.09Z"/>
    <path class="cls-1" d="M170.51,69.51c0-7.23,4.8-13.65,11.99-13.65,4.55,0,7.54,2.38,8.7,3.94l-3.49,8.65h-.3c1.92-5.82.25-10.92-5.61-10.92-4.6,0-8.55,2.98-8.55,9.91,0,7.84,4.8,13.4,10.12,13.4,4.45,0,7.59-2.48,9.61-7.54h.3c-1.57,5.16-5.41,9.46-11.28,9.46-7.08,0-11.48-5.97-11.48-13.25Z"/>
    <path class="cls-1" d="M208.69,80.84c3.84,0,7.38-2.53,9.31-7.54h.3c-1.62,5.31-5.41,9.46-11.18,9.46-7.33,0-11.58-6.47-11.58-13.25,0-7.54,5.36-13.65,11.78-13.65,5.36,0,9.46,4.15,9.46,10.92v.96h-18.56v.05c0,7.23,4.55,13.05,10.47,13.05ZM213.55,66.38c0-5.16-2.38-8.85-6.78-8.85-4.85,0-7.99,3.79-8.5,8.85h15.27Z"/>
    <path class="cls-1" d="M220.88,79.12l2.88-7.23h.25c-.35,1.16-.56,2.28-.56,3.29,0,3.79,2.43,6.02,6.88,6.02,4.2,0,6.93-2.43,6.93-5.21,0-2.98-3.14-4.15-8.55-5.66-4.5-1.26-6.73-3.44-6.73-7.18,0-4.55,3.69-7.28,8.19-7.28,3.79,0,6.27,1.77,7.64,3.34l-2.43,5.77h-.3c.25-.86.4-1.67.4-2.43,0-3.19-2.38-5.11-5.87-5.11-3.19,0-5.97,1.77-5.97,4.7,0,2.38,1.87,3.59,6.47,4.86,4.65,1.26,8.5,2.28,8.5,7.48,0,5.66-4.2,8.29-8.7,8.29-4.86,0-7.84-2.38-9.05-3.64Z"/>
    <path class="cls-1" d="M255.58,80.84c3.84,0,7.38-2.53,9.31-7.54h.3c-1.62,5.31-5.41,9.46-11.18,9.46-7.33,0-11.58-6.47-11.58-13.25,0-7.54,5.36-13.65,11.78-13.65,5.36,0,9.46,4.15,9.46,10.92v.96h-18.56v.05c0,7.23,4.55,13.05,10.47,13.05ZM260.43,66.38c0-5.16-2.38-8.85-6.78-8.85-4.85,0-7.99,3.79-8.5,8.85h15.27Z"/>
    <g>
      <path class="cls-1" d="M107.39,29.96c.31.08.62.55.7.86.08.39.08,1.4.08,2.26-.16,1.17-.31,1.64-.94,2.18-.62.7-1.01.78-3.2.94-2.26.08-2.57.23-3.35.94-.47.47-2.18,2.5-3.74,4.52-1.56,2.03-3.43,4.68-4.21,5.77l-2.88,4.13c-.86,1.17-2.34,3.35-3.27,4.91-.94,1.56-2.65,3.98-3.74,5.38-1.17,1.33-2.65,3.51-3.35,4.83-.7,1.25-1.56,2.65-2.03,3.04-.47.39-1.72.94-2.73,1.25-1.01.39-2.11.86-2.34,1.17-.31.23-.62.94-.78,1.56-.16.55-.31,1.4-.31,1.79s.16,1.17.47,1.64c.23.47.78,1.4,1.25,2.03.47.62,1.09,1.4,1.48,1.64s1.64.62,2.73.94c1.17.31,3.12,1.01,4.37,1.64l2.34,1.25h4.99c4.52,0,5.07-.08,6.31-.62.7-.31,2.03-1.25,2.89-2.1.86-.78,1.72-1.79,1.95-2.18.31-.62.39-1.33.23-2.65-.16-1.4-.08-1.95.31-2.73.31-.55.78-1.17,1.17-1.33.47-.23,1.4-.31,2.34-.23,1.48.08,1.71.16,2.57,1.09.86.94.94,1.09.94,2.73,0,1.33-.16,1.87-.55,2.49-.39.47-1.01.78-2.18,1.01l-2.26.39c-.31.08-1.4.94-2.49,2.03-.94,1.01-2.34,2.18-3.04,2.57s-2.03.94-3.04,1.09c-1.09.31-3.12.47-5.07.47-1.79,0-3.9-.16-4.68-.31-.86-.16-2.42-.78-3.59-1.33-1.17-.62-3.12-1.33-4.21-1.64-1.17-.23-2.57-.78-3.04-1.09-.55-.31-1.48-1.4-2.18-2.42-1.17-1.72-1.33-1.87-2.34-1.95-.62-.08-1.33.08-1.72.31-.39.23-.94.94-1.17,1.56-.31.55-1.01,1.4-1.56,1.87-.55.47-1.4.94-1.87,1.01l-3.59.23c-1.64.08-3.27.39-4.44.7-1.09.39-2.81.7-4.6.78-1.79.08-3.12,0-3.82-.23-.55-.16-1.48-.7-1.95-1.17-.55-.39-1.25-1.25-1.56-1.87-.23-.55-.86-1.25-1.25-1.56-.31-.31-1.25-.62-1.95-.7-.78-.08-1.72-.31-2.11-.47-.39-.16-.86-.55-1.01-.94-.23-.39-.39-1.25-.39-1.87,0-.7.23-1.64.47-1.95.31-.39.94-.94,1.4-1.17.55-.16,1.87-.31,3.04-.31,1.64,0,2.49-.23,4.21-.86,1.48-.62,2.73-.94,4.37-1.01,1.72-.08,3.04,0,5.22.39l4.91.86c1.09.23,2.5.47,3.04.7.55.23,1.72,1.25,2.65,2.18,1.56,1.64,1.87,1.79,2.57,1.64.47-.08,1.01-.39,1.25-.7.23-.23.55-1.01.62-1.72.08-.62.47-1.64.78-2.1.39-.55,1.09-1.17,1.64-1.4.47-.23,1.72-.78,2.57-1.09,1.64-.62,1.72-.62,2.96-3.04.7-1.25,2.18-3.43,3.35-4.83,1.09-1.33,3.04-4.05,4.21-5.92,1.17-1.87,2.65-4.13,3.35-4.99l2.73-3.9c.86-1.33,2.73-3.9,4.21-5.77l3.59-4.6c.7-.86,1.01-1.48,1.17-2.73.08-.78.23-1.72.47-2.03.08-.23.62-.7,1.01-.94.47-.23,1.48-.55,2.34-.62.78-.16,1.71-.16,2.1-.08s.94.23,1.17.39ZM47.04,72.45l-2.03.86c-.47.23-1.09.7-1.25,1.09-.16.31-.31,1.48-.31,2.5-.08,1.71.08,2.1.86,3.27.47.78,1.25,1.64,1.79,1.95.7.39,1.4.55,3.12.55,1.56,0,2.96-.31,4.83-.78,1.79-.55,3.59-.78,5.61-.94,1.72-.08,3.12-.31,3.51-.55.31-.16.86-.86,1.17-1.48.31-.55.55-1.33.55-1.64,0-.23-.55-1.17-1.25-1.87-.7-.78-1.72-1.48-2.18-1.64-.47-.16-1.79-.39-2.96-.55l-3.9-.7c-.94-.23-2.81-.39-4.13-.39s-2.88.16-3.43.31ZM100.99,17.72c.7.16,2.96.7,5.15,1.01,2.1.39,4.76,1.01,5.77,1.4,1.09.39,2.57,1.09,3.27,1.56.7.47,1.79,1.33,2.42,2.03.62.62,1.48,1.87,1.95,2.81l1.56,3.82c.7,2.1.86,2.34,2.26,3.35.78.62,1.56,1.33,1.72,1.64.16.31.31,1.17.31,1.95,0,1.25-.08,1.48-1.09,2.42-.55.55-1.4,1.25-1.87,1.48-.62.31-1.17,1.01-2.03,2.65-.7,1.48-1.56,2.57-2.5,3.35-.78.7-2.42,1.79-3.66,2.34-1.25.62-2.88,1.33-3.66,1.56l-3.04.86c-1.4.39-1.72.62-2.5,1.71-.47.7-1.17,1.56-1.56,1.87-.55.55-.94.7-2.18.7s-1.64-.16-2.26-.86c-.7-.7-.86-1.01-.86-2.34,0-.86.23-1.95.47-2.49.23-.55.78-1.09,1.25-1.33.39-.23,1.01-.39,1.4-.39s1.33.31,2.18.7c1.25.55,1.79.62,3.2.55.94-.08,2.26-.31,3.04-.62.78-.23,2.42-.94,3.74-1.56,1.48-.7,2.81-1.56,3.59-2.42.7-.7,1.56-1.87,1.79-2.57.47-1.17.47-1.56.23-2.89-.23-.86-.31-1.95-.31-2.49s.23-1.48.55-2.11c.31-.7.55-1.64.55-2.1s-.31-1.72-.7-2.81c-.31-1.01-.94-2.42-1.25-3.12-.39-.7-.94-1.64-1.33-2.1-.39-.47-1.4-1.4-2.34-2.03-.94-.55-2.49-1.33-3.51-1.64s-3.43-.78-5.3-1.09c-2.5-.39-4.05-.55-5.54-.39l-6.55.55c-2.42.23-5.38.7-6.47,1.01-1.17.23-3.35,1.01-4.99,1.71s-3.74,1.72-4.76,2.26c-.94.47-2.57,1.64-3.74,2.49-1.01.94-2.42,2.11-2.88,2.81-.47.55-1.25,1.71-1.56,2.42-.39.78-.78,1.72-.86,2.18-.08.47-.08,1.48.16,2.34.23,1.33.23,1.87-.16,3.66-.47,1.79-.47,2.34-.16,4.68.16,1.48.55,3.12.78,3.59.31.55.86,1.25,1.25,1.56.47.31,1.33.55,2.34.62.94.08,2.18,0,2.73-.16.7-.23,1.48-.55,1.87-.86.47-.39,1.56-2.34,2.73-4.6,1.09-2.26,2.26-4.76,2.5-5.53.31-.86.55-2.03.55-2.65s-.23-1.72-.55-2.57c-.31-.78-.55-1.72-.55-2.11s.08-.94.23-1.25c.16-.23.7-.7,1.17-.94.39-.23,1.48-.39,2.26-.39.86,0,1.87.08,2.26.23.39.16.86.55,1.09.94.31.39.55,1.33.55,1.95,0,.7-.16,1.56-.39,1.95-.23.39-1.09,1.09-1.95,1.48-.86.47-1.64.94-1.87,1.17-.16.23-.55,1.25-.86,2.26-.39,1.01-1.48,3.66-2.57,5.85-1.09,2.18-2.34,4.37-2.81,4.99-.47.47-1.4,1.17-2.03,1.4-.55.23-1.72.55-2.49.62-.7.16-2.03.08-2.89-.08-.86-.16-1.95-.62-2.49-.94-.62-.39-1.33-1.25-1.64-1.87s-.78-2.26-.94-3.59c-.31-1.33-.62-2.65-.78-2.88-.23-.23-1.01-.7-1.87-1.09-.94-.39-1.64-.94-1.87-1.48-.23-.39-.39-1.25-.39-1.79s.23-1.4.55-1.87c.31-.55,1.09-1.17,2.26-1.64,1.64-.78,1.72-.86,2.88-3.27.62-1.33,1.72-3.12,2.34-3.82.7-.78,2.18-2.11,3.27-2.96,1.17-.94,3.66-2.42,5.61-3.35,1.87-.94,4.37-2.03,5.46-2.42,1.09-.39,2.88-.94,3.98-1.17,1.17-.23,3.43-.55,5.22-.7,2.18-.16,3.43-.47,4.52-.94.86-.39,1.72-.7,1.95-.7s1.01.16,1.64.47Z"/>
      <path class="cls-1" d="M88.99,87.14c-1.72,0-3.91-.15-4.78-.32-.94-.17-2.58-.84-3.7-1.36-1.2-.64-3.14-1.33-4.13-1.61-1.2-.24-2.65-.8-3.18-1.16-.62-.35-1.62-1.54-2.32-2.55-1.14-1.67-1.19-1.68-1.96-1.74-.56-.07-1.14.08-1.42.24-.28.17-.76.77-.96,1.31-.39.69-1.13,1.59-1.7,2.07-.55.47-1.5,1.02-2.12,1.13l-3.64.24c-1.95.09-3.69.51-4.35.68-1.16.42-2.93.72-4.71.8-1.89.08-3.24,0-4-.26-.63-.18-1.64-.79-2.14-1.29-.54-.37-1.29-1.28-1.65-2-.19-.45-.74-1.1-1.11-1.39-.23-.23-1.03-.52-1.69-.6-.81-.08-1.79-.32-2.24-.5-.48-.19-1.07-.67-1.29-1.21-.26-.43-.43-1.4-.43-2.06,0-.72.23-1.8.57-2.25.35-.44,1.03-1.04,1.58-1.32.73-.22,2.13-.36,3.26-.36,1.52,0,2.3-.2,4.04-.83,1.57-.66,2.89-.97,4.51-1.04,1.83-.09,3.23.02,5.33.4l4.91.86c.3.06.61.12.92.19.92.18,1.79.36,2.23.55.67.29,1.93,1.41,2.81,2.29,1.55,1.63,1.71,1.59,2.11,1.5.4-.07.81-.32.96-.51.15-.16.45-.79.53-1.47.09-.68.49-1.77.86-2.33.41-.57,1.17-1.29,1.86-1.59.46-.23,1.72-.78,2.6-1.1q1.55-.59,2.69-2.8c.69-1.23,2.19-3.45,3.41-4.92,1.11-1.35,3.06-4.09,4.17-5.87,1.1-1.76,2.65-4.14,3.39-5.04l2.71-3.87c.87-1.35,2.77-3.96,4.23-5.79l3.58-4.6c.62-.76.92-1.29,1.07-2.48.11-1.09.29-1.84.52-2.21.21-.46.94-.97,1.2-1.12.56-.28,1.62-.61,2.55-.69.78-.16,1.79-.16,2.25-.07.15.03.87.18,1.28.42.51.18.88.79.98,1.19.09.43.09,1.26.09,2.38-.17,1.29-.36,1.9-1.11,2.56-.73.83-1.33.9-3.49,1.06-2.24.08-2.41.23-3.05.81-.43.43-2.14,2.45-3.68,4.46-1.37,1.79-3.01,4.08-3.89,5.32l-3.19,4.56c-.88,1.2-2.33,3.34-3.26,4.88-.94,1.57-2.66,3.99-3.78,5.43-1.22,1.38-2.66,3.54-3.31,4.76-.98,1.75-1.7,2.82-2.15,3.19-.56.46-1.91,1.04-2.9,1.34-1.75.67-2.05.95-2.09,1l-.1.1c-.14.11-.43.61-.59,1.28-.16.54-.3,1.35-.3,1.67s.15,1,.38,1.36c.24.48.77,1.39,1.23,2,.84,1.12,1.2,1.42,1.34,1.51.21.13,1.01.43,2.61.88,1.16.31,3.15,1.02,4.45,1.67l2.24,1.19h4.86c4.49,0,4.95-.07,6.12-.58.62-.28,1.9-1.17,2.73-2,.84-.77,1.67-1.74,1.87-2.09.21-.43.32-.99.17-2.33-.16-1.47-.09-2.12.36-3.01.23-.4.8-1.31,1.43-1.57.5-.25,1.47-.36,2.57-.27,1.54.08,1.92.19,2.9,1.25.97,1.05,1.07,1.34,1.07,3.07,0,1.34-.15,2.01-.62,2.76-.52.63-1.26.99-2.51,1.24l-2.27.39c-.16.07-1.1.77-2.23,1.89-.92,1-2.37,2.22-3.15,2.66-.66.36-2.05.97-3.21,1.15-1,.29-2.95.47-5.14.47ZM68.61,77.39c.14,0,.27,0,.4.02,1.24.09,1.5.43,2.69,2.16.72,1.05,1.59,2.02,2.02,2.26.41.27,1.74.81,2.89,1.04,1.08.31,3.1,1.02,4.35,1.69,1.12.52,2.64,1.13,3.44,1.27.72.14,2.78.3,4.59.3,2.08,0,3.96-.17,4.93-.45.97-.15,2.22-.65,2.94-1.05.61-.34,1.96-1.44,2.92-2.47.8-.81,2.18-2.03,2.74-2.17l2.3-.4c.99-.2,1.56-.45,1.88-.84.29-.46.43-.91.43-2.17,0-1.51-.03-1.55-.8-2.39-.75-.81-.85-.86-2.23-.93-1.02-.08-1.79.04-2.09.18-.22.09-.6.5-.96,1.13-.31.63-.4,1.08-.25,2.43.16,1.39.09,2.19-.28,2.93-.29.49-1.2,1.55-2.06,2.33-.84.83-2.2,1.83-3.02,2.19-1.37.6-2.04.67-6.52.67h-5.11l-2.45-1.31c-1.23-.62-3.14-1.3-4.26-1.59-1.53-.44-2.49-.77-2.86-.99-.37-.22-.89-.78-1.62-1.77-.5-.67-1.06-1.63-1.29-2.1-.35-.52-.52-1.41-.52-1.86s.17-1.37.33-1.93c.15-.59.47-1.41.91-1.78.21-.24.73-.59,2.51-1.28,1.06-.33,2.2-.84,2.59-1.17.33-.28,1.04-1.36,1.91-2.9.67-1.26,2.17-3.51,3.41-4.92,1.08-1.39,2.77-3.77,3.69-5.3.94-1.56,2.42-3.75,3.3-4.95l3.19-4.56c.88-1.24,2.53-3.55,3.91-5.35,1.59-2.07,3.3-4.09,3.79-4.57.91-.82,1.33-1,3.69-1.08,2.18-.16,2.37-.23,2.84-.77.53-.47.66-.79.81-1.92,0-.7,0-1.75-.07-2.1-.04-.18-.25-.44-.34-.47l-.15-.07c-.12-.08-.53-.22-.99-.32-.31-.06-1.17-.07-1.91.08-.82.08-1.77.36-2.21.58-.32.19-.71.55-.77.67l-.06.12c-.09.12-.26.69-.37,1.78-.18,1.43-.57,2.13-1.28,3l-3.58,4.59c-1.44,1.82-3.32,4.39-4.18,5.73l-2.74,3.91c-.73.9-2.25,3.23-3.34,4.97-1.15,1.84-3.09,4.58-4.25,5.98-1.19,1.43-2.64,3.59-3.3,4.76-1.23,2.39-1.41,2.57-3.15,3.23-.91.33-2.15.88-2.6,1.1-.46.2-1.1.75-1.45,1.25-.25.37-.62,1.3-.69,1.88-.08.77-.43,1.67-.77,2.01-.27.37-.93.74-1.52.84-.98.22-1.48-.17-3.02-1.79-1-1-2.07-1.89-2.48-2.07-.35-.15-1.25-.33-2.04-.49-.31-.06-.62-.12-.91-.19l-4.89-.85c-2.06-.37-3.34-.46-5.12-.38-1.52.07-2.7.35-4.2.97-1.72.63-2.65.9-4.4.9-1.13,0-2.41.15-2.9.29-.31.17-.89.67-1.15,1-.12.16-.36.96-.36,1.64,0,.58.15,1.33.32,1.61.13.3.47.61.77.73.32.13,1.21.36,1.97.44.66.07,1.79.38,2.25.85.36.29,1.07,1.04,1.35,1.71.27.54.93,1.33,1.39,1.66.49.48,1.36.97,1.8,1.1.39.13,1.34.32,3.66.21,1.65-.07,3.36-.36,4.45-.75.73-.2,2.55-.63,4.59-.73l3.58-.23c.29-.05,1.06-.45,1.58-.89.48-.41,1.15-1.22,1.45-1.74.23-.64.84-1.43,1.35-1.74.42-.25,1.04-.4,1.64-.4ZM49.23,83.16c-1.71,0-2.53-.15-3.36-.61-.7-.4-1.53-1.38-1.98-2.13-.82-1.24-1.01-1.72-.93-3.55,0-.94.14-2.25.36-2.7.22-.56,1.03-1.09,1.47-1.31l2.11-.89c.63-.18,2.26-.33,3.57-.33s3.24.15,4.25.4l3.87.7c1.06.14,2.48.38,3.03.56s1.62.91,2.4,1.78c.64.64,1.38,1.73,1.38,2.21,0,.44-.28,1.3-.61,1.89-.31.63-.91,1.45-1.38,1.68-.57.34-2.36.54-3.71.6-1.72.13-3.59.34-5.49.92-1.89.47-3.33.8-4.98.8ZM47.21,72.92l-2,.84c-.45.23-.9.62-.98.82-.11.22-.28,1.25-.28,2.31-.08,1.66.07,1.94.77,3,.44.73,1.17,1.53,1.62,1.79.58.32,1.17.48,2.87.48,1.53,0,2.92-.32,4.71-.76,1.97-.6,3.9-.81,5.7-.95,1.85-.08,3.05-.33,3.29-.48.18-.09.66-.64.98-1.28.31-.54.49-1.23.49-1.41-.04-.12-.48-.89-1.1-1.52-.68-.75-1.63-1.4-1.99-1.52-.4-.13-1.64-.36-2.87-.52l-3.92-.71c-.86-.21-2.66-.38-4.04-.38-1.28,0-2.76.15-3.27.29ZM101.31,56.73c-1.37,0-1.91-.21-2.63-1.03-.82-.81-.98-1.27-.98-2.67,0-.94.26-2.11.51-2.69.27-.62.88-1.27,1.48-1.58.4-.24,1.12-.44,1.63-.44.55,0,1.63.4,2.39.75,1.14.5,1.61.58,2.96.5.88-.07,2.16-.3,2.88-.59.83-.25,2.5-.98,3.71-1.55,1.51-.72,2.73-1.53,3.43-2.3.73-.73,1.5-1.82,1.69-2.39.44-1.1.43-1.4.22-2.64-.25-.91-.32-2.09-.32-2.58,0-.63.26-1.66.6-2.33.29-.66.49-1.51.49-1.88s-.27-1.51-.67-2.64c-.31-1-.93-2.39-1.22-3.06-.54-.96-.98-1.66-1.26-2.01-.35-.42-1.32-1.32-2.23-1.93-.93-.54-2.45-1.29-3.38-1.58-.99-.3-3.41-.77-5.24-1.08-2.36-.37-3.93-.54-5.4-.39l-6.56.55c-2.33.23-5.31.69-6.38,1-1.07.21-3.17.94-4.93,1.69-1.67.72-3.75,1.72-4.71,2.24-.71.35-1.91,1.15-3.68,2.46-.2.19-.46.42-.73.67-.8.72-1.71,1.53-2.03,2.01-.47.56-1.23,1.69-1.52,2.34-.42.84-.76,1.7-.82,2.06-.07.41-.07,1.34.14,2.13.25,1.42.26,2.02-.15,3.9-.45,1.71-.46,2.17-.15,4.5.16,1.5.54,3.06.73,3.43.29.5.79,1.14,1.11,1.39.36.24,1.17.45,2.06.52.92.08,2.1,0,2.55-.14.8-.27,1.42-.55,1.69-.77.15-.13.73-.83,2.6-4.44,1.4-2.91,2.28-4.84,2.46-5.45.29-.81.52-1.92.52-2.51s-.22-1.59-.52-2.4c-.33-.82-.58-1.8-.58-2.28,0-.45.09-1.08.29-1.47.25-.39.89-.91,1.39-1.16.53-.32,1.81-.44,2.49-.44.3,0,1.81.01,2.45.27.5.2,1.05.67,1.33,1.14.37.45.62,1.51.62,2.21s-.14,1.68-.46,2.21c-.31.52-1.29,1.28-2.17,1.68-1.06.58-1.6.94-1.72,1.07-.04.08-.41,1.01-.73,2.05-.34.88-1.44,3.6-2.6,5.92-1.04,2.09-2.32,4.36-2.85,5.07-.5.5-1.51,1.29-2.25,1.57-.55.24-1.78.57-2.62.65-.72.17-2.11.08-3.03-.08-.87-.16-2.02-.63-2.65-.99-.76-.47-1.51-1.42-1.84-2.08-.34-.67-.82-2.38-.99-3.75-.23-.97-.55-2.3-.69-2.63-.22-.18-.87-.58-1.68-.95-1.06-.44-1.84-1.08-2.12-1.74-.29-.47-.43-1.46-.43-1.99,0-.67.28-1.62.63-2.15.38-.67,1.3-1.35,2.49-1.82q1.5-.72,2.62-3.03c.66-1.4,1.77-3.21,2.42-3.93.76-.85,2.3-2.21,3.34-3.02,1.18-.94,3.68-2.44,5.71-3.41,1.97-.99,4.44-2.06,5.51-2.44,1.11-.4,2.93-.95,4.04-1.19,1.25-.25,3.57-.56,5.29-.71,1.94-.14,3.21-.4,4.37-.9.26-.12,1.66-.74,2.15-.74.33,0,1.14.17,1.8.49l.3.07c.93.21,2.88.66,4.75.92,2.05.38,4.8,1.02,5.88,1.43,1.13.4,2.65,1.13,3.37,1.61.75.5,1.86,1.38,2.51,2.11.62.62,1.52,1.91,2.02,2.92l1.58,3.85c.68,2.04.78,2.19,2.09,3.14.74.59,1.65,1.37,1.87,1.82.2.41.36,1.37.36,2.17,0,1.42-.16,1.78-1.25,2.78-.55.55-1.45,1.29-1.99,1.56-.52.26-1.03.94-1.81,2.43-.68,1.44-1.57,2.63-2.62,3.5-.78.7-2.46,1.83-3.78,2.41-1.29.65-2.94,1.34-3.72,1.58l-3.05.86c-1.32.37-1.53.55-2.22,1.52-.45.67-1.18,1.59-1.65,1.97-.63.63-1.17.81-2.5.81ZM101.31,49.33c-.3,0-.83.13-1.15.32-.38.19-.85.64-1.05,1.09-.21.48-.43,1.49-.43,2.3,0,1.23.12,1.4.71,1.99.52.58.75.71,1.91.71s1.41-.14,1.83-.55c.37-.3,1.04-1.11,1.5-1.8.87-1.22,1.29-1.5,2.78-1.92l3.04-.86c.72-.21,2.32-.9,3.58-1.52,1.22-.54,2.82-1.6,3.55-2.26.95-.79,1.75-1.87,2.38-3.19.91-1.74,1.52-2.52,2.25-2.88.38-.19,1.18-.83,1.74-1.39.92-.85.95-.96.95-2.06,0-.74-.15-1.51-.26-1.73-.07-.13-.56-.65-1.58-1.47-1.48-1.07-1.68-1.37-2.42-3.58l-1.55-3.79c-.44-.87-1.27-2.07-1.84-2.64-.59-.66-1.62-1.48-2.34-1.96-.65-.44-2.1-1.13-3.17-1.5-.92-.35-3.46-.97-5.69-1.38-1.89-.27-3.86-.72-4.81-.94l-.47-.12c-.57-.29-1.28-.41-1.41-.41-.15.01-.86.26-1.74.66-1.28.55-2.64.83-4.69.98-1.67.14-3.95.45-5.16.69-1.07.23-2.83.76-3.91,1.15-1.01.36-3.48,1.43-5.4,2.39-1.94.93-4.41,2.41-5.52,3.29-1.13.89-2.57,2.19-3.21,2.91-.58.65-1.65,2.41-2.26,3.7-1.21,2.51-1.36,2.67-3.12,3.51-1.17.47-1.82,1.05-2.04,1.43-.26.39-.48,1.15-.48,1.62,0,.52.16,1.26.32,1.54.17.38.66.87,1.63,1.28.9.41,1.73.9,2.03,1.2.25.36.45,1.17.9,3.09.17,1.43.64,2.99.91,3.52.27.53.9,1.32,1.45,1.67.47.27,1.51.72,2.32.87.81.15,2.07.22,2.69.08.79-.08,1.9-.38,2.41-.59.55-.21,1.42-.85,1.87-1.3.39-.53,1.6-2.64,2.71-4.86s2.23-4.96,2.55-5.8c.27-.89.69-2.03.91-2.36.31-.33.98-.75,2.05-1.33.84-.38,1.59-1.02,1.76-1.3.15-.26.32-1,.32-1.69,0-.55-.22-1.36-.44-1.64-.21-.34-.59-.66-.89-.78-.24-.1-1.05-.2-2.08-.2-.83,0-1.76.17-2,.32-.45.23-.91.64-1.01.78-.07.15-.15.6-.15.97,0,.3.21,1.17.51,1.92.34.93.58,2.08.58,2.76s-.25,1.94-.58,2.82c-.19.65-1.04,2.53-2.51,5.58-1.94,3.76-2.56,4.52-2.86,4.77-.38.31-1.07.62-2.03.95-.64.18-1.94.26-2.93.18-1.08-.08-2.03-.34-2.57-.71-.51-.4-1.09-1.18-1.4-1.73-.31-.61-.69-2.37-.84-3.78-.31-2.33-.33-2.95.17-4.86.38-1.74.37-2.21.15-3.45-.23-.83-.25-1.93-.16-2.51.1-.58.55-1.61.9-2.32.32-.73,1.13-1.94,1.63-2.52.35-.54,1.27-1.36,2.16-2.16.26-.24.52-.47.76-.69,1.87-1.37,3.11-2.2,3.86-2.57.97-.52,3.08-1.55,4.78-2.27,1.58-.68,3.84-1.5,5.09-1.75,1.09-.31,4.09-.79,6.52-1.02l6.55-.55c1.58-.16,3.21.01,5.65.39,1.93.32,4.33.79,5.37,1.11,1.02.31,2.59,1.08,3.61,1.68.97.64,2.03,1.6,2.47,2.14.33.4.79,1.13,1.38,2.18.36.8.97,2.18,1.29,3.21.35.97.72,2.35.72,2.95,0,.55-.26,1.56-.59,2.31-.3.61-.5,1.47-.5,1.9s.06,1.51.29,2.36c.25,1.43.26,1.92-.25,3.2-.26.78-1.17,2.01-1.9,2.74-.77.84-2.1,1.74-3.73,2.52-1.25.59-2.97,1.33-3.81,1.59-.81.33-2.21.56-3.14.64-1.54.09-2.14-.02-3.44-.58-.9-.41-1.73-.66-1.98-.66Z"/>
    </g>
  </g>
  <g>
    <path class="cls-1" d="M78.91,108.41c0,.81-1.3,1.15-1.94,2-.29.38.03.92.35.93.69.02.43-.72,1.13-1.1,1.32-.73,9.66.6,9.66-1.21s-4.83-5.13-16.91-5.13-24.16,4.53-33.22,7.85c-9.06,3.32-19.63,6.95-23.56,7.85s-4.53.6-4.83.3,2.11-3.02,2.72-4.53c.6-1.51.75-3.72,1.21-4.9.46-1.18,1.34-2.56.82-2.95-.51-.39-3.03,1.97-3.44,2.74s.1,1.03-.72,2.83c-.82,1.8-1.49,2.98-3.03,4.93-1.54,1.95-5.55,4.11-5.5,4.78.05.67,3.08,1.18,8.64,0,5.55-1.18,16.09-5.71,28.22-9.97,12.13-4.27,24.01-6.73,31.15-6.73s9.25,1.13,9.25,2.31Z"/>
    <path class="cls-1" d="M2.52,120.43c.64.25,2.91-7.66,8.04-12.06,5.13-4.41,8.04-5.56,11.55-5.6s3.85,1.97,4.79,2.01c.94.04,2.27-1.67,2.18-2.91-.09-1.24-1.5-2.91-4.66-2.91s-9.67,2.22-14.2,7.06c-4.53,4.83-8.81,13.99-7.7,14.42Z"/>
    <path class="cls-1" d="M6.37,108.25c.06-.97-.74.17-.52-1.26.23-1.43,2.29-5.09,4.86-7.78,2.58-2.69,5.61-4.24,6.81-4.41s1.66.29,1.89,0c.23-.29.46-1.72-.74-3.32-1.2-1.6-2.48-2.4-2.95-2-.48.4.23.36-.43,1.41-.66,1.04-5.44,7.98-6.25,7.63s2.27-4.78,1.62-11.07c-.66-6.28-3.62-8.21-6.48-8.1-2.85.12-3.49,1.31-3.71,2.7-.22,1.39.16,1.85.36,1.85s.08-1.47,2.51-1.31c2.43.15,4.47,4.67,4.16,9.21-.31,4.55-1.16,7.79-2.04,9.14-.89,1.35-1.08.62-1.58,1.35-.5.73-2.93,7.33-3.47,10.26-.54,2.93-.56,9.05.07,9.15,1.19.2,1.37-5.15,2.58-8.41,1.2-3.26,3.26-4.06,3.32-5.04Z"/>
    <path class="cls-1" d="M18.46,95.82c-1.08.21-3.93,1.44-6.73,4.34-2.8,2.9-5.71,6.91-4.76,7.43.51.28,2.83-3.69,6.53-6.45,2.96-2.2,4.19-1.99,5.32-2.18s1.47-1.19,1.39-1.88c-.08-.69-.67-1.47-1.75-1.26Z"/>
    <path class="cls-1" d="M4.56,100.06c.64,0,1.9-4.96,1.9-8.3s-1.29-7.04-2.78-7.9c-1.18-.67-2.08.42-2.03,1.01.2,2.24,2.38,1.37,3,7.25.57,5.33-.79,7.95-.1,7.94Z"/>
    <path class="cls-1" d="M245.5,108c-.12-.27-.38-.45-.67-.42l-1.64.16c-.44.04-.73.49-.59.9.2.56.65,1.26,1.65,1.59,1.81.6,11.78.3,11.78,2.11s-37.45,5.44-96.04,5.38c-58.59.05-96.04-3.57-96.04-5.38s9.97-1.51,11.78-2.11c1-.33,1.45-1.03,1.65-1.59.15-.41-.15-.86-.59-.9l-1.64-.16c-.29-.03-.54.15-.67.42-1.27,2.71-21.71-1.15-21.71,3.44,0,3.62,18.72,8.75,107.21,8.75s107.21-5.13,107.21-8.75c0-4.59-20.44-.73-21.71-3.44Z"/>
    <path class="cls-1" d="M312.85,118.02c-1.54-1.95-2.21-3.14-3.03-4.93-.82-1.8-.31-2.06-.72-2.83-.41-.77-2.93-3.14-3.44-2.74-.51.39.36,1.77.82,2.95.46,1.18.6,3.39,1.21,4.9s3.02,4.23,2.72,4.53-.91.6-4.83-.3-14.5-4.53-23.56-7.85c-9.06-3.32-21.14-7.85-33.22-7.85s-16.91,3.32-16.91,5.13,8.34.48,9.66,1.21c.7.39.44,1.12,1.13,1.1.32,0,.64-.54.35-.93-.64-.85-1.94-1.2-1.94-2,0-1.18,2.11-2.31,9.25-2.31s19.02,2.47,31.15,6.73c12.13,4.27,22.67,8.79,28.22,9.97,5.55,1.18,8.58.67,8.64,0,.05-.67-3.96-2.83-5.5-4.78Z"/>
    <path class="cls-1" d="M293.1,104.78c.94-.04,1.28-2.05,4.79-2.01s6.42,1.2,11.55,5.6c5.13,4.41,7.4,12.31,8.04,12.06,1.11-.43-3.17-9.58-7.7-14.42-4.53-4.83-11.04-7.06-14.2-7.06s-4.58,1.67-4.66,2.91c-.09,1.24,1.24,2.95,2.18,2.91Z"/>
    <path class="cls-1" d="M316.13,102.29c-.5-.73-.69,0-1.58-1.35s-1.73-4.59-2.04-9.14c-.31-4.55,1.73-9.06,4.16-9.21,2.43-.15,2.31,1.31,2.51,1.31s.58-.46.36-1.85c-.22-1.39-.86-2.58-3.71-2.7-2.85-.12-5.82,1.81-6.48,8.1-.66,6.28,2.43,10.72,1.62,11.07s-5.59-6.59-6.25-7.63c-.66-1.04.05-1-.43-1.41-.48-.4-1.75.4-2.95,2-1.2,1.6-.97,3.03-.74,3.32.23.29.69-.17,1.89,0,1.2.17,4.24,1.72,6.81,4.41,2.58,2.69,4.64,6.35,4.86,7.78.23,1.43-.57.29-.52,1.26.06.97,2.12,1.77,3.32,5.04,1.2,3.26,1.39,8.61,2.58,8.41.63-.1.61-6.22.07-9.15-.54-2.93-2.97-9.52-3.47-10.26Z"/>
    <path class="cls-1" d="M301.54,95.82c-1.08-.21-1.67.57-1.75,1.26-.08.69.26,1.7,1.39,1.88s2.36-.03,5.32,2.18c3.7,2.76,6.02,6.73,6.53,6.45.95-.51-1.95-4.52-4.76-7.43-2.8-2.9-5.65-4.14-6.73-4.34Z"/>
    <path class="cls-1" d="M318.35,84.87c.05-.59-.85-1.69-2.03-1.01-1.49.86-2.78,4.56-2.78,7.9s1.26,8.3,1.9,8.3c.69,0-.66-2.62-.1-7.94.63-5.88,2.8-5.01,3-7.25Z"/>
  </g>
  <g>
    <path class="cls-1" d="M304.45,51.49c.18.46,1.02.51,1.43.18.93-.75.23-2.37,1.3-2.47s2.79,2.09,5.77,14.84c2.98,12.75,1.65,13.81,2.63,13.79.54-.01,1.19-5.52-2.79-21.56-3.12-12.59-6.75-17.49-8.4-16.52-1.64.98,1.28,10.07.84,10.66-.44.59-1.02.51-.79,1.08Z"/>
    <path class="cls-1" d="M233.7,3.71c1.96.17,7.73.62,8.26.62s2.11-1.03,1.9-1.23c-.44-.44-8.33-.66-8.52-1.23s.47-.32,1.14-.44c.66-.13.89-.41.95-.73.06-.32-.2-.73-.86-.69-.52.03-.56.57-1.16.87s-2.09.1-3.11,0-3.67.13-3.77,1.11c-.09.98,3.2,1.55,5.16,1.73Z"/>
    <path class="cls-1" d="M240.92,7.52c.5,3.1,19.48,1.68,26.76,2.97,7.27,1.29,12.98,4.22,13.18,4.6.28.53-.59.11-.83.25-.39.21-.17.59-.05.64.48.21.77-.18,1.45,0,.68.18,3.44,2.39,4.1,2.55s3.73.95,3.99-.21c.26-1.16-3.49-4.91-9.48-7.75-5.99-2.84-16.23-4.96-19.77-5.49s-6.2-.76-7.35-.71c-1.16.05-3.2.89-3.07,1.18.13.29,4.96.21,9.27.84,4.31.63,8.35,1.55,8.22,2.02s-15.55-.76-17.36-1.05c-1.81-.29-2.55-.6-2.55-1.05s2.89-2.49,7.77-3.28c4.88-.79,10.45-.63,12.55-.45.21-.13,1.52-.95,1.39-1.18s-6.36-.93-11.6-.74c-7.09.25-17.13,3.76-16.63,6.86Z"/>
    <path class="cls-1" d="M290.69,14.92c-.38.96,4.82,3.64,6.27,2.84,1.24-.69-.96-4.37-5.26-7.17s-14.98-7.17-16.51-7.26c-1.53-.1-2.53.57-2.12,1.08s5.81,1,11.77,4.07c5.95,3.06,8.54,5.95,8.2,6.65-.33.69-1.96-1.15-2.34-.19Z"/>
    <path class="cls-1" d="M268.7,3.14c-.04.57.51.85,1.43,1.08.92.23,2.23.07,2.19-.21-.04-.32-.43-.2-.45-.53-.02-.33.68-.96,3.27-1.17s9.25.6,13.68,3.14c4.43,2.54,7.56,5.77,8.19,7.57.63,1.8.55,2.87,1.5,3.71.95.84,2.93.47,3.14.21.21-.27-.65-1.59-.28-2.68.36-1.09,1.75-2.21,3.46-2.24,1.7-.03,1.64,1.01,2.27.93.63-.08,2.04-2.02,2.63-2.97.6-.95,1.61-2.52,1.61-4.94s-1.66-3.93-2.93-4.43c-1.28-.5-2.4.14-2.41.46-.02.32.35.25.73.36.38.11,1.03.68,1.03,2.07s-1.26,3.82-5.11,3.82-5.6-.84-7.89-1.7c-2.29-.87-6.94-2.67-7.28-2.91s.05-.85-.11-1.03c-.16-.17-2.48-1.39-9.34-1.28-6.85.11-9.27,2.18-9.31,2.75Z"/>
    <path class="cls-1" d="M302.11,6.2c3.52,0,4.43-1.55,4.56-2.38.15-.97-.2-2.06-1.29-1.85-.54.11-.27.89-1.32,1.53-1.13.69-5.02.63-8.93-.2-4.1-.86-6.72-1.91-6.77-1.33-.03.39,10.23,4.23,13.74,4.23Z"/>
    <path class="cls-1" d="M314.57,51.7c.74-.36-.02-8.29-3.61-17.25s-8.79-13.37-10.12-12.93c-.72.24-.21,1.69.39,2.97.75,1.57,1.01,1.46,1.12,2.13.07.39,0,.61.09,1.03.14.56.71.69.95.44.3-.32.05-.83.5-.93.46-.1,3.31,3.39,6.25,10.11,2.94,6.72,3.88,14.69,4.43,14.42Z"/>
    <path class="cls-1" d="M315.55,4c-1.2,1.39-5.27,6.29-5.02,6.6.26.33,6.48-4.08,7.59-4.95,1.1-.87,2.08-2.28,1.1-3.15-.97-.87-2.46.1-3.67,1.5Z"/>
    <path class="cls-1" d="M311.75,7.53c.28-.1,1.28-1.67,2.31-2.92,1.03-1.26,2.9-2.63,2.53-3.08-.23-.27-4.79.18-5.02.54s.49.77.67,2.28c.18,1.51-.86,3.32-.49,3.18Z"/>
    <path class="cls-1" d="M318.25,6.68c-1.52,1.08-5.31,3.21-4.99,3.47.23.19,2.53-.21,3.75.37,1.22.59,1.4,1.14,1.7.99l.31-.16s.41-.97.49-2.85c.08-1.88-.12-2.41-.45-2.41-.33,0-.53.38-.81.59Z"/>
    <path class="cls-1" d="M319.36,13.55c-.91-1.38-3.53-2.59-6.36-2.59s-4.76,2.13-4.99,2.71.44,1.92,0,3.22c-.44,1.29-2.19,2.56-3.06,2.62-.87.06-1.61-1.06-2.16-.68-.55.38.14,2.11.68,2.84.54.73,1.86,1.77,2.59,2.08.73.32,1.14-.13,1.59.13s2.14,1.55,4.51,7.48c2.37,5.93,3.5,11.2,3.59,15.3.09,4.1-.5,6.37-.93,6.37s-.21-.95-.62-.69c-.41.25.16,3.53,1.29,3.6,1.14.06,2.05-4.58,2.05-9.59s-.56-10.63-.69-10.79c-.13-.17-.34.15-.97-.39-.63-.54-1.12-1.66-1.62-3.11-.5-1.45-1.86-6.63-2.09-9.93-.22-3.3.7-5.12,1.9-6.11,1.28-1.06,3.1-.65,3.55-.35.34.22.73.66.81,1.06.1.54-.1.88.23.91,1.24.12,1.89-2.26.69-4.07Z"/>
    <path class="cls-1" d="M317.2,16.64c-.52-.4-1.74-.57-2.57.21-.83.78-1.37,2.47-1.25,6.57s2.64,11.3,3,11.16-.41-2.64-.68-4.83c-.27-2.2-.54-6.36.44-10.5.23-.96.9-1.28,1.4-1.06.18.08.58-.85-.34-1.54Z"/>
  </g>
  <g>
    <path class="cls-1" d="M78.03,4.33c.54,0,6.3-.44,8.26-.62,1.96-.17,5.26-.74,5.16-1.73-.09-.98-2.75-1.2-3.77-1.11s-2.5.29-3.11,0-.64-.84-1.16-.87c-.66-.04-.93.37-.86.69.06.32.28.6.95.73.66.13,1.33-.13,1.14.44s-8.07.79-8.52,1.23c-.21.21,1.36,1.23,1.9,1.23Z"/>
    <path class="cls-1" d="M52.24,2.59c2.1-.18,7.67-.34,12.55.45,4.88.79,7.77,2.84,7.77,3.28s-.74.76-2.55,1.05c-1.81.29-17.23,1.52-17.36,1.05s3.91-1.39,8.22-2.02c4.31-.63,9.14-.55,9.27-.84.13-.29-1.92-1.13-3.07-1.18-1.16-.05-3.81.18-7.35.71s-13.79,2.65-19.77,5.49c-5.99,2.84-9.74,6.59-9.48,7.75.26,1.16,3.33.37,3.99.21s3.41-2.36,4.1-2.55c.68-.18.97.2,1.45,0,.12-.05.35-.43-.05-.64-.24-.13-1.11.28-.83-.25.2-.37,5.91-3.31,13.18-4.6,7.27-1.29,26.26.13,26.76-2.97.5-3.1-9.54-6.6-16.63-6.86-5.25-.19-11.47.5-11.6.74s1.18,1.05,1.39,1.18Z"/>
    <path class="cls-1" d="M35.16,8.46c5.95-3.06,11.36-3.56,11.77-4.07s-.59-1.17-2.12-1.08c-1.53.1-12.2,4.46-16.51,7.26-4.3,2.8-6.5,6.48-5.26,7.17,1.45.81,6.65-1.88,6.27-2.84-.38-.96-2.01.88-2.34.19-.33-.69,2.25-3.59,8.2-6.65Z"/>
    <path class="cls-1" d="M12.91,12.95c.63.08.57-.96,2.27-.93s3.09,1.15,3.46,2.24c.36,1.09-.49,2.41-.28,2.68.21.27,2.19.63,3.14-.21.95-.84.87-1.91,1.5-3.71.63-1.8,3.75-5.03,8.19-7.57,4.43-2.54,11.09-3.34,13.68-3.14s3.28.84,3.27,1.17c-.02.33-.41.21-.45.53-.03.28,1.27.44,2.19.21.92-.23,1.47-.51,1.43-1.08-.04-.57-2.46-2.65-9.31-2.75-6.85-.11-9.18,1.11-9.34,1.28-.16.17.23.79-.11,1.03s-4.99,2.04-7.28,2.91c-2.29.87-4.04,1.7-7.89,1.7s-5.11-2.43-5.11-3.82.65-1.96,1.03-2.07.74-.05.73-.36-1.14-.96-2.41-.46c-1.28.5-2.93,2.02-2.93,4.43s1.01,3.99,1.61,4.94c.6.95,2,2.89,2.63,2.97Z"/>
    <path class="cls-1" d="M13.33,3.82c.13.83,1.04,2.38,4.56,2.38s13.78-3.83,13.74-4.23c-.05-.57-2.67.47-6.77,1.33-3.91.82-7.8.89-8.93.2-1.05-.64-.77-1.42-1.32-1.53-1.09-.21-1.44.88-1.29,1.85Z"/>
    <path class="cls-1" d="M16.61,28.09c.24.25.81.12.95-.44.1-.42.03-.64.09-1.03.11-.67.38-.56,1.12-2.13.61-1.28,1.12-2.73.39-2.97-1.33-.44-6.52,3.97-10.12,12.93-3.6,8.96-4.35,16.89-3.61,17.25.55.27,1.49-7.7,4.43-14.42,2.94-6.72,5.79-10.21,6.25-10.11.46.1.2.61.5.93Z"/>
    <path class="cls-1" d="M1.89,5.66c1.1.87,7.33,5.28,7.59,4.95.24-.32-3.82-5.21-5.02-6.6C3.25,2.61,1.76,1.63.79,2.5c-.97.87,0,2.28,1.1,3.15Z"/>
    <path class="cls-1" d="M5.94,4.61c1.03,1.26,2.03,2.82,2.31,2.92.38.14-.67-1.67-.49-3.18.18-1.51.9-1.92.67-2.28s-4.8-.81-5.02-.54c-.37.44,1.51,1.82,2.53,3.08Z"/>
    <path class="cls-1" d="M.94,6.09c-.34,0-.53.53-.45,2.41.08,1.88.49,2.85.49,2.85l.31.16c.31.16.48-.4,1.7-.99,1.22-.59,3.52-.18,3.75-.37.32-.27-3.47-2.4-4.99-3.47-.29-.2-.48-.59-.81-.59Z"/>
    <path class="cls-1" d="M4.5,55.94c1.14-.06,1.7-3.34,1.29-3.6-.41-.25-.2.69-.62.69s-1.02-2.27-.93-6.37c.09-4.1,1.22-9.37,3.59-15.3s4.05-7.23,4.51-7.48c.45-.25.86.19,1.59-.13.73-.32,2.05-1.36,2.59-2.08.54-.73,1.23-2.46.68-2.84-.55-.38-1.29.74-2.16.68s-2.62-1.33-3.06-2.62c-.44-1.29.22-2.63,0-3.22s-2.16-2.71-4.99-2.71-5.44,1.2-6.36,2.59c-1.2,1.81-.55,4.19.69,4.07.33-.03.13-.37.23-.91.07-.4.47-.83.81-1.06.45-.3,2.27-.71,3.55.35,1.2,1,2.12,2.81,1.9,6.11-.22,3.3-1.58,8.48-2.09,9.93-.5,1.45-.99,2.57-1.62,3.11-.63.54-.84.22-.97.39-.13.17-.69,5.78-.69,10.79s.92,9.66,2.05,9.59Z"/>
    <path class="cls-1" d="M3.86,19.24c.98,4.14.71,8.3.44,10.5-.27,2.2-1.04,4.69-.68,4.83s2.88-7.06,3-11.16-.42-5.79-1.25-6.57c-.83-.78-2.05-.61-2.57-.21-.92.7-.52,1.62-.34,1.54.5-.22,1.17.1,1.4,1.06Z"/>
    <path class="cls-1" d="M15.55,51.49c-.18.46-1.02.51-1.43.18-.93-.75-.23-2.37-1.3-2.47s-2.79,2.09-5.77,14.84c-2.98,12.75-1.65,13.81-2.63,13.79-.54-.01-1.19-5.52,2.79-21.56,3.12-12.59,6.75-17.49,8.4-16.52,1.64.98-1.28,10.07-.84,10.66.44.59,1.02.51.79,1.08Z"/>
  </g>
</svg>