<?xml version="1.0" encoding="UTF-8"?>
<svg id="Layer_1" data-name="Layer 1" xmlns="http://www.w3.org/2000/svg" viewBox="0 0 320 123.51">
  <defs>
    <style>
      .cls-1 {
        fill: #FFF5E9;
      }
    </style>
  </defs>
  <g>
    <g>
      <g>
        <path class="cls-1" d="M76.57,62c0-7.05,9.66-8.65,13.5-9.38v-1.56c0-4.4-2.11-6.32-5.04-6.32-3.2,0-5.72,2.29-5.72,5.81,0,.78.14,1.74.41,2.66h-.27l-2.38-5.95c1.33-1.51,3.8-3.62,8.61-3.62s7.14,2.11,7.14,6.87v12.73c0,1.83.27,2.47,1.51,2.47.46,0,.92-.09,1.42-.14v.46l-5.27,1.47h-.41v-5.45c-.5,1.6-2.98,5.95-7.64,5.95-3.43,0-5.86-2.38-5.86-6ZM83.48,66.34c3.25,0,5.68-3.39,6.59-5.59v-7.37c-2.61.64-10.53,2.06-10.53,8.15,0,2.56,1.24,4.81,3.94,4.81ZM90.35,33.43c.6,0,.96.32.96.78,0,1.46-3.62,5.04-6.82,7.83h-.37c3.11-6.41,5.04-8.61,6.23-8.61Z"/>
        <path class="cls-1" d="M100.42,61.54v-16.07h-3.48v-.6c4.03-.41,5.36-2.01,5.59-8.56h.64v8.01h6.04v1.14h-6.04v15.84c0,3.71.96,5.26,3.11,5.26,1.33,0,3.3-.69,4.44-4.03h.27c-1.01,3.71-3.2,5.45-5.91,5.45-2.93,0-4.67-1.92-4.67-6.45Z"/>
        <path class="cls-1" d="M115.21,64.42v-15.43c0-2.29-.32-3.11-1.69-3.11-.37,0-.78.09-1.28.14v-.46l5.13-1.24h.59v20.14c0,2.15.69,2.15,2.98,2.56v.46h-8.7v-.46c2.29-.41,2.98-.5,2.98-2.61ZM116.21,34.57c1.33,0,2.24,1.01,2.24,2.29s-.92,2.24-2.24,2.24-2.24-.96-2.24-2.24.92-2.29,2.24-2.29Z"/>
        <path class="cls-1" d="M125.87,64.1v-15.11c0-2.29-.32-3.11-1.69-3.11-.37,0-.78.09-1.28.14v-.46l5.13-1.24h.59v6.23h.05c.78-2.79,2.7-6.91,6.09-6.91,2.2,0,3.43,1.79,4.03,2.88l-3.02,7.14h-.23c.5-1.69.87-3.16.87-4.67,0-2.06-.96-3.43-2.43-3.43-2.79,0-4.72,5.13-5.36,9.16v9.38c0,2.15.69,2.52,3.07,2.93v.46h-8.79v-.46c2.29-.41,2.98-.87,2.98-2.93Z"/>
        <path class="cls-1" d="M140.11,55.77c0-5.22,3.39-12.13,10.99-12.13s10.53,6.91,10.53,11.86-3.07,12.5-10.67,12.5-10.85-6.87-10.85-12.22ZM151.96,66.57c3.94,0,6.87-3.89,6.87-9.25,0-6.04-3.25-12.27-8.65-12.27-4.35,0-7.42,3.85-7.42,9.02,0,6.18,3.75,12.5,9.2,12.5Z"/>
        <g>
          <path class="cls-1" d="M77.94,19.11c.86.14,1.54.42,2.3,1.02.69.48,1.39,1.15,1.62,1.59.29.37.75,1.39,1.07,2.22.39.96.66,2.05.74,3.16.1,1.44.06,1.9-.46,2.92-.34.74-.95,1.51-1.51,1.94l-1.93,1.51c-.56.43-1.29,1.33-1.75,2.15-.4.81-1.06,1.78-1.36,2.13-.43.42-1.18.93-2.08,1.26-.83.32-1.67.57-1.93.59s-.7.24-1.07.6c-.5.43-1.98.79-1.85,1.7.04.59.32,1.75.63,2.58.38.83.54,2.19.8,3.03.25.77.47,2.07.52,2.78.05.78-.06,2.04-.14,2.83-.21.8-.23,2.44-.54,3.64-.81,2.55-.04,3.22-1.66,4.44-1.5,1.09-1.58.89-2.44,2.66-.51,1.15-1.35,2.39-2.02,3.09-.61.63-1.98,1.71-2.92,2.36-1,.66-2.64,1.62-3.73,2.09-1.02.46-2.87,1.24-4.15,1.66-2.12.67-2.57.77-7.79,1.12-5.09.35-5.75.33-7.54-.01-1.13-.19-2.59-.48-3.33-.69-.8-.21-1.75-.67-2.23-1.03-.48-.29-1.05-.91-1.34-1.35-.29-.44-.75-1.46-1.13-2.22-.32-.83-.97-1.77-1.4-2.2-.42-.37-.96-.66-1.29-.63s-1.14.54-1.95,1.25c-.74.64-1.78,1.83-2.32,2.52-.47.75-1.25,1.92-1.58,2.73-.34.74-.72,2.02-.86,2.81s-.23,2.38-.16,3.49.3,2.47.47,2.98c.23.51.53,1.08.81,1.26.21.18,1.21.38,2.25.37,1.32.11,1.98.19,2.33.5.28.24.58.81.68,1.33.17.58.08,1.24-.13,1.91-.22.67-.58,1.15-.96,1.38-.38.22-1.22.41-1.94.46-.65.04-1.51-.03-1.84-.14-.34-.17-.89-.6-1.18-.97-.5-.56-.66-1-.75-2.31-.06-.85-.27-2.01-.5-2.59-.24-.64-.52-1.87-.72-2.84-.14-1.04-.18-2.61-.12-3.66.13-.99.42-2.52.69-3.33s.9-2.16,1.44-2.98c.47-.82,1.68-2.34,2.72-3.4,1.71-1.82,1.77-1.89,1.71-2.87-.04-.59-.46-1.87-.92-2.89-.55-1.27-.88-2.37-.94-3.15-.05-.72.08-1.78.23-2.38.09-.6.49-1.41.85-1.89.3-.41,1.11-1.06,1.74-1.43.94-.59,1.19-.87,1.99-2.56.63-1.35,1.28-2.38,2.08-3.16.67-.7,2.11-1.72,3.31-2.39,1.13-.67,2.97-1.58,4.06-1.98,1.02-.4,2.69-.9,3.72-1.17,1.1-.21,2.73-.38,4.43-.43,1.44-.03,3.22.11,3.89.26.73.15,1.74.54,2.22.9.55.42,1.41,1.48,2.15,2.67,1.04,1.76,1.25,2.01,1.84,2.04.39-.03,1.55-.37,2.76-.91,1.08-.53,2.81-1.17,3.83-1.51s1.92-.72,2.1-.93c.11-.27.28-.74.38-1.14.04-.33-.12-1.83-.41-3.18l-.69-4.41c-.23-1.43-.21-2.08.07-2.82.16-.6.46-1.87.65-2.99.19-1.06.68-2.6,1.02-3.35.34-.74,1.12-1.85,1.67-2.47.67-.77,1.6-1.49,2.75-2.02.95-.52,2.35-1.08,3.13-1.26l2.01-.33c.39-.03,1.18-.01,1.91.07ZM40.87,42.81l-3.45,1.35c-1.02.46-2.53,1.35-3.41,1.94-.94.59-1.93,1.51-2.29,1.99-.36.42-.89,1.44-1.23,2.12-.52,1.08-.56,1.41-.37,3.24.1,1.5.03,2.36-.23,3.42-.21.8-.34,1.79-.31,2.25.04.65.2,1.04.69,1.4.62.48.75.47,1.85.27.71-.11,1.67-.44,2.18-.67.5-.3,1.63-1.16,2.43-1.94.8-.78,1.79-1.63,2.17-1.85l3.24-1.53c1.66-.7,3.17-1.66,4.67-2.74,1.19-.87,2.69-1.89,3.26-2.12.64-.31,1.66-.64,2.24-.81.64-.17,1.34-.48,1.66-.64.31-.28.49-.56.45-1.08-.03-.39-.35-1.35-.8-2.11-.38-.76-.96-1.64-1.25-2.01-.28-.31-.97-.72-1.57-.94-1.01-.33-1.67-.41-4.67-.21-2.94.13-3.85.26-5.26.69ZM63.41,45.54c-.97.26-2.43.89-3.45,1.28-1.01.53-1.89,1.11-2.07,1.39-.3.48-.26.94-.08,2.63.24,1.62.22,2.34-.07,3.81-.2.93-.31,2.25-.26,2.9.05.78-.04,1.31-.34,1.73-.24.28-.74.64-1.13.8-.39.09-1.17.15-1.7.12-.66-.09-1.27-.37-1.82-.79-.55-.42-.85-.86-.88-1.32-.02-.33.07-.86.25-1.13.24-.28.81-.58,1.65-.83.77-.18,1.6-.5,1.85-.72.31-.22.67-.7.84-1.11.17-.41.23-1.39.18-2.11-.08-1.11-.16-1.43-.65-1.86-.55-.36-.82-.47-1.4-.3-.45.1-1.54.5-2.5.83-1.22.41-2.41,1.15-4.23,2.45-1.63,1.16-3.33,2.19-4.73,2.81-1.21.48-2.54,1.16-3.05,1.45-.51.23-1.5,1.09-2.3,1.86-.8.78-1.79,1.63-2.36,1.93-.5.3-1.73.64-2.76.84-1.36.29-1.87.46-2.17.8-.18.27-.34.81-.31,1.2s.4,1.09.83,1.65c.36.5,1.09,1.63,1.48,2.52s.92,1.9,1.2,2.28c.29.37.91.86,1.45,1.08.54.23,1.94.59,3.07.77,1.07.26,3.11.44,4.5.55,1.77.01,3.34-.1,5.94-.4,1.95-.26,4.34-.75,5.3-1.08,1.03-.27,2.63-.9,3.51-1.35,1.02-.46,2.6-1.36,3.67-2.02,1-.66,2.31-1.67,2.8-2.22.55-.56,1.38-1.86,1.89-3.01.85-1.89.9-2.16.79-3.86-.07-1.04-.06-2.82-.01-4s.3-3.3.53-4.69c.17-1.39.33-2.91.3-3.3-.03-.46-.2-1.04-.42-1.35-.22-.38-.64-.68-.9-.73-.33-.04-.6-.09-.73-.08l-1.73.58ZM73.8,20.97c-.52.1-1.54.5-2.24.87-.63.37-1.69,1.16-2.23,1.86-.55.63-1.38,1.86-1.72,2.67-.56,1.35-.6,1.75-.5,3.31.07.98.33,2.86.55,4.29.22,1.36.58,2.71.73,3.03.09.32.51.69.85.93.28.24.75.47,1.02.52.2.12,1.17-.08,2.08-.27.9-.26,1.99-.66,2.43-.89.51-.23.99-.85,1.46-1.67.35-.68,1.06-1.71,1.48-2.27.49-.56,1.29-1.27,1.86-1.63.5-.36,1.24-1,1.61-1.42.43-.49.76-1.3.93-1.77.15-.73.1-1.38-.16-2.41-.19-.84-.59-1.99-.97-2.69-.31-.64-.82-1.45-1.24-1.82-.35-.37-.97-.79-1.44-.89-.4-.17-1.39-.23-2.17-.11-.72.05-1.76.19-2.34.36Z"/>
          <path class="cls-1" d="M24.26,89.29c-.57,0-1.2-.06-1.5-.16-.41-.21-.99-.65-1.3-1.05-.54-.6-.71-1.11-.8-2.45-.06-.88-.28-2-.49-2.51-.28-.74-.58-2.12-.73-2.88-.13-1.02-.19-2.61-.12-3.73.13-1.04.43-2.57.71-3.39.27-.79.9-2.18,1.46-3.04.49-.85,1.72-2.4,2.75-3.44q1.69-1.8,1.63-2.68c-.04-.54-.44-1.8-.9-2.8-.58-1.36-.9-2.45-.96-3.24-.05-.76.08-1.85.24-2.46.1-.63.52-1.48.9-1.98.34-.47,1.19-1.13,1.81-1.5.88-.55,1.1-.78,1.89-2.45.67-1.44,1.35-2.47,2.13-3.23.74-.77,2.25-1.8,3.36-2.43,1.07-.63,2.94-1.57,4.1-2,1.04-.41,2.71-.91,3.75-1.18,1.23-.23,2.9-.39,4.49-.44,1.49-.03,3.28.11,3.95.27.71.14,1.77.54,2.32.94.59.45,1.48,1.55,2.21,2.74,1.03,1.76,1.2,1.9,1.64,1.92.31-.02,1.43-.34,2.64-.89,1.15-.57,2.94-1.22,3.86-1.52,1.11-.36,1.8-.7,1.97-.83.11-.27.26-.7.35-1.06.03-.26-.13-1.72-.42-3.07l-.7-4.42c-.23-1.46-.21-2.15.08-2.95.09-.36.43-1.72.64-2.95.2-1.13.7-2.68,1.04-3.41.35-.76,1.14-1.89,1.71-2.53.73-.84,1.71-1.56,2.83-2.09.91-.5,2.34-1.08,3.18-1.28l2.03-.34c.43-.03,1.24-.02,1.97.07h.01c.94.15,1.64.46,2.42,1.08.61.42,1.41,1.14,1.68,1.68.29.36.75,1.4,1.08,2.25.42,1.02.68,2.14.76,3.24.1,1.48.05,1.99-.48,3.05-.35.76-.97,1.56-1.58,2.02l-1.93,1.51c-.52.4-1.23,1.27-1.69,2.08-.42.85-1.09,1.82-1.39,2.17-.55.54-1.36,1.03-2.18,1.33-.71.27-1.66.58-1.99.6-.19.01-.59.21-.92.53-.18.15-.42.28-.69.42-.65.34-1.15.63-1.09,1.07.04.54.29,1.67.62,2.52.24.52.4,1.25.54,1.95.09.41.17.79.26,1.1.25.78.48,2.1.53,2.84.05.78-.05,2.01-.14,2.87-.1.38-.15.91-.21,1.47-.07.71-.16,1.53-.33,2.21-.29.92-.38,1.59-.45,2.13-.12.97-.2,1.61-1.31,2.44-.27.19-.49.34-.67.47-.88.6-1.01.7-1.69,2.1-.5,1.12-1.33,2.39-2.06,3.15-.62.64-1.99,1.72-2.96,2.39-1.08.71-2.72,1.66-3.77,2.11-1.16.53-2.97,1.28-4.17,1.67-2.14.68-2.62.78-7.85,1.13-5.15.35-5.81.32-7.6-.01-1.07-.18-2.57-.47-3.35-.7-.77-.2-1.76-.66-2.31-1.07-.5-.31-1.09-.95-1.4-1.41-.22-.33-.53-.97-.83-1.58-.11-.23-.22-.46-.33-.67-.31-.79-.92-1.7-1.35-2.14-.42-.36-.92-.56-1.09-.56-.21.01-.95.43-1.8,1.19-.69.59-1.69,1.72-2.29,2.49l-.22.34c-.45.7-1.05,1.66-1.33,2.33-.35.77-.71,2.03-.84,2.76-.13.75-.23,2.31-.15,3.42.08,1.14.3,2.45.46,2.92.37.82.6,1.06.7,1.12.16.13,1.04.34,2.12.33,1.4.11,2.09.2,2.49.56.33.29.65.91.76,1.47.17.56.12,1.23-.14,2.04-.23.7-.61,1.25-1.07,1.52-.45.26-1.37.45-2.05.49-.14,0-.28.01-.43.01ZM47.1,40.76c-.14,0-.28,0-.42,0-1.56.05-3.2.21-4.39.43-1.02.26-2.68.77-3.68,1.16-1.14.42-2.97,1.34-4.03,1.96-1.24.7-2.64,1.7-3.26,2.35-.75.72-1.39,1.7-2.03,3.09-.8,1.69-1.07,2.04-2.08,2.67-.65.38-1.41,1-1.67,1.36-.33.44-.72,1.21-.81,1.79-.15.58-.28,1.62-.23,2.32.05.72.37,1.78.92,3.07.49,1.08.9,2.36.94,2.97.07,1.09-.07,1.24-1.77,3.06-1.01,1.02-2.21,2.52-2.68,3.35-.55.84-1.16,2.18-1.42,2.94-.26.76-.55,2.26-.68,3.28-.06,1.07,0,2.63.12,3.6.12.58.43,2.06.7,2.78.25.62.46,1.84.52,2.66.09,1.29.25,1.67.69,2.16.27.35.79.75,1.11.91.25.08,1.08.15,1.71.11.71-.05,1.5-.23,1.83-.43.34-.2.66-.67.84-1.24.23-.7.27-1.29.13-1.76-.1-.52-.39-1.03-.6-1.21-.28-.25-.9-.33-2.19-.44-.91-.02-2.08-.15-2.4-.43-.24-.15-.53-.59-.87-1.34-.2-.6-.41-1.99-.49-3.07-.08-1.15.02-2.76.16-3.55.14-.76.51-2.08.88-2.87.29-.7.89-1.64,1.37-2.4l.23-.36c.5-.65,1.58-1.89,2.37-2.58.71-.63,1.63-1.28,2.09-1.31.02,0,.04,0,.05,0,.43,0,1.02.34,1.42.7.47.48,1.13,1.44,1.46,2.3.09.19.21.42.32.65.29.6.59,1.22.79,1.52.28.42.83,1.01,1.26,1.28.45.34,1.38.79,2.17,1,.76.22,2.24.51,3.3.69,1.77.33,2.36.36,7.48,0,5.18-.35,5.64-.45,7.73-1.11,1.18-.38,2.97-1.12,4.12-1.65,1.03-.44,2.63-1.38,3.69-2.07.92-.64,2.28-1.71,2.88-2.33.69-.72,1.5-1.96,1.97-3.02.72-1.48.92-1.65,1.86-2.3.18-.13.4-.28.66-.46.94-.71,1-1.18,1.11-2.11.07-.56.16-1.25.46-2.21.16-.63.25-1.42.32-2.12.06-.61.12-1.13.22-1.51.08-.8.18-2.01.13-2.75-.05-.71-.26-1.97-.51-2.72-.1-.33-.18-.73-.27-1.14-.14-.67-.29-1.37-.51-1.85-.32-.84-.61-2.03-.66-2.67-.11-.8.74-1.24,1.36-1.56.24-.12.46-.24.58-.34.38-.37.88-.63,1.22-.66.21-.02,1.01-.25,1.85-.58.9-.32,1.62-.83,1.99-1.2.28-.32.92-1.27,1.31-2.06.5-.88,1.25-1.8,1.83-2.24l1.93-1.51c.54-.42,1.12-1.16,1.43-1.85.5-.98.53-1.4.44-2.79-.07-1.04-.32-2.1-.72-3.08-.31-.82-.77-1.82-1.04-2.16-.22-.42-.88-1.07-1.56-1.54-.71-.56-1.34-.84-2.19-.98-.7-.08-1.48-.09-1.86-.07l-1.99.33c-.78.19-2.16.74-3.05,1.23-1.07.5-1.99,1.18-2.68,1.97-.54.62-1.29,1.69-1.63,2.41-.32.69-.81,2.21-1,3.29-.2,1.24-.55,2.62-.65,3.01-.27.73-.28,1.36-.07,2.72l.69,4.41c.29,1.34.46,2.88.42,3.26-.12.45-.29.94-.4,1.21l-.04.07c-.26.3-1.35.73-2.21,1-1.12.36-2.78.99-3.8,1.49-1.22.55-2.41.9-2.85.93-.76-.03-1.03-.38-2.08-2.16-.7-1.14-1.54-2.19-2.08-2.6-.43-.32-1.38-.7-2.12-.85-.58-.13-2.09-.26-3.41-.26ZM42.69,73.31c-.07,0-.15,0-.22,0-1.22-.09-3.41-.28-4.55-.55-1.09-.18-2.52-.54-3.11-.79-.55-.23-1.22-.73-1.55-1.16-.33-.42-.88-1.52-1.24-2.33-.37-.85-1.09-1.97-1.46-2.47-.41-.54-.85-1.3-.88-1.78-.03-.46.15-1.05.35-1.35.38-.44.94-.62,2.33-.91,1.13-.22,2.26-.56,2.69-.82.48-.25,1.39-1,2.31-1.9.78-.76,1.81-1.66,2.37-1.91.52-.31,1.88-.99,3.06-1.46,1.31-.58,2.97-1.57,4.67-2.78,1.72-1.24,2.98-2.04,4.29-2.49l.76-.26c.73-.25,1.42-.5,1.76-.57.66-.2,1.01-.04,1.58.33.58.51.69.89.76,2.05.05.73-.01,1.77-.2,2.22-.19.46-.58.97-.93,1.21-.29.26-1.22.58-1.94.75-.73.22-1.3.5-1.52.75-.12.19-.21.67-.19.95.03.38.29.76.78,1.13.55.42,1.12.67,1.71.75.48.03,1.24-.02,1.61-.11.3-.12.77-.46,1-.72.24-.34.33-.8.28-1.55-.05-.71.07-2.07.27-2.97.29-1.44.3-2.13.07-3.72-.18-1.73-.22-2.25.12-2.8.24-.36,1.26-1,2.17-1.48.26-.1.52-.21.8-.32.91-.37,1.94-.78,2.7-.98l1.79-.59c.12-.01.29.02.52.05l.25.04c.38.07.84.43,1.09.85.23.32.42.93.45,1.46.03.47-.17,2.3-.3,3.35-.25,1.47-.48,3.57-.53,4.67-.05,1.14-.06,2.92,0,3.97.12,1.75.06,2.05-.81,3.97-.51,1.16-1.35,2.48-1.94,3.09-.5.57-1.84,1.6-2.84,2.26-1.05.65-2.65,1.56-3.7,2.04-.85.43-2.45,1.08-3.55,1.37-.97.33-3.37.82-5.33,1.09-2.51.3-4.05.41-5.75.41ZM54.81,50.2c-.12,0-.24.02-.39.07-.34.07-1.01.31-1.72.56l-.77.27c-1.26.42-2.48,1.21-4.16,2.42-1.73,1.23-3.42,2.24-4.77,2.84-1.17.46-2.49,1.13-3.02,1.44-.43.2-1.31.91-2.25,1.83-.76.74-1.8,1.64-2.42,1.97-.55.32-1.82.67-2.83.87-1.35.29-1.79.44-2.03.72-.13.2-.27.69-.25,1.02.02.31.36.96.78,1.51.4.55,1.12,1.68,1.51,2.57.4.91.91,1.89,1.17,2.23.24.31.82.78,1.35,1,.49.21,1.85.57,3.01.76,1.12.27,3.28.46,4.47.54,1.76.01,3.3-.1,5.89-.4,1.9-.26,4.31-.75,5.25-1.07,1.05-.27,2.64-.91,3.48-1.34,1.04-.47,2.62-1.37,3.65-2.01.95-.62,2.27-1.63,2.74-2.17.56-.57,1.37-1.86,1.85-2.95.84-1.85.88-2.06.77-3.74-.07-1.07-.06-2.87-.01-4.03.05-1.12.29-3.24.54-4.72.21-1.71.32-2.93.3-3.24-.03-.43-.19-.96-.38-1.22-.21-.36-.57-.59-.74-.62l-.25-.03c-.16-.02-.31-.04-.39-.04l-1.71.57c-.73.2-1.75.61-2.65.97-.28.11-.54.22-.78.31-1.05.55-1.82,1.09-1.95,1.29-.24.39-.23.76-.04,2.47.24,1.62.23,2.39-.07,3.88-.21.96-.3,2.24-.26,2.84.06.87-.06,1.44-.39,1.89-.29.33-.83.72-1.23.88-.45.11-1.26.16-1.81.13-.69-.09-1.34-.37-1.96-.84-.61-.47-.94-.97-.97-1.5-.03-.37.08-.95.29-1.28.31-.36.93-.68,1.79-.94.81-.19,1.58-.51,1.76-.67.29-.2.62-.64.78-1.01.14-.34.22-1.25.17-2-.07-1.09-.15-1.33-.57-1.69-.33-.21-.53-.32-.77-.32ZM31.17,61.17c-.38,0-.62-.12-1.05-.45-.59-.44-.74-.93-.78-1.58-.03-.5.1-1.52.31-2.33.26-1.08.31-1.93.22-3.35-.19-1.85-.15-2.22.39-3.36.38-.74.89-1.74,1.27-2.17.38-.51,1.39-1.45,2.35-2.04.89-.59,2.4-1.48,3.44-1.95l3.48-1.36c1.46-.44,2.41-.56,5.32-.7,2.93-.2,3.68-.13,4.76.22.65.24,1.37.67,1.68,1.01.31.41.91,1.3,1.29,2.07.45.77.8,1.77.83,2.21.04.62-.18.96-.53,1.28l-.06.04c-.15.07-.94.45-1.7.65-.69.2-1.63.52-2.2.79-.56.23-2.06,1.25-3.23,2.1-1.78,1.29-3.23,2.14-4.71,2.77l-3.23,1.53c-.32.19-1.29,1.02-2.1,1.81-.8.78-1.95,1.66-2.47,1.97-.57.26-1.54.59-2.27.71-.45.08-.75.14-1,.14ZM40.95,43.05l-3.44,1.35c-.96.44-2.47,1.32-3.36,1.91-.96.6-1.91,1.51-2.23,1.93-.35.41-.87,1.41-1.2,2.07-.5,1.05-.54,1.34-.35,3.11.1,1.48.04,2.37-.23,3.51-.2.76-.33,1.73-.3,2.17.04.62.19.91.59,1.21.54.42.59.42,1.66.22.67-.11,1.6-.42,2.12-.66.48-.28,1.58-1.13,2.36-1.89.75-.73,1.79-1.64,2.21-1.89l3.26-1.54c1.45-.62,2.88-1.46,4.62-2.72,1.14-.83,2.69-1.9,3.32-2.15.58-.28,1.55-.61,2.26-.82.68-.18,1.39-.51,1.59-.61.25-.24.37-.44.34-.85-.02-.33-.32-1.25-.77-2-.38-.75-.95-1.61-1.23-1.99-.24-.26-.9-.66-1.46-.86-.95-.31-1.55-.4-4.57-.19-2.86.13-3.79.25-5.2.67ZM70.5,38.74c-.13,0-.23-.02-.3-.05-.33-.07-.82-.32-1.11-.57-.28-.19-.81-.61-.93-1.05-.16-.32-.52-1.72-.74-3.06-.23-1.43-.49-3.32-.56-4.31-.11-1.58-.08-2.01.51-3.43.35-.83,1.19-2.09,1.76-2.74.59-.75,1.72-1.57,2.29-1.91.72-.39,1.75-.79,2.3-.9.59-.17,1.64-.31,2.38-.36.78-.12,1.82-.06,2.28.13.49.1,1.15.55,1.52.94.44.38.98,1.25,1.28,1.88.37.68.79,1.84.99,2.74.28,1.06.32,1.75.17,2.52-.14.4-.49,1.32-.99,1.88-.39.44-1.16,1.1-1.65,1.46-.55.35-1.34,1.05-1.81,1.6-.37.49-1.1,1.53-1.45,2.21-.57.99-1.07,1.55-1.58,1.79-.47.24-1.58.65-2.47.9-1.03.22-1.59.32-1.92.32ZM76.99,20.8c-.27,0-.55.02-.82.06-.74.05-1.75.19-2.3.35h-.02c-.5.1-1.49.49-2.17.85-.67.4-1.66,1.16-2.15,1.79-.54.62-1.36,1.84-1.69,2.62-.55,1.33-.58,1.7-.48,3.2.07.98.33,2.85.55,4.27.22,1.36.58,2.68.71,2.96.07.24.36.55.77.83.27.24.7.44.92.48l.08.03c.21.06,1.44-.2,1.9-.3.92-.26,1.97-.66,2.37-.87.42-.19.86-.7,1.36-1.57.36-.71,1.1-1.76,1.5-2.29.52-.6,1.34-1.32,1.92-1.69.46-.33,1.19-.96,1.55-1.38.45-.52.79-1.42.88-1.69.13-.65.09-1.28-.17-2.27-.19-.86-.6-1.98-.95-2.63-.3-.62-.79-1.41-1.18-1.75-.33-.35-.91-.74-1.33-.83-.25-.1-.74-.17-1.26-.17Z"/>
        </g>
      </g>
      <g>
        <path class="cls-1" d="M176.83,78.78c-.47-.12-1.11-.32-1.45-.47-.38-.17-.99-.52-1.37-.76-.41-.26-1.11-.81-1.57-1.25-.64-.61-.93-.81-1.16-.84-.17-.03-.44-.03-.61,0-.29.06-.41.2-.93.87-.35.44-.81.93-1.05,1.11-.2.17-.79.49-1.22.73-.47.23-1.05.47-1.34.55-.38.12-.79.15-1.8.15-1.19,0-1.37-.03-2.01-.23-.35-.12-.9-.35-1.19-.55-.35-.2-.61-.47-.81-.79l-.55-.84c-.17-.32-.29-.38-.81-.58-.41-.15-.67-.29-.81-.47-.09-.15-.26-.47-.32-.7-.12-.29-.15-.58-.12-.93,0-.32.12-.7.26-.99.12-.29.35-.61.49-.76.15-.15.44-.32.64-.38.23-.09.49-.23.58-.32.09-.09.26-.32.35-.52.09-.17.38-.58.64-.87.23-.32.61-.7.81-.87l1.05-.7c.38-.23.9-.52,1.16-.64.29-.15.79-.35,1.13-.44.35-.09.76-.23.87-.29.12-.06.26-.23.32-.35.06-.12.06-.35,0-.64-.06-.26-.29-.87-.52-1.37l-.47-.9v-.93c-.03-.87-.03-.93.15-1.19.15-.2.35-.35.76-.49.49-.2.55-.26.84-.76.15-.29.35-.61.44-.73.09-.15.35-.38.58-.52.23-.17.61-.38.84-.47.26-.09.7-.2.99-.26.32-.06.84-.12,1.22-.12s.81.03,1.02.09c.17.03.47.17.64.29s.47.44.67.73c.26.41.38.52.64.58.17.06.49.09.7.15.2.03.47.15.61.26.2.17.26.29.29.64.03.23,0,.55-.06.7-.06.17-.2.38-.35.49s-.47.23-.76.29c-.29.06-.61.17-.7.26-.12.09-.35.41-.52.73-.17.32-.44.67-.61.81-.17.15-.64.49-1.08.73-.41.26-.93.55-1.19.67-.23.12-.73.32-1.13.41l-.84.26c-.09.03-.2.15-.26.26s-.15.35-.17.47c-.03.15.03.58.12,1.05.12.44.26.93.35,1.05l.44.73c.17.29.38.73.44,1.08.09.32.23.73.35.9.12.17.29.38.41.44.17.09.32.09.76.03.29-.06.79-.09,1.05-.09.41,0,.55-.06.73-.2.12-.09.38-.52.55-.93.2-.44.67-1.25,1.13-1.92.67-.96.99-1.34,1.95-2.24.87-.81,1.31-1.16,1.69-1.34.41-.23.61-.26,1.34-.29.47,0,.99.03,1.19.06.17.06.49.2.7.35.17.15.44.44.58.67.12.2.29.49.38.58.12.17.32.23.7.29.29.06.67.17.81.26.15.12.32.32.41.47s.15.47.15.67c0,.23-.03.47-.09.55-.03.09-.17.2-.32.29-.12.06-.44.15-.7.2-.26.06-.64.2-.81.32-.2.12-.55.47-.76.79-.2.29-.49.61-.64.67-.17.09-.26.09-.44,0-.12-.06-.29-.2-.38-.32s-.17-.35-.17-.55c0-.17.03-.35.06-.41.03-.06.32-.23.64-.38.47-.23.61-.38.73-.64.12-.17.23-.64.29-.99.09-.64.09-.67-.15-1.13-.12-.26-.32-.58-.44-.73-.15-.12-.35-.29-.49-.35-.17-.12-.47-.15-1.05-.15-.76,0-.84.03-1.28.23-.29.15-.93.67-1.51,1.22-.87.79-1.19,1.13-1.92,2.15-.52.76-.96,1.48-1.11,1.86-.12.32-.38.79-.52,1.02-.23.32-.38.7-.58,1.45-.17.7-.23,1.11-.2,1.25.06.15.35.49.76.9.38.35,1.02.84,1.4,1.11.41.26.96.58,1.25.7.29.15.84.32,1.22.44.49.09.99.15,1.72.15s1.19-.06,1.69-.15c.38-.09.87-.26,1.13-.38.26-.09.64-.35.84-.52.23-.2.47-.52.61-.81.12-.23.26-.67.32-.96.09-.47.09-.52-.09-.93-.09-.23-.17-.52-.17-.61s.09-.26.17-.38l.64-.58c.26-.23.52-.38.67-.38.12,0,.29.12.41.2.17.17.2.29.2.67v.49l-.58.52c-.58.49-.61.52-.73,1.13-.06.32-.23.84-.38,1.11-.12.29-.41.67-.61.87s-.61.47-.93.61c-.29.15-.84.35-1.22.44-.41.12-1.02.17-1.69.2-.87.03-1.22,0-1.89-.12ZM165.83,78.23c.26-.06.67-.2.87-.29.23-.09.64-.29.93-.47.26-.15.67-.44.87-.61.2-.17.58-.61.81-.93.26-.32.49-.7.55-.81.06-.12.06-.44,0-.9-.06-.38-.12-.84-.17-.99-.03-.17-.2-.41-.38-.58-.17-.15-.38-.41-.47-.58-.09-.17-.23-.55-.29-.87-.09-.41-.29-.79-.61-1.31-.32-.52-.49-.87-.58-1.31-.06-.32-.15-.7-.2-.81-.06-.12-.2-.23-.35-.29-.15-.06-.32-.09-.44-.09-.09,0-.67.17-1.25.38-.73.23-1.37.52-2.01.87-.7.41-1.13.73-1.63,1.22-.41.38-.79.84-.96,1.13-.15.29-.26.64-.26.79,0,.17.06.47.12.7.09.23.15.7.15,1.13,0,.52-.06.93-.2,1.43-.17.61-.2.73-.09,1.02.06.2.2.52.38.76.12.23.38.52.55.67.17.15.49.32.73.44.23.12.67.23.93.32.32.06.87.12,1.51.12s1.19-.06,1.48-.12ZM168.89,65.58c.35-.09.79-.26,1.02-.38l1.13-.64c.41-.23.87-.58,1.08-.79.17-.17.41-.52.52-.79.2-.41.2-.47.12-1.05-.06-.49-.06-.7.03-1.05.06-.23.12-.55.12-.67s-.12-.41-.26-.61c-.15-.23-.41-.47-.52-.55-.2-.15-.38-.17-1.16-.2-.73,0-1.11.03-1.57.15-.32.09-.73.2-.84.29-.15.06-.44.26-.61.41-.2.17-.47.52-.61.79-.17.38-.23.55-.2.81.03.2.12.55.23.81.12.32.17.64.17,1.02,0,.32-.06.84-.09,1.16-.06.32-.09.7-.06.84s.15.32.23.44c.09.12.26.17.44.17.15,0,.52-.09.84-.17Z"/>
        <path class="cls-1" d="M178.17,79.16c-.54,0-.87-.04-1.39-.13h-.02c-.49-.13-1.14-.33-1.49-.48-.38-.17-.99-.52-1.4-.77-.43-.28-1.14-.84-1.61-1.28-.56-.53-.85-.76-1.02-.78-.16-.03-.39-.03-.54,0-.18.04-.26.12-.78.78-.32.4-.81.94-1.09,1.15-.16.14-.56.38-1.25.75-.49.25-1.09.48-1.39.57-.39.12-.8.16-1.88.16-1.23,0-1.42-.03-2.08-.24-.33-.11-.93-.35-1.26-.59-.35-.21-.65-.49-.88-.86l-.55-.84c-.14-.26-.19-.29-.7-.49-.46-.16-.74-.33-.92-.54-.05-.08-.29-.48-.37-.8-.12-.29-.16-.61-.12-1.01,0-.31.11-.72.29-1.08.12-.3.36-.64.54-.82s.51-.37.75-.44c.2-.08.42-.21.47-.26.06-.06.22-.27.3-.45.11-.23.42-.65.68-.94.24-.33.64-.73.84-.9l1.07-.72c.37-.23.91-.53,1.2-.66.31-.15.82-.36,1.18-.45.34-.09.73-.23.82-.27.05-.03.16-.15.21-.24.01-.03.04-.17-.02-.48-.05-.22-.26-.8-.5-1.31l-.49-1.01v-.93c-.03-.89-.03-1,.19-1.33.19-.27.44-.44.88-.59.42-.18.45-.19.71-.65.14-.29.36-.62.45-.75.11-.18.41-.44.65-.59.22-.17.62-.39.89-.49.29-.1.73-.21,1.03-.27.34-.06.88-.12,1.27-.12.36,0,.84.03,1.09.1.21.03.54.21.71.32.22.15.54.51.74.79.27.42.33.45.49.48.11.04.23.05.35.07.13.02.26.05.36.08.21.03.51.16.7.31.27.23.35.41.38.82.03.26,0,.62-.08.81-.07.2-.24.45-.42.6-.21.17-.6.29-.86.34-.29.06-.53.16-.57.2-.08.06-.29.33-.48.67-.19.35-.47.72-.67.89-.21.18-.69.53-1.12.76-.39.25-.92.55-1.21.68-.23.12-.75.33-1.18.42l-.82.26s-.08.07-.11.14c-.05.1-.13.32-.16.41,0,.05.01.36.12.94.21.79.29.93.3.94l.45.75c.18.31.4.77.47,1.17.09.32.22.67.31.8.12.19.26.33.31.35.1.05.18.06.61,0,.3-.06.81-.09,1.08-.09.37,0,.46-.05.57-.15.07-.06.31-.42.48-.84.2-.44.68-1.27,1.16-1.96.7-1,1.03-1.39,1.98-2.28.91-.85,1.35-1.2,1.75-1.38.43-.25.67-.28,1.43-.31h0c.5,0,1.03.03,1.23.06.25.08.59.24.81.39.19.16.48.47.65.74.21.36.31.51.34.54.09.12.22.17.56.22.31.06.72.18.9.29.19.15.39.37.49.55.12.21.18.59.18.8,0,.18-.01.49-.11.66-.07.16-.26.3-.42.39-.2.1-.68.21-.77.23-.24.05-.59.19-.73.28-.18.1-.5.42-.68.71-.02.03-.45.64-.76.77-.23.12-.4.12-.64,0-.16-.08-.36-.25-.47-.39-.13-.17-.22-.46-.22-.7,0-.17.03-.4.08-.52.08-.17.51-.38.76-.5.43-.22.52-.33.6-.51.1-.15.21-.54.27-.93q.08-.58-.12-.98c-.11-.25-.31-.56-.41-.68h-.02c-.11-.1-.28-.24-.38-.27-.17-.11-.5-.13-.95-.13-.73,0-.78.02-1.17.21-.25.12-.86.62-1.45,1.18-.89.8-1.19,1.13-1.89,2.12-.52.75-.94,1.46-1.08,1.81-.13.36-.41.85-.54,1.06-.21.3-.35.64-.55,1.39-.23.93-.2,1.13-.2,1.14.02.03.23.32.69.77.35.33.98.81,1.36,1.08.38.25.93.56,1.2.67.32.16.96.36,1.2.43.38.07.87.13,1.64.13s1.23-.07,1.64-.14c.34-.08.82-.25,1.08-.36.23-.08.58-.31.78-.48.2-.17.41-.46.55-.74.11-.21.25-.63.3-.9.08-.42.08-.43-.07-.78-.02-.06-.2-.53-.2-.71s.14-.42.22-.53l.67-.62c.15-.13.53-.44.84-.44.15,0,.33.08.56.25.28.27.3.48.3.87v.61l-.66.6q-.55.47-.65,1c-.06.32-.24.88-.4,1.18-.12.29-.42.69-.65.93-.25.25-.69.52-1,.66-.32.16-.89.37-1.27.45-.37.11-.94.17-1.73.21-.21,0-.39.01-.56.01ZM176.88,78.54c.64.11.98.14,1.83.11.75-.03,1.29-.1,1.63-.19.39-.09.92-.29,1.18-.42.32-.14.69-.39.87-.56.2-.2.46-.54.56-.79.14-.26.31-.75.36-1.06.13-.68.2-.76.81-1.28l.49-.44v-.38c0-.36-.03-.39-.13-.49-.16-.12-.24-.13-.24-.13-.04,0-.24.08-.5.31l-.64.58c-.03.05-.09.17-.09.21,0,.04.07.26.16.51.19.45.19.56.1,1.06-.06.32-.22.77-.34,1.03-.17.33-.42.68-.67.89-.2.17-.61.47-.93.57-.25.11-.76.29-1.16.38-.61.11-1.11.15-1.74.15-.81,0-1.32-.07-1.76-.15-.46-.14-.99-.31-1.29-.46-.3-.12-.88-.45-1.28-.71-.41-.28-1.05-.78-1.43-1.13-.22-.22-.71-.73-.82-.99-.03-.12-.07-.35.19-1.41.22-.81.38-1.2.62-1.54.13-.2.38-.66.49-.96.15-.39.58-1.12,1.13-1.92.72-1.01,1.05-1.38,1.96-2.2.52-.5,1.22-1.08,1.57-1.26.49-.23.61-.26,1.39-.26.6,0,.95.03,1.19.19.12.04.3.19.46.32l.05.04c.17.21.39.55.51.82.26.52.26.59.17,1.27-.01.09-.14.81-.33,1.09-.13.3-.33.48-.82.73-.3.13-.51.27-.56.31.01-.02,0,.11,0,.25,0,.16.07.33.12.4.07.09.21.21.29.25.11.05.11.05.21,0,.09-.04.33-.29.55-.59.21-.33.59-.72.84-.86.2-.14.62-.29.88-.35.31-.07.57-.15.64-.18.12-.07.19-.14.2-.16.03-.07.07-.21.07-.46,0-.18-.05-.45-.11-.54-.08-.13-.23-.31-.35-.4-.07-.04-.41-.15-.71-.21-.37-.06-.67-.12-.86-.4,0,0-.06-.03-.39-.6-.13-.21-.38-.48-.53-.6-.17-.12-.47-.26-.62-.3-.15-.02-.66-.04-1.11-.04-.69.03-.85.05-1.21.26-.36.17-.79.51-1.64,1.3-.92.86-1.24,1.23-1.92,2.2-.46.67-.92,1.47-1.11,1.88-.14.33-.44.88-.63,1.03-.23.19-.44.25-.88.25-.24,0-.72.03-1,.08-.46.06-.67.07-.92-.05-.22-.11-.46-.45-.5-.52-.16-.23-.31-.72-.38-.97-.06-.35-.26-.76-.41-1.01l-.44-.73s-.12-.16-.38-1.11c-.08-.42-.16-.95-.12-1.16.04-.14.13-.39.2-.53.07-.15.23-.33.41-.39l.85-.26c.41-.09.89-.29,1.1-.39.27-.12.79-.41,1.17-.66.46-.25.91-.59,1.05-.71.13-.11.38-.42.55-.74.17-.3.42-.68.59-.81.14-.14.57-.26.8-.31.29-.06.56-.17.65-.24.11-.09.23-.25.27-.38.04-.11.07-.39.05-.59-.03-.32-.07-.36-.21-.48-.11-.09-.33-.18-.48-.2-.12-.03-.23-.05-.34-.07-.15-.03-.3-.05-.4-.09-.34-.07-.51-.28-.77-.68-.21-.29-.47-.57-.6-.65-.17-.12-.43-.23-.54-.25-.19-.05-.58-.08-.98-.08-.36,0-.87.06-1.18.11-.27.05-.7.17-.95.25-.19.07-.55.26-.77.43-.23.15-.46.36-.52.45-.09.12-.28.42-.43.71-.32.54-.41.64-.97.88-.4.14-.55.27-.65.41-.12.19-.13.19-.1,1.04v.88l.44.85c.24.51.48,1.14.55,1.43.07.36.07.63-.02.81-.08.16-.26.37-.43.46-.15.07-.58.22-.92.31-.32.08-.8.28-1.08.42-.25.11-.75.39-1.14.63l-1.04.69c-.17.14-.53.51-.75.81-.26.29-.54.68-.62.84-.1.23-.3.49-.4.59-.13.13-.44.29-.67.38-.18.05-.43.2-.55.32s-.33.41-.44.67c-.15.31-.24.65-.24.9-.03.35,0,.6.1.84.05.21.19.48.3.66.09.1.32.23.68.36.55.21.73.3.95.7l.54.83c.19.3.43.53.73.71.27.19.79.41,1.15.53.61.19.76.22,1.93.22,1.02,0,1.39-.03,1.73-.13.27-.08.85-.31,1.3-.54.63-.34,1.03-.57,1.17-.69.22-.17.67-.64,1.01-1.07.53-.68.69-.89,1.08-.96.21-.04.5-.04.7,0,.29.04.61.26,1.29.91.44.42,1.13.96,1.53,1.22.4.24.99.58,1.34.74.32.13.94.33,1.4.45ZM164.35,78.6c-.84,0-1.4-.09-1.56-.12l-.28-.08c-.25-.08-.53-.16-.72-.26-.2-.1-.57-.29-.78-.47-.21-.17-.49-.49-.62-.75-.18-.23-.33-.58-.39-.8-.14-.35-.09-.54.09-1.16.14-.48.19-.86.19-1.36,0-.41-.05-.85-.13-1.05-.04-.17-.13-.54-.13-.79,0-.21.14-.61.29-.9.21-.36.63-.85,1.01-1.21.49-.49.93-.82,1.67-1.25.72-.39,1.37-.68,2.06-.89,0,0,1.12-.39,1.33-.39.16,0,.37.04.53.11.21.08.39.24.48.41.1.21.21.81.23.88.08.41.26.74.55,1.22.34.56.55.95.64,1.39.05.3.19.65.27.81.07.14.25.37.4.5.14.13.42.44.46.73.04.08.08.34.14.76l.03.23c.1.8.01.98-.02,1.05-.06.13-.31.52-.58.86-.21.3-.61.76-.84.96-.21.18-.63.48-.92.64-.3.18-.72.39-.96.48-.19.08-.62.24-.91.3h0c-.3.06-.89.12-1.53.12ZM166.38,67.63c-.07.01-.58.16-1.17.37-.66.21-1.29.48-1.97.86-.69.41-1.11.72-1.57,1.18-.42.39-.77.84-.92,1.09-.14.29-.23.58-.23.66,0,.13.04.37.11.64.09.23.15.72.15,1.2,0,.54-.06.98-.21,1.5-.17.6-.18.65-.09.86.06.2.19.49.35.7.12.23.35.49.51.63.12.1.38.25.68.4.15.08.42.16.64.23l.25.08c.26.05.8.1,1.43.1s1.16-.06,1.43-.11c.25-.06.64-.2.83-.28.23-.08.62-.28.9-.45.26-.14.65-.43.84-.59.18-.16.55-.58.78-.89.26-.32.48-.69.53-.78h0s.05-.15-.02-.76l-.03-.23c-.04-.26-.09-.61-.12-.7-.03-.13-.14-.31-.32-.5-.18-.14-.4-.43-.51-.65-.09-.18-.25-.58-.31-.94-.08-.36-.26-.71-.58-1.22-.32-.53-.52-.91-.61-1.39-.07-.36-.15-.68-.18-.75-.03-.05-.12-.13-.22-.17-.12-.05-.26-.07-.34-.07ZM168.04,66c-.27,0-.51-.1-.64-.27-.16-.21-.25-.38-.28-.54-.04-.2,0-.63.06-.94l.02-.18c.03-.31.07-.69.07-.94,0-.34-.05-.63-.16-.93-.12-.27-.21-.64-.25-.86-.04-.34.04-.56.22-.96.16-.29.43-.67.67-.87.16-.14.46-.35.65-.44.13-.08.39-.17.9-.31.47-.12.85-.15,1.64-.15.81.03,1.04.06,1.31.25.13.1.42.35.59.62.14.19.3.54.3.74,0,.17-.08.54-.12.73-.08.3-.08.47-.02.96.09.62.09.72-.14,1.19-.13.28-.37.65-.57.85-.24.24-.73.6-1.13.83l-1.14.64c-.27.13-.72.31-1.08.4-.16.04-.68.18-.91.18ZM170.94,59.1c-.72,0-1.08.03-1.5.14-.59.16-.72.23-.75.25l-.06.03c-.1.04-.37.22-.54.37-.16.14-.41.46-.55.71-.16.36-.2.48-.17.67.03.18.11.51.21.74.14.37.2.72.2,1.12,0,.27-.04.67-.07.99l-.02.2c-.07.36-.08.69-.06.77,0,.03.04.13.19.34.03.04.12.07.24.07.08,0,.39-.06.78-.17h0c.32-.08.74-.25.97-.36l1.12-.63c.4-.23.84-.57,1.02-.75.15-.15.37-.48.47-.71q.18-.36.1-.91c-.06-.52-.07-.75.03-1.15.06-.25.11-.53.11-.61,0-.06-.09-.29-.21-.46-.13-.2-.36-.41-.47-.5-.14-.1-.26-.13-1.02-.15Z"/>
      </g>
    </g>
    <g>
      <path class="cls-1" d="M207.76,82.67c0-7.05,9.66-8.65,13.5-9.38v-1.56c0-4.4-2.11-6.32-5.04-6.32-3.2,0-5.72,2.29-5.72,5.81,0,.78.14,1.74.41,2.66h-.27l-2.38-5.95c1.33-1.51,3.8-3.62,8.61-3.62s7.14,2.11,7.14,6.87v12.73c0,1.83.27,2.47,1.51,2.47.46,0,.92-.09,1.42-.14v.46l-5.27,1.47h-.41v-5.45c-.5,1.6-2.98,5.95-7.64,5.95-3.43,0-5.86-2.38-5.86-6ZM214.67,87.02c3.25,0,5.68-3.39,6.59-5.59v-7.37c-2.61.64-10.53,2.06-10.53,8.15,0,2.56,1.24,4.81,3.94,4.81Z"/>
      <path class="cls-1" d="M230.39,81.25v-11.58c0-2.24-.32-3.11-1.65-3.11-.41,0-.82.09-1.33.14v-.46l5.13-1.24h.6v15.93c0,4.62,1.69,6.09,4.03,6.09,2.88,0,4.99-2.47,6.23-5.26v-12.09c0-2.24-.32-3.11-1.65-3.11-.41,0-.82.09-1.33.14v-.46l5.13-1.24h.6v18.22c0,2.33.27,3.16,1.6,3.16.41,0,.87-.09,1.33-.14v.46l-5.26,1.47h-.41v-4.58c-1.1,2.33-3.43,5.08-7.28,5.08-3.16,0-5.72-1.56-5.72-7.42Z"/>
      <path class="cls-1" d="M253.92,84.91v-15.24c0-2.29-.32-3.11-1.69-3.11-.37,0-.78.09-1.28.14v-.46l5.13-1.24h.59v5.08c.78-1.88,2.93-5.77,7.69-5.77,3.66,0,6.09,1.88,6.09,6.96v13.64c0,1.97.78,2.38,2.98,2.79v.46h-8.56v-.46c2.11-.37,2.79-.82,2.79-2.79v-12.5c0-4.94-2.11-6.45-4.49-6.45-3.2,0-5.63,3.25-6.5,6.13v12.82c0,1.97.69,2.38,2.84,2.79v.46h-8.56v-.46c2.29-.41,2.98-.82,2.98-2.79Z"/>
      <path class="cls-1" d="M273.79,76.44c0-5.22,3.39-12.13,10.99-12.13s10.53,6.91,10.53,11.86-3.07,12.5-10.67,12.5-10.85-6.87-10.85-12.22ZM285.64,87.25c3.94,0,6.87-3.89,6.87-9.25,0-6.04-3.25-12.27-8.65-12.27-4.35,0-7.42,3.85-7.42,9.02,0,6.18,3.75,12.5,9.2,12.5Z"/>
      <g>
        <path class="cls-1" d="M221.49,37.33c1.1.12,2.2.37,2.38.43s.43.3.49.61c.12.3.06.67-.12.79-.18.18-.61.37-1.22.37-.49,0-1.46-.24-2.2-.55-.67-.31-1.65-.55-2.08-.55-.55,0-1.4.37-2.81,1.1-1.16.61-2.44,1.53-2.93,1.95-.49.49-1.59,1.83-2.5,2.99-.92,1.16-1.83,2.62-2.14,3.24-.24.67-.79,1.59-1.1,2.2l-1.04,1.95c-.37.79-.43,1.1-.3,1.77.12.55.43,1.04.73,1.28.31.18,1.28.49,2.14.67,1.34.31,2.26.31,5.8.12,2.75-.12,4.88-.37,6.17-.61l2.5-.61c.31-.12.67-.49.92-.79.24-.3.73-.98,1.16-1.4.67-.67.92-.79,1.77-.79.55,0,1.28.12,1.65.31.31.18.67.55.79.85.18.31.31,1.04.31,1.71,0,.61-.18,1.4-.37,1.71-.12.37-.43.67-.61.73-.18.12-.73.18-1.16.18s-1.34-.31-1.95-.55c-.92-.43-1.4-.55-2.14-.49l-2.99.55c-1.53.3-3.24.49-6.65.61-4.33.12-4.76.06-6.41-.37-1.59-.37-1.83-.37-2.38-.12-.3.18-.73.55-.85.92-.12.3-.43.98-.55,1.46-.18.49-.55,1.34-.92,1.89-.31.55-.79,1.4-.98,1.95l-.79,2.44c-.31,1.04-.67,1.77-1.1,2.2-.37.3-1.04.73-1.46.85-.49.12-1.04.43-1.28.67-.18.24-.73,1.28-1.16,2.38l-1.53,3.17c-.43.73-1.71,2.75-2.87,4.46-1.16,1.71-2.93,4.03-3.85,5.19l-2.62,3.11c-.49.55-1.59,1.53-2.44,2.2-.85.61-2.08,1.71-2.75,2.32-.79.67-2.01,1.4-3.24,2.01-1.1.49-2.75,1.16-3.66,1.46-.98.31-2.44.61-3.36.79-.85.06-2.44.18-3.48.18-1.1,0-2.32-.12-2.81-.24-.49-.18-1.22-.61-1.65-1.04-.67-.67-.98-1.22-1.47-2.99-.43-1.16-.85-2.32-1.04-2.5-.18-.18-.73-.49-1.22-.61-.49-.12-1.1-.43-1.34-.67-.37-.31-.49-.67-.49-1.16,0-.43.18-1.1.43-1.46.24-.37,1.1-1.16,1.89-1.71.79-.61,1.83-1.28,2.32-1.46.49-.24,1.28-.43,1.77-.43.67,0,1.04.12,1.4.49.37.3.55.79.55,1.16s-.12.85-.24,1.1c-.12.18-.79.67-1.53,1.04-.79.37-1.4.85-1.65,1.28s-.43.92-.43,1.22c0,.24.31,1.53.73,2.81.55,1.83.92,2.5,1.4,2.99.67.61.73.61,3.36.67,1.89.06,3.17,0,4.39-.24.92-.18,2.44-.67,3.36-.98.92-.37,2.2-.92,2.81-1.28.67-.37,1.83-1.16,2.62-1.83l2.81-2.32c.79-.61,1.89-1.71,2.44-2.44.55-.67,1.59-1.95,2.32-2.75.67-.79,2.32-2.99,3.6-4.88,1.28-1.95,2.62-4.09,2.99-4.76.37-.67.98-2.01,1.4-2.99.43-1.1.79-2.2.85-3.23.12-.92.37-1.83.49-2.08.18-.24.92-.85,1.65-1.4.79-.55,1.46-1.28,1.77-1.77.24-.49.55-1.4.67-2.01.12-.85.12-1.4-.06-1.89-.18-.55-.43-.79-1.22-1.1-.79-.3-1.53-.37-3.23-.37-1.95.06-2.75.18-5.49.92-1.77.49-3.42,1.04-3.66,1.22-.31.12-.73.61-1.04,1.1-.24.43-.73.98-1.04,1.28-.37.31-.92.49-1.59.61-.73.06-1.16,0-1.65-.24-.43-.24-.85-.61-.98-.92-.12-.3-.24-1.1-.24-1.77,0-.73.18-1.53.37-1.89.12-.3.43-.61.61-.73.18-.06.67-.12,1.04-.12s1.22.24,1.83.55c.61.3,1.47.55,1.89.55s2.2-.43,3.91-.92c2.44-.67,3.6-.86,5.43-.92,1.77-.12,2.69-.06,3.85.24,1.47.3,1.53.3,2.08-.06.31-.24.61-.67.67-.92.12-.31.18-.98.18-1.53.06-.67.18-1.1.43-1.4.24-.18.85-.43,1.34-.49.61-.12,1.16-.37,1.47-.61.18-.24.92-1.47,1.46-2.69.67-1.34,1.65-2.99,2.62-4.21.85-1.1,1.89-2.32,2.26-2.69.31-.43,1.04-.98,1.47-1.28.49-.37,1.77-1.04,2.75-1.59,1.34-.67,2.2-.98,2.75-.98.49,0,1.77.18,2.81.37ZM203.36,27.51l3.42.67,5.49,1.22c2.93.67,4.21.92,6.96,1.04,2.63.12,3.66.3,4.52.61l2.69,1.22c.85.43,2.14.86,2.93,1.04.79.18,2.14.31,2.93.31,1.22,0,1.71-.12,2.62-.55.55-.24,1.71-1.16,2.5-1.95l2.26-2.2c.37-.43,1.04-.92,1.4-1.1.43-.18,1.22-.31,1.77-.31s1.16.12,1.34.31c.18.12.49.43.61.67.12.24.24,1.16.24,1.95,0,1.16-.06,1.53-.43,2.01-.37.43-.67.55-1.22.55-.49-.06-1.34-.31-2.01-.67-.61-.37-1.47-.61-1.83-.61-.49,0-.98.24-2.01,1.16-.79.67-1.77,1.4-2.32,1.65-.85.37-1.4.43-3.11.43-1.28,0-2.75-.18-3.54-.37-.73-.24-2.2-.79-3.24-1.28-.98-.49-2.2-1.04-2.69-1.16-.49-.12-2.38-.31-4.21-.43-2.32-.12-3.91-.31-5.43-.67l-5.55-1.34q-3.48-.79-8.18-.79h-4.7l-2.01.67c-1.16.37-2.69.98-3.48,1.34-.73.3-1.71.92-2.08,1.28-.43.37-.98,1.16-1.28,1.71-.49.98-.55,1.34-.61,3.6,0,1.77.12,3.17.37,4.7.24,1.22.67,2.5.85,2.87.24.37.73.79,1.1.98.37.12,1.28.24,2.01.24s2.14-.24,3.23-.49c1.04-.24,2.26-.67,2.69-.85.43-.24,1.16-.73,1.53-1.04.43-.37,1.04-1.16,1.28-1.77.55-1.04.55-1.1.24-2.26-.18-.61-.3-1.47-.3-1.95,0-.55.12-.92.55-1.28.43-.43.67-.55,1.89-.55.79,0,1.65.12,1.95.31.3.12.67.49.85.79.18.3.31,1.1.31,1.71,0,.92-.12,1.28-.49,1.65-.31.37-1.04.73-1.71.92-1.04.3-1.34.49-1.83,1.22-.31.49-1.1,1.4-1.77,2.08-.85.86-1.53,1.28-2.44,1.65-.73.24-2.08.67-3.11.85-.98.24-2.44.43-3.24.43-.85,0-1.65-.12-2.26-.43-.49-.18-1.16-.67-1.4-1.1-.31-.37-.73-1.22-.85-1.83l-.61-2.38c-.12-.61-.37-1.28-.49-1.4-.12-.12-.79-.37-1.53-.67-.98-.31-1.28-.61-1.59-1.16-.18-.43-.24-.92-.18-1.4.12-.43.37-.92.61-1.22.31-.24,1.04-.61,1.65-.85,1.1-.43,1.28-.61,1.95-1.83.43-.73,1.1-1.71,1.53-2.2.43-.37,1.22-.92,1.65-1.16.49-.24,1.89-.85,3.17-1.34,1.28-.43,3.05-.98,3.85-1.1.85-.18,2.81-.3,4.39-.3s3.6.06,4.39.18Z"/>
        <path class="cls-1" d="M166.31,96.54c-1.15,0-2.39-.13-2.87-.25-.54-.2-1.3-.64-1.76-1.1-.69-.69-1.02-1.26-1.53-3.1-.34-.93-.82-2.22-.97-2.39-.15-.15-.65-.43-1.1-.54-.53-.13-1.18-.46-1.46-.74-.38-.32-.56-.74-.56-1.34,0-.5.21-1.22.47-1.6.28-.42,1.18-1.24,1.96-1.78.73-.57,1.82-1.29,2.37-1.49.48-.24,1.31-.44,1.86-.44.74,0,1.17.15,1.58.56.42.35.62.93.62,1.34s-.14.94-.27,1.21c-.19.28-.93.79-1.64,1.15-.73.34-1.32.79-1.54,1.18-.24.41-.39.85-.39,1.1,0,.17.27,1.39.72,2.73.56,1.85.91,2.46,1.34,2.89q.59.54,3.17.6c1.94.06,3.2,0,4.36-.24.91-.18,2.48-.69,3.33-.97.95-.38,2.19-.92,2.76-1.26.63-.34,1.77-1.11,2.59-1.81l2.81-2.32c.79-.6,1.86-1.68,2.4-2.4l.19-.23c.59-.72,1.49-1.82,2.15-2.54.69-.81,2.33-3.01,3.58-4.85,1.28-1.95,2.62-4.08,2.98-4.74.36-.65.95-1.96,1.39-2.97.38-.97.77-2.1.83-3.15.12-.92.37-1.88.51-2.17.24-.32,1.03-.97,1.72-1.49.79-.54,1.42-1.25,1.71-1.7.22-.45.52-1.34.64-1.93.12-.84.11-1.34-.05-1.76-.16-.47-.33-.67-1.08-.95-.77-.3-1.5-.35-3.14-.35-1.95.06-2.77.2-5.43.91-1.96.54-3.41,1.05-3.58,1.18l-.06.03c-.22.09-.62.52-.92,1-.27.47-.8,1.05-1.07,1.33-.39.32-.93.54-1.72.68-.81.07-1.28,0-1.8-.27-.43-.25-.94-.64-1.1-1.05-.15-.36-.26-1.2-.26-1.86,0-.79.2-1.62.39-2,.14-.36.49-.69.69-.83l.06-.03c.22-.07.73-.13,1.12-.13.43,0,1.32.26,1.94.58.63.31,1.43.52,1.78.52.37,0,2.06-.4,3.84-.91,2.41-.66,3.59-.86,5.49-.93,1.77-.12,2.73-.06,3.92.25q1.4.29,1.87-.03c.25-.2.52-.59.57-.77.11-.27.18-.88.18-1.47.07-.76.21-1.22.48-1.56.32-.25.97-.51,1.51-.58.5-.1,1.02-.31,1.31-.54.21-.29.91-1.47,1.42-2.61.79-1.57,1.78-3.17,2.66-4.27.89-1.14,1.91-2.34,2.28-2.71.22-.31.73-.76,1.5-1.31.37-.28,1.19-.73,1.98-1.16.27-.15.54-.3.79-.44,1.4-.7,2.28-1.01,2.87-1.01.52,0,1.83.19,2.84.37,1.08.12,2.2.36,2.42.44.26.09.57.4.65.8.15.37.06.86-.23,1.05-.17.18-.65.41-1.36.41-.52,0-1.53-.25-2.29-.57-.66-.3-1.6-.53-1.98-.53-.53,0-1.46.43-2.69,1.07-1.12.59-2.4,1.49-2.88,1.92-.49.49-1.64,1.9-2.47,2.96-.91,1.16-1.81,2.6-2.11,3.19-.16.45-.48,1.04-.76,1.56-.12.23-.24.45-.34.64l-1.04,1.96c-.34.75-.39,1-.28,1.61.11.52.41.94.64,1.13.22.13,1.12.43,2.03.62,1.34.31,2.29.3,5.73.12,2.44-.11,4.68-.33,6.13-.61l2.49-.61c.18-.07.51-.36.78-.71l.21-.26c.27-.35.63-.82.97-1.16.69-.69.99-.87,1.95-.87.53,0,1.33.12,1.76.33.35.21.76.61.91.99.22.35.32,1.19.32,1.8s-.18,1.47-.4,1.84c-.12.37-.46.72-.71.83-.35.2-1.17.21-1.27.21-.61,0-1.9-.51-2.04-.57-.91-.42-1.36-.53-2.02-.47l-2.97.55c-1.67.33-3.48.5-6.69.61-4.41.12-4.82.06-6.48-.38-1.6-.37-1.76-.34-2.22-.13-.27.17-.63.49-.72.77l-.11.26c-.14.33-.35.82-.44,1.19-.08.23-.49,1.28-.95,1.97l-.07.13c-.3.54-.71,1.28-.87,1.76l-.79,2.44c-.32,1.08-.7,1.84-1.16,2.3-.36.3-1.08.77-1.57.92-.47.12-.97.41-1.17.61-.13.18-.67,1.19-1.1,2.29l-1.53,3.19c-.46.79-1.75,2.81-2.89,4.49-1.22,1.79-3.05,4.19-3.86,5.2l-2.63,3.12c-.53.6-1.67,1.6-2.48,2.23-.81.58-1.95,1.59-2.73,2.31-.76.64-1.93,1.37-3.29,2.05-1.08.48-2.74,1.16-3.69,1.48-.98.31-2.4.6-3.39.8l-.27.02c-.92.07-2.3.17-3.25.17ZM162.71,82.26c-.47,0-1.22.18-1.66.4-.46.17-1.45.8-2.28,1.44-.79.54-1.62,1.32-1.84,1.65-.21.31-.38.93-.38,1.33,0,.45.12.73.4.97.21.2.76.5,1.24.62.53.13,1.12.45,1.34.67.2.2.5.98,1.1,2.59.49,1.77.78,2.27,1.41,2.9.4.39,1.1.81,1.56.98.43.11,1.61.23,2.72.23.94,0,2.31-.1,3.22-.16l.24-.02c.53-.11,2.24-.45,3.3-.78.9-.3,2.56-.98,3.63-1.46,1.3-.65,2.46-1.37,3.17-1.98.79-.72,1.94-1.74,2.76-2.33.89-.7,1.95-1.65,2.4-2.16l2.62-3.11c.79-1,2.62-3.38,3.83-5.17,1.13-1.67,2.42-3.68,2.86-4.44l1.52-3.16c.42-1.08.97-2.14,1.19-2.42.32-.32.92-.64,1.42-.76.36-.1,1-.5,1.37-.8.38-.38.73-1.08,1.02-2.08l.8-2.45c.17-.53.6-1.29.91-1.85l.08-.15c.34-.52.7-1.32.9-1.86.09-.38.31-.89.45-1.23l.1-.24c.14-.42.6-.83.96-1.04.65-.29.96-.28,2.57.09,1.61.42,2,.48,6.35.36,3.63-.13,5.22-.33,6.61-.61l3-.55c.78-.06,1.31.05,2.29.51.63.25,1.48.53,1.85.53.48,0,.92-.08,1.02-.14l.06-.03c.09-.03.35-.26.45-.57.18-.3.35-1.05.35-1.63,0-.63-.12-1.33-.27-1.58-.11-.27-.42-.6-.71-.77-.29-.15-.97-.27-1.52-.27-.78,0-.95.08-1.59.72-.32.32-.67.78-.93,1.11-.08.11-.15.2-.21.27-.13.16-.57.69-1.02.87l-2.54.62c-1.49.28-3.75.51-6.21.62-3.5.18-4.46.19-5.87-.13-.78-.17-1.84-.48-2.21-.7-.4-.32-.72-.88-.85-1.44-.14-.76-.05-1.13.32-1.93l1.04-1.97c.09-.19.21-.41.34-.65.27-.5.58-1.07.74-1.52.32-.64,1.24-2.12,2.17-3.3.88-1.12,2.01-2.5,2.52-3.01.5-.44,1.78-1.36,2.99-2,1.58-.82,2.37-1.13,2.92-1.13.49,0,1.51.27,2.18.57.69.29,1.64.53,2.09.53.59,0,.93-.18,1.04-.29.09-.07.16-.29.07-.52-.06-.27-.24-.44-.34-.47-.14-.05-1.21-.29-2.33-.42h-.02c-1.02-.18-2.3-.37-2.76-.37-.5,0-1.34.3-2.63.95-.24.14-.51.29-.79.44-.77.43-1.57.87-1.92,1.13-.72.51-1.2.93-1.41,1.23-.38.38-1.41,1.6-2.26,2.69-.86,1.08-1.83,2.63-2.6,4.17-.55,1.22-1.29,2.46-1.49,2.72l-.04.04c-.36.28-.96.54-1.57.66-.49.06-1.05.3-1.24.44-.16.21-.27.59-.33,1.23,0,.49-.05,1.22-.2,1.6-.07.27-.41.74-.75,1.02-.65.43-.81.42-2.28.11-1.16-.3-2.04-.36-3.78-.24-1.86.06-3.02.26-5.38.91-1.56.44-3.47.92-3.97.92-.47,0-1.37-.26-2-.58-.59-.29-1.41-.52-1.72-.52-.33,0-.75.05-.93.1-.16.12-.4.37-.49.6-.18.35-.35,1.11-.35,1.8,0,.65.12,1.41.23,1.68.09.22.45.55.87.79.43.21.81.27,1.5.21.67-.12,1.15-.3,1.45-.55.31-.31.77-.84.98-1.21.28-.45.74-1.02,1.13-1.2.39-.25,2.18-.82,3.72-1.24,2.71-.72,3.54-.86,5.55-.92h0c1.72,0,2.48.06,3.33.38.84.32,1.16.61,1.37,1.25.21.57.18,1.22.07,2.01-.13.65-.44,1.58-.69,2.09-.32.52-1.01,1.28-1.85,1.86-.75.56-1.44,1.15-1.59,1.35-.07.15-.31,1-.44,1.96-.06,1.1-.48,2.28-.87,3.29-.45,1.03-1.05,2.36-1.42,3.02-.37.67-1.71,2.82-3,4.78-1.26,1.86-2.92,4.08-3.62,4.91-.66.72-1.55,1.8-2.14,2.52l-.18.22c-.56.74-1.67,1.86-2.48,2.48l-2.8,2.31c-.85.71-2.02,1.51-2.66,1.86-.74.45-2.36,1.1-2.83,1.29-1.07.35-2.51.81-3.4.99-1.2.24-2.5.31-4.45.25-2.62-.06-2.78-.07-3.52-.74-.51-.51-.89-1.15-1.48-3.1-.42-1.25-.74-2.58-.74-2.88,0-.4.24-.96.46-1.35.28-.49.94-1,1.76-1.38.72-.36,1.34-.83,1.42-.95.09-.18.2-.63.2-.96,0-.28-.14-.71-.46-.97-.33-.33-.63-.43-1.24-.43ZM189.08,47.96c-.97,0-1.77-.15-2.37-.45-.49-.18-1.22-.7-1.51-1.2-.3-.35-.75-1.25-.88-1.91l-.61-2.37c-.13-.63-.35-1.2-.43-1.29-.07-.06-.5-.23-.88-.38-.18-.07-.37-.15-.56-.23-1.03-.32-1.37-.67-1.71-1.27-.21-.49-.28-1.02-.21-1.56.14-.5.4-1.01.66-1.35.38-.31,1.16-.69,1.75-.93,1.04-.4,1.17-.53,1.83-1.72.45-.78,1.14-1.76,1.56-2.24.47-.41,1.28-.97,1.71-1.21.47-.24,1.88-.85,3.21-1.36.68-.23,2.93-.96,3.9-1.11.92-.2,2.98-.31,4.43-.31,1.55,0,3.6.06,4.43.19l3.43.67,5.5,1.22c2.91.67,4.17.91,6.91,1.03,2.73.13,3.75.33,4.59.62l2.71,1.23c.86.43,2.13.85,2.88,1.02.77.18,2.11.3,2.87.3,1.2,0,1.66-.12,2.52-.53.51-.23,1.64-1.12,2.43-1.9l2.26-2.2c.36-.42,1.05-.94,1.47-1.14.51-.22,1.35-.33,1.88-.33s1.26.12,1.52.38c.15.1.5.43.66.74.16.32.27,1.33.27,2.06,0,1.18-.06,1.61-.48,2.16-.41.48-.78.65-1.42.65-.54-.07-1.42-.31-2.13-.7-.59-.36-1.41-.58-1.71-.58-.38,0-.81.18-1.85,1.1-.76.64-1.78,1.42-2.38,1.69-.92.39-1.51.45-3.21.45-1.3,0-2.79-.19-3.59-.37-.72-.24-2.22-.79-3.29-1.3-.97-.48-2.18-1.03-2.64-1.14-.45-.11-2.24-.29-4.17-.42-2.41-.13-4-.32-5.47-.68l-5.55-1.34q-3.45-.79-8.12-.79h-4.66l-1.98.66c-1.12.35-2.64.96-3.45,1.33-.76.32-1.68.91-2,1.23-.41.35-.94,1.11-1.24,1.65-.46.93-.52,1.26-.58,3.49,0,1.67.11,3.06.36,4.65.25,1.24.67,2.48.83,2.8.2.3.65.7.99.87.29.1,1.17.22,1.9.22s2.18-.26,3.18-.48c1.06-.25,2.26-.68,2.64-.84.39-.22,1.11-.71,1.46-1,.4-.34.98-1.09,1.21-1.67q.53-1,.23-2.1c-.19-.65-.31-1.54-.31-2.02,0-.56.11-1.02.64-1.47.48-.48.79-.61,2.05-.61.73,0,1.69.11,2.08.34.34.13.74.55.94.88.22.37.34,1.22.34,1.84,0,.96-.14,1.4-.56,1.83-.35.43-1.17.8-1.82.98-1.01.3-1.25.45-1.69,1.12-.34.54-1.18,1.49-1.8,2.11-.84.84-1.52,1.3-2.52,1.7-1.3.43-2.39.73-3.16.87-.94.24-2.42.43-3.28.43ZM198.96,27.58c-1.68,0-3.55.13-4.34.3-.95.15-3.16.87-3.82,1.09-1.3.5-2.69,1.1-3.14,1.33-.4.23-1.17.76-1.6,1.12-.38.44-1.03,1.38-1.47,2.13-.7,1.28-.93,1.49-2.08,1.94-.64.25-1.32.61-1.58.82-.18.24-.41.7-.53,1.09-.05.41,0,.85.17,1.24.27.48.53.74,1.43,1.02.22.09.41.16.58.24.64.26.93.38,1.05.5.21.21.46,1.02.56,1.53l.61,2.37c.11.57.52,1.4.8,1.73.24.42.87.87,1.3,1.02.56.28,1.28.41,2.17.41.81,0,2.26-.19,3.17-.42.77-.14,1.83-.43,3.09-.85.92-.37,1.56-.8,2.34-1.59.7-.7,1.46-1.59,1.74-2.03.54-.81.91-1.01,1.97-1.33.67-.18,1.33-.53,1.59-.84.3-.3.43-.58.43-1.49,0-.6-.13-1.34-.27-1.58-.17-.29-.5-.6-.73-.69-.25-.15-1.01-.29-1.86-.29-1.18,0-1.35.11-1.71.48-.36.31-.48.58-.48,1.11,0,.44.11,1.27.29,1.88.33,1.24.31,1.36-.26,2.45-.26.64-.9,1.46-1.34,1.84-.38.32-1.13.82-1.56,1.06-.5.22-1.74.64-2.75.88-1.03.23-2.51.5-3.29.5-.72,0-1.68-.12-2.09-.26-.45-.22-.96-.68-1.23-1.08-.22-.43-.65-1.74-.89-2.96-.26-1.63-.37-3.04-.37-4.75.06-2.31.13-2.69.64-3.71.34-.61.9-1.41,1.34-1.79.39-.39,1.4-1.01,2.14-1.32.82-.38,2.36-.99,3.5-1.35l2.09-.68h4.7q4.73,0,8.23.8l5.56,1.34c1.45.35,3.01.54,5.39.67,1.71.11,3.72.3,4.26.43.52.13,1.75.68,2.74,1.18,1.05.49,2.52,1.04,3.2,1.27.75.17,2.2.35,3.46.35,1.72,0,2.22-.07,3.01-.41.45-.2,1.34-.83,2.26-1.61,1.03-.91,1.58-1.22,2.18-1.22.42,0,1.33.26,1.96.64.62.34,1.43.58,1.92.64.46,0,.69-.11,1-.46.31-.41.37-.71.37-1.85,0-.82-.13-1.67-.22-1.84-.09-.19-.36-.46-.53-.58-.13-.13-.62-.26-1.2-.26s-1.3.13-1.67.28c-.35.17-.98.65-1.31,1.03l-2.27,2.21c-.74.74-1.96,1.73-2.58,2-.92.43-1.44.57-2.73.57-.79,0-2.15-.12-2.99-.31-.78-.18-2.09-.61-2.99-1.06l-2.68-1.22c-.77-.28-1.75-.46-4.43-.59-2.79-.12-4.06-.37-7-1.04l-5.49-1.22-3.41-.67c-.77-.12-2.77-.18-4.35-.18Z"/>
      </g>
    </g>
  </g>
  <g>
    <path class="cls-1" d="M78.91,108.41c0,.81-1.3,1.15-1.94,2-.29.38.03.92.35.93.69.02.43-.72,1.13-1.1,1.32-.73,9.66.6,9.66-1.21s-4.83-5.13-16.91-5.13-24.16,4.53-33.22,7.85c-9.06,3.32-19.63,6.95-23.56,7.85s-4.53.6-4.83.3,2.11-3.02,2.72-4.53c.6-1.51.75-3.72,1.21-4.9.46-1.18,1.34-2.56.82-2.95-.51-.39-3.03,1.97-3.44,2.74s.1,1.03-.72,2.83c-.82,1.8-1.49,2.98-3.03,4.93-1.54,1.95-5.55,4.11-5.5,4.78.05.67,3.08,1.18,8.64,0,5.55-1.18,16.09-5.71,28.22-9.97,12.13-4.27,24.01-6.73,31.15-6.73s9.25,1.13,9.25,2.31Z"/>
    <path class="cls-1" d="M2.52,120.43c.64.25,2.91-7.66,8.04-12.06,5.13-4.41,8.04-5.56,11.55-5.6s3.85,1.97,4.79,2.01c.94.04,2.27-1.67,2.18-2.91-.09-1.24-1.5-2.91-4.66-2.91s-9.67,2.22-14.2,7.06c-4.53,4.83-8.81,13.99-7.7,14.42Z"/>
    <path class="cls-1" d="M6.37,108.25c.06-.97-.74.17-.52-1.26.23-1.43,2.29-5.09,4.86-7.78,2.58-2.69,5.61-4.24,6.81-4.41s1.66.29,1.89,0c.23-.29.46-1.72-.74-3.32-1.2-1.6-2.48-2.4-2.95-2-.48.4.23.36-.43,1.41-.66,1.04-5.44,7.98-6.25,7.63s2.27-4.78,1.62-11.07c-.66-6.28-3.62-8.21-6.48-8.1-2.85.12-3.49,1.31-3.71,2.7-.22,1.39.16,1.85.36,1.85s.08-1.47,2.51-1.31c2.43.15,4.47,4.67,4.16,9.21-.31,4.55-1.16,7.79-2.04,9.14-.89,1.35-1.08.62-1.58,1.35-.5.73-2.93,7.33-3.47,10.26-.54,2.93-.56,9.05.07,9.15,1.19.2,1.37-5.15,2.58-8.41,1.2-3.26,3.26-4.06,3.32-5.04Z"/>
    <path class="cls-1" d="M18.46,95.82c-1.08.21-3.93,1.44-6.73,4.34-2.8,2.9-5.71,6.91-4.76,7.43.51.28,2.83-3.69,6.53-6.45,2.96-2.2,4.19-1.99,5.32-2.18s1.47-1.19,1.39-1.88c-.08-.69-.67-1.47-1.75-1.26Z"/>
    <path class="cls-1" d="M4.56,100.06c.64,0,1.9-4.96,1.9-8.3s-1.29-7.04-2.78-7.9c-1.18-.67-2.08.42-2.03,1.01.2,2.24,2.38,1.37,3,7.25.57,5.33-.79,7.95-.1,7.94Z"/>
    <path class="cls-1" d="M245.5,108c-.12-.27-.38-.45-.67-.42l-1.64.16c-.44.04-.73.49-.59.9.2.56.65,1.26,1.65,1.59,1.81.6,11.78.3,11.78,2.11s-37.45,5.44-96.04,5.38c-58.59.05-96.04-3.57-96.04-5.38s9.97-1.51,11.78-2.11c1-.33,1.45-1.03,1.65-1.59.15-.41-.15-.86-.59-.9l-1.64-.16c-.29-.03-.54.15-.67.42-1.27,2.71-21.71-1.15-21.71,3.44,0,3.62,18.72,8.75,107.21,8.75s107.21-5.13,107.21-8.75c0-4.59-20.44-.73-21.71-3.44Z"/>
    <path class="cls-1" d="M312.85,118.02c-1.54-1.95-2.21-3.14-3.03-4.93-.82-1.8-.31-2.06-.72-2.83-.41-.77-2.93-3.14-3.44-2.74-.51.39.36,1.77.82,2.95.46,1.18.6,3.39,1.21,4.9s3.02,4.23,2.72,4.53-.91.6-4.83-.3-14.5-4.53-23.56-7.85c-9.06-3.32-21.14-7.85-33.22-7.85s-16.91,3.32-16.91,5.13,8.34.48,9.66,1.21c.7.39.44,1.12,1.13,1.1.32,0,.64-.54.35-.93-.64-.85-1.94-1.2-1.94-2,0-1.18,2.11-2.31,9.25-2.31s19.02,2.47,31.15,6.73c12.13,4.27,22.67,8.79,28.22,9.97,5.55,1.18,8.58.67,8.64,0,.05-.67-3.96-2.83-5.5-4.78Z"/>
    <path class="cls-1" d="M293.1,104.78c.94-.04,1.28-2.05,4.79-2.01s6.42,1.2,11.55,5.6c5.13,4.41,7.4,12.31,8.04,12.06,1.11-.43-3.17-9.58-7.7-14.42-4.53-4.83-11.04-7.06-14.2-7.06s-4.58,1.67-4.66,2.91c-.09,1.24,1.24,2.95,2.18,2.91Z"/>
    <path class="cls-1" d="M316.13,102.29c-.5-.73-.69,0-1.58-1.35s-1.73-4.59-2.04-9.14c-.31-4.55,1.73-9.06,4.16-9.21,2.43-.15,2.31,1.31,2.51,1.31s.58-.46.36-1.85c-.22-1.39-.86-2.58-3.71-2.7-2.85-.12-5.82,1.81-6.48,8.1-.66,6.28,2.43,10.72,1.62,11.07s-5.59-6.59-6.25-7.63c-.66-1.04.05-1-.43-1.41-.48-.4-1.75.4-2.95,2-1.2,1.6-.97,3.03-.74,3.32.23.29.69-.17,1.89,0,1.2.17,4.24,1.72,6.81,4.41,2.58,2.69,4.64,6.35,4.86,7.78.23,1.43-.57.29-.52,1.26.06.97,2.12,1.77,3.32,5.04,1.2,3.26,1.39,8.61,2.58,8.41.63-.1.61-6.22.07-9.15-.54-2.93-2.97-9.52-3.47-10.26Z"/>
    <path class="cls-1" d="M301.54,95.82c-1.08-.21-1.67.57-1.75,1.26-.08.69.26,1.7,1.39,1.88s2.36-.03,5.32,2.18c3.7,2.76,6.02,6.73,6.53,6.45.95-.51-1.95-4.52-4.76-7.43-2.8-2.9-5.65-4.14-6.73-4.34Z"/>
    <path class="cls-1" d="M318.35,84.87c.05-.59-.85-1.69-2.03-1.01-1.49.86-2.78,4.56-2.78,7.9s1.26,8.3,1.9,8.3c.69,0-.66-2.62-.1-7.94.63-5.88,2.8-5.01,3-7.25Z"/>
  </g>
  <g>
    <path class="cls-1" d="M304.45,51.49c.18.46,1.02.51,1.43.18.93-.75.23-2.37,1.3-2.47s2.79,2.09,5.77,14.84c2.98,12.75,1.65,13.81,2.63,13.79.54-.01,1.19-5.52-2.79-21.56-3.12-12.59-6.75-17.49-8.4-16.52-1.64.98,1.28,10.07.84,10.66-.44.59-1.02.51-.79,1.08Z"/>
    <path class="cls-1" d="M233.7,3.71c1.96.17,7.73.62,8.26.62s2.11-1.03,1.9-1.23c-.44-.44-8.33-.66-8.52-1.23s.47-.32,1.14-.44c.66-.13.89-.41.95-.73.06-.32-.2-.73-.86-.69-.52.03-.56.57-1.16.87s-2.09.1-3.11,0-3.67.13-3.77,1.11c-.09.98,3.2,1.55,5.16,1.73Z"/>
    <path class="cls-1" d="M240.92,7.52c.5,3.1,19.48,1.68,26.76,2.97,7.27,1.29,12.98,4.22,13.18,4.6.28.53-.59.11-.83.25-.39.21-.17.59-.05.64.48.21.77-.18,1.45,0,.68.18,3.44,2.39,4.1,2.55s3.73.95,3.99-.21c.26-1.16-3.49-4.91-9.48-7.75-5.99-2.84-16.23-4.96-19.77-5.49s-6.2-.76-7.35-.71c-1.16.05-3.2.89-3.07,1.18.13.29,4.96.21,9.27.84,4.31.63,8.35,1.55,8.22,2.02s-15.55-.76-17.36-1.05c-1.81-.29-2.55-.6-2.55-1.05s2.89-2.49,7.77-3.28c4.88-.79,10.45-.63,12.55-.45.21-.13,1.52-.95,1.39-1.18s-6.36-.93-11.6-.74c-7.09.25-17.13,3.76-16.63,6.86Z"/>
    <path class="cls-1" d="M290.69,14.92c-.38.96,4.82,3.64,6.27,2.84,1.24-.69-.96-4.37-5.26-7.17s-14.98-7.17-16.51-7.26c-1.53-.1-2.53.57-2.12,1.08s5.81,1,11.77,4.07c5.95,3.06,8.54,5.95,8.2,6.65-.33.69-1.96-1.15-2.34-.19Z"/>
    <path class="cls-1" d="M268.7,3.14c-.04.57.51.85,1.43,1.08.92.23,2.23.07,2.19-.21-.04-.32-.43-.2-.45-.53-.02-.33.68-.96,3.27-1.17s9.25.6,13.68,3.14c4.43,2.54,7.56,5.77,8.19,7.57.63,1.8.55,2.87,1.5,3.71.95.84,2.93.47,3.14.21.21-.27-.65-1.59-.28-2.68.36-1.09,1.75-2.21,3.46-2.24,1.7-.03,1.64,1.01,2.27.93.63-.08,2.04-2.02,2.63-2.97.6-.95,1.61-2.52,1.61-4.94s-1.66-3.93-2.93-4.43c-1.28-.5-2.4.14-2.41.46-.02.32.35.25.73.36.38.11,1.03.68,1.03,2.07s-1.26,3.82-5.11,3.82-5.6-.84-7.89-1.7c-2.29-.87-6.94-2.67-7.28-2.91s.05-.85-.11-1.03c-.16-.17-2.48-1.39-9.34-1.28-6.85.11-9.27,2.18-9.31,2.75Z"/>
    <path class="cls-1" d="M302.11,6.2c3.52,0,4.43-1.55,4.56-2.38.15-.97-.2-2.06-1.29-1.85-.54.11-.27.89-1.32,1.53-1.13.69-5.02.63-8.93-.2-4.1-.86-6.72-1.91-6.77-1.33-.03.39,10.23,4.23,13.74,4.23Z"/>
    <path class="cls-1" d="M314.57,51.7c.74-.36-.02-8.29-3.61-17.25s-8.79-13.37-10.12-12.93c-.72.24-.21,1.69.39,2.97.75,1.57,1.01,1.46,1.12,2.13.07.39,0,.61.09,1.03.14.56.71.69.95.44.3-.32.05-.83.5-.93.46-.1,3.31,3.39,6.25,10.11,2.94,6.72,3.88,14.69,4.43,14.42Z"/>
    <path class="cls-1" d="M315.55,4c-1.2,1.39-5.27,6.29-5.02,6.6.26.33,6.48-4.08,7.59-4.95,1.1-.87,2.08-2.28,1.1-3.15-.97-.87-2.46.1-3.67,1.5Z"/>
    <path class="cls-1" d="M311.75,7.53c.28-.1,1.28-1.67,2.31-2.92,1.03-1.26,2.9-2.63,2.53-3.08-.23-.27-4.79.18-5.02.54s.49.77.67,2.28c.18,1.51-.86,3.32-.49,3.18Z"/>
    <path class="cls-1" d="M318.25,6.68c-1.52,1.08-5.31,3.21-4.99,3.47.23.19,2.53-.21,3.75.37,1.22.59,1.4,1.14,1.7.99l.31-.16s.41-.97.49-2.85c.08-1.88-.12-2.41-.45-2.41-.33,0-.53.38-.81.59Z"/>
    <path class="cls-1" d="M319.36,13.55c-.91-1.38-3.53-2.59-6.36-2.59s-4.76,2.13-4.99,2.71.44,1.92,0,3.22c-.44,1.29-2.19,2.56-3.06,2.62-.87.06-1.61-1.06-2.16-.68-.55.38.14,2.11.68,2.84.54.73,1.86,1.77,2.59,2.08.73.32,1.14-.13,1.59.13s2.14,1.55,4.51,7.48c2.37,5.93,3.5,11.2,3.59,15.3.09,4.1-.5,6.37-.93,6.37s-.21-.95-.62-.69c-.41.25.16,3.53,1.29,3.6,1.14.06,2.05-4.58,2.05-9.59s-.56-10.63-.69-10.79c-.13-.17-.34.15-.97-.39-.63-.54-1.12-1.66-1.62-3.11-.5-1.45-1.86-6.63-2.09-9.93-.22-3.3.7-5.12,1.9-6.11,1.28-1.06,3.1-.65,3.55-.35.34.22.73.66.81,1.06.1.54-.1.88.23.91,1.24.12,1.89-2.26.69-4.07Z"/>
    <path class="cls-1" d="M317.2,16.64c-.52-.4-1.74-.57-2.57.21-.83.78-1.37,2.47-1.25,6.57s2.64,11.3,3,11.16-.41-2.64-.68-4.83c-.27-2.2-.54-6.36.44-10.5.23-.96.9-1.28,1.4-1.06.18.08.58-.85-.34-1.54Z"/>
  </g>
  <g>
    <path class="cls-1" d="M78.03,4.33c.54,0,6.3-.44,8.26-.62,1.96-.17,5.26-.74,5.16-1.73-.09-.98-2.75-1.2-3.77-1.11s-2.5.29-3.11,0-.64-.84-1.16-.87c-.66-.04-.93.37-.86.69.06.32.28.6.95.73.66.13,1.33-.13,1.14.44s-8.07.79-8.52,1.23c-.21.21,1.36,1.23,1.9,1.23Z"/>
    <path class="cls-1" d="M52.24,2.59c2.1-.18,7.67-.34,12.55.45,4.88.79,7.77,2.84,7.77,3.28s-.74.76-2.55,1.05c-1.81.29-17.23,1.52-17.36,1.05s3.91-1.39,8.22-2.02c4.31-.63,9.14-.55,9.27-.84.13-.29-1.92-1.13-3.07-1.18-1.16-.05-3.81.18-7.35.71s-13.79,2.65-19.77,5.49c-5.99,2.84-9.74,6.59-9.48,7.75.26,1.16,3.33.37,3.99.21s3.41-2.36,4.1-2.55c.68-.18.97.2,1.45,0,.12-.05.35-.43-.05-.64-.24-.13-1.11.28-.83-.25.2-.37,5.91-3.31,13.18-4.6,7.27-1.29,26.26.13,26.76-2.97.5-3.1-9.54-6.6-16.63-6.86-5.25-.19-11.47.5-11.6.74s1.18,1.05,1.39,1.18Z"/>
    <path class="cls-1" d="M35.16,8.46c5.95-3.06,11.36-3.56,11.77-4.07s-.59-1.17-2.12-1.08c-1.53.1-12.2,4.46-16.51,7.26-4.3,2.8-6.5,6.48-5.26,7.17,1.45.81,6.65-1.88,6.27-2.84-.38-.96-2.01.88-2.34.19-.33-.69,2.25-3.59,8.2-6.65Z"/>
    <path class="cls-1" d="M12.91,12.95c.63.08.57-.96,2.27-.93s3.09,1.15,3.46,2.24c.36,1.09-.49,2.41-.28,2.68.21.27,2.19.63,3.14-.21.95-.84.87-1.91,1.5-3.71.63-1.8,3.75-5.03,8.19-7.57,4.43-2.54,11.09-3.34,13.68-3.14s3.28.84,3.27,1.17c-.02.33-.41.21-.45.53-.03.28,1.27.44,2.19.21.92-.23,1.47-.51,1.43-1.08-.04-.57-2.46-2.65-9.31-2.75-6.85-.11-9.18,1.11-9.34,1.28-.16.17.23.79-.11,1.03s-4.99,2.04-7.28,2.91c-2.29.87-4.04,1.7-7.89,1.7s-5.11-2.43-5.11-3.82.65-1.96,1.03-2.07.74-.05.73-.36-1.14-.96-2.41-.46c-1.28.5-2.93,2.02-2.93,4.43s1.01,3.99,1.61,4.94c.6.95,2,2.89,2.63,2.97Z"/>
    <path class="cls-1" d="M13.33,3.82c.13.83,1.04,2.38,4.56,2.38s13.78-3.83,13.74-4.23c-.05-.57-2.67.47-6.77,1.33-3.91.82-7.8.89-8.93.2-1.05-.64-.77-1.42-1.32-1.53-1.09-.21-1.44.88-1.29,1.85Z"/>
    <path class="cls-1" d="M16.61,28.09c.24.25.81.12.95-.44.1-.42.03-.64.09-1.03.11-.67.38-.56,1.12-2.13.61-1.28,1.12-2.73.39-2.97-1.33-.44-6.52,3.97-10.12,12.93-3.6,8.96-4.35,16.89-3.61,17.25.55.27,1.49-7.7,4.43-14.42,2.94-6.72,5.79-10.21,6.25-10.11.46.1.2.61.5.93Z"/>
    <path class="cls-1" d="M1.89,5.66c1.1.87,7.33,5.28,7.59,4.95.24-.32-3.82-5.21-5.02-6.6C3.25,2.61,1.76,1.63.79,2.5c-.97.87,0,2.28,1.1,3.15Z"/>
    <path class="cls-1" d="M5.94,4.61c1.03,1.26,2.03,2.82,2.31,2.92.38.14-.67-1.67-.49-3.18.18-1.51.9-1.92.67-2.28s-4.8-.81-5.02-.54c-.37.44,1.51,1.82,2.53,3.08Z"/>
    <path class="cls-1" d="M.94,6.09c-.34,0-.53.53-.45,2.41.08,1.88.49,2.85.49,2.85l.31.16c.31.16.48-.4,1.7-.99,1.22-.59,3.52-.18,3.75-.37.32-.27-3.47-2.4-4.99-3.47-.29-.2-.48-.59-.81-.59Z"/>
    <path class="cls-1" d="M4.5,55.94c1.14-.06,1.7-3.34,1.29-3.6-.41-.25-.2.69-.62.69s-1.02-2.27-.93-6.37c.09-4.1,1.22-9.37,3.59-15.3s4.05-7.23,4.51-7.48c.45-.25.86.19,1.59-.13.73-.32,2.05-1.36,2.59-2.08.54-.73,1.23-2.46.68-2.84-.55-.38-1.29.74-2.16.68s-2.62-1.33-3.06-2.62c-.44-1.29.22-2.63,0-3.22s-2.16-2.71-4.99-2.71-5.44,1.2-6.36,2.59c-1.2,1.81-.55,4.19.69,4.07.33-.03.13-.37.23-.91.07-.4.47-.83.81-1.06.45-.3,2.27-.71,3.55.35,1.2,1,2.12,2.81,1.9,6.11-.22,3.3-1.58,8.48-2.09,9.93-.5,1.45-.99,2.57-1.62,3.11-.63.54-.84.22-.97.39-.13.17-.69,5.78-.69,10.79s.92,9.66,2.05,9.59Z"/>
    <path class="cls-1" d="M3.86,19.24c.98,4.14.71,8.3.44,10.5-.27,2.2-1.04,4.69-.68,4.83s2.88-7.06,3-11.16-.42-5.79-1.25-6.57c-.83-.78-2.05-.61-2.57-.21-.92.7-.52,1.62-.34,1.54.5-.22,1.17.1,1.4,1.06Z"/>
    <path class="cls-1" d="M15.55,51.49c-.18.46-1.02.51-1.43.18-.93-.75-.23-2.37-1.3-2.47s-2.79,2.09-5.77,14.84c-2.98,12.75-1.65,13.81-2.63,13.79-.54-.01-1.19-5.52,2.79-21.56,3.12-12.59,6.75-17.49,8.4-16.52,1.64.98-1.28,10.07-.84,10.66.44.59,1.02.51.79,1.08Z"/>
  </g>
</svg>