<?xml version="1.0" encoding="UTF-8"?>
<svg id="Layer_1" data-name="Layer 1" xmlns="http://www.w3.org/2000/svg" viewBox="0 0 320 123.51">
  <defs>
    <style>
      .cls-1 {
        fill: #FFF5E9;
      }
    </style>
  </defs>
  <g>
    <g>
      <path class="cls-1" d="M113.77,21.52c.63.32,2.45.71,3.94.95l4.73.87c1.1.24,3,.79,4.18,1.27,1.18.48,2.76,1.27,3.55,1.66.71.48,1.74,1.43,2.29,2.22.55.79,1.26,2.14,1.58,3.09l1.03,2.78c.39.95.71,1.27,2.13,1.98.95.48,1.82,1.19,2.05,1.59.24.4.39,1.11.39,1.59s-.24,1.27-.55,1.74c-.39.63-1.1,1.11-2.37,1.59-1.58.71-1.82.95-2.68,2.3-.47.87-1.5,2.06-2.13,2.7-.63.63-2.05,1.51-3.16,1.98-1.03.55-2.68,1.11-3.55,1.27l-3,.56c-1.1.24-1.34.4-1.74,1.19-.24.55-.32,1.27-.24,1.74.08.48.47,1.19.87,1.59l1.97,3.33c.71,1.35,1.5,2.7,1.74,2.93.24.32.95.71,1.58,1.03.63.32,1.34.87,1.66,1.27.24.48.47,1.27.47,1.9,0,.71-.32,1.66-.63,2.38-.55.95-1.03,1.35-2.45,2.06-1.66.87-1.89,1.11-2.84,2.78-.63.95-1.58,2.46-2.21,3.17-.63.79-1.89,1.9-2.76,2.54-.95.55-3,1.66-4.58,2.3-1.58.71-3.87,1.59-5.13,1.98-1.34.4-3.55.87-4.89,1.11-1.74.24-4.66.4-8.6.4-4.89,0-6.31-.08-7.34-.48-.95-.32-1.89-.87-3.16-2.14-1.66-1.59-1.81-1.66-2.84-1.51-.63.08-1.26.4-1.58.79-.32.32-.87,1.11-1.18,1.66-.39.55-1.18,1.27-1.74,1.59-.55.32-1.34.56-1.81.71-.39.08-1.74-.08-3-.32-1.42-.24-2.84-.32-3.79-.24l-3.47.32c-1.03.08-2.29.08-2.84,0-.55-.08-1.42-.56-1.97-1.03-.55-.4-1.42-1.35-1.81-1.9-.47-.63-1.1-1.27-1.34-1.43-.32-.16-1.34-.4-2.29-.56-.95-.08-1.97-.4-2.29-.63-.24-.24-.63-.87-.79-1.43-.16-.63-.16-1.27,0-1.9.16-.48.63-1.19,1.03-1.59.55-.48,1.1-.63,3.55-.79,1.66-.16,3.47-.4,4.34-.71.87-.32,2.21-.55,3.08-.55s2.52.32,4.42.87l5.44,1.59c1.42.4,3,1.03,3.55,1.35.55.32,1.26.87,1.5,1.19.32.32.95.79,1.42.95.47.32,1.1.4,1.74.24.71-.16,1.18-.48,1.82-1.35l1.5-1.98c.39-.4,1.58-1.11,2.6-1.66,1.1-.55,2.21-1.27,2.52-1.66s1.03-1.59,1.58-2.7c.55-1.03,1.74-2.85,2.68-3.88.87-1.03,2.29-2.85,3.08-4.04l3.71-5.47,4.1-5.87,4.42-6.34c1.42-1.98,3.16-4.2,3.87-4.92.95-1.11,1.26-1.66,1.5-2.85.08-.79.39-1.82.63-2.22.24-.4.87-.87,1.74-1.27.79-.32,1.97-.56,2.68-.56.95,0,1.42.16,1.82.56.24.32.55.95.63,1.51s.08,1.59,0,2.22c-.16.71-.47,1.51-.71,1.74-.32.32-1.18.48-3,.63l-2.53.16-1.18,1.11c-.71.63-2.37,2.7-3.71,4.6l-4.42,6.34-4.58,6.58-3.87,5.63c-.79,1.11-1.97,2.62-2.68,3.41-.79.79-1.89,2.54-2.6,3.88-.63,1.35-1.58,2.78-2.05,3.25-.55.48-1.58,1.11-2.37,1.51-.71.4-1.82,1.03-2.29,1.51-.55.48-1.1,1.11-1.34,1.51-.24.4-.39,1.03-.39,1.35s.55,1.03,1.34,1.74c1.1,1.11,1.58,1.35,3,1.59,1.18.24,3.23.32,6.94.24,3-.08,6.39-.4,7.73-.63,1.34-.24,3.55-.79,4.89-1.19l5.13-1.98c1.97-.95,3.08-1.66,4.5-3.01,1.1-1.03,2.13-2.3,2.68-3.41.87-1.59.95-1.74.71-3.81-.16-1.98-.08-2.22.63-3.57.39-.79.71-1.82.71-2.38s-.47-1.82-1.34-3.41c-.71-1.35-1.5-2.78-1.89-3.25s-1.03-.87-2.13-1.11c-.79-.24-1.74-.63-1.97-.87-.32-.16-.55-.71-.71-1.19-.08-.63.08-1.27.39-2.06.32-.71.79-1.35,1.1-1.51.39-.16,1.66-.32,2.92-.32s3.47-.24,4.81-.48c1.42-.24,3.23-.79,4.02-1.19.79-.4,2.05-1.19,2.68-1.74.71-.63,1.58-1.66,1.97-2.38.55-1.19.63-1.51.47-3.25-.08-1.11,0-2.62.16-3.49.32-1.43.32-1.82-.39-3.96-.39-1.27-1.03-2.78-1.34-3.41-.39-.55-1.1-1.43-1.58-1.82-.47-.32-1.58-1.03-2.45-1.43-.87-.4-2.37-.95-3.39-1.27-1.03-.32-3.24-.79-4.97-1.11-1.82-.24-3.71-.48-4.26-.48s-1.42.08-1.82.24c-.47.24-2.68.32-5.44.32-3.55.08-5.21.24-7.5.63-1.58.4-4.1.95-5.52,1.43-1.5.4-5.05,1.9-7.89,3.25-4.89,2.3-5.29,2.54-8.05,4.99l-4.1,3.65c-.79.63-1.42,1.51-1.81,2.54-.47,1.27-.55,1.82-.39,3.49.08,1.43,0,2.62-.24,3.81-.39,1.51-.39,1.74.16,4.28.39,1.43.87,2.93,1.18,3.33.24.4.87.87,1.34,1.11.63.32,1.5.48,3,.4,1.18,0,3.08-.24,4.34-.56,1.18-.32,2.6-.79,3.08-1.11.47-.32,1.18-1.03,1.66-1.59.47-.63,2.05-2.3,3.55-3.81,2.53-2.46,2.76-2.85,3.31-4.6l.63-1.9-.63-1.82c-.39-1.19-.55-2.14-.47-2.7.08-.48.39-1.03.71-1.27.24-.24,1.1-.56,1.81-.63.79-.16,1.89-.16,2.53-.08.71.16,1.34.48,1.89,1.03.55.63.79,1.11.79,2.06,0,.79-.24,1.51-.47,1.9-.24.32-1.26.87-2.21,1.27l-2.05,1.11-.95,1.98c-.32.87-.87,1.98-1.26,2.54-.39.48-1.58,1.66-2.6,2.62-.95.95-2.45,2.46-3.16,3.41-.95,1.11-1.89,1.9-2.68,2.3-.71.32-1.97.79-2.92.95-.95.24-2.84.56-4.18.63-1.74.08-2.92,0-3.63-.24-.55-.16-1.42-.63-1.97-1.11-.55-.4-1.18-1.11-1.42-1.51-.24-.4-.55-1.59-.79-2.54s-.63-2.14-.79-2.54c-.16-.56-.79-.95-1.97-1.51-1.34-.48-1.81-.87-2.13-1.51-.16-.48-.32-1.19-.16-1.74.08-.48.39-1.19.63-1.51.32-.32,1.26-.95,2.21-1.35,1.58-.87,1.66-.95,2.37-2.7.39-1.03,1.03-2.3,1.34-2.7.32-.48,1.26-1.35,2.05-1.98l3.87-3.25c2.05-1.82,2.92-2.38,6.63-4.28l6.15-2.77c1.03-.4,2.92-.95,4.26-1.35l5.21-1.19c1.42-.24,3.79-.56,5.13-.63,1.89-.16,2.76-.4,3.87-.95.87-.4,1.89-.79,2.37-.79s1.42.24,2.13.48ZM60.19,75.51c-.63.32-1.26.79-1.42,1.03-.08.24-.32,1.03-.39,1.74-.16,1.03-.08,1.51.39,2.46.32.71,1.1,1.66,1.66,2.22.55.48,1.42,1.03,1.89,1.11.55.08,2.13,0,3.71-.24,2.52-.4,2.92-.4,5.13,0,1.26.24,2.6.4,2.92.4s.95-.16,1.42-.4c.39-.16,1.03-.71,1.34-1.11.32-.4.71-1.11.79-1.59.16-.71,0-.95-1.03-1.9-.87-.79-1.66-1.19-3.55-1.74-1.34-.32-3.79-1.03-5.37-1.59-2.05-.55-3.47-.87-4.66-.87-1.03,0-2.05.24-2.84.48Z"/>
      <path class="cls-1" d="M74.48,86.59c-.99,0-2.59-.29-2.8-.33-1.31-.22-2.7-.31-3.62-.23l-3.47.32c-1.08.08-2.39.08-2.98,0-.72-.1-1.69-.67-2.28-1.17-.56-.4-1.47-1.39-1.91-2.01-.44-.58-1.03-1.17-1.19-1.28-.12-.05-.95-.28-2.05-.46-.94-.08-2.11-.41-2.55-.75-.37-.37-.82-1.1-1-1.74-.19-.75-.19-1.48,0-2.21.21-.65.76-1.44,1.18-1.86.74-.64,1.43-.81,3.94-.97,2.02-.19,3.5-.43,4.17-.68.92-.34,2.33-.59,3.28-.59s2.67.33,4.59.89l5.44,1.59c1.44.4,3.06,1.05,3.68,1.4.56.33,1.37.93,1.68,1.35.23.23.79.63,1.13.74l.14.07c.33.22.78.28,1.26.16.53-.12.9-.32,1.47-1.12l1.51-1.99c.62-.63,2.3-1.56,2.8-1.83,1.18-.59,2.13-1.24,2.34-1.51.28-.35.97-1.5,1.51-2.59.54-1,1.75-2.9,2.78-4.02.89-1.06,2.27-2.84,3.02-3.97l3.71-5.48,8.53-12.22c1.31-1.83,3.14-4.2,3.93-5,.88-1.04,1.13-1.5,1.34-2.55.07-.77.4-1.9.7-2.41.31-.52,1.04-1.07,2-1.51.87-.35,2.12-.61,2.93-.61.91,0,1.63.12,2.24.73.35.46.71,1.18.8,1.85.09.6.09,1.69,0,2.38-.12.57-.45,1.67-.88,2.09-.43.43-1.22.62-3.37.81l-2.33.15-1.02.96c-.68.61-2.3,2.62-3.63,4.51l-12.86,18.55c-.81,1.14-2.01,2.66-2.73,3.47-.76.76-1.83,2.46-2.52,3.76-.67,1.42-1.64,2.88-2.16,3.39-.68.59-1.78,1.25-2.52,1.62-.4.22-1.68.94-2.13,1.39-.58.5-1.07,1.08-1.25,1.39-.18.3-.31.83-.31,1.04.03.08.37.6,1.14,1.3,1.03,1.03,1.38,1.22,2.7,1.44,1.17.24,3.27.31,6.83.23,2.89-.08,6.28-.39,7.64-.63,1.32-.23,3.53-.79,4.83-1.17l5.08-1.97c1.95-.94,2.97-1.62,4.3-2.89,1.11-1.03,2.06-2.24,2.56-3.24.85-1.56.87-1.59.65-3.47-.17-2.11-.07-2.46.7-3.92.39-.79.64-1.71.64-2.1,0-.28-.27-1.29-1.27-3.12-1.2-2.27-1.66-2.95-1.83-3.16-.35-.43-.94-.72-1.8-.91-.61-.18-1.74-.59-2.2-.97-.37-.23-.66-.69-.93-1.49l-.03-.12c-.08-.69.04-1.37.43-2.36.32-.73.87-1.56,1.39-1.82.56-.23,1.91-.38,3.19-.38s3.44-.24,4.71-.47c1.42-.24,3.17-.79,3.86-1.13.74-.37,1.97-1.14,2.56-1.66.68-.61,1.49-1.58,1.84-2.22.49-1.06.55-1.26.4-2.91-.08-1.12,0-2.69.16-3.65.29-1.31.32-1.58-.37-3.67-.38-1.23-1-2.72-1.31-3.33-.36-.5-1.03-1.3-1.43-1.63-.28-.18-1.43-.94-2.31-1.34-.81-.37-2.27-.92-3.32-1.24-1.02-.32-3.24-.79-4.9-1.09-1.05-.14-3.57-.47-4.15-.47s-1.33.09-1.59.2c-.2.1-.71.36-5.67.36-3.37.08-5.03.22-7.39.63-.38.1-.88.22-1.41.34-1.41.34-3.02.72-4.03,1.06-1.53.41-5.16,1.96-7.82,3.22-4.85,2.28-5.22,2.51-7.91,4.9l-4.1,3.65c-.74.59-1.3,1.38-1.65,2.3-.42,1.13-.51,1.59-.36,3.22.08,1.47,0,2.73-.25,3.98-.37,1.4-.39,1.51.16,4.04.72,2.6,1.03,3.04,1.07,3.08.2.32.71.73,1.14.95.59.3,1.42.4,2.7.33,1.18,0,3.02-.24,4.23-.54,1.29-.34,2.53-.79,2.89-1.03.42-.28,1.09-.96,1.53-1.48.52-.69,2.26-2.51,3.58-3.84,2.49-2.42,2.65-2.72,3.17-4.36l.57-1.72-.56-1.63c-.3-.89-.62-2.13-.5-2.98.11-.64.5-1.33.94-1.66.33-.34,1.37-.67,2.11-.75.81-.16,1.97-.16,2.67-.08.92.2,1.64.59,2.24,1.2.63.73.96,1.32.96,2.48,0,.94-.29,1.76-.56,2.21-.48.65-2.16,1.37-2.49,1.51l-1.83.99-.86,1.81c-.31.87-.89,2.02-1.31,2.62-.44.53-1.63,1.73-2.69,2.71-.88.89-2.39,2.41-3.08,3.33-.99,1.16-2.01,2.03-2.89,2.48-.82.37-2.11.84-3.09,1.01-.95.24-2.88.56-4.25.64-1.84.08-3.06,0-3.85-.27-.63-.18-1.58-.71-2.17-1.22-.58-.42-1.27-1.19-1.54-1.65-.22-.37-.48-1.18-.86-2.7-.23-.94-.62-2.1-.76-2.46-.12-.42-.87-.81-1.67-1.18-1.35-.48-2-.95-2.41-1.78-.22-.64-.4-1.47-.2-2.18.08-.53.45-1.33.73-1.7.44-.46,1.47-1.13,2.46-1.54q1.39-.77,2.04-2.37c.37-.97,1.04-2.35,1.43-2.84.38-.58,1.53-1.58,2.14-2.08l3.86-3.24c2.08-1.84,2.96-2.42,6.74-4.36l6.18-2.79c1.03-.4,2.83-.93,4.14-1.32l.2-.06,5.24-1.2c1.55-.26,3.9-.57,5.23-.65,1.91-.16,2.67-.4,3.63-.89.87-.4,2.01-.86,2.64-.86s1.76.32,2.32.51l.08.03c.49.25,2.11.63,3.77.89l4.75.88c1.1.24,3.05.8,4.3,1.3,1.22.49,2.83,1.3,3.6,1.69.79.52,1.89,1.52,2.51,2.41.54.77,1.3,2.17,1.66,3.25l1.02,2.76c.31.76.51.99,1.84,1.65.99.5,1.98,1.28,2.3,1.82.31.52.48,1.35.48,1.89,0,.61-.29,1.52-.65,2.08-.46.74-1.26,1.29-2.66,1.82-1.45.66-1.59.82-2.39,2.06-.53.99-1.68,2.26-2.21,2.79-.76.76-2.29,1.66-3.34,2.11-1.04.56-2.76,1.14-3.68,1.31l-3,.55c-.98.21-1.03.3-1.31.87-.19.45-.24,1.04-.18,1.38.06.35.39.95.7,1.26l.09.12,1.97,3.33c.83,1.57,1.5,2.66,1.65,2.82.1.13.34.37,1.42.92.69.35,1.48.95,1.86,1.43l.07.11c.27.54.54,1.42.54,2.17,0,.97-.48,2.16-.68,2.62-.64,1.12-1.2,1.59-2.73,2.36-1.54.81-1.69.96-2.59,2.54l-.4.61c-.6.91-1.34,2.05-1.88,2.66-.65.82-1.96,1.97-2.86,2.62-.93.55-3.02,1.69-4.71,2.37-1.48.67-3.81,1.57-5.17,2-1.36.4-3.57.88-4.97,1.13-1.91.26-5,.41-8.71.41-5.11,0-6.46-.09-7.55-.52-1.15-.38-2.16-1.07-3.37-2.28-1.53-1.46-1.54-1.46-2.32-1.34-.55.07-1.01.34-1.2.58-.3.31-.82,1.04-1.13,1.59-.47.67-1.32,1.44-1.96,1.81-.53.31-1.22.53-1.73.7l-.2.07c-.13.03-.3.04-.5.04ZM68.8,84.79c.92,0,2.01.1,3.09.28,1.48.28,2.56.36,2.78.32l.13-.05c.45-.15,1.08-.35,1.5-.6.49-.28,1.21-.94,1.55-1.41.29-.52.87-1.37,1.25-1.74.37-.47,1.14-.87,1.93-.97,1.33-.2,1.68.09,3.33,1.67,1.35,1.35,2.24,1.77,2.93,2,.94.36,2.27.45,7.15.45,3.66,0,6.68-.14,8.52-.39,1.36-.24,3.54-.72,4.8-1.09,1.15-.36,3.41-1.21,5.05-1.95,1.52-.61,3.53-1.69,4.52-2.27.79-.58,2.01-1.66,2.6-2.39.5-.57,1.22-1.67,1.8-2.54l.38-.58c.99-1.74,1.3-2.05,3.06-2.97,1.41-.71,1.75-1.04,2.21-1.83.33-.76.55-1.56.55-2.08s-.19-1.16-.38-1.58c-.26-.3-.85-.78-1.42-1.06-.98-.49-1.53-.86-1.79-1.21-.41-.4-1.73-2.91-1.79-3.01l-1.92-3.24c-.47-.5-.88-1.28-.98-1.85-.1-.62,0-1.45.28-2.08.52-1.05.95-1.28,2.16-1.54l3.01-.56c.82-.15,2.4-.68,3.38-1.21,1.13-.49,2.46-1.32,3.02-1.88.68-.69,1.63-1.82,2.03-2.56.94-1.47,1.24-1.78,2.96-2.56,1.17-.44,1.79-.84,2.1-1.36.27-.41.46-1.08.46-1.43,0-.41-.14-1-.31-1.28-.14-.23-.86-.88-1.81-1.36-1.52-.77-1.95-1.17-2.42-2.29l-1.03-2.8c-.32-.96-1.02-2.25-1.51-2.96-.52-.75-1.49-1.64-2.13-2.06-.69-.34-2.27-1.13-3.44-1.61-1.19-.48-3.05-1.02-4.08-1.24l-4.72-.87c-1.11-.18-3.22-.58-4.06-.98-.75-.25-1.56-.43-1.9-.43-.25,0-1,.23-2.12.74-1.21.61-2.16.84-4.07,1-1.3.08-3.6.38-5.08.63l-5.33,1.23c-1.29.38-3.06.91-4.02,1.27l-6.12,2.76c-3.68,1.89-4.47,2.4-6.48,4.18l-3.88,3.26c-.87.7-1.7,1.49-1.94,1.85-.28.35-.88,1.53-1.28,2.58-.76,1.87-.93,2.06-2.64,3.01-.98.41-1.85,1.02-2.07,1.25-.13.18-.4.8-.46,1.18-.1.38-.05.9.14,1.46.16.32.42.65,1.76,1.13,1.37.64,2.13,1.12,2.35,1.91.14.34.54,1.55.79,2.56.41,1.65.62,2.2.72,2.37.19.31.75.97,1.25,1.33.56.48,1.36.9,1.79,1.02.66.22,1.8.29,3.44.21,1.25-.07,3.11-.38,4.06-.62.86-.15,2.03-.56,2.82-.92.72-.36,1.61-1.13,2.47-2.14.72-.96,2.26-2.51,3.19-3.44,1.02-.95,2.19-2.12,2.57-2.58.33-.48.87-1.55,1.16-2.36l1.05-2.21,2.22-1.2c1.11-.47,1.88-.94,2.02-1.1.16-.27.35-.89.35-1.54,0-.79-.17-1.12-.64-1.67-.42-.42-.93-.7-1.57-.84-.54-.07-1.58-.06-2.28.08-.67.08-1.37.35-1.51.47-.24.19-.48.6-.54.94-.06.45.1,1.36.45,2.41l.69,2.01-.69,2.09c-.6,1.9-.96,2.4-3.47,4.84-1.65,1.66-3.09,3.2-3.49,3.74-.52.61-1.27,1.36-1.8,1.72-.77.52-3,1.12-3.26,1.19-1.31.33-3.24.58-4.49.58-1.46.08-2.48-.06-3.27-.46-.54-.27-1.27-.81-1.59-1.34-.08-.1-.43-.53-1.25-3.48-.57-2.63-.58-2.97-.16-4.59.22-1.13.29-2.26.22-3.62-.16-1.69-.08-2.35.43-3.73.43-1.12,1.12-2.09,2-2.79l4.08-3.63c2.78-2.48,3.24-2.76,8.19-5.09,2.78-1.32,6.41-2.87,7.99-3.29,1.03-.34,2.66-.74,4.1-1.08.52-.12,1.01-.24,1.44-.35,2.47-.43,4.18-.57,7.63-.65,4.28,0,5.06-.2,5.19-.25.59-.24,1.62-.3,2.08-.3.55,0,2.13.19,4.34.48,1.73.31,4,.8,5.07,1.13,1.09.34,2.62.91,3.46,1.3.93.43,2.08,1.17,2.53,1.47.6.5,1.36,1.45,1.73,1.98.36.7,1.01,2.24,1.43,3.58.75,2.25.75,2.75.41,4.27-.15.84-.22,2.31-.14,3.32.17,1.86.07,2.27-.53,3.55-.43.78-1.33,1.87-2.12,2.57-.69.61-2,1.42-2.81,1.83-.89.45-2.78,1.01-4.19,1.25-1.31.23-3.56.48-4.91.48s-2.45.18-2.7.27c-.09.05-.48.53-.78,1.19-.29.73-.4,1.23-.35,1.69.23.67.39.78.4.79l.15.11c.14.12.88.47,1.72.72,1.08.23,1.89.66,2.42,1.3.36.43,1,1.53,1.96,3.35.42.77,1.41,2.68,1.41,3.69,0,.71-.39,1.87-.77,2.64-.65,1.24-.72,1.37-.57,3.25.25,2.16.14,2.46-.78,4.14-.55,1.1-1.6,2.44-2.8,3.56-1.41,1.34-2.54,2.1-4.65,3.11l-5.17,2c-1.4.42-3.63.98-5,1.22-1.4.25-4.87.57-7.82.64-3.7.08-5.81,0-7.08-.25-1.54-.26-2.13-.57-3.31-1.75-.55-.5-1.52-1.47-1.52-2.17,0-.41.18-1.16.48-1.66.28-.48.89-1.15,1.47-1.65.47-.48,1.53-1.1,2.39-1.58.83-.42,1.79-1.03,2.27-1.44.34-.35,1.25-1.66,1.9-3.05.72-1.36,1.87-3.19,2.72-4.05.68-.75,1.83-2.23,2.62-3.33l12.86-18.55c1.4-1.98,3.07-4.05,3.8-4.7l1.33-1.25,2.74-.17c1.56-.14,2.44-.29,2.61-.46.1-.11.39-.72.55-1.45.06-.52.06-1.51,0-2.01-.07-.46-.34-1-.52-1.23-.19-.18-.48-.31-1.33-.31-.65,0-1.76.23-2.46.51-.79.36-1.3.77-1.45,1.02-.17.28-.47,1.21-.55,1.97-.28,1.4-.67,2.05-1.64,3.18-.69.7-2.4,2.87-3.83,4.88l-8.52,12.2-3.7,5.46c-.77,1.16-2.19,2.99-3.11,4.09-.88.95-2.03,2.7-2.61,3.78-.53,1.06-1.27,2.32-1.64,2.79-.42.53-1.67,1.3-2.73,1.83-1.15.62-2.16,1.26-2.45,1.55l-1.45,1.92c-.68.94-1.27,1.37-2.16,1.57-.76.19-1.54.09-2.13-.28-.6-.23-1.27-.76-1.58-1.07-.22-.28-.84-.79-1.37-1.09-.48-.28-2.01-.9-3.41-1.29l-5.45-1.59c-1.78-.52-3.41-.85-4.25-.85s-2.08.23-2.87.52c-.78.29-2.29.54-4.49.75-2.42.16-2.82.31-3.22.65-.31.32-.73.95-.85,1.32-.12.5-.12,1.03.01,1.57.12.43.46.98.63,1.15.12.08,1.01.38,1.91.46.74.12,2.04.38,2.51.62.41.27,1.09.99,1.55,1.6.38.53,1.21,1.43,1.68,1.77.53.46,1.3.87,1.71.92.5.07,1.75.07,2.71,0l3.46-.32c.26-.02.55-.03.85-.03ZM74.08,84.83c-.41,0-1.82-.18-3.03-.41-2.14-.38-2.46-.38-4.92,0-1.54.23-3.21.34-3.89.24-.69-.12-1.69-.81-2.2-1.25-.51-.51-1.43-1.56-1.81-2.43-.52-1.04-.61-1.65-.44-2.79.1-.86.41-1.8.42-1.84l.07-.14c.26-.39,1.05-.93,1.65-1.23l.1-.04c1.11-.33,2.12-.5,3.01-.5,1.26,0,2.72.33,4.81.89,1.67.59,4.1,1.29,5.35,1.58,1.98.58,2.87,1.02,3.82,1.88,1.01.94,1.45,1.4,1.21,2.48-.1.63-.6,1.45-.91,1.83-.31.39-1.03,1.07-1.59,1.29-.47.24-1.2.44-1.64.44ZM68.72,82.94c.72,0,1.41.1,2.55.31,1.25.24,2.55.39,2.81.39.21,0,.74-.13,1.15-.33.31-.13.86-.59,1.14-.95.3-.38.61-.99.67-1.31.1-.43.11-.48-.84-1.36-.8-.73-1.54-1.09-3.31-1.61-1.4-.33-3.89-1.07-5.4-1.6-1.95-.53-3.33-.84-4.46-.84-.76,0-1.64.15-2.62.44-.52.27-.96.61-1.11.76-.1.34-.27.97-.34,1.52-.14.93-.08,1.28.34,2.12.27.61.98,1.5,1.54,2.06.55.47,1.29.89,1.57.94.41.06,1.87,0,3.52-.24,1.29-.2,2.05-.3,2.77-.3Z"/>
    </g>
    <path class="cls-1" d="M136.51,78.77v-18.69c0-2.83-.39-3.85-2.09-3.85-.45,0-.96.11-1.58.17v-.57l6.31-1.53h.73v7.7h.06c.96-3.46,3.33-8.55,7.5-8.55,2.71,0,4.23,2.21,4.96,3.57l-3.72,8.84h-.28c.62-2.1,1.07-3.91,1.07-5.78,0-2.55-1.18-4.25-2.99-4.25-3.44,0-5.81,6.34-6.6,11.33v11.61c0,2.66.85,3.12,3.78,3.62v.57h-10.82v-.57c2.82-.51,3.66-1.08,3.66-3.62Z"/>
    <path class="cls-1" d="M157.31,74.4v-14.33c0-2.78-.39-3.85-2.03-3.85-.51,0-1.01.11-1.63.17v-.57l6.31-1.53h.73v19.71c0,5.72,2.09,7.53,4.96,7.53,3.55,0,6.14-3.06,7.67-6.51v-14.95c0-2.78-.39-3.85-2.03-3.85-.51,0-1.01.11-1.63.17v-.57l6.31-1.53h.73v22.54c0,2.89.34,3.91,1.97,3.91.51,0,1.07-.11,1.63-.17v.57l-6.48,1.81h-.51v-5.66c-1.35,2.89-4.23,6.29-8.96,6.29-3.89,0-7.05-1.93-7.05-9.18Z"/>
    <path class="cls-1" d="M186.45,79.5l7.33-10.65-7.27-10.99c-1.35-2.1-1.92-2.66-4.73-3v-.57h12.12v.57c-2.03.28-3.66.57-3.66,1.53,0,.45.23.85.56,1.36l5.52,8.33,4.96-7.53c.51-.79.73-1.36.73-1.81,0-1.47-2.2-1.59-4.51-1.87v-.57h10.99v.57c-3.1.4-3.72,1.02-4.96,2.89l-6.37,9.69,8.06,11.95c1.47,2.21,1.97,2.66,4.79,3v.57h-12.34v-.57c2.31-.34,3.78-.62,3.78-1.64,0-.4-.28-.91-.68-1.53l-6.09-9.01-5.75,8.33c-.62.79-.79,1.36-.79,1.93,0,1.53,2.14,1.59,4.45,1.93v.57h-10.99v-.57c2.99-.4,3.55-.96,4.85-2.89Z"/>
    <path class="cls-1" d="M225,81.43c4.28,0,8.23-2.83,10.37-8.44h.34c-1.8,5.95-6.03,10.59-12.46,10.59-8.17,0-12.91-7.25-12.91-14.84,0-8.44,5.97-15.29,13.13-15.29,5.97,0,10.54,4.64,10.54,12.23v1.08h-20.69v.06c0,8.1,5.07,14.61,11.67,14.61ZM230.41,65.23c0-5.78-2.65-9.91-7.55-9.91-5.41,0-8.91,4.25-9.47,9.91h17.02Z"/>
    <path class="cls-1" d="M238.58,79.5l3.21-8.1h.28c-.39,1.3-.62,2.55-.62,3.68,0,4.25,2.71,6.74,7.67,6.74,4.68,0,7.72-2.72,7.72-5.83,0-3.34-3.5-4.64-9.53-6.34-5.02-1.42-7.5-3.85-7.5-8.04,0-5.1,4.11-8.16,9.13-8.16,4.23,0,6.99,1.98,8.51,3.74l-2.71,6.46h-.34c.28-.96.45-1.87.45-2.72,0-3.57-2.65-5.72-6.54-5.72-3.55,0-6.65,1.98-6.65,5.27,0,2.66,2.09,4.02,7.21,5.44,5.19,1.42,9.47,2.55,9.47,8.38,0,6.34-4.68,9.29-9.69,9.29-5.41,0-8.74-2.66-10.09-4.08Z"/>
  </g>
  <g>
    <path class="cls-1" d="M78.91,108.41c0,.81-1.3,1.15-1.94,2-.29.38.03.92.35.93.69.02.43-.72,1.13-1.1,1.32-.73,9.66.6,9.66-1.21s-4.83-5.13-16.91-5.13-24.16,4.53-33.22,7.85c-9.06,3.32-19.63,6.95-23.56,7.85s-4.53.6-4.83.3,2.11-3.02,2.72-4.53.75-3.72,1.21-4.9c.46-1.18,1.34-2.56.82-2.95-.51-.39-3.03,1.97-3.44,2.74s.1,1.03-.72,2.83c-.82,1.8-1.49,2.98-3.03,4.93-1.54,1.95-5.55,4.11-5.5,4.78.05.67,3.08,1.18,8.64,0,5.55-1.18,16.09-5.71,28.22-9.97,12.13-4.27,24.01-6.73,31.15-6.73s9.25,1.13,9.25,2.31Z"/>
    <path class="cls-1" d="M2.52,120.43c.64.25,2.91-7.66,8.04-12.06s8.04-5.56,11.55-5.6,3.85,1.97,4.79,2.01c.94.04,2.27-1.67,2.18-2.91-.09-1.24-1.5-2.91-4.66-2.91s-9.67,2.22-14.2,7.06c-4.53,4.83-8.81,13.99-7.7,14.42Z"/>
    <path class="cls-1" d="M6.37,108.25c.06-.97-.74.17-.52-1.26.23-1.43,2.29-5.09,4.86-7.78,2.58-2.69,5.61-4.24,6.81-4.41s1.66.29,1.89,0c.23-.29.46-1.72-.74-3.32-1.2-1.6-2.48-2.4-2.95-2-.48.4.23.36-.43,1.41-.66,1.04-5.44,7.98-6.25,7.63s2.27-4.78,1.62-11.07c-.66-6.28-3.62-8.21-6.48-8.1-2.85.12-3.49,1.31-3.71,2.7s.16,1.85.36,1.85.08-1.47,2.51-1.31c2.43.15,4.47,4.67,4.16,9.21-.31,4.55-1.16,7.79-2.04,9.14s-1.08.62-1.58,1.35c-.5.73-2.93,7.33-3.47,10.26-.54,2.93-.56,9.05.07,9.15,1.19.2,1.37-5.15,2.58-8.41,1.2-3.26,3.26-4.06,3.32-5.04Z"/>
    <path class="cls-1" d="M18.46,95.82c-1.08.21-3.93,1.44-6.73,4.34-2.8,2.9-5.71,6.91-4.76,7.43.51.28,2.83-3.69,6.53-6.45,2.96-2.2,4.19-1.99,5.32-2.18s1.47-1.19,1.39-1.88c-.08-.69-.67-1.47-1.75-1.26Z"/>
    <path class="cls-1" d="M4.56,100.06c.64,0,1.9-4.96,1.9-8.3s-1.29-7.04-2.78-7.9c-1.18-.67-2.08.42-2.03,1.01.2,2.24,2.38,1.37,3,7.25.57,5.33-.79,7.95-.1,7.94Z"/>
    <path class="cls-1" d="M245.5,108c-.12-.27-.38-.45-.67-.42l-1.64.16c-.44.04-.73.49-.59.9.2.56.65,1.26,1.65,1.59,1.81.6,11.78.3,11.78,2.11s-37.45,5.44-96.04,5.38c-58.59.05-96.04-3.57-96.04-5.38s9.97-1.51,11.78-2.11c1-.33,1.45-1.03,1.65-1.59.15-.41-.15-.86-.59-.9l-1.64-.16c-.29-.03-.54.15-.67.42-1.27,2.71-21.71-1.15-21.71,3.44,0,3.62,18.72,8.75,107.21,8.75s107.21-5.13,107.21-8.75c0-4.59-20.44-.73-21.71-3.44Z"/>
    <path class="cls-1" d="M312.85,118.02c-1.54-1.95-2.21-3.14-3.03-4.93-.82-1.8-.31-2.06-.72-2.83-.41-.77-2.93-3.14-3.44-2.74-.51.39.36,1.77.82,2.95.46,1.18.6,3.39,1.21,4.9s3.02,4.23,2.72,4.53-.91.6-4.83-.3-14.5-4.53-23.56-7.85c-9.06-3.32-21.14-7.85-33.22-7.85s-16.91,3.32-16.91,5.13,8.34.48,9.66,1.21c.7.39.44,1.12,1.13,1.1.32,0,.64-.54.35-.93-.64-.85-1.94-1.2-1.94-2,0-1.18,2.11-2.31,9.25-2.31s19.02,2.47,31.15,6.73c12.13,4.27,22.67,8.79,28.22,9.97,5.55,1.18,8.58.67,8.64,0,.05-.67-3.96-2.83-5.5-4.78Z"/>
    <path class="cls-1" d="M293.1,104.78c.94-.04,1.28-2.05,4.79-2.01s6.42,1.2,11.55,5.6c5.13,4.41,7.4,12.31,8.04,12.06,1.11-.43-3.17-9.58-7.7-14.42-4.53-4.83-11.04-7.06-14.2-7.06s-4.58,1.67-4.66,2.91c-.09,1.24,1.24,2.95,2.18,2.91Z"/>
    <path class="cls-1" d="M316.13,102.29c-.5-.73-.69,0-1.58-1.35s-1.73-4.59-2.04-9.14c-.31-4.55,1.73-9.06,4.16-9.21,2.43-.15,2.31,1.31,2.51,1.31s.58-.46.36-1.85-.86-2.58-3.71-2.7c-2.85-.12-5.82,1.81-6.48,8.1-.66,6.28,2.43,10.72,1.62,11.07s-5.59-6.59-6.25-7.63c-.66-1.04.05-1-.43-1.41-.48-.4-1.75.4-2.95,2-1.2,1.6-.97,3.03-.74,3.32.23.29.69-.17,1.89,0,1.2.17,4.24,1.72,6.81,4.41,2.58,2.69,4.64,6.35,4.86,7.78.23,1.43-.57.29-.52,1.26s2.12,1.77,3.32,5.04c1.2,3.26,1.39,8.61,2.58,8.41.63-.1.61-6.22.07-9.15-.54-2.93-2.97-9.52-3.47-10.26Z"/>
    <path class="cls-1" d="M301.54,95.82c-1.08-.21-1.67.57-1.75,1.26-.08.69.26,1.7,1.39,1.88s2.36-.03,5.32,2.18c3.7,2.76,6.02,6.73,6.53,6.45.95-.51-1.95-4.52-4.76-7.43-2.8-2.9-5.65-4.14-6.73-4.34Z"/>
    <path class="cls-1" d="M318.35,84.87c.05-.59-.85-1.69-2.03-1.01-1.49.86-2.78,4.56-2.78,7.9s1.26,8.3,1.9,8.3c.69,0-.66-2.62-.1-7.94.63-5.88,2.8-5.01,3-7.25Z"/>
  </g>
  <g>
    <path class="cls-1" d="M304.45,51.49c.18.46,1.02.51,1.43.18.93-.75.23-2.37,1.3-2.47s2.79,2.09,5.77,14.84c2.98,12.75,1.65,13.81,2.63,13.79.54-.01,1.19-5.52-2.79-21.56-3.12-12.59-6.75-17.49-8.4-16.52-1.64.98,1.28,10.07.84,10.66-.44.59-1.02.51-.79,1.08Z"/>
    <path class="cls-1" d="M233.7,3.71c1.96.17,7.73.62,8.26.62s2.11-1.03,1.9-1.23c-.44-.44-8.33-.66-8.52-1.23s.47-.32,1.14-.44c.66-.13.89-.41.95-.73.06-.32-.2-.73-.86-.69-.52.03-.56.57-1.16.87s-2.09.1-3.11,0-3.67.13-3.77,1.11c-.09.98,3.2,1.55,5.16,1.73Z"/>
    <path class="cls-1" d="M240.92,7.52c.5,3.1,19.48,1.68,26.76,2.97,7.27,1.29,12.98,4.22,13.18,4.6.28.53-.59.11-.83.25-.39.21-.17.59-.05.64.48.21.77-.18,1.45,0,.68.18,3.44,2.39,4.1,2.55s3.73.95,3.99-.21c.26-1.16-3.49-4.91-9.48-7.75-5.99-2.84-16.23-4.96-19.77-5.49s-6.2-.76-7.35-.71c-1.16.05-3.2.89-3.07,1.18.13.29,4.96.21,9.27.84,4.31.63,8.35,1.55,8.22,2.02s-15.55-.76-17.36-1.05c-1.81-.29-2.55-.6-2.55-1.05s2.89-2.49,7.77-3.28c4.88-.79,10.45-.63,12.55-.45.21-.13,1.52-.95,1.39-1.18s-6.36-.93-11.6-.74c-7.09.25-17.13,3.76-16.63,6.86Z"/>
    <path class="cls-1" d="M290.69,14.92c-.38.96,4.82,3.64,6.27,2.84,1.24-.69-.96-4.37-5.26-7.17-4.3-2.8-14.98-7.17-16.51-7.26-1.53-.1-2.53.57-2.12,1.08s5.81,1,11.77,4.07c5.95,3.06,8.54,5.95,8.2,6.65-.33.69-1.96-1.15-2.34-.19Z"/>
    <path class="cls-1" d="M268.7,3.14c-.04.57.51.85,1.43,1.08.92.23,2.23.07,2.19-.21-.04-.32-.43-.2-.45-.53-.02-.33.68-.96,3.27-1.17s9.25.6,13.68,3.14c4.43,2.54,7.56,5.77,8.19,7.57.63,1.8.55,2.87,1.5,3.71.95.84,2.93.47,3.14.21.21-.27-.65-1.59-.28-2.68.36-1.09,1.75-2.21,3.46-2.24,1.7-.03,1.64,1.01,2.27.93.63-.08,2.04-2.02,2.63-2.97.6-.95,1.61-2.52,1.61-4.94s-1.66-3.93-2.93-4.43c-1.28-.5-2.4.14-2.41.46-.02.32.35.25.73.36.38.11,1.03.68,1.03,2.07s-1.26,3.82-5.11,3.82-5.6-.84-7.89-1.7c-2.29-.87-6.94-2.67-7.28-2.91s.05-.85-.11-1.03c-.16-.17-2.48-1.39-9.34-1.28-6.85.11-9.27,2.18-9.31,2.75Z"/>
    <path class="cls-1" d="M302.11,6.2c3.52,0,4.43-1.55,4.56-2.38.15-.97-.2-2.06-1.29-1.85-.54.11-.27.89-1.32,1.53-1.13.69-5.02.63-8.93-.2-4.1-.86-6.72-1.91-6.77-1.33-.03.39,10.23,4.23,13.74,4.23Z"/>
    <path class="cls-1" d="M314.57,51.7c.74-.36-.02-8.29-3.61-17.25s-8.79-13.37-10.12-12.93c-.72.24-.21,1.69.39,2.97.75,1.57,1.01,1.46,1.12,2.13.07.39,0,.61.09,1.03.14.56.71.69.95.44.3-.32.05-.83.5-.93.46-.1,3.31,3.39,6.25,10.11,2.94,6.72,3.88,14.69,4.43,14.42Z"/>
    <path class="cls-1" d="M315.55,4c-1.2,1.39-5.27,6.29-5.02,6.6.26.33,6.48-4.08,7.59-4.95s2.08-2.28,1.1-3.15c-.97-.87-2.46.1-3.67,1.5Z"/>
    <path class="cls-1" d="M311.75,7.53c.28-.1,1.28-1.67,2.31-2.92,1.03-1.26,2.9-2.63,2.53-3.08-.23-.27-4.79.18-5.02.54s.49.77.67,2.28c.18,1.51-.86,3.32-.49,3.18Z"/>
    <path class="cls-1" d="M318.25,6.68c-1.52,1.08-5.31,3.21-4.99,3.47.23.19,2.53-.21,3.75.37,1.22.59,1.4,1.14,1.7.99l.31-.16s.41-.97.49-2.85c.08-1.88-.12-2.41-.45-2.41-.33,0-.53.38-.81.59Z"/>
    <path class="cls-1" d="M319.36,13.55c-.91-1.38-3.53-2.59-6.36-2.59s-4.76,2.13-4.99,2.71.44,1.92,0,3.22c-.44,1.29-2.19,2.56-3.06,2.62-.87.06-1.61-1.06-2.16-.68-.55.38.14,2.11.68,2.84.54.73,1.86,1.77,2.59,2.08.73.32,1.14-.13,1.59.13s2.14,1.55,4.51,7.48c2.37,5.93,3.5,11.2,3.59,15.3.09,4.1-.5,6.37-.93,6.37s-.21-.95-.62-.69c-.41.25.16,3.53,1.29,3.6,1.14.06,2.05-4.58,2.05-9.59s-.56-10.63-.69-10.79c-.13-.17-.34.15-.97-.39-.63-.54-1.12-1.66-1.62-3.11-.5-1.45-1.86-6.63-2.09-9.93-.22-3.3.7-5.12,1.9-6.11,1.28-1.06,3.1-.65,3.55-.35.34.22.73.66.81,1.06.1.54-.1.88.23.91,1.24.12,1.89-2.26.69-4.07Z"/>
    <path class="cls-1" d="M317.2,16.64c-.52-.4-1.74-.57-2.57.21-.83.78-1.37,2.47-1.25,6.57s2.64,11.3,3,11.16-.41-2.64-.68-4.83c-.27-2.2-.54-6.36.44-10.5.23-.96.9-1.28,1.4-1.06.18.08.58-.85-.34-1.54Z"/>
  </g>
  <g>
    <path class="cls-1" d="M78.03,4.33c.54,0,6.3-.44,8.26-.62,1.96-.17,5.26-.74,5.16-1.73-.09-.98-2.75-1.2-3.77-1.11s-2.5.29-3.11,0-.64-.84-1.16-.87c-.66-.04-.93.37-.86.69.06.32.28.6.95.73.66.13,1.33-.13,1.14.44s-8.07.79-8.52,1.23c-.21.21,1.36,1.23,1.9,1.23Z"/>
    <path class="cls-1" d="M52.24,2.59c2.1-.18,7.67-.34,12.55.45,4.88.79,7.77,2.84,7.77,3.28s-.74.76-2.55,1.05c-1.81.29-17.23,1.52-17.36,1.05s3.91-1.39,8.22-2.02c4.31-.63,9.14-.55,9.27-.84.13-.29-1.92-1.13-3.07-1.18-1.16-.05-3.81.18-7.35.71s-13.79,2.65-19.77,5.49c-5.99,2.84-9.74,6.59-9.48,7.75.26,1.16,3.33.37,3.99.21s3.41-2.36,4.1-2.55c.68-.18.97.2,1.45,0,.12-.05.35-.43-.05-.64-.24-.13-1.11.28-.83-.25.2-.37,5.91-3.31,13.18-4.6,7.27-1.29,26.26.13,26.76-2.97.5-3.1-9.54-6.6-16.63-6.86-5.25-.19-11.47.5-11.6.74s1.18,1.05,1.39,1.18Z"/>
    <path class="cls-1" d="M35.16,8.46c5.95-3.06,11.36-3.56,11.77-4.07s-.59-1.17-2.12-1.08c-1.53.1-12.2,4.46-16.51,7.26-4.3,2.8-6.5,6.48-5.26,7.17,1.45.81,6.65-1.88,6.27-2.84-.38-.96-2.01.88-2.34.19-.33-.69,2.25-3.59,8.2-6.65Z"/>
    <path class="cls-1" d="M12.91,12.95c.63.08.57-.96,2.27-.93s3.09,1.15,3.46,2.24c.36,1.09-.49,2.41-.28,2.68.21.27,2.19.63,3.14-.21.95-.84.87-1.91,1.5-3.71.63-1.8,3.75-5.03,8.19-7.57,4.43-2.54,11.09-3.34,13.68-3.14s3.28.84,3.27,1.17c-.02.33-.41.21-.45.53-.03.28,1.27.44,2.19.21.92-.23,1.47-.51,1.43-1.08-.04-.57-2.46-2.65-9.31-2.75-6.85-.11-9.18,1.11-9.34,1.28-.16.17.23.79-.11,1.03s-4.99,2.04-7.28,2.91c-2.29.87-4.04,1.7-7.89,1.7s-5.11-2.43-5.11-3.82.65-1.96,1.03-2.07.74-.05.73-.36-1.14-.96-2.41-.46c-1.28.5-2.93,2.02-2.93,4.43s1.01,3.99,1.61,4.94c.6.95,2,2.89,2.63,2.97Z"/>
    <path class="cls-1" d="M13.33,3.82c.13.83,1.04,2.38,4.56,2.38s13.78-3.83,13.74-4.23c-.05-.57-2.67.47-6.77,1.33-3.91.82-7.8.89-8.93.2-1.05-.64-.77-1.42-1.32-1.53-1.09-.21-1.44.88-1.29,1.85Z"/>
    <path class="cls-1" d="M16.61,28.09c.24.25.81.12.95-.44.1-.42.03-.64.09-1.03.11-.67.38-.56,1.12-2.13.61-1.28,1.12-2.73.39-2.97-1.33-.44-6.52,3.97-10.12,12.93-3.6,8.96-4.35,16.89-3.61,17.25.55.27,1.49-7.7,4.43-14.42,2.94-6.72,5.79-10.21,6.25-10.11.46.1.2.61.5.93Z"/>
    <path class="cls-1" d="M1.89,5.66c1.1.87,7.33,5.28,7.59,4.95.24-.32-3.82-5.21-5.02-6.6C3.25,2.61,1.76,1.63.79,2.5c-.97.87,0,2.28,1.1,3.15Z"/>
    <path class="cls-1" d="M5.94,4.61c1.03,1.26,2.03,2.82,2.31,2.92.38.14-.67-1.67-.49-3.18.18-1.51.9-1.92.67-2.28s-4.8-.81-5.02-.54c-.37.44,1.51,1.82,2.53,3.08Z"/>
    <path class="cls-1" d="M.94,6.09c-.34,0-.53.53-.45,2.41.08,1.88.49,2.85.49,2.85l.31.16c.31.16.48-.4,1.7-.99,1.22-.59,3.52-.18,3.75-.37.32-.27-3.47-2.4-4.99-3.47-.29-.2-.48-.59-.81-.59Z"/>
    <path class="cls-1" d="M4.5,55.94c1.14-.06,1.7-3.34,1.29-3.6-.41-.25-.2.69-.62.69s-1.02-2.27-.93-6.37c.09-4.1,1.22-9.37,3.59-15.3s4.05-7.23,4.51-7.48c.45-.25.86.19,1.59-.13.73-.32,2.05-1.36,2.59-2.08.54-.73,1.23-2.46.68-2.84-.55-.38-1.29.74-2.16.68s-2.62-1.33-3.06-2.62c-.44-1.29.22-2.63,0-3.22s-2.16-2.71-4.99-2.71-5.44,1.2-6.36,2.59c-1.2,1.81-.55,4.19.69,4.07.33-.03.13-.37.23-.91.07-.4.47-.83.81-1.06.45-.3,2.27-.71,3.55.35,1.2,1,2.12,2.81,1.9,6.11-.22,3.3-1.58,8.48-2.09,9.93-.5,1.45-.99,2.57-1.62,3.11-.63.54-.84.22-.97.39-.13.17-.69,5.78-.69,10.79s.92,9.66,2.05,9.59Z"/>
    <path class="cls-1" d="M3.86,19.24c.98,4.14.71,8.3.44,10.5-.27,2.2-1.04,4.69-.68,4.83s2.88-7.06,3-11.16-.42-5.79-1.25-6.57c-.83-.78-2.05-.61-2.57-.21-.92.7-.52,1.62-.34,1.54.5-.22,1.17.1,1.4,1.06Z"/>
    <path class="cls-1" d="M15.55,51.49c-.18.46-1.02.51-1.43.18-.93-.75-.23-2.37-1.3-2.47s-2.79,2.09-5.77,14.84c-2.98,12.75-1.65,13.81-2.63,13.79-.54-.01-1.19-5.52,2.79-21.56,3.12-12.59,6.75-17.49,8.4-16.52,1.64.98-1.28,10.07-.84,10.66.44.59,1.02.51.79,1.08Z"/>
  </g>
</svg>