<?xml version="1.0" encoding="UTF-8"?>
<svg id="Layer_1" data-name="Layer 1" xmlns="http://www.w3.org/2000/svg" viewBox="0 0 320 123.51">
  <defs>
    <style>
      .cls-1 {
        fill: #FFF5E9;
        stroke-miterlimit: 10;
        stroke-width: 1.2px;
      }

      .cls-1, .cls-2 {
        fill: #FFF5E9;
      }
    </style>
  </defs>
  <g>
    <path class="cls-1" d="M164.51,27.05c1.24.14,2.49.41,2.69.48s.48.35.55.69c.14.35.07.76-.14.9-.21.21-.69.41-1.38.41-.55,0-1.66-.28-2.49-.62-.76-.34-1.87-.62-2.35-.62-.62,0-1.59.41-3.18,1.24-1.31.69-2.76,1.73-3.32,2.21-.55.55-1.8,2.07-2.83,3.38-1.04,1.31-2.07,2.97-2.42,3.66-.28.76-.9,1.8-1.24,2.49l-1.17,2.21c-.41.9-.48,1.24-.35,2,.14.62.48,1.17.83,1.45.35.21,1.45.55,2.42.76,1.52.35,2.56.35,6.56.14,3.11-.14,5.53-.41,6.98-.69l2.83-.69c.35-.14.76-.55,1.04-.9s.83-1.11,1.31-1.59c.76-.76,1.04-.9,2-.9.62,0,1.45.14,1.87.35.35.21.76.62.9.97.21.35.35,1.17.35,1.93,0,.69-.21,1.59-.41,1.93-.14.41-.48.76-.69.83-.21.14-.83.21-1.31.21s-1.52-.35-2.21-.62c-1.04-.48-1.59-.62-2.42-.55l-3.39.62c-1.73.35-3.66.55-7.53.69-4.9.14-5.39.07-7.25-.41-1.8-.41-2.07-.41-2.69-.14-.35.21-.83.62-.97,1.04-.14.35-.48,1.11-.62,1.66-.21.55-.62,1.52-1.04,2.14-.35.62-.9,1.59-1.11,2.21l-.9,2.76c-.35,1.17-.76,2-1.24,2.49-.41.35-1.17.83-1.66.97-.55.14-1.17.48-1.45.76-.21.28-.83,1.45-1.31,2.69l-1.73,3.59c-.48.83-1.93,3.11-3.25,5.04-1.31,1.93-3.32,4.56-4.35,5.87l-2.97,3.52c-.55.62-1.8,1.73-2.76,2.49-.97.69-2.35,1.93-3.11,2.63-.9.76-2.28,1.59-3.66,2.28-1.24.55-3.11,1.31-4.14,1.66-1.11.35-2.76.69-3.8.9-.97.07-2.76.21-3.94.21-1.24,0-2.63-.14-3.18-.28-.55-.21-1.38-.69-1.87-1.17-.76-.76-1.11-1.38-1.66-3.38-.48-1.31-.97-2.63-1.17-2.83-.21-.21-.83-.55-1.38-.69-.55-.14-1.24-.48-1.52-.76-.41-.35-.55-.76-.55-1.31,0-.48.21-1.24.48-1.66.28-.41,1.24-1.31,2.14-1.93.9-.69,2.07-1.45,2.63-1.66.55-.28,1.45-.48,2-.48.76,0,1.17.14,1.59.55.41.35.62.9.62,1.31s-.14.97-.28,1.24c-.14.21-.9.76-1.73,1.17-.9.41-1.59.97-1.86,1.45-.28.48-.48,1.04-.48,1.38,0,.28.35,1.73.83,3.18.62,2.07,1.04,2.83,1.59,3.39.76.69.83.69,3.8.76,2.14.07,3.59,0,4.97-.28,1.04-.21,2.76-.76,3.8-1.11,1.04-.41,2.49-1.04,3.18-1.45.76-.41,2.07-1.31,2.97-2.07l3.18-2.63c.9-.69,2.14-1.93,2.76-2.76.62-.76,1.8-2.21,2.63-3.11.76-.9,2.63-3.39,4.08-5.53,1.45-2.21,2.97-4.63,3.38-5.39.41-.76,1.11-2.28,1.59-3.39.48-1.24.9-2.49.97-3.66.14-1.04.41-2.07.55-2.35.21-.28,1.04-.97,1.86-1.59.9-.62,1.66-1.45,2-2,.28-.55.62-1.59.76-2.28.14-.97.14-1.59-.07-2.14-.21-.62-.48-.9-1.38-1.24s-1.73-.41-3.66-.41c-2.21.07-3.11.21-6.22,1.04-2,.55-3.87,1.17-4.14,1.38-.34.14-.83.69-1.17,1.24-.28.48-.83,1.11-1.17,1.45-.41.35-1.04.55-1.8.69-.83.07-1.31,0-1.86-.28-.48-.28-.97-.69-1.11-1.04-.14-.35-.28-1.24-.28-2,0-.83.21-1.73.41-2.14.14-.35.48-.69.69-.83.21-.07.76-.14,1.17-.14s1.38.28,2.07.62c.69.35,1.66.62,2.14.62s2.49-.48,4.42-1.04c2.76-.76,4.08-.97,6.15-1.04,2-.14,3.04-.07,4.35.28,1.66.35,1.73.35,2.35-.07.35-.28.69-.76.76-1.04.14-.35.21-1.11.21-1.73.07-.76.21-1.24.48-1.59.28-.21.97-.48,1.52-.55.69-.14,1.31-.41,1.66-.69.21-.28,1.04-1.66,1.66-3.04.76-1.52,1.86-3.39,2.97-4.77.97-1.24,2.14-2.63,2.56-3.04.35-.48,1.17-1.11,1.66-1.45.55-.41,2-1.17,3.11-1.8,1.52-.76,2.49-1.11,3.11-1.11.55,0,2,.21,3.18.41ZM143.99,15.93l3.87.76,6.22,1.38c3.32.76,4.77,1.04,7.88,1.17,2.97.14,4.14.35,5.11.69l3.04,1.38c.97.48,2.42.97,3.32,1.17.9.21,2.42.35,3.32.35,1.38,0,1.93-.14,2.97-.62.62-.28,1.93-1.31,2.83-2.21l2.56-2.49c.41-.48,1.17-1.04,1.59-1.24.48-.21,1.38-.35,2-.35s1.31.14,1.52.35c.21.14.55.48.69.76.14.28.28,1.31.28,2.21,0,1.31-.07,1.73-.48,2.28-.41.48-.76.62-1.38.62-.55-.07-1.52-.34-2.28-.76-.69-.41-1.66-.69-2.07-.69-.55,0-1.11.28-2.28,1.31-.9.76-2,1.59-2.63,1.87-.97.41-1.59.48-3.52.48-1.45,0-3.11-.21-4.01-.41-.83-.28-2.49-.9-3.66-1.45-1.11-.55-2.49-1.17-3.04-1.31-.55-.14-2.69-.35-4.77-.48-2.63-.14-4.42-.35-6.15-.76l-6.29-1.52q-3.94-.9-9.26-.9h-5.32l-2.28.76c-1.31.41-3.04,1.11-3.94,1.52-.83.35-1.93,1.04-2.35,1.45-.48.41-1.11,1.31-1.45,1.93-.55,1.11-.62,1.52-.69,4.08,0,2,.14,3.59.41,5.32.28,1.38.76,2.83.97,3.25.28.41.83.9,1.24,1.11.41.14,1.45.28,2.28.28s2.42-.28,3.66-.55c1.17-.28,2.56-.76,3.04-.97.48-.28,1.31-.83,1.73-1.17.48-.41,1.17-1.31,1.45-2,.62-1.17.62-1.24.28-2.56-.21-.69-.35-1.66-.35-2.21,0-.62.14-1.04.62-1.45.48-.48.76-.62,2.14-.62.9,0,1.86.14,2.21.35.35.14.76.55.97.9s.35,1.24.35,1.93c0,1.04-.14,1.45-.55,1.86-.35.41-1.17.83-1.93,1.04-1.17.35-1.52.55-2.07,1.38-.35.55-1.24,1.59-2,2.35-.97.97-1.73,1.45-2.76,1.87-.83.28-2.35.76-3.52.97-1.11.28-2.76.48-3.66.48-.97,0-1.87-.14-2.56-.48-.55-.21-1.31-.76-1.59-1.24-.35-.41-.83-1.38-.97-2.07l-.69-2.69c-.14-.69-.41-1.45-.55-1.59s-.9-.41-1.73-.76c-1.11-.35-1.45-.69-1.8-1.31-.21-.48-.28-1.04-.21-1.59.14-.48.41-1.04.69-1.38.34-.28,1.17-.69,1.86-.97,1.24-.48,1.45-.69,2.21-2.07.48-.83,1.24-1.93,1.73-2.49.48-.41,1.38-1.04,1.87-1.31.55-.28,2.14-.97,3.59-1.52,1.45-.48,3.45-1.11,4.35-1.24.97-.21,3.18-.35,4.97-.35s4.08.07,4.97.21Z"/>
    <path class="cls-2" d="M159.45,74.47c0-7.98,10.93-9.79,15.28-10.62v-1.76c0-4.97-2.38-7.15-5.7-7.15-3.63,0-6.48,2.59-6.48,6.58,0,.88.16,1.97.47,3.01h-.31l-2.69-6.74c1.5-1.71,4.3-4.09,9.74-4.09s8.08,2.38,8.08,7.77v14.4c0,2.07.31,2.8,1.71,2.8.52,0,1.04-.1,1.61-.16v.52l-5.96,1.66h-.47v-6.17c-.57,1.81-3.37,6.74-8.65,6.74-3.89,0-6.63-2.69-6.63-6.79ZM167.27,79.39c3.68,0,6.42-3.83,7.46-6.32v-8.34c-2.95.73-11.92,2.33-11.92,9.22,0,2.9,1.4,5.44,4.46,5.44Z"/>
    <path class="cls-2" d="M197.42,79.29c3.94,0,7.56-2.59,9.53-7.72h.31c-1.66,5.44-5.54,9.69-11.45,9.69-7.51,0-11.86-6.63-11.86-13.58,0-7.72,5.49-13.99,12.07-13.99,5.49,0,9.69,4.25,9.69,11.19v.98h-19.02v.05c0,7.41,4.66,13.37,10.73,13.37ZM202.4,64.47c0-5.29-2.43-9.07-6.94-9.07-4.97,0-8.19,3.89-8.7,9.07h15.65Z"/>
  </g>
  <g>
    <path class="cls-2" d="M78.91,108.41c0,.81-1.3,1.15-1.94,2-.29.38.03.92.35.93.69.02.43-.72,1.13-1.1,1.32-.73,9.66.6,9.66-1.21s-4.83-5.13-16.91-5.13-24.16,4.53-33.22,7.85-19.63,6.95-23.56,7.85-4.53.6-4.83.3,2.11-3.02,2.72-4.53.75-3.72,1.21-4.9c.46-1.18,1.34-2.56.82-2.95-.51-.39-3.03,1.97-3.44,2.74s.1,1.03-.72,2.83c-.82,1.8-1.49,2.98-3.03,4.93-1.54,1.95-5.55,4.11-5.5,4.78.05.67,3.08,1.18,8.64,0,5.55-1.18,16.09-5.71,28.22-9.97,12.13-4.27,24.01-6.73,31.15-6.73s9.25,1.13,9.25,2.31Z"/>
    <path class="cls-2" d="M2.52,120.43c.64.25,2.91-7.66,8.04-12.06,5.13-4.41,8.04-5.56,11.55-5.6,3.51-.04,3.85,1.97,4.79,2.01.94.04,2.27-1.67,2.18-2.91-.09-1.24-1.5-2.91-4.66-2.91s-9.67,2.22-14.2,7.06c-4.53,4.83-8.81,13.99-7.7,14.42Z"/>
    <path class="cls-2" d="M6.37,108.25c.06-.97-.74.17-.52-1.26.23-1.43,2.29-5.09,4.86-7.78,2.58-2.69,5.61-4.24,6.81-4.41s1.66.29,1.89,0c.23-.29.46-1.72-.74-3.32-1.2-1.6-2.48-2.4-2.95-2-.48.4.23.36-.43,1.41-.66,1.04-5.44,7.98-6.25,7.63s2.27-4.78,1.62-11.07c-.66-6.28-3.62-8.21-6.48-8.1-2.85.12-3.49,1.31-3.71,2.7s.16,1.85.36,1.85.08-1.47,2.51-1.31c2.43.15,4.47,4.67,4.16,9.21-.31,4.55-1.16,7.79-2.04,9.14s-1.08.62-1.58,1.35c-.5.73-2.93,7.33-3.47,10.26-.54,2.93-.56,9.05.07,9.15,1.19.2,1.37-5.15,2.58-8.41,1.2-3.26,3.26-4.06,3.32-5.04Z"/>
    <path class="cls-2" d="M18.46,95.82c-1.08.21-3.93,1.44-6.73,4.34-2.8,2.9-5.71,6.91-4.76,7.43.51.28,2.83-3.69,6.53-6.45,2.96-2.2,4.19-1.99,5.32-2.18s1.47-1.19,1.39-1.88c-.08-.69-.67-1.47-1.75-1.26Z"/>
    <path class="cls-2" d="M4.56,100.06c.64,0,1.9-4.96,1.9-8.3s-1.29-7.04-2.78-7.9c-1.18-.67-2.08.42-2.03,1.01.2,2.24,2.38,1.37,3,7.25.57,5.33-.79,7.95-.1,7.94Z"/>
    <path class="cls-2" d="M245.5,108c-.12-.27-.38-.45-.67-.42l-1.64.16c-.44.04-.73.49-.59.9.2.56.65,1.26,1.65,1.59,1.81.6,11.78.3,11.78,2.11s-37.45,5.44-96.04,5.38c-58.59.05-96.04-3.57-96.04-5.38s9.97-1.51,11.78-2.11c1-.33,1.45-1.03,1.65-1.59.15-.41-.15-.86-.59-.9l-1.64-.16c-.29-.03-.54.15-.67.42-1.27,2.71-21.71-1.15-21.71,3.44,0,3.62,18.72,8.75,107.21,8.75s107.21-5.13,107.21-8.75c0-4.59-20.44-.73-21.71-3.44Z"/>
    <path class="cls-2" d="M312.85,118.02c-1.54-1.95-2.21-3.14-3.03-4.93-.82-1.8-.31-2.06-.72-2.83-.41-.77-2.93-3.14-3.44-2.74-.51.39.36,1.77.82,2.95.46,1.18.6,3.39,1.21,4.9s3.02,4.23,2.72,4.53-.91.6-4.83-.3-14.5-4.53-23.56-7.85c-9.06-3.32-21.14-7.85-33.22-7.85s-16.91,3.32-16.91,5.13,8.34.48,9.66,1.21c.7.39.44,1.12,1.13,1.1.32,0,.64-.54.35-.93-.64-.85-1.94-1.2-1.94-2,0-1.18,2.11-2.31,9.25-2.31s19.02,2.47,31.15,6.73c12.13,4.27,22.67,8.79,28.22,9.97,5.55,1.18,8.58.67,8.64,0,.05-.67-3.96-2.83-5.5-4.78Z"/>
    <path class="cls-2" d="M293.1,104.78c.94-.04,1.28-2.05,4.79-2.01,3.51.04,6.42,1.2,11.55,5.6,5.13,4.41,7.4,12.31,8.04,12.06,1.11-.43-3.17-9.58-7.7-14.42-4.53-4.83-11.04-7.06-14.2-7.06s-4.58,1.67-4.66,2.91c-.09,1.24,1.24,2.95,2.18,2.91Z"/>
    <path class="cls-2" d="M316.13,102.29c-.5-.73-.69,0-1.58-1.35s-1.73-4.59-2.04-9.14c-.31-4.55,1.73-9.06,4.16-9.21,2.43-.15,2.31,1.31,2.51,1.31s.58-.46.36-1.85-.86-2.58-3.71-2.7c-2.85-.12-5.82,1.81-6.48,8.1-.66,6.28,2.43,10.72,1.62,11.07s-5.59-6.59-6.25-7.63c-.66-1.04.05-1-.43-1.41-.48-.4-1.75.4-2.95,2-1.2,1.6-.97,3.03-.74,3.32.23.29.69-.17,1.89,0,1.2.17,4.24,1.72,6.81,4.41,2.58,2.69,4.64,6.35,4.86,7.78.23,1.43-.57.29-.52,1.26s2.12,1.77,3.32,5.04c1.2,3.26,1.39,8.61,2.58,8.41.63-.1.61-6.22.07-9.15-.54-2.93-2.97-9.52-3.47-10.26Z"/>
    <path class="cls-2" d="M301.54,95.82c-1.08-.21-1.67.57-1.75,1.26-.08.69.26,1.7,1.39,1.88s2.36-.03,5.32,2.18c3.7,2.76,6.02,6.73,6.53,6.45.95-.51-1.95-4.52-4.76-7.43-2.8-2.9-5.65-4.14-6.73-4.34Z"/>
    <path class="cls-2" d="M318.35,84.87c.05-.59-.85-1.69-2.03-1.01-1.49.86-2.78,4.56-2.78,7.9s1.26,8.3,1.9,8.3c.69,0-.66-2.62-.1-7.94.63-5.88,2.8-5.01,3-7.25Z"/>
  </g>
  <g>
    <path class="cls-2" d="M304.45,51.49c.18.46,1.02.51,1.43.18.93-.75.23-2.37,1.3-2.47s2.79,2.09,5.77,14.84c2.98,12.75,1.65,13.81,2.63,13.79.54-.01,1.19-5.52-2.79-21.56-3.12-12.59-6.75-17.49-8.4-16.52-1.64.98,1.28,10.07.84,10.66-.44.59-1.02.51-.79,1.08Z"/>
    <path class="cls-2" d="M233.7,3.71c1.96.17,7.73.62,8.26.62s2.11-1.03,1.9-1.23c-.44-.44-8.33-.66-8.52-1.23s.47-.32,1.14-.44c.66-.13.89-.41.95-.73.06-.32-.2-.73-.86-.69-.52.03-.56.57-1.16.87s-2.09.1-3.11,0-3.67.13-3.77,1.11c-.09.98,3.2,1.55,5.16,1.73Z"/>
    <path class="cls-2" d="M240.92,7.52c.5,3.1,19.48,1.68,26.76,2.97,7.27,1.29,12.98,4.22,13.18,4.6.28.53-.59.11-.83.25-.39.21-.17.59-.05.64.48.21.77-.18,1.45,0,.68.18,3.44,2.39,4.1,2.55s3.73.95,3.99-.21c.26-1.16-3.49-4.91-9.48-7.75-5.99-2.84-16.23-4.96-19.77-5.49s-6.2-.76-7.35-.71c-1.16.05-3.2.89-3.07,1.18.13.29,4.96.21,9.27.84,4.31.63,8.35,1.55,8.22,2.02s-15.55-.76-17.36-1.05c-1.81-.29-2.55-.6-2.55-1.05s2.89-2.49,7.77-3.28c4.88-.79,10.45-.63,12.55-.45.21-.13,1.52-.95,1.39-1.18s-6.36-.93-11.6-.74c-7.09.25-17.13,3.76-16.63,6.86Z"/>
    <path class="cls-2" d="M290.69,14.92c-.38.96,4.82,3.64,6.27,2.84,1.24-.69-.96-4.37-5.26-7.17-4.3-2.8-14.98-7.17-16.51-7.26-1.53-.1-2.53.57-2.12,1.08s5.81,1,11.77,4.07c5.95,3.06,8.54,5.95,8.2,6.65-.33.69-1.96-1.15-2.34-.19Z"/>
    <path class="cls-2" d="M268.7,3.14c-.04.57.51.85,1.43,1.08.92.23,2.23.07,2.19-.21-.04-.32-.43-.2-.45-.53-.02-.33.68-.96,3.27-1.17s9.25.6,13.68,3.14c4.43,2.54,7.56,5.77,8.19,7.57.63,1.8.55,2.87,1.5,3.71.95.84,2.93.47,3.14.21.21-.27-.65-1.59-.28-2.68.36-1.09,1.75-2.21,3.46-2.24,1.7-.03,1.64,1.01,2.27.93.63-.08,2.04-2.02,2.63-2.97.6-.95,1.61-2.52,1.61-4.94s-1.66-3.93-2.93-4.43c-1.28-.5-2.4.14-2.41.46-.02.32.35.25.73.36.38.11,1.03.68,1.03,2.07s-1.26,3.82-5.11,3.82-5.6-.84-7.89-1.7c-2.29-.87-6.94-2.67-7.28-2.91s.05-.85-.11-1.03c-.16-.17-2.48-1.39-9.34-1.28-6.85.11-9.27,2.18-9.31,2.75Z"/>
    <path class="cls-2" d="M302.11,6.2c3.52,0,4.43-1.55,4.56-2.38.15-.97-.2-2.06-1.29-1.85-.54.11-.27.89-1.32,1.53-1.13.69-5.02.63-8.93-.2-4.1-.86-6.72-1.91-6.77-1.33-.03.39,10.23,4.23,13.74,4.23Z"/>
    <path class="cls-2" d="M314.57,51.7c.74-.36-.02-8.29-3.61-17.25-3.6-8.96-8.79-13.37-10.12-12.93-.72.24-.21,1.69.39,2.97.75,1.57,1.01,1.46,1.12,2.13.07.39,0,.61.09,1.03.14.56.71.69.95.44.3-.32.05-.83.5-.93.46-.1,3.31,3.39,6.25,10.11,2.94,6.72,3.88,14.69,4.43,14.42Z"/>
    <path class="cls-2" d="M315.55,4c-1.2,1.39-5.27,6.29-5.02,6.6.26.33,6.48-4.08,7.59-4.95s2.08-2.28,1.1-3.15c-.97-.87-2.46.1-3.67,1.5Z"/>
    <path class="cls-2" d="M311.75,7.53c.28-.1,1.28-1.67,2.31-2.92,1.03-1.26,2.9-2.63,2.53-3.08-.23-.27-4.79.18-5.02.54s.49.77.67,2.28c.18,1.51-.86,3.32-.49,3.18Z"/>
    <path class="cls-2" d="M318.25,6.68c-1.52,1.08-5.31,3.21-4.99,3.47.23.19,2.53-.21,3.75.37,1.22.59,1.4,1.14,1.7.99l.31-.16s.41-.97.49-2.85c.08-1.88-.12-2.41-.45-2.41-.33,0-.53.38-.81.59Z"/>
    <path class="cls-2" d="M319.36,13.55c-.91-1.38-3.53-2.59-6.36-2.59s-4.76,2.13-4.99,2.71.44,1.92,0,3.22c-.44,1.29-2.19,2.56-3.06,2.62-.87.06-1.61-1.06-2.16-.68-.55.38.14,2.11.68,2.84.54.73,1.86,1.77,2.59,2.08.73.32,1.14-.13,1.59.13s2.14,1.55,4.51,7.48c2.37,5.93,3.5,11.2,3.59,15.3.09,4.1-.5,6.37-.93,6.37s-.21-.95-.62-.69c-.41.25.16,3.53,1.29,3.6,1.14.06,2.05-4.58,2.05-9.59s-.56-10.63-.69-10.79c-.13-.17-.34.15-.97-.39-.63-.54-1.12-1.66-1.62-3.11-.5-1.45-1.86-6.63-2.09-9.93-.22-3.3.7-5.12,1.9-6.11,1.28-1.06,3.1-.65,3.55-.35.34.22.73.66.81,1.06.1.54-.1.88.23.91,1.24.12,1.89-2.26.69-4.07Z"/>
    <path class="cls-2" d="M317.2,16.64c-.52-.4-1.74-.57-2.57.21-.83.78-1.37,2.47-1.25,6.57s2.64,11.3,3,11.16-.41-2.64-.68-4.83c-.27-2.2-.54-6.36.44-10.5.23-.96.9-1.28,1.4-1.06.18.08.58-.85-.34-1.54Z"/>
  </g>
  <g>
    <path class="cls-2" d="M78.03,4.33c.54,0,6.3-.44,8.26-.62s5.26-.74,5.16-1.73c-.09-.98-2.75-1.2-3.77-1.11s-2.5.29-3.11,0-.64-.84-1.16-.87c-.66-.04-.93.37-.86.69.06.32.28.6.95.73.66.13,1.33-.13,1.14.44s-8.07.79-8.52,1.23c-.21.21,1.36,1.23,1.9,1.23Z"/>
    <path class="cls-2" d="M52.24,2.59c2.1-.18,7.67-.34,12.55.45,4.88.79,7.77,2.84,7.77,3.28s-.74.76-2.55,1.05c-1.81.29-17.23,1.52-17.36,1.05s3.91-1.39,8.22-2.02c4.31-.63,9.14-.55,9.27-.84.13-.29-1.92-1.13-3.07-1.18-1.16-.05-3.81.18-7.35.71s-13.79,2.65-19.77,5.49c-5.99,2.84-9.74,6.59-9.48,7.75.26,1.16,3.33.37,3.99.21s3.41-2.36,4.1-2.55c.68-.18.97.2,1.45,0,.12-.05.35-.43-.05-.64-.24-.13-1.11.28-.83-.25.2-.37,5.91-3.31,13.18-4.6,7.27-1.29,26.26.13,26.76-2.97.5-3.1-9.54-6.6-16.63-6.86-5.25-.19-11.47.5-11.6.74s1.18,1.05,1.39,1.18Z"/>
    <path class="cls-2" d="M35.16,8.46c5.95-3.06,11.36-3.56,11.77-4.07s-.59-1.17-2.12-1.08c-1.53.1-12.2,4.46-16.51,7.26s-6.5,6.48-5.26,7.17c1.45.81,6.65-1.88,6.27-2.84-.38-.96-2.01.88-2.34.19-.33-.69,2.25-3.59,8.2-6.65Z"/>
    <path class="cls-2" d="M12.91,12.95c.63.08.57-.96,2.27-.93s3.09,1.15,3.46,2.24c.36,1.09-.49,2.41-.28,2.68.21.27,2.19.63,3.14-.21.95-.84.87-1.91,1.5-3.71.63-1.8,3.75-5.03,8.19-7.57,4.43-2.54,11.09-3.34,13.68-3.14s3.28.84,3.27,1.17c-.02.33-.41.21-.45.53-.03.28,1.27.44,2.19.21.92-.23,1.47-.51,1.43-1.08-.04-.57-2.46-2.65-9.31-2.75-6.85-.11-9.18,1.11-9.34,1.28-.16.17.23.79-.11,1.03s-4.99,2.04-7.28,2.91c-2.29.87-4.04,1.7-7.89,1.7s-5.11-2.43-5.11-3.82.65-1.96,1.03-2.07.74-.05.73-.36-1.14-.96-2.41-.46c-1.28.5-2.93,2.02-2.93,4.43s1.01,3.99,1.61,4.94c.6.95,2,2.89,2.63,2.97Z"/>
    <path class="cls-2" d="M13.33,3.82c.13.83,1.04,2.38,4.56,2.38s13.78-3.83,13.74-4.23c-.05-.57-2.67.47-6.77,1.33-3.91.82-7.8.89-8.93.2-1.05-.64-.77-1.42-1.32-1.53-1.09-.21-1.44.88-1.29,1.85Z"/>
    <path class="cls-2" d="M16.61,28.09c.24.25.81.12.95-.44.1-.42.03-.64.09-1.03.11-.67.38-.56,1.12-2.13.61-1.28,1.12-2.73.39-2.97-1.33-.44-6.52,3.97-10.12,12.93-3.6,8.96-4.35,16.89-3.61,17.25.55.27,1.49-7.7,4.43-14.42,2.94-6.72,5.79-10.21,6.25-10.11.46.1.2.61.5.93Z"/>
    <path class="cls-2" d="M1.89,5.66c1.1.87,7.33,5.28,7.59,4.95.24-.32-3.82-5.21-5.02-6.6C3.25,2.61,1.76,1.63.79,2.5c-.97.87,0,2.28,1.1,3.15Z"/>
    <path class="cls-2" d="M5.94,4.61c1.03,1.26,2.03,2.82,2.31,2.92.38.14-.67-1.67-.49-3.18.18-1.51.9-1.92.67-2.28s-4.8-.81-5.02-.54c-.37.44,1.51,1.82,2.53,3.08Z"/>
    <path class="cls-2" d="M.94,6.09c-.34,0-.53.53-.45,2.41.08,1.88.49,2.85.49,2.85l.31.16c.31.16.48-.4,1.7-.99,1.22-.59,3.52-.18,3.75-.37.32-.27-3.47-2.4-4.99-3.47-.29-.2-.48-.59-.81-.59Z"/>
    <path class="cls-2" d="M4.5,55.94c1.14-.06,1.7-3.34,1.29-3.6-.41-.25-.2.69-.62.69s-1.02-2.27-.93-6.37c.09-4.1,1.22-9.37,3.59-15.3s4.05-7.23,4.51-7.48c.45-.25.86.19,1.59-.13.73-.32,2.05-1.36,2.59-2.08.54-.73,1.23-2.46.68-2.84-.55-.38-1.29.74-2.16.68s-2.62-1.33-3.06-2.62c-.44-1.29.22-2.63,0-3.22s-2.16-2.71-4.99-2.71-5.44,1.2-6.36,2.59c-1.2,1.81-.55,4.19.69,4.07.33-.03.13-.37.23-.91.07-.4.47-.83.81-1.06.45-.3,2.27-.71,3.55.35,1.2,1,2.12,2.81,1.9,6.11-.22,3.3-1.58,8.48-2.09,9.93-.5,1.45-.99,2.57-1.62,3.11-.63.54-.84.22-.97.39-.13.17-.69,5.78-.69,10.79s.92,9.66,2.05,9.59Z"/>
    <path class="cls-2" d="M3.86,19.24c.98,4.14.71,8.3.44,10.5-.27,2.2-1.04,4.69-.68,4.83s2.88-7.06,3-11.16-.42-5.79-1.25-6.57c-.83-.78-2.05-.61-2.57-.21-.92.7-.52,1.62-.34,1.54.5-.22,1.17.1,1.4,1.06Z"/>
    <path class="cls-2" d="M15.55,51.49c-.18.46-1.02.51-1.43.18-.93-.75-.23-2.37-1.3-2.47s-2.79,2.09-5.77,14.84c-2.98,12.75-1.65,13.81-2.63,13.79-.54-.01-1.19-5.52,2.79-21.56,3.12-12.59,6.75-17.49,8.4-16.52,1.64.98-1.28,10.07-.84,10.66.44.59,1.02.51.79,1.08Z"/>
  </g>
</svg>