<?xml version="1.0" encoding="UTF-8"?>
<svg id="refs" xmlns="http://www.w3.org/2000/svg" viewBox="0 0 261.95 653.07">
  <defs>
    <style>
      .cls-1 {
        fill: #FFF5E9;
      }
    </style>
  </defs>
  <path class="cls-1" d="M65.38,46.81c1.15,0,4.24-12.16,12.36-17.14,6.75-4.14,3.95-7.91,3.95-7.91,5.91,1.65,18.48,2.64,29.02-9.89,9.39,9.39,24.22,4.45,31.8,6.76,7.58,2.31,12.53,7.42,14.67,6.1,1.89-1.16-7.42-13.35-12.69-15.49-5.27-2.14-12.2-1.81-17.31-3.46C122.07,4.12,117.29,4.45,111.53,0c-6.92,8.9-33.46,14.01-38.57,19.45-5.11,5.44-5.27,8.9-7.58,12.86s-1.15,14.5,0,14.5Z"/>
  <path class="cls-1" d="M258.73,135.75c4.99-14.51,3.63-33.1-13.15-48.07-16.78-14.96-25.85-26.75-20.86-47.16-.45,1.81,4.08,4.99,6.35,4.99s10.88-8.16,4.08-19.04c-7.26-4.08-24.49.45-33.1,22.22-3.63-8.62-18.14-19.04-18.14-35.82-20.86,6.35-32.19,19.95-37.18,33.56-3.62-4.99-9.53-1.36-15.42-3.17.45,7.26-4.99,18.14,0,34.46,4.99,16.32,21.77,20.41,28.11,33.56,6.35,13.15,10.43,39-14.06,51.24,0,0-9.2,3.05-17.33.11-8.13-2.94-12.88-8.4-16.03-23.74-3.15-15.34,3.15-51.05,2.1-66.81-1.05-15.76-14.29-27.1-20.8-32.35-6.51-5.25-10.71-11.76-10.71-11.76,0,0-3.57,4.2-7.14,7.14-3.57,2.94-5.88,7.35-7.56,12.4-1.68,5.04-6.72,12.4-15.34,17.65-8.61,5.25-20.8,11.13-17.65,26.68,0,0-4.41-.84-11.97.42-7.56,1.26-7.56-6.93-7.14-15.55.42-8.61-3.99-12.4-14.92-16.6-2.94,6.3,2.31,10.71,5.46,16.18,3.15,5.46-1.05,17.44,3.36,24.16,4.41,6.72,5.99,4.49,6.44,9.93s-1.81,18.59-4.99,37.64,8.16,35.82,37.64,48.97c-2.72,3.63-2.27,25.39,7.71,34.01,9.98,8.62,36.28,4.08,48.97-9.07,12.7-13.15,10.88-29.47,22.58-38.09,0,0,10.07,10.43,22.31,6.8,9.97,13.6,14.97,18.59,16.33,44.89.07,1.35.09,2.66.08,3.95-5.84-3.18-12.93-4.93-22-4.34-24.01,1.57-37.69,18.17-39.71,30.07-2.02,11.89,4.49,15.26,4.49,26.7s-4.19,19.27-12.12,20.42c-5.24.76-7.66-3.17-7.1-6.42.56-3.25,1.83-6.55-.75-7.04-2.9-.55-7.63,8.75-2.69,15.03,4.94,6.28,18.4,9.87,27.15,3.37,8.75-6.51,11.67-17.28,11.44-24.91-.22-7.63-2.47-24.23,4.26-30.51,6.3-5.88,25.93-14.5,35.43-8.8-3.8,16.22-13.4,27.76-18.87,40.07-6.12,13.76-32.85,49.1-63.36,88.38-10.72-27.16-18.38-58.49-20.16-58.36-2.33.18-4.48,6.63-2.51,28.48,1.17,13.01,4.88,28.36,11.36,44.4-2.01,2.57-4.02,5.15-6.04,7.74-37.18,47.61-27.66,88.88-18.59,117.9,8.28,26.49,50.17,57.88,68.45,73.85-8.37.7-13.81-2.03-18.46-.92-3.64.87-8.51,2.6-12.4,6.96-.11.1-.22.2-.32.31-5.02,5.73-7.88,13.97-6.45,23.11,1.43,9.14,16.48,27.76,40.48,28.12,24,.36,48-16.48,60.18-49.97,12.18-33.5,7.34-71.29-13.79-97.62-11.77-14.66-27.48-35.77-41.88-56.39,4.16-7.91,9.22-15.31,15.23-21.9,21.32-23.33,54.52-78.08,57.44-98.05,2.92-19.97,3.14-52.05-6.73-66.41-3.4-4.94-6.82-9.93-10.83-14.29,6.39-32.61-6.3-52.42-15.31-61.43,0,0,4.08-4.99,4.08-13.15,4.53.91,4.53,1.36,9.98.45s34.46,12.24,43.98,14.06c9.52,1.81,17.23-.91,30.38-10.88,13.15-9.98,12.7-27.66,7.71-41.72ZM73.7,220.83c-8.49.5-15.74-8.24-15.99-21.74,15.99,2.75,32.48,1.5,40.97-4.25-3.25,25.73-16.49,25.48-24.98,25.98ZM76.2,190.1c-15.24-1-29.98-18.49-29.73-68.95,19.99,36.23,51.97,45.47,70.45,49.22-7.99,11.74-25.48,20.74-40.72,19.74ZM71.37,117.41c-2.7-8.43-3.4-17.48-3.39-26.28.05-4.4.25-8.8.81-13.16-.03,8.74.44,17.49,1.75,26.11.72,4.26,1.52,8.58,3,12.55,1.46,4.02,3.5,7.84,5.8,11.48,9.32,14.72,22.52,26.67,37.58,35.42-19.73-8.78-37.79-25.69-45.55-46.13ZM56.03,494.88c-5.07-33.11,7.91-61.11,22.29-84.02,3.07,6.1,6.52,12.23,10.4,18.3,4.32,6.76,8.57,13.15,12.93,19.43-.96,1.82-1.86,3.66-2.67,5.52-10.99,25.35-11.89,54.3-6.73,73.59,2.84,10.61,11.23,29.75,18.22,44.85-15.49-14.89-48.1-36.34-54.43-77.67ZM149.16,509.55c34.84,41.65,22.85,79.39,9.96,105.18-12.9,25.79-34.39,27.23-45.68,25.26-11.28-1.97-15.23-11.46-13.11-20.74,4.26,11.89,24.06,10.77,30.65,3.37,6.59-7.4,11.69-17.95,1.96-36.35-9.73-18.4-23.87-41.96-24.76-72.02-.46-15.37,1.79-31.68,6.94-47.07,9.66,12.81,20.51,26.21,34.04,42.38ZM186.93,305.12c-.9,12.79-15.71,50.48-33.43,76.74-12.58,18.63-29.22,34.43-41.76,51.1-7.09-10.57-13.42-20.48-18.19-28.7-1.63-2.81-3.22-5.89-4.77-9.15,3.92-5.68,7.63-10.97,10.78-15.87,17.23-26.75,31.74-33.56,63.03-90.69,4.83-8.83,8.46-17.05,11.1-24.71,7.06,12.43,13.91,31.63,13.24,41.27ZM219.3,110.46c-2.82,6.52-7.12,12.45-12.58,16.98,2.37-2.6,4.44-5.43,6.26-8.39,15.57-25.7,3.43-44.49-10.05-67.15,13.39,16.95,25.97,36.57,16.37,58.56ZM221.74,143.42c10.47-10.47,15.32-23.86,18.04-31.04,7.57,24.25-.39,31.81-4.85,34.14-4.46,2.33-19.98,12.41-25.41,13.19-5.43.78-12.03,0-12.03,0,2.72-3.88,13.77-5.82,24.25-16.29ZM164.04,81.14c-7.46-9.43-15.67-15.95-15.03-29.24,1.87,11.58,7.67,16.67,14.82,25.18,4.69,5.44,7.33,12.75,7.17,19.9,0,.3-.45.33-.5.03-.98-5.75-3.04-11.2-6.47-15.87ZM191.54,144.96c-3.65,4.05-8.13,7.24-12.66,10.23-4.89,3.08-10,5.96-15.61,7.54,9.16-6.38,18.42-12.39,28.04-18.03.17-.1.35.12.22.26ZM240.36,169.02c-6.79,5.04-16.68,7.76-23.86,6.79l-21.53-6.79c10.67-1.94,24.64.97,36.08-5.82,11.44-6.79,15.13-11.44,19.59-13.77-5.82,7.18-3.49,14.55-10.28,19.59Z"/>
</svg>