<?xml version="1.0" encoding="UTF-8"?>
<svg id="refs" xmlns="http://www.w3.org/2000/svg" viewBox="0 0 481.89 389.28">
  <defs>
    <style>
      .cls-1 {
        fill: #71A2B5;
      }
    </style>
  </defs>
  <path class="cls-1" d="M463.32,136.13c1.18-5.43,2.14-10.43,2.9-14.84,7.29-42.4,7.91-88.56,9.03-100.84,1.02-11.12,3.6-14.31-.08-17.66-5.03-4.58-20.98-2.96-23.63.8-2.65,3.76,2.65,9.94,4.64,19.54,2,9.64.55,53.33-1.44,87.78-.08,1.44-.21,2.89-.36,4.36-14-27.73-25.7-45.93-25.7-62.66s10.16-22.75,9.5-29.37c-1-9.98-9.17-3.9-20.1-10.19-10.29-5.92-13.03-14.82-22.53-10.79-12.21,5.18-7.83,42.41,14.24,72.21,17.18,23.19,29.07,39.58,39.91,64.56-1.4,5.07-3.02,10.16-4.77,15.19-1.99-4.27-4.03-8.36-6.1-12.17-19.43-35.78-51.68-72.43-68.02-86.57-16.34-14.13-27.52-17.03-37.62-17.03s-20.79,6.74-24.76,7.62c-.61.14-1.39.27-2.22.44-.99-1.14-2.46-2.71-4.41-4.49-3.98-3.64-1.33-12.92-5.63-16.23-4.31-3.31-20.57-12.92-33.49-11.26-2.97,8.32-.63,20.44,2.32,25.88-1.24-.91-2.47-1.91-3.69-3.03-10.85-9.94-51.37-34.35-77.21-32.46-25.84,1.89-49.47,16.89-51.12,38.76-1.66,21.86,6.74,31.69,11.37,31.69,5.59,0,11.32-20.36,27.63-29.75,16.67-9.61,28.51-10.62,44.48-9.89,19.21.88,52.56,15.9,50.24,19.21-2.32,3.31-31.14-10.27-57.64-8.94-26.5,1.33-53.11,15.8-58.96,44.06-4.2,20.28,7.95,49.47,17.56,49.47,11.52,0,15.68-38.65,39.53-55.21,21.72-15.08,48.29-15.51,58.62-14.47-1,2.61-1.69,6.14-2.14,10.02-14.02-2.17-31.42-.16-52.61,18.36-21.38,18.68-30.83,37.63-32.06,51.12-12.01,2.34-20.41,17.59-34.52,27.16-14.41,9.77-33.62,11.43-36.44,7.95-2.2-2.72,5.8-21.44-3.31-21.2-6.29.17-8.94,13.08-14.41,24.02-5.47,10.93-15.97,21.52-11.51,26.17,6.05,6.29,16.31-12.75,24.6-15.24,8.28-2.48,30.31,2.48,52.34-17.89,16.5-15.26,19.15-20.48,23.76-22.21.44,1.82,1.1,3.44,1.97,4.82,4.17,6.64,21.97.44,23.3,2.21.53.71-.35,3.6-1.24,7.07-.03,0-.05,0-.08,0-16.89,1.66-50.68,26.17-66.58,44.39-14.13,16.19-29.38,41.95-39.26,63.99-14.05-12.03-26.02-24.2-35.2-34.28-6.95-7.63-13.06-17-18.41-27.28,15.53-36.59,32.37-76.05,34.9-103.45,4.64-50.35-16.48-106.66-37.76-106.66S-21.17,87.06,13.28,189.09c3.82,11.33,8.21,21.79,12.99,31.54-8.68,21.89-16.49,42.03-19.17,54.8-6.68,31.79-6.51,103.57-2.1,108.43,2.76,3.04,16.92,5.44,30.33,5.4,34.74.36,84.66-8.36,117.74-35.55,4.72-3.88,9.05-7.42,13.15-10.71,23.69,8.49,62.94,14.69,107.02,5.7.26,1.67.4,3.35.4,5.02,0,19.54-20.21,23.85-17.23,28.49,2.98,4.64,86.79,2.98,90.76.33,3.97-2.65.66-7.29-8.61-10.93-7.77-3.05-25.51-17.26-36.92-30.75,11-3.86,22.15-8.73,33.3-14.86,46.98,50.43,108.32,57.95,120.88,49.58,13.25-8.83,24.07-76.52,25.84-118.92,1.48-35.53-4.64-82.92-18.36-120.54ZM16.15,133.22c-6.63-34.45,3.09-84.8,21.2-84.8s24.25,42.63,19.88,76.85c-3.47,27.18-11.22,45.23-22.38,73.69-8.97-22.47-15.02-46.62-18.7-65.74ZM17.92,372.27c-4.97-4.28-4.77-41.94-.99-76.19,1.54-14,9.34-34.68,18.91-57.76,15.41,25.81,33.77,45.49,52.18,60.59-8.56,10.86-21.24,17.9-26.07,17.65-6.22-.33-3.54-17.13-10.41-16.99-5.67.12-7.9,11.42-10.55,19.37-2.65,7.95-13.1,12.89-10.12,19.52,2.98,6.63,28.34,6.68,48.21-10.48,6.95-6,13.13-13.33,18.72-21.45,10,7.38,19.87,13.48,29.12,18.54-5.87,6.21-11.51,11.62-16.92,15.73-45.93,34.89-86.57,36.22-92.09,31.47ZM110.34,366.31c-13.76,4.53-22.16,6.37-28.54,7.02,20.63-11.43,40.28-25.02,60.55-40.4,5.5,2.59,10.6,4.79,15.2,6.69-13.95,8.83-23.93,19.04-47.22,26.7ZM187.52,330.64c-1.25-.3-2.5-.63-3.75-.97,15.61-10.87,28.23-16.04,45.15-16.04s29.19,7.62,36.94,17.99c-25.02,4.99-51.79,5.38-78.35-.98ZM290.18,325.19c-10.47-13.47-27.02-27.45-55.95-27.45-25.8,0-44.85,16.77-59.46,29.21-5.56-1.86-11.03-4.01-16.38-6.44,11.92-9.38,24.17-19.31,37.09-29.73,48.61-39.23,81.79-32.34,126.96,20.66-10.05,5.33-20.87,9.99-32.25,13.75ZM337.92,302.31c-27.34-32.09-55.27-66.85-92.43-66.85-42.07,0-76.68,42.43-105.73,75.43-11.2-6.49-21.75-13.89-31.51-21.56,5.79-10.71,10.87-22.07,15.48-33.27,10.48-25.44,43.59-65.73,78.36-75.85-.1,2.63.39,4.91,2.1,6.12,9.17,6.5,48.25,2.32,67.91-30.81,13.86-23.35,17.72-38.58,18.33-48.63,2.4-.63,4.58-1.42,6.35-2.4,3.63,14.75,1.38,31.03-12.75,56.22-13.25,23.61-33.07,29.63-43.08,33.56-13.17-.98-38.69-1.87-60.38,17.84-28.37,25.78-21.67,42.59-26.5,47.53-5.23,5.35-11.39,10.07-9.56,14.54,2.11,5.17,12.05-3.11,18.67-5.27,6.62-2.15,16.8-4.73,15.24-10.6-1.33-4.97-7.78-2.15-10.77-5.63s2.15-22.53,17.56-34.45c15.4-11.93,26.5-17.23,50.52-15.73.16,0,.37-.03.61-.07,3.99,5.82,15.17,14.63,31.68,13.71,21.86-1.22,50.59-13.69,56.31-50.13,5.72-36.44-20.87-59.07-12.92-64.04,7.95-4.97,22.19,26.06,23.85,63.49,1.66,37.43-40.41,54.55-38.43,58.52,1.99,3.98,18.33,6.29,38.87,0,20.54-6.29,28.49-21.65,28.49-51.8,0-28.49-25.54-61.39-39.25-75.27,10.36,1.41,24.38,1.12,25.72-1.57,1.39-2.78-5.47-27.49-17.72-30.48-8.52-2.07-10.41,1.04-13.65-3.12,0,0,0,0,0,0,.34-1.97.49-3.85,1.07-4.99,1.33-2.65,6.19-7.25,15.9-6.81s42.8,20.81,73.7,62.05c10.01,13.37,21.59,31.81,31.29,52.17-4.18,10.79-8.78,21.06-12.97,29.96-17.07-28.32-38.75-50.13-45.77-49.2-5.95.79-9.38,7.08-4.75,19,4.64,11.93,7.18,26.28.55,39.53-6.62,13.25-12.7,27.71-5.85,30.92,6.23,2.91,11.73-7.75,22.64-4.86,3.34.89,6.76,2.88,10.11,5.46-16,22.25-40.82,49.87-67.3,67.35ZM443.58,361.67c-10.1,6.38-29.81,3.31-59.96-15.24-11.53-7.1-22.42-17.77-33.19-29.75,2.25-1.47,4.49-2.99,6.73-4.57,25.74-18.19,45.62-40.85,61-64.53,2.45,2.79,4.67,5.49,6.54,7.75,10.63,12.84,19.06,25.72,21.86,43.39,4.01,25.25,3.31,58.96-2.98,62.94ZM457.6,275.66c-2.69-16.78-7.84-35.22-15.46-54.1-1.3-3.23-2.73-6.43-4.24-9.61,4.53-9.66,7.44-16.55,10.77-25.75,6.29,16.26,10.77,30.49,12.07,46.45,2.7,33.05.25,64.2-3.14,43.01ZM466.1,207.89c-2.24,0-6.67-21.04-12.53-35.81,1.61-4.89,2.64-8.34,3.95-12.93,3.15,8.97,6.53,17.25,9.11,29,1.62,7.37,1.95,19.74-.54,19.74Z"/>
</svg>