<?xml version="1.0" encoding="UTF-8"?>
<svg id="refs" xmlns="http://www.w3.org/2000/svg" viewBox="0 0 498.95 776.16">
  <defs>
    <style>
      .cls-1 {
        fill: #284e42;
      }
    </style>
  </defs>
  <path class="cls-1" d="M483.24,444.43c.72-4.4,1.42-8.78,2.09-13.12,6.1-39.61,1.05-70.38-5.3-90.2,1.58-4.08,3.04-8.09,4.39-11.99,11.11-32.14,14.74-96.17,14.51-113.74-.23-17.58-1.81-28.12-3.17-42.94-1.36-14.81.45-38.92,1.36-75.71.91-36.79-15.19-57.62-32.88-73.18-17.69-15.57-69.16-22.85-87.53,10.29-18.37,33.14-.45,63.02,22.68,116.75,19.46,45.2,34.26,103.55,45.63,147.7-8.83-4.31-19.22-7.25-30.89-7.84-29.71-1.51-50.57,9.29-76.19,25.86-25.62,16.57-42.41,72.81-48.98,120.27-6.58,47.45-12.7,82.36-16.55,102.19-3.64,18.71-11.31,30.96-19.97,60.72-.33-25.71-1.24-85.19-2.96-110.2-2.22-32.35-6.32-86.39-4.43-129.03,1.89-42.64,8.53-92.64,7.53-120.94,9.96,14.7,13.94,43.01,20.25,48.89,6.31,5.88,11.29,5.15,15.94,11.03,4.65,5.88,9.3,21.32,9.3,21.32,3.32-38.97,12.62-39.7,16.27-52.2,3.65-12.5,5.98-45.58-8.63-58.82-12.75-11.55-19.14-12.46-20.56-12.5,37.61-1.38,60.74,11.81,63.06,26.11,2.32,14.34.66,32.35,4.65,43.38,3.98,11.03,10.29,20.22,12.62,20.22,1.99-2.21,2.66-8.45,2.66-8.45-7.97-4.41-10.96-16.54-8.3-27.94,2.66-11.4,4.32-30.14-5.31-43.38-9.63-13.23-34.2-22.42-48.47-22.42h-35.86c38.18-13.97,76.36-8.82,92.96,4.78,16.6,13.6,16.6,28.31,15.27,40.44s.52,18.65.52,18.65c3.46-24.9,12.1-37.4,9.77-52.11-2.32-14.7-13.94-50.36-43.49-54.41-29.55-4.04-44.16,10.29-52.79,16.54-8.63,6.25-17.26,16.17-22.58,17.28,6.31-9.56,37.19-36.76,43.49-45.22,6.31-8.46,22.58-35.29,23.24-43.75.66-8.46-7.58-34.19-15.74-30.51-8.16,3.68-7.83,16.91-4.51,24.63,3.32,7.72,4.65,15.44,0,24.26-4.65,8.82-25.56,40.44-29.88,44.11-4.32,3.68-26.89,25.36-26.89,25.36,1.99-12.13,17.6-21.32,23.57-34.19,5.98-12.87,11.95-38.23,4.65-61.39-7.3-23.16-25.23-49.63-33.2-59.19C246.6,10.3,248.59-.36,245.27,0c-3.32.37-10.96,15.07-27.22,34.19-16.27,19.12-31.21,50.36-19.59,87.86,11.62,37.5,28.22,41.91,32.2,52.94-28.22-22.42-60.43-65.43-61.75-79.77-1.33-14.34,10.62-32.35,0-39.7-10.62-7.35-19.92,24.63-13.28,39.7,6.64,15.07,17.26,34.56,20.92,37.86,3.65,3.31,44.49,41.54,42.83,42.28-1.66.74-24.57-21.32-41.83-30.51-17.26-9.19-50.47-4.05-62.75,15.43-12.28,19.49-16.93,37.13-11.62,53.68,5.31,16.54,5.31,31.61,5.31,31.61,3.65-19.48-1.33-41.54,10.29-51.1,11.62-9.56,28.88-17.28,48.14-16.91,19.26.37,46.81,1.1,51.46,5.15-1.33,4.78-31.87-.37-51.79,5.15-19.92,5.51-37.52,16.17-39.18,40.81-1.66,24.63,4.32,36.76-1.66,45.22-5.98,8.46-3.98,11.76-2.32,12.5,1.66.73,13.94-14.34,14.28-24.63.33-10.29-3.65-34.56,6.97-45.58,10.62-11.03,36.85-23.16,55.45-18.38-31.21,16.17-31.54,46.32-28.55,64.7,2.99,18.38,10.96,16.91,13.94,30.14s4.32,27.94,4.32,27.94c5.64-21.32,20.25-24.63,27.56-36.03,7.3-11.4,8.96-31.61,14.94-38.23-3.65,54.77,4.65,87.49,4.65,121.68s5.98,148.51,5.31,169.1c-.37,11.46-.33,32.14-.22,48.23-6.77-20.06-12.51-31.12-15.51-46.53-3.86-19.84-9.98-54.74-16.55-102.19-6.58-47.45-23.36-103.7-48.98-120.27-25.62-16.57-46.49-27.37-76.19-25.86-11.67.59-22.05,3.53-30.89,7.84,11.37-44.15,26.17-102.49,45.63-147.7,23.13-53.73,41.05-83.61,22.68-116.75C103.87.71,52.39,7.99,34.71,23.56,17.02,39.12.92,59.95,1.82,96.74c.91,36.79,2.72,60.9,1.36,75.71C1.82,187.26.24,197.81,0,215.38c-.23,17.58,3.4,81.6,14.51,113.74,1.35,3.9,2.81,7.91,4.39,11.99-6.35,19.83-11.4,50.59-5.3,90.2.67,4.34,1.37,8.71,2.09,13.12-10.29,76.22,7.04,182.72,7.04,182.72-17.56,47.52-17.33,56.61-13.23,82.62,4.1,26.01,21.66,44.69,23.94,43.18,1.25-.83-10.49-21.46-12.31-46.21-1.82-24.74-.63-31.06,2.54-39.89,3.17-8.84,4.99-12.62,6.13-16.16,10.03,28.28,11.4,43.68,11.86,55.55.46,11.87-2.74,32.82,8.89,46.71,11.63,13.89,32.61,20.96,49.48,12.88,16.88-8.08,26.45-18.68,30.33-38.38,3.88-19.69,5.7-44.69-17.1-80.8-4.29-6.79-8.46-13.23-12.48-19.33,2.88.97,6.34,1.36,10.56.85,16.55-2.01,16.33-17.83,28.57-18.33,12.25-.5,10.88,8.03,13.83,10.04,2.95,2.01,6.12,3.26,6.8,2.51.68-.75,2.27-14.31-6.58-22.35-8.84-8.04-24.72-8.29-31.29.25-6.58,8.54-8.84,13.29-19.05,11.41-10.2-1.87-16.78-16.94-14.51-29.24,2.27-12.3,13.15-28.87,27.44-29.13,14.29-.25,34.24-.75,58.28,29.63,24.04,30.38,34.47,66.29,34.47,66.29-30.39-12.55-42.41-4.52-46.26,6.53-3.85,11.05-2.27,17.83,9.52,25.86,11.79,8.03,11.11,24.1,1.81,36.66-9.3,12.55-17.92,24.61-14.74,36.66,3.17,12.05,7.48,9.04,9.07,8.04,1.59-1-2.27-5.27-.91-14.81,1.36-9.54,5.44-16.32,16.33-27.62,10.88-11.3,9.07-27.37-1.13-36.16-10.2-8.79-8.39-25.11.91-26.36,9.3-1.26,22.22,2.26,31.07,20.84,8.84,18.58,12.25,41.43,15.42,51.22,3.17,9.79,4.54,43.69,4.54,43.69,0,0,2.95-12.3,4.31-19.58,1.36,13.31,2.49,19.58,2.49,19.58h15.46s1.13-6.28,2.49-19.58c1.36,7.28,4.31,19.58,4.31,19.58,0,0,1.36-33.9,4.54-43.69,3.17-9.79,6.58-32.64,15.42-51.22,8.84-18.58,21.77-22.1,31.07-20.84,9.3,1.26,11.11,17.58.91,26.36-10.2,8.79-12.02,24.86-1.13,36.16,10.89,11.3,14.97,18.08,16.33,27.62,1.36,9.54-2.49,13.81-.91,14.81,1.59,1,5.9,4.02,9.07-8.04,3.17-12.05-5.44-24.1-14.74-36.66-9.3-12.55-9.98-28.62,1.81-36.66,11.79-8.03,13.38-14.81,9.52-25.86-3.86-11.05-15.87-19.08-46.26-6.53,0,0,10.43-35.9,34.47-66.29,24.04-30.38,43.99-29.88,58.28-29.63,14.29.25,25.17,16.82,27.44,29.13,2.27,12.3-4.31,27.37-14.51,29.24-10.2,1.87-12.47-2.88-19.05-11.41-6.58-8.54-22.45-8.29-31.29-.25-8.84,8.03-7.26,21.59-6.58,22.35.68.75,3.85-.5,6.8-2.51,2.95-2.01,1.59-10.55,13.83-10.04,12.25.5,12.02,16.32,28.57,18.33,4.21.51,7.67.12,10.56-.85-4.02,6.1-8.19,12.54-12.48,19.33-22.8,36.11-20.98,61.1-17.1,80.8,3.88,19.69,13.45,30.3,30.33,38.38,16.87,8.08,37.85,1.01,49.48-12.88,11.63-13.89,8.44-34.84,8.89-46.71.46-11.87,1.82-27.27,11.86-55.55,1.14,3.53,2.96,7.32,6.13,16.16,3.17,8.84,4.36,15.15,2.54,39.89-1.82,24.74-13.57,45.37-12.31,46.21,2.28,1.51,19.84-17.17,23.94-43.18,4.1-26.01,4.33-35.1-13.23-82.62,0,0,17.32-106.5,7.04-182.72ZM255.2,47.46c12.54,14.71,19.31,40.26,17.8,57.75-1.5,17.49-7.27,29.43-17.8,40.81,9.28-26.1,8.73-36.65,9.01-49.28.27-12.63-3.49-33.18-9.01-49.28ZM14.46,276.17c-.66-17.01-5.49-42.05-3.95-56.63,1.54-14.58,1.1-21.15,1.1-21.15,29.63-36.46,31.03-52.44,33.79-64.69,7.51-33.3-2.62-57.56,4.84-79.43,7.46-21.87,22.17-34.51,40.39-32.57,18.22,1.94,27.66,16.77,28.32,39.86.66,23.09-21.95,62.01-31.39,90.31-9.44,28.3-29.19,92.95-35.34,116.77-6.15,23.82-10.98,39.13-10.98,39.13-10.1,6.81-12.46,18.47-16.55,19.44-2.37.56.52-7.05-1.67-12.88-2.2-5.83-7.9-21.15-8.56-38.16ZM34.72,332.05s-.39,13.83-2.54,12.75c-2.15-1.08-1.44-5.84-.79-7.86,1.5-4.7,3.33-4.89,3.33-4.89ZM21.58,387.52c-.7-.69,2.52-31.91,3.8-31.97,2.1-.09,2.95,2.84,2.33,5.67-.62,2.84-.54,7.39-1.24,10.91-.7,3.52-4.19,16.07-4.89,15.38ZM122.01,709.02c-.45,44.19-32.43,54.74-46.94,51.72-14.51-3.01-22.45-16.82-22.22-36.16.23-19.33-4.31-48.46-13.83-76.33-9.52-27.87-12.25-58.25-13.83-88.63-1.25-23.89-1.41-42.52-1.5-66.53,8.14,38.12,19.04,63.93,40.51,95.91,30.84,45.95,58.28,75.83,57.83,120.02ZM231.77,683.41c-.45.5-7.26-16.07-15.42-39.42-8.16-23.35-23.36-61.26-46.71-85.37-23.36-24.1-54.2-39.17-76.42-12.3-15.19,18.36-14.59,39.06-11.53,52.45-8.65-12.85-15.73-23.54-20.4-32.16-9.58-17.67-19.61-49.49-26.22-70.19-5.11-15.99-9.11-41.47-10.67-52.23,2.18-18.01,6.21-42.78,11.05-67.5,10.27,18.57,23.35,36.72,40.09,51.63,31.29,27.87,61.45,54.49,78.69,78.84,17.23,24.36,45.58,58.5,63.27,112.99,17.69,54.49,14.74,62.77,14.29,63.27ZM235.86,653.08s-9.56-36.08-19.12-58.69c-9.56-22.61-35.19-66.39-52.14-89.96-16.95-23.57-55.83-56.04-70.82-67.59-14.99-11.55-31.72-27.66-55.36-74.93l11.76-49.1s20.36-12.6,40.78-13.56c20.42-.96,36.71,3.85,61.91,20.2,25.2,16.36,38.02,62.78,45.4,106.08,7.39,43.3,13.03,86.35,17.6,111.85,4.56,25.5,18.03,50.27,21.94,64.22,3.91,13.95,3.91,28.38-1.96,51.47ZM210.27,120.19c-1.73-13.87,2.17-33.54,5.92-44.86,3.74-11.32,8.21-17.54,8.21-17.54.72,12.44-2.74,18.5-3.6,31.89-.86,13.39.77,31.41,3.7,40.5,2.93,9.09,6.67,11.8,8.83,21.69-14.55-7.13-21.33-17.81-23.05-31.68ZM238.9,143.24c-5.52-28.32-9.53-33.04-8.53-50.11,1-17.07,8.27-28.18,9.53-34.57,1.25-6.39,3.01-15.55,3.01-15.55,3.76,13.05,9.03,15.27,10.03,24.99,1,9.72-3.77,50.25-7.9,61.63-4.13,11.38-6.14,13.6-6.14,13.6ZM249.47,751.95c-7.05-40.17-5.65-88.13,0-112.49,0,0-.79-19.7-1.17-29.28l2.31.83c-.39,9.84-1.14,28.45-1.14,28.45,5.65,24.36,7.05,72.31,0,112.49ZM477.36,387.52c-.7.69-4.19-11.86-4.89-15.38-.7-3.52-.62-8.08-1.24-10.91-.62-2.84.23-5.76,2.33-5.67,1.28.05,4.5,31.28,3.8,31.97ZM411.39,151.87c-9.44-28.3-32.05-67.22-31.39-90.31.66-23.09,10.1-37.92,28.32-39.86,18.22-1.94,32.93,10.69,40.39,32.57,7.46,21.87-2.67,46.14,4.84,79.43,2.76,12.26,4.16,28.24,33.79,64.69,0,0-.44,6.56,1.1,21.15,1.54,14.58-3.29,39.62-3.95,56.63-.66,17.01-6.37,32.33-8.56,38.16-2.2,5.83.7,13.45-1.67,12.88-4.09-.97-6.45-12.64-16.55-19.44,0,0-4.83-15.31-10.98-39.13-6.15-23.82-25.9-88.47-35.34-116.77ZM466.77,344.8c-2.15,1.08-2.54-12.75-2.54-12.75,0,0,1.84.18,3.33,4.89.64,2.02,1.35,6.78-.79,7.86ZM263.09,653.08c-5.87-23.09-5.87-37.52-1.96-51.47,3.91-13.95,17.38-38.73,21.94-64.22,4.56-25.5,10.21-68.55,17.6-111.85,7.39-43.3,20.2-89.72,45.4-106.08,25.2-16.36,41.49-21.17,61.91-20.2,20.42.96,40.78,13.56,40.78,13.56l11.76,49.1c-23.65,47.27-40.37,63.38-55.36,74.93-14.99,11.55-53.88,44.02-70.82,67.59-16.94,23.57-42.58,67.35-52.14,89.96-9.56,22.61-19.12,58.69-19.12,58.69ZM405.74,546.31c-22.22-26.87-53.06-11.8-76.42,12.3-23.36,24.1-38.55,62.02-46.71,85.37-8.16,23.35-14.97,39.92-15.42,39.42s-3.4-8.79,14.29-63.27c17.69-54.49,46.03-88.63,63.27-112.99,17.23-24.36,47.39-50.97,78.69-78.84,16.74-14.91,29.82-33.06,40.09-51.63,4.83,24.72,8.86,49.5,11.05,67.5-1.56,10.77-5.56,36.24-10.67,52.23-6.61,20.7-16.65,52.52-26.22,70.19-4.67,8.62-11.74,19.3-20.4,32.16,3.06-13.39,3.66-34.09-11.53-52.45ZM473.77,559.62c-1.59,30.38-4.31,60.76-13.83,88.63-9.52,27.87-14.06,57-13.83,76.33.23,19.33-7.71,33.14-22.22,36.16-14.51,3.01-46.49-7.53-46.94-51.72-.45-44.19,26.99-74.07,57.83-120.02,21.47-31.98,32.36-57.78,40.51-95.91-.09,24.01-.25,42.64-1.5,66.53Z"/>
</svg>