<?xml version="1.0" encoding="UTF-8"?>
<svg id="Camada_1" data-name="Camada 1" xmlns="http://www.w3.org/2000/svg" viewBox="0 0 1920 1080">
  <defs>
    <style>
      .cls-1 {
        fill: #ea5279;
      }
    </style>
  </defs>
  <g>
    <path class="cls-1" d="M510,507.92c-3.24-1.39-7.88-5.56-11.12-10.2-3.71-5.1-7.42-8.34-10.66-9.27-2.78-.93-17.15-1.85-31.98-1.85s-29.2-.93-32.45-1.39c-3.71-.93-10.2-5.56-16.69-10.66-6.49-5.56-12.05-8.81-14.37-8.81-1.85,0-7.88,2.32-12.52,6.03l-20.86,11.59c-10.2,5.1-12.52,6.95-17.15,13.91-2.78,4.17-6.03,8.81-7.88,10.2-1.85.93-6.49,1.85-10.66,1.85s-9.27-.93-11.12-1.85c-1.39-.47-4.17-3.25-5.56-6.03-1.39-2.32-2.32-8.34-2.32-14.37,0-8.34.46-11.59,3.24-14.37,2.32-2.78,5.1-4.17,8.34-4.17,2.78,0,8.81,2.32,13.91,4.64,4.64,2.32,10.66,4.64,12.98,4.64s8.81-2.32,14.37-4.64c5.56-2.78,12.98-7.42,16.69-10.66,6.49-5.1,6.95-6.03,6.95-12.05-.46-3.71-1.85-11.12-3.71-16.69-3.24-9.27-3.24-12.51-3.24-123.76v-114.49l5.56-10.2c3.71-6.96,5.56-12.98,5.56-16.69,0-5.1-.93-7.42-4.17-10.2l-9.73-6.95c-3.24-1.85-9.73-4.64-14.37-6.49-5.1-1.39-12.05-2.78-15.76-2.78-4.17,0-6.95.93-9.73,3.71l-7.42,8.34c-1.85,2.32-5.1,5.1-7.42,5.56-1.85.47-5.1,0-7.88-.93-2.32-.93-5.56-3.71-7.42-6.49-2.32-3.71-3.24-7.88-3.24-14.37,0-5.56.93-11.12,2.32-13.91,1.39-2.32,3.24-4.64,4.64-5.1.93-.46,5.1-.93,9.73-.93,6.03,0,8.34.93,14.37,5.1,3.71,2.78,7.88,5.1,8.81,6.03l13.44,4.17c6.49,1.39,14.83,4.17,18.54,6.02,3.24,1.85,10.2,5.56,14.83,8.81,5.1,3.71,10.2,6.03,12.98,6.03s9.27-1.85,14.83-4.17c5.56-1.85,18.54-5.56,28.74-7.42,10.66-1.85,20.4-3.71,22.71-3.71,1.85,0,8.34,1.85,13.44,4.17l10.2,3.71,29.2-1.39,48.21-3.24c10.2-.93,27.81-3.71,38.47-6.03,10.66-2.78,23.64-4.64,29.2-4.64,6.95,0,12.98-.93,21.79-4.64,6.49-2.32,14.37-4.17,17.15-4.17,3.24,0,6.95,1.39,9.73,3.25,4.17,3.71,4.64,4.64,4.64,13.91,0,8.34-.46,10.2-4.17,13.44-2.78,2.78-6.95,4.64-16.69,6.02-7.88.93-13.44,2.78-15.3,4.64l-19.47,19.47c-12.05,12.05-19.47,20.86-25.49,31.05-5.56,8.81-13.91,19.47-21.79,27.81-9.73,9.73-14.37,16.22-19.93,26.88-6.03,12.52-8.34,15.3-16.22,20.86-8.34,6.03-9.73,7.88-12.52,15.3-1.39,5.1-7.88,17.15-13.91,26.88-10.2,15.3-12.52,18.08-20.4,23.18-7.42,4.17-10.2,7.42-13.91,14.37-2.78,5.1-4.64,11.59-5.1,14.83,0,4.64.93,6.49,3.71,8.81,3.24,2.32,6.49,2.78,21.32,2.78,11.12.46,19,.93,23.18,2.32,3.71,1.39,10.66,4.17,15.3,5.56,7.42,2.78,8.81,2.78,13.91.47,4.17-1.39,6.49-3.71,8.81-8.34,1.85-3.71,3.71-9.27,4.17-12.05.46-3.25,3.04-29.6,33.84-37.08,4.46-1.08,26.25-2.1,7.93,6.27-18.32,8.37-31.57,34.06-32.96,38.23-.93,3.71-3.71,9.73-5.56,12.98-2.32,4.17-6.49,7.42-9.73,9.27-4.17,1.85-8.81,2.32-14.37,1.85-4.64-.46-12.52-2.78-18.08-5.1-8.34-3.71-11.59-4.17-28.28-4.17-13.91-.46-19.47-.93-23.64-2.78-2.78-1.85-6.03-4.64-7.42-7.42-1.39-2.32-2.78-7.42-2.78-11.12,0-4.64,1.85-10.66,4.17-15.76,2.32-4.64,4.17-10.2,3.71-12.05,0-1.85-2.32-4.64-5.1-6.49-4.17-2.78-6.49-3.24-25.49-3.24-13.91.46-24.1.93-27.81,2.32-5.56,1.85-6.95,3.24-8.81,8.34-2.32,5.56-2.32,7.88.93,21.79,2.78,10.2,3.71,20.86,3.71,30.59,0,11.12-.93,19.01-4.17,30.59l-4.17,15.29,3.24,5.56c1.39,3.24,6.03,7.88,9.73,10.2l6.95,4.64h34.76c31.98-.46,35.69-.46,42.18-3.71,4.64-1.85,10.66-3.25,15.76-3.25,4.64,0,9.27.93,11.59,2.32,1.85,1.39,4.17,5.56,5.1,8.81,1.39,3.25,1.39,8.81.93,12.05-.46,2.78-1.85,7.42-2.78,9.27-.93,1.85-4.17,4.64-6.95,6.03-2.78,1.39-6.95,2.32-8.81,2.32s-6.03-.93-9.27-2.78ZM498.41,343.83c2.32-1.85,8.34-10.2,13.91-18.54,5.1-8.34,10.66-18.08,11.59-20.86,1.39-4.17,1.39-6.49,0-8.81-.93-1.85-4.17-4.17-6.95-5.56-3.71-.93-11.12-1.85-19-1.85-10.2,0-15.76.93-23.18,3.71-5.1,1.85-12.98,3.71-16.69,3.71-4.17,0-12.05-.46-17.15-1.39-5.1-.93-12.05-1.39-15.76-.46-3.24.46-8.34,2.32-11.12,3.71-2.78,1.85-6.49,5.56-8.34,8.34-1.39,2.32-3.24,8.81-3.71,13.91-.93,5.1-.46,10.66.93,12.98.93,2.78,3.71,5.56,5.56,6.49,3.24,1.39,6.03,1.39,14.83,0,6.03-1.39,19-2.32,28.28-2.32,16.22,0,17.61.46,26.88,4.64,5.56,2.78,11.59,5.1,12.98,5.1,1.85,0,5.1-1.39,6.95-2.78ZM546.15,277.08c1.85-1.85,6.49-8.81,9.73-16.22,5.1-9.27,10.2-16.22,19.93-25.96,7.42-7.88,15.76-18.54,20.4-26.42,5.56-8.81,12.52-17.61,23.64-28.28l19-20.4c1.39-2.78,2.78-6.49,2.78-8.34s-1.39-4.64-3.24-6.49c-2.32-2.32-5.1-2.78-11.59-2.78-4.64.46-16.22,2.32-25.49,4.64-11.12,2.32-25.03,4.64-40.79,6.02l-50.52,2.78c-22.71.93-26.42,1.39-30.59,4.17-2.78,1.85-6.95,3.71-9.73,4.17-3.71.93-6.49,0-12.98-4.64-6.03-4.64-9.27-5.56-14.37-5.56-3.24,0-11.59,1.39-17.61,3.24-6.49,1.85-13.91,4.64-16.22,6.95-4.17,3.25-4.64,4.64-4.64,12.52,0,6.02,1.39,11.59,5.56,19.93,2.78,6.03,5.56,14.37,6.03,18.08.46,4.17-.46,11.59-2.32,18.08-1.39,6.03-2.78,15.3-2.78,20.4,0,6.49.93,10.2,3.71,14.37,1.85,2.78,5.1,6.03,7.42,6.96,1.85.93,6.03,1.85,9.27,2.32,2.78.46,10.66,0,17.61-1.39,6.49-1.39,14.37-2.32,17.61-2.32s9.27.93,13.44,2.32c4.64,1.39,12.98,2.32,19,2.32,7.88,0,14.83,1.39,23.18,3.71,11.12,3.71,12.52,3.71,16.69,1.85,2.32-1.39,6.03-3.71,7.88-6.02Z"/>
    <path class="cls-1" d="M630.42,349.73c-20.4,0-34.46,14.18-44.9,31.98-2.62,4.47-7.79-15.84-7.79-15.84,7.31-9.74,24.67-24.97,57.26-24.97s47.82,14.01,47.82,46.9v96.54l19.49,1.52v4.57l-34.11,9.14h-3.65v-36.24c-3.35,10.36-18.88,39.9-49.95,39.9-22.84,0-38.98-16.14-38.98-40.2,0-47.21,63.04-58.17,88.93-62.74v-9.14c0-29.54-14.62-41.42-34.11-41.42ZM621.28,491.96c22.23,0,37.46-24.06,43.25-38.68v-46.9c-17.67,4.26-69.44,11.88-69.44,53.6,0,15.23,7.61,31.98,26.19,31.98Z"/>
    <path class="cls-1" d="M695.89,496.22l19.8-6.09v-130.65l-19.8-2.13v-3.66l34.11-8.22h3.96v33.19c5.18-12.79,20.4-37.77,52.38-37.77,22.54,0,39.29,12.49,39.29,45.68v103.55l19.8,6.09v3.35h-56.95v-3.35l18.58-6.09v-92.89c0-33.8-12.79-45.38-29.85-45.38-23.15,0-37.76,21.32-43.25,41.42v96.85l18.88,6.09v3.35h-56.95v-3.35Z"/>
    <path class="cls-1" d="M858.22,458.46v-103.55h-23.15v-4.57l24.67-4.87,10.05-51.77h6.4v51.77h38.98v9.44h-38.98v103.55c0,24.67,7.01,35.02,20.1,35.02,7.31,0,19.4-5.6,26.41-23.88l3.74,2.25c-7,21.02-21.93,31.07-38.68,31.07-19.19,0-29.54-13.4-29.54-44.47Z"/>
    <path class="cls-1" d="M917.3,437.75c0-52.99,37.77-92.28,96.54-92.28h17.67v139.79l19.8,2.44v3.35l-33.81,8.53h-3.65v-38.98c-12.49,26.5-28.32,42.64-48.73,42.64-24.97,0-47.82-24.06-47.82-65.48ZM971.21,492.26c17.97,0,32.59-19.49,42.64-43.55v-97.46c-48.12,0-79.18,35.02-79.18,82.53,0,34.42,16.45,58.47,36.55,58.47ZM1021.46,272.98c3.96,0,6.09,2.13,6.09,5.18,0,9.74-23.75,33.5-45.07,52.08h-3.96c20.71-42.64,35.02-57.26,42.94-57.26Z"/>
    <path class="cls-1" d="M1050.08,477.64l14.01-39.59h5.79c-2.13,7.31-3.35,14.31-3.35,20.71,0,21.32,12.18,34.42,36.85,34.42,27.11,0,42.64-14.62,42.64-31.67,0-18.27-18.58-24.37-49.64-33.5-21.02-6.7-40.2-19.19-40.2-45.07,0-21.02,11.88-35.02,29.24-39.9-1.22-46.29,24.46-77.76,63.1-77.76,26.77,0,54.46,13.19,54.46,49.74v30.46h86.75v9.44h-86.75v103.55c0,24.37,6.4,35.02,19.8,35.02,7.01,0,17.36-3.35,24.37-21.62h5.79c-7,20.71-21.62,31.07-38.37,31.07-19.19,0-29.84-13.7-29.84-44.47v-103.55h-23.15v-4.87c22.54-3.05,33.5-13.4,33.5-35.63,0-31.98-22.94-41.78-47.15-41.52-40.71.45-58.22,29.33-57.01,69.23,3.96-.91,7.61-1.22,12.49-1.22,23.15,0,38.98,11.57,47.21,21.62-6.7,25.89-14.92,36.55-27.11,36.55-16.75,0-32.59-21.93-37.16-46.29-9.75,3.04-19.8,10.66-19.8,24.97s11.57,21.93,38.68,30.15c27.41,8.53,50.86,13.09,50.86,45.99s-23.45,49.03-52.99,49.03c-27.41,0-45.07-14.01-52.99-25.28ZM1124.09,394.5c6.09,0,12.18-4.26,12.18-14.01,0-15.53-15.84-29.84-34.72-29.84-2.74,0-6.09,0-9.75,1.22,3.35,22.23,18.88,42.64,32.28,42.64Z"/>
    <polygon class="cls-1" points="1252.91 496.22 1272.71 490.13 1272.71 354.91 1252.91 352.47 1252.91 348.82 1287.02 345.47 1290.98 345.47 1290.98 490.13 1310.77 496.22 1310.77 499.57 1252.91 499.57 1252.91 496.22"/>
    <path class="cls-1" d="M1308.94,422.52c0-43.86,27.1-81.62,72.18-81.62,27.41,0,45.07,14.31,52.08,23.76l-18.58,52.08h-5.48c3.96-10.96,5.79-21.01,5.79-29.54,0-22.54-12.49-36.24-35.33-36.24-28.63,0-53,21.32-53,64.87s25.89,77.05,56.04,77.05c27.41,0,49.47-23.27,61.65-56.7l2.4,7.76c-9.74,31.07-32.08,58.99-68.32,58.99-42.94,0-69.44-36.55-69.44-80.4Z"/>
    <path class="cls-1" d="M1443.07,421.61c0-34.72,22.54-80.71,73.09-80.71s70.05,45.99,70.05,78.88-20.4,83.14-70.96,83.14-72.18-45.68-72.18-81.32ZM1519.21,492.87c27.11,0,47.82-30.45,47.82-68.83s-19.19-73.1-53.91-73.1c-31.07,0-52.38,29.24-52.38,65.48,0,38.37,23.14,76.44,58.47,76.44Z"/>
    <path class="cls-1" d="M1297.42,298.88c-2.33,4.67-5.76,7.26-7.42,8.34-1.85,2.32-5.1,5.1-7.42,5.56-1.85.47-5.1,0-7.88-.93-2.32-.93-5.56-3.71-7.42-6.49-2.32-3.71-3.24-7.88-3.24-14.37,0-5.56.93-11.12,2.32-13.91,1.39-2.32,3.24-4.64,4.64-5.1.93-.46,5.1-.93,9.73-.93,2.6,0,4.51.17,6.32.7,1.57.46,5.12,1.39,8.04,4.39,3.49,3.58,4.05,7.96,4.36,10.37.32,2.46.49,7.24-2.05,12.34Z"/>
  </g>
  <path class="cls-1" d="M729.43,1015.64c-10.51-1.43-21.97-2.39-26.27-2.39-4.78,0-10.51-1.43-15.29-3.82-5.73-2.39-8.6-5.25-11.46-10.98-1.91-3.82-3.82-10.03-3.82-13.85s1.91-11.46,3.34-16.24c1.91-5.25,7.17-15.29,11.46-22.93,4.78-7.64,11.94-22.45,16.24-32.96l9.08-22.93c.48-2.39,0-6.69-.96-9.08-1.43-2.39-6.69-7.64-12.42-11.46-5.25-3.82-12.42-10.03-16.24-14.33-3.34-4.3-8.12-11.94-10.51-17.67-2.87-4.78-6.69-13.38-8.6-18.15-3.34-7.64-5.73-10.03-13.85-14.81-7.64-4.3-10.99-7.17-13.85-12.9-2.39-3.82-5.73-12.9-7.64-20.06-1.91-7.17-3.82-20.06-4.3-28.66-.48-8.6-.48-17.68,0-20.06.95-2.39,4.3-7.17,8.12-10.98,3.34-3.82,7.17-8.6,8.12-10.99l2.87-14.33c.48-6.21,2.39-16.72,3.82-23.88,1.91-7.17,5.73-18.63,8.6-25.8,2.87-7.17,9.08-20.06,13.85-28.66,4.78-8.6,12.9-21.02,19.11-27.7,5.73-6.69,16.24-16.72,22.93-21.98,6.69-5.73,17.67-12.42,24.36-15.76,6.21-2.87,18.63-6.69,26.75-9.08,10.98-2.39,20.06-3.35,33.91-3.35,14.81,0,21.5.48,34.87,4.3,9.55,2.39,22.93,5.73,30.57,6.69,8.6,1.43,15.76,3.82,20.06,6.69,3.82,2.39,7.64,6.69,9.55,10.99,1.91,3.82,3.34,8.6,3.34,10.98s-1.43,8.12-3.34,13.38c-1.91,5.25-3.35,11.94-3.35,14.33,0,2.87.96,6.21,1.43,7.64,1.43,1.91,4.3,2.39,11.46,1.91,5.73,0,12.9-.95,16.24-2.39,3.34-1.43,7.17-4.3,8.6-6.69,1.91-2.39,3.82-11.46,5.25-20.54,1.43-8.6,3.82-18.63,5.26-21.97,1.43-3.34,6.46-6.38,6.93-14.51.96-10.51,2.39-14.81,4.78-17.2,1.43-2.39,4.3-4.3,6.21-5.25,1.91-.48,8.12-.96,14.33-.96,8.6.48,10.99,1.43,14.81,4.78,2.39,2.39,4.78,7.17,5.73,10.99.48,3.82.48,9.55-.48,12.9-.48,3.34-2.87,7.17-4.78,8.6-2.39,1.91-6.69,2.87-12.9,2.87-4.78,0-14.58-5.08-17.92-3.65-3.82,1.43-6.21,3.82-7.64,7.65-.96,3.34-2.39,11.46-3.35,18.63-.95,7.17-2.39,15.76-3.82,18.63-1.43,2.87-4.78,7.17-7.17,10.03-2.39,2.39-8.6,5.25-13.37,6.69-4.3,1.43-10.99,2.39-14.81,2.39-3.34,0-7.64,1.43-9.55,2.87-2.87,2.39-4.3,5.73-5.25,15.28-.95,6.21-3.34,16.72-5.25,22.45s-6.21,15.76-9.55,21.97c-3.35,6.21-10.99,18.15-17.2,26.75l-23.41,33.91c-6.21,10.51-21.98,34.87-35.35,54.46-12.9,19.59-26.28,41.08-29.62,46.81-3.34,6.21-9.55,15.76-14.33,21.02-4.78,5.25-9.08,10.99-9.55,12.9-.48,1.43.48,4.3,1.91,6.69,1.43,2.39,6.69,5.73,11.46,8.12,4.78,1.91,19.59,6.69,32.96,9.55,22.45,5.73,26.75,6.21,46.33,6.21,12.42,0,26.75-.96,32.01-1.91,5.73-.96,13.85-3.82,18.15-6.21,4.78-2.39,11.46-8.12,16.72-14.33l15.76-20.54c3.82-5.73,9.08-15.28,10.51-20.54,2.39-5.73,5.25-18.15,6.69-27.23q2.87-17.2-.96-27.23c-1.91-5.25-3.34-12.42-3.34-15.76,0-4.3,1.43-7.65,4.78-11.46,4.3-4.78,5.95-6.84,17.89-7.32,11.46-.48,13.9,2.64,19.15,6.47,0,8.39,4.04,5.63,4.52,10.41.95,4.3,0,8.12-1.43,11.46-1.91,3.82-5.73,6.21-12.9,9.55-5.73,2.87-11.46,5.73-11.94,7.64-.95,1.43-3.34,10.99-5.25,20.54-1.43,10.03-4.78,22.93-7.17,28.66-2.39,5.73-7.64,15.76-11.94,21.5-3.82,5.73-11.94,15.76-17.2,21.97-5.73,6.69-13.38,12.9-18.63,15.76-4.78,2.87-14.33,5.73-22.45,7.17-10.51,1.91-20.54,2.39-38.69,1.91-21.02-.95-27.71-1.91-47.29-6.69-12.42-3.34-28.18-8.6-34.87-11.46-6.69-3.34-13.85-5.73-16.24-5.73-1.91,0-5.73,1.43-8.12,3.34-2.87,1.91-6.21,8.12-9.55,17.2-2.87,7.64-10.99,23.88-17.2,36.3-9.55,17.68-12.42,23.88-12.9,31.05-.48,5.26,0,10.03.96,12.42,1.43,1.91,3.82,4.3,6.21,5.73,2.87,1.91,10.51,3.34,20.54,4.3l28.18,2.39c11.46.95,12.42.95,17.68-3.35,3.34-2.87,6.21-7.17,8.12-12.9,1.43-5.25,1.91-10.51,1.43-12.9-.95-3.82-3.34-5.73-11.94-9.07-5.73-2.87-10.99-5.73-11.46-7.17-.48-1.43-.48-4.3.48-6.21.96-1.43,3.82-3.82,6.21-4.3,2.39-.95,11.46-1.91,20.06-1.91,13.85,0,16.24.48,19.11,3.35,1.91,1.91,3.34,4.78,3.34,6.69s-.95,5.25-2.39,7.64c-.95,2.39-3.82,5.73-5.73,7.17-1.91,1.91-5.25,9.08-7.64,16.72-2.87,9.55-5.73,14.81-10.03,19.11-3.82,3.34-9.08,6.69-13.38,7.64-5.25,1.43-10.51,1.43-25.32-.95ZM742.8,858.48c5.25-4.78,11.46-13.38,14.33-19.11l11.46-19.58,24.84-37.26,29.62-46.34c6.69-10.51,17.2-25.8,23.41-34.39,6.69-8.6,14.81-22.45,19.11-30.57l9.55-23.41c1.43-4.78,2.39-18.63,2.39-33.91,0-20.06.96-27.71,2.87-32.96,1.91-4.3,2.87-9.55,2.87-11.94,0-3.34-1.43-6.69-5.25-10.51-4.78-4.3-7.65-5.26-18.15-6.69l-26.75-6.21c-10.51-2.87-19.59-4.3-32.48-4.78-12.9-.48-21.5,0-32.01,2.39-8.12,1.91-20.54,5.73-27.71,9.08-10.99,5.25-16.72,9.08-32,23.88-12.42,12.42-21.02,21.97-25.8,29.62-3.82,6.21-9.55,18.15-13.38,26.75-3.82,8.6-8.6,21.5-10.51,28.66-1.91,6.69-3.82,19.59-4.3,27.71-.96,14.33-.96,16.24,3.34,23.88,2.39,4.3,5.26,11.94,6.69,16.72,1.43,4.78,4.3,18.63,6.21,30.57,3.34,18.63,3.82,23.41,1.91,33.44-1.43,10.03-.96,12.9,1.91,21.02,1.43,5.26,5.73,14.33,8.6,20.54,3.82,7.17,9.08,13.85,15.76,19.58,5.73,4.78,12.9,10.03,16.24,11.94,4.3,1.91,8.12,2.39,12.42,1.43,4.78-.48,8.6-3.34,14.81-9.55Z"/>
  <path class="cls-1" d="M973.65,693.55v-97.3l-20.4-2.2v-3.77l35.15-8.47h4.08v107.03c0,34.21,10.98,44.26,26.68,44.26,21.03,0,34.53-16.95,42.68-37.98v-98.87l-20.4-2.2v-3.77l35.16-8.47h4.08v144.07l20.4,11.3v3.45h-39.23v-31.38c-7.22,16.64-22.6,35.15-49.91,35.15-21.34,0-38.29-11.3-38.29-50.85Z"/>
  <polygon class="cls-1" points="1106.73 737.18 1127.13 730.9 1127.13 596.25 1106.73 594.06 1106.73 590.29 1141.88 581.82 1145.96 581.82 1145.96 730.9 1166.36 737.18 1166.36 740.63 1106.73 740.63 1106.73 737.18"/>
  <path class="cls-1" d="M1172.95,737.18l20.4-6.28v-134.65l-20.4-2.2v-3.77l36.09-8.47h3.14v42.37h.31c5.34-19.14,17.89-47.08,41.12-47.08,15.69,0,24.17,13.18,28.25,19.78l-18.2,48.96h-5.02c3.45-11.61,5.96-22.6,5.96-32.02,0-14.12-5.33-23.54-15.38-23.54-19.14,0-32.64,35.78-37.03,63.4v77.21l20.4,6.28v3.45h-59.63v-3.45Z"/>
  <path class="cls-1" d="M1114.88,550.01c-.9-1.94-2.59-6.02-2.52-9.95.03-1.32.24-2.17.44-2.75.53-1.53,1.55-2.95,3.15-4.49,3.24-3.02,4.48-4.32,13.47-4.62,8.63-.3,10.46,1.67,14.41,4.08,0,5.3,3.04,3.56,3.4,6.57.3,1.34.7,4.28-1.08,7.24-2.37,3.93-7.05,5.27-9.71,6.03-9.75,2.79-18.96-.96-21.57-2.11Z"/>
  <path class="cls-1" d="M651.52,695.39l-3.01,8.24c-1.34,3.62-4.02,8.23-5.69,10.21-1.67,1.98-5.02,4.28-7.36,5.27-2.01.99-9.04,2.31-15.06,2.64-6.02.66-17.41,2.64-25.77,3.95-13.73,2.97-16.74,2.97-35.82,2.64-16.74-.66-22.76-.99-30.13-2.96-5.02-1.32-15.06-5.27-22.43-8.89-8.7-3.95-15.4-7.91-19.42-11.53-4.35-3.95-7.7-8.24-10.38-13.83-3.35-6.59-5.35-9.22-10.71-13.18-4.02-2.96-8.03-6.92-9.37-8.89-1.34-2.31-2.68-6.92-3.01-11.53,0-4.61,0-9.22.34-11.2.67-1.65,3.35-5.6,6.69-8.89,5.35-5.6,6.36-7.25,8.37-15.81l4.35-15.81c1-3.62,4.69-11.53,8.03-17.79,3.01-6.26,8.03-13.5,10.71-16.47,2.68-2.96,7.36-6.26,10.04-7.25,2.34-1.32,8.37-2.96,13.05-3.95,5.02-.99,11.05-3.29,14.39-5.27,3.01-1.98,5.69-4.61,6.03-6.26.33-1.65,0-4.28-1-6.26-1.34-1.98-5.69-6.26-10.38-9.88-4.69-3.29-9.71-8.56-11.38-11.2-1.34-2.64-3.68-6.92-4.35-9.22-1.21-4.17-3.45-4.44-8.03-10.21-4.68-5.89-7.02-8.87-6.9-10.67.46-6.98,15.55-13.79,20.63-9.76,2.17,1.72.68,3.97,2.46,9.33,3.41,10.26,13.1,14.74,11.67,17.44-.69,1.31-3.01.37-6.51,2.91-1.29.94-2.43,1.77-2.81,2.93-1.11,3.42,5,7.93,11.6,13.83,3.65,3.26,8.57,7.96,14.06,14.16,2.01,2.63,6.36,4.94,16.07,8.89,7.03,2.96,17.41,6.26,22.76,7.91,5.69,1.65,11.38,4.28,14.06,6.59,2.68,1.98,5.69,5.6,7.03,8.24,2.34,3.95,3.01,7.25,3.35,19.76.33,12.85,0,16.8-3.01,28.66-1.67,7.58-4.02,16.14-5.35,19.1-1.34,2.97-3.68,6.59-5.69,8.24-1.67,1.65-5.36,3.95-8.03,4.94-4.02,1.65-8.37,1.98-27.11,1.98s-22.76-.33-25.44-1.98c-2.01-.99-4.02-3.62-5.02-5.93-1-1.98-1.67-6.92-1.67-10.54,0-4.28.67-7.58,1.67-9.22,1.34-1.32,4.02-2.97,6.69-3.62,2.68-.99,6.36-1.32,9.04-.66,2.34.33,5.02,1.98,6.36,3.62,1.34,1.65,3.01,5.6,3.68,8.89.67,3.62,2.34,7.58,3.68,8.89,1.67,2.31,3.68,2.63,11.05,2.96,7.03.33,10.04,0,14.39-1.65,4.02-1.65,6.36-3.62,8.03-7.25,1.34-2.31,4.02-10.54,5.69-17.46,2.34-9.88,3.01-16.14,3.35-26.68,0-12.19-.33-14.49-2.68-18.45-1.34-2.64-4.35-5.93-6.36-7.25-2.34-1.32-8.03-3.29-12.72-4.94-5.02-.99-13.06-3.95-18.41-6.26-5.36-1.98-11.38-3.95-13.72-3.95s-5.69,1.65-10.04,4.61c-3.35,2.31-9.04,5.27-12.39,6.26l-13.39,3.62c-5.69,1.32-8.37,2.96-12.05,6.59-2.68,2.63-7.36,9.88-10.71,15.81-3.35,6.92-6.69,15.81-9.04,24.38-2.01,7.58-3.68,14.82-3.68,16.47s2.01,7.25,4.35,12.52c3.68,7.58,4.69,10.54,4.69,16.14,0,3.62-1,9.55-1.67,13.17-1.67,6.26-1.67,6.59,1.67,13.51,2.01,4.61,5.36,8.89,8.7,11.86,3.01,2.31,10.04,6.59,16.07,9.55l19.08,7.58,18.74,3.62c6.03.66,15.73.99,23.1.66,7.03-.66,19.08-1.98,26.44-3.62,4.08-.91,10.47-1.4,23.1-3.29,3.45-.52,7.97-1.25,12.48-4.47,3.1-2.21,5.07-4.79,6.24-6.6,1.41-3.4,2.82-6.8,4.24-10.19"/>
</svg>