<?xml version="1.0" encoding="UTF-8"?>
<svg id="Layer_1" data-name="Layer 1" xmlns="http://www.w3.org/2000/svg" viewBox="0 0 320 123.51">
  <defs>
    <style>
      .cls-1 {
        fill: #FFF5E9;
        stroke-miterlimit: 10;
        stroke-width: 1.2px;
      }

      .cls-1, .cls-2 {
        fill: #FFF5E9;
      }
    </style>
  </defs>
  <g>
    <path class="cls-1" d="M80.89,23.27c.92.5,1.34.92,1.91,1.98.57,1.27.64,1.41.42,3.33l-.21,3.04c0,.78.14,1.13.5,1.42.35.21.78.28,1.49.21l1.63-.5c.35-.21,1.13-.99,1.7-1.7l1.77-1.98c.42-.35,1.42-.92,2.19-1.34.85-.35,2.69-.92,4.03-1.34,1.7-.42,3.47-.64,5.31-.71,2.33-.14,2.97-.07,3.75.28.5.21,1.2.78,1.56,1.2.35.42.64,1.27.78,1.84.07.92,0,1.63-.71,3.4-.64,1.77-.71,2.41-.57,2.97.21.64.35.78,1.13.85.5,0,1.27-.14,1.7-.35.5-.21,1.56-1.13,2.55-2.05.92-.92,2.19-1.91,2.9-2.26.71-.28,2.05-.78,3.04-.99.99-.21,2.76-.35,3.82-.35s2.33.07,2.83.28c.5.14,1.2.5,1.63.78.5.35,1.13,1.2,1.49,1.84.42.92.64,1.63.64,2.76,0,.99-.21,1.77-.5,2.48-.5.85-.99,1.34-2.26,2.12-.99.64-2.05,1.41-2.41,1.84s-.99,1.41-1.41,2.19c-.42.78-1.41,2.19-2.33,3.18-.85.99-2.76,3.47-4.17,5.52-1.49,2.05-1.7,4.74-2.12,5.52-.57.85-1.13,3.75-2.26,5.24-1.13,1.56-2.62,3.82-3.33,4.95-.78,1.2-2.9,2.55-3.89,4.25-1.06,1.63-3.82,3.82-4.39,5.24-.57,1.41-1.41,3.47-1.77,4.6l-.99,3.68c-.21.92-.35,2.41-.35,3.33,0,1.2.21,2.26.64,3.54.35,1.06,1.13,2.69,1.7,3.75.5,1.06,1.34,2.19,1.84,2.55.57.57,1.2.78,2.19.92.78.07,2.05.07,2.9,0,.78-.07,1.91-.35,2.62-.5.64-.21,1.77-.85,2.41-1.34.64-.5,1.77-1.56,2.41-2.41.71-.85,1.49-2.19,1.84-2.83.35-.71.78-2.12.99-3.18l.35-3.89q0-1.98-.85-2.76l-1.91-1.63c-.92-.78-1.06-.99-1.06-2.05,0-.57.14-1.34.28-1.63.14-.21.57-.57.99-.78.42-.21,1.34-.35,2.05-.35s1.56.14,1.98.35c.42.21.92.57,1.13.92.21.28.35.99.35,1.49,0,.57-.21,1.84-.57,2.9-.42,1.06-.64,2.41-.64,3.25,0,.71-.21,2.41-.42,3.68-.14,1.27-.57,2.9-.85,3.68-.28.71-1.06,2.05-1.77,2.97-.64.92-1.91,2.26-2.69,3.04-.99.85-2.12,1.56-3.04,1.91-1.06.42-2.12.57-4.17.64-1.7.07-3.25,0-3.89-.14-.64-.21-1.49-.64-2.05-1.27-.64-.57-1.49-1.91-2.26-3.4-.64-1.42-1.41-3.04-1.63-3.68-.21-.71-.5-1.91-.57-2.83-.07-.92,0-2.48.28-3.82.21-1.27.92-3.82,1.56-5.59s1.7-4.39,2.34-5.8c.71-1.34.42-3.11.71-3.47.21-.35.78-2.76,2.05-4.88,1.27-2.12,3.11-4.88,4.03-6.15.92-1.27,3.04-2.9,3.75-3.96.71-1.13,3.47-3.33,4.88-5.31,1.42-1.91,3.18-4.25,4.03-5.16.78-.85,1.77-2.19,2.12-2.83.35-.71.99-1.77,1.41-2.34.42-.64,1.42-1.49,2.48-2.12.92-.57,1.91-1.34,2.12-1.7.28-.42.5-1.06.5-1.91-.07-.64-.21-1.56-.5-1.91-.14-.42-.64-.99-.92-1.27-.35-.28-1.13-.64-1.77-.78-.64-.21-1.7-.21-2.76-.14-.85.07-2.12.28-2.76.42-.64.14-1.56.5-2.12.71-.57.28-1.84,1.34-2.9,2.26-1.13.99-2.48,2.05-3.04,2.26-.57.21-1.63.57-2.33.64-1.06.14-1.49.35-2.76,1.49-.78.78-1.63,1.7-1.77,2.05-.21.28-.5,1.42-.78,2.41-.21,1.06-.64,2.41-.92,2.9-.28.64-.92,1.56-1.34,2.19-.5.64-1.63,2.41-2.55,3.96-.92,1.63-2.62,4.32-3.82,6.01-1.13,1.77-2.83,4.24-3.75,5.45l-4.81,7c-2.97,4.17-3.26,4.74-3.47,6.01-.07.78-.28,1.77-.5,2.19-.14.42-.64.92-1.06,1.13-.42.21-1.41.35-2.26.35-1.27,0-1.7-.07-2.26-.57-.57-.42-.85-.99-1.06-1.77-.14-.78-.14-1.49,0-2.05.14-.5.5-1.06.85-1.27s1.13-.35,2.41-.35c1.06,0,2.19-.14,2.55-.35.28-.14,1.98-2.19,3.61-4.6l4.53-6.37,3.82-5.59c1.34-1.98,2.97-4.6,3.68-5.87.71-1.2,1.77-2.97,2.41-3.82l1.56-2.41c.21-.5.64-1.77.92-2.83.21-1.06.57-2.19.78-2.55.14-.35.99-1.34,1.84-2.26l1.49-1.56v-1.7c0-1.2.21-2.12.64-3.25.35-.92.64-1.98.64-2.48,0-.57-.14-1.06-.71-1.63l-.78-.78h-2.33c-1.77,0-3.11.21-5.31.85-1.63.35-3.54.99-4.25,1.34-.92.5-1.84,1.34-2.83,2.55-.99,1.13-1.98,1.98-2.69,2.33-.57.28-1.49.57-1.98.57-.57,0-1.27.07-1.63.21-.42.14-.85.57-.99,1.06-.21.42-.5,1.84-.64,3.04-.21,1.84-.5,2.69-1.13,3.89l-2.69,5.09c-1.06,1.91-3.18,5.38-4.81,7.71-1.56,2.34-4.25,6.16-5.94,8.49-1.7,2.26-3.82,5.24-4.74,6.58-1.49,2.12-1.63,2.55-1.84,3.89-.07.85-.28,1.77-.5,1.91-.14.28-1.13.71-2.19,1.06-1.13.28-2.34.57-2.76.57-.5,0-1.06-.14-1.34-.42-.35-.42-.5-.85-.5-1.77,0-.64.14-1.56.42-1.98.14-.5.64-.92,1.06-1.06.35-.14,1.41-.35,2.41-.42.99-.07,1.91-.28,2.12-.42l2.05-2.69,4.53-6.3,5.73-8.14c1.63-2.34,3.68-5.66,4.53-7.36l2.62-4.74c.78-1.27.99-2.05,1.27-4.03.21-1.27.57-3.04.78-3.82.14-.78.42-3.04.5-5.02.21-2.97.14-3.68-.21-4.25-.21-.42-.71-.92-1.06-1.2-.35-.21-1.13-.5-1.77-.57-.64-.07-2.19-.07-3.4.07-1.2.14-3.18.5-4.32.85-1.13.35-2.97,1.06-4.03,1.56-1.77.85-2.55,1.56-5.66,4.53-2.05,1.91-4.53,4.6-5.52,5.94-1.06,1.34-2.55,3.61-3.4,5.09-.78,1.49-1.98,3.54-2.62,4.6-.57,1.06-1.63,3.54-2.41,5.45-.78,1.91-1.77,4.6-2.19,5.94-.42,1.34-1.13,3.96-1.49,5.87-.42,1.91-.85,5.16-1.06,7.36-.21,3.04-.21,4.32,0,6.23.14,1.34.57,3.18.78,4.1.28.99.78,2.33,1.13,2.97.42.71,1.06,1.77,1.56,2.26.5.57,1.42,1.34,2.12,1.63,1.06.5,1.7.64,3.04.64,1.2,0,2.41-.21,4.1-.71,1.34-.42,3.47-1.27,4.81-1.91,1.63-.85,2.69-1.2,3.33-1.2.5,0,1.06.07,1.2.14.14.14.42.5.57.85.21.42.21,1.06,0,1.91-.14.71-.42,1.56-.64,1.84-.21.28-.64.71-1.06.85-.35.14-.92.14-1.27.07-.35-.07-1.34-.5-2.12-.92-1.42-.64-1.63-.71-2.69-.5l-3.25.78c-1.56.42-2.55.57-3.75.5-1.2-.14-2.05-.35-3.04-.85-.71-.35-1.84-1.2-2.48-1.91-.64-.64-1.49-1.98-1.98-2.9-.42-.92-.99-2.33-1.2-3.11-.21-.85-.57-2.62-.78-4.1-.35-2.19-.35-3.18-.07-6.16l.5-5.16c.14-.85.5-2.83.85-4.32.35-1.56,1.06-4.03,1.56-5.45.5-1.49,1.56-4.32,2.41-6.3.78-2.05,2.19-4.88,3.11-6.44.92-1.49,1.98-3.4,2.41-4.17.42-.78,1.7-2.69,2.97-4.25,1.27-1.56,3.18-3.82,4.32-4.95,1.13-1.13,2.83-2.76,3.89-3.54,1.06-.85,2.69-1.84,3.61-2.26.92-.5,2.62-1.13,3.75-1.49,1.2-.35,2.69-.78,3.4-.85.71-.14,2.41-.21,3.82-.21,2.26.07,2.62.14,3.68.78Z"/>
    <path class="cls-2" d="M122.76,74c0-8.17,11.2-10.03,15.65-10.88v-1.8c0-5.09-2.44-7.32-5.84-7.32-3.71,0-6.63,2.65-6.63,6.74,0,.9.16,2.02.48,3.08h-.32l-2.76-6.9c1.54-1.75,4.4-4.19,9.98-4.19s8.28,2.44,8.28,7.96v14.75c0,2.12.32,2.87,1.75,2.87.53,0,1.06-.11,1.65-.16v.53l-6.1,1.7h-.48v-6.32c-.58,1.86-3.45,6.9-8.86,6.9-3.98,0-6.79-2.76-6.79-6.95ZM130.77,79.04c3.77,0,6.58-3.93,7.64-6.47v-8.54c-3.02.74-12.21,2.39-12.21,9.45,0,2.97,1.43,5.57,4.56,5.57Z"/>
    <path class="cls-2" d="M150.61,76.44v-17.51c0-2.65-.37-3.61-1.96-3.61-.42,0-.9.11-1.49.16v-.53l5.94-1.43h.69v7.22h.05c.9-3.24,3.13-8.01,7.06-8.01,2.55,0,3.98,2.07,4.67,3.34l-3.5,8.28h-.27c.58-1.96,1.01-3.66,1.01-5.41,0-2.39-1.11-3.98-2.81-3.98-3.24,0-5.47,5.94-6.21,10.61v10.88c0,2.49.8,2.92,3.56,3.4v.53h-10.19v-.53c2.65-.48,3.45-1.01,3.45-3.4Z"/>
    <path class="cls-2" d="M170.56,76.81v-17.88c0-2.65-.37-3.61-1.96-3.61-.42,0-.9.11-1.49.16v-.53l5.94-1.43h.69v23.35c0,2.49.8,2.49,3.45,2.97v.53h-10.08v-.53c2.65-.48,3.45-.58,3.45-3.02ZM171.73,42.21c1.54,0,2.6,1.17,2.6,2.65s-1.06,2.6-2.6,2.6-2.6-1.11-2.6-2.6,1.06-2.65,2.6-2.65Z"/>
    <path class="cls-2" d="M182.71,87.05v-28.23c0-2.55-.27-3.4-1.7-3.4-.53,0-1.06.05-1.75.16v-.58l5.41-1.54c2.02-.48,4.03-.74,5.63-.74,9.61,0,13.21,7.85,13.21,14.81s-3.71,13.43-10.3,13.43c-3.56,0-5.62-1.86-7.32-3.82v9.92c0,2.49.85,2.92,3.71,3.4v.53h-10.35v-.53c2.65-.48,3.45-.96,3.45-3.4ZM192.48,79.09c4.35,0,7.75-4.83,7.75-11.67s-3.45-13.43-10.88-13.43c-1.17,0-2.18.16-3.45.48v21.44c1.49,1.59,3.87,3.18,6.58,3.18Z"/>
    <path class="cls-2" d="M207.39,66.78c0-6.05,3.93-14.06,12.74-14.06s12.2,8.01,12.2,13.74-3.56,14.49-12.36,14.49-12.58-7.96-12.58-14.17ZM221.13,79.3c4.56,0,7.96-4.51,7.96-10.72,0-7-3.77-14.22-10.03-14.22-5.04,0-8.6,4.46-8.6,10.45,0,7.16,4.35,14.49,10.67,14.49Z"/>
    <path class="cls-2" d="M236.1,77.13l3.03-7.59h.27c-.37,1.22-.58,2.39-.58,3.45,0,3.98,2.55,6.31,7.22,6.31,4.4,0,7.27-2.55,7.27-5.47,0-3.13-3.29-4.35-8.97-5.94-4.72-1.33-7.06-3.61-7.06-7.53,0-4.78,3.87-7.64,8.6-7.64,3.98,0,6.58,1.86,8.01,3.5l-2.55,6.05h-.32c.27-.9.42-1.75.42-2.55,0-3.34-2.49-5.36-6.16-5.36-3.34,0-6.26,1.86-6.26,4.94,0,2.49,1.96,3.77,6.79,5.09,4.88,1.33,8.91,2.39,8.91,7.85,0,5.94-4.4,8.7-9.13,8.7-5.09,0-8.23-2.49-9.5-3.82Z"/>
    <path class="cls-2" d="M259.34,74c0-8.17,11.2-10.03,15.65-10.88v-1.8c0-5.09-2.44-7.32-5.84-7.32-3.71,0-6.63,2.65-6.63,6.74,0,.9.16,2.02.48,3.08h-.32l-2.76-6.9c1.54-1.75,4.4-4.19,9.98-4.19s8.28,2.44,8.28,7.96v14.75c0,2.12.32,2.87,1.75,2.87.53,0,1.06-.11,1.65-.16v.53l-6.1,1.7h-.48v-6.32c-.58,1.86-3.45,6.9-8.86,6.9-3.98,0-6.79-2.76-6.79-6.95ZM267.35,79.04c3.77,0,6.58-3.93,7.64-6.47v-8.54c-3.02.74-12.21,2.39-12.21,9.45,0,2.97,1.43,5.57,4.56,5.57Z"/>
  </g>
  <g>
    <path class="cls-2" d="M78.91,108.41c0,.81-1.3,1.15-1.94,2-.29.38.03.92.35.93.69.02.43-.72,1.13-1.1,1.32-.73,9.66.6,9.66-1.21s-4.83-5.13-16.91-5.13-24.16,4.53-33.22,7.85-19.63,6.95-23.56,7.85-4.53.6-4.83.3,2.11-3.02,2.72-4.53.75-3.72,1.21-4.9c.46-1.18,1.34-2.56.82-2.95-.51-.39-3.03,1.97-3.44,2.74s.1,1.03-.72,2.83c-.82,1.8-1.49,2.98-3.03,4.93-1.54,1.95-5.55,4.11-5.5,4.78.05.67,3.08,1.18,8.64,0,5.55-1.18,16.09-5.71,28.22-9.97,12.13-4.27,24.01-6.73,31.15-6.73s9.25,1.13,9.25,2.31Z"/>
    <path class="cls-2" d="M2.52,120.43c.64.25,2.91-7.66,8.04-12.06,5.13-4.41,8.04-5.56,11.55-5.6,3.51-.04,3.85,1.97,4.79,2.01.94.04,2.27-1.67,2.18-2.91-.09-1.24-1.5-2.91-4.66-2.91s-9.67,2.22-14.2,7.06c-4.53,4.83-8.81,13.99-7.7,14.42Z"/>
    <path class="cls-2" d="M6.37,108.25c.06-.97-.74.17-.52-1.26.23-1.43,2.29-5.09,4.86-7.78,2.58-2.69,5.61-4.24,6.81-4.41s1.66.29,1.89,0c.23-.29.46-1.72-.74-3.32-1.2-1.6-2.48-2.4-2.95-2-.48.4.23.36-.43,1.41-.66,1.04-5.44,7.98-6.25,7.63s2.27-4.78,1.62-11.07c-.66-6.28-3.62-8.21-6.48-8.1-2.85.12-3.49,1.31-3.71,2.7s.16,1.85.36,1.85.08-1.47,2.51-1.31c2.43.15,4.47,4.67,4.16,9.21-.31,4.55-1.16,7.79-2.04,9.14s-1.08.62-1.58,1.35c-.5.73-2.93,7.33-3.47,10.26-.54,2.93-.56,9.05.07,9.15,1.19.2,1.37-5.15,2.58-8.41,1.2-3.26,3.26-4.06,3.32-5.04Z"/>
    <path class="cls-2" d="M18.46,95.82c-1.08.21-3.93,1.44-6.73,4.34-2.8,2.9-5.71,6.91-4.76,7.43.51.28,2.83-3.69,6.53-6.45,2.96-2.2,4.19-1.99,5.32-2.18s1.47-1.19,1.39-1.88c-.08-.69-.67-1.47-1.75-1.26Z"/>
    <path class="cls-2" d="M4.56,100.06c.64,0,1.9-4.96,1.9-8.3s-1.29-7.04-2.78-7.9c-1.18-.67-2.08.42-2.03,1.01.2,2.24,2.38,1.37,3,7.25.57,5.33-.79,7.95-.1,7.94Z"/>
    <path class="cls-2" d="M245.5,108c-.12-.27-.38-.45-.67-.42l-1.64.16c-.44.04-.73.49-.59.9.2.56.65,1.26,1.65,1.59,1.81.6,11.78.3,11.78,2.11s-37.45,5.44-96.04,5.38c-58.59.05-96.04-3.57-96.04-5.38s9.97-1.51,11.78-2.11c1-.33,1.45-1.03,1.65-1.59.15-.41-.15-.86-.59-.9l-1.64-.16c-.29-.03-.54.15-.67.42-1.27,2.71-21.71-1.15-21.71,3.44,0,3.62,18.72,8.75,107.21,8.75s107.21-5.13,107.21-8.75c0-4.59-20.44-.73-21.71-3.44Z"/>
    <path class="cls-2" d="M312.85,118.02c-1.54-1.95-2.21-3.14-3.03-4.93-.82-1.8-.31-2.06-.72-2.83-.41-.77-2.93-3.14-3.44-2.74-.51.39.36,1.77.82,2.95.46,1.18.6,3.39,1.21,4.9s3.02,4.23,2.72,4.53-.91.6-4.83-.3-14.5-4.53-23.56-7.85c-9.06-3.32-21.14-7.85-33.22-7.85s-16.91,3.32-16.91,5.13,8.34.48,9.66,1.21c.7.39.44,1.12,1.13,1.1.32,0,.64-.54.35-.93-.64-.85-1.94-1.2-1.94-2,0-1.18,2.11-2.31,9.25-2.31s19.02,2.47,31.15,6.73c12.13,4.27,22.67,8.79,28.22,9.97,5.55,1.18,8.58.67,8.64,0,.05-.67-3.96-2.83-5.5-4.78Z"/>
    <path class="cls-2" d="M293.1,104.78c.94-.04,1.28-2.05,4.79-2.01,3.51.04,6.42,1.2,11.55,5.6,5.13,4.41,7.4,12.31,8.04,12.06,1.11-.43-3.17-9.58-7.7-14.42-4.53-4.83-11.04-7.06-14.2-7.06s-4.58,1.67-4.66,2.91c-.09,1.24,1.24,2.95,2.18,2.91Z"/>
    <path class="cls-2" d="M316.13,102.29c-.5-.73-.69,0-1.58-1.35s-1.73-4.59-2.04-9.14c-.31-4.55,1.73-9.06,4.16-9.21,2.43-.15,2.31,1.31,2.51,1.31s.58-.46.36-1.85-.86-2.58-3.71-2.7c-2.85-.12-5.82,1.81-6.48,8.1-.66,6.28,2.43,10.72,1.62,11.07s-5.59-6.59-6.25-7.63c-.66-1.04.05-1-.43-1.41-.48-.4-1.75.4-2.95,2-1.2,1.6-.97,3.03-.74,3.32.23.29.69-.17,1.89,0,1.2.17,4.24,1.72,6.81,4.41,2.58,2.69,4.64,6.35,4.86,7.78.23,1.43-.57.29-.52,1.26s2.12,1.77,3.32,5.04c1.2,3.26,1.39,8.61,2.58,8.41.63-.1.61-6.22.07-9.15-.54-2.93-2.97-9.52-3.47-10.26Z"/>
    <path class="cls-2" d="M301.54,95.82c-1.08-.21-1.67.57-1.75,1.26-.08.69.26,1.7,1.39,1.88s2.36-.03,5.32,2.18c3.7,2.76,6.02,6.73,6.53,6.45.95-.51-1.95-4.52-4.76-7.43-2.8-2.9-5.65-4.14-6.73-4.34Z"/>
    <path class="cls-2" d="M318.35,84.87c.05-.59-.85-1.69-2.03-1.01-1.49.86-2.78,4.56-2.78,7.9s1.26,8.3,1.9,8.3c.69,0-.66-2.62-.1-7.94.63-5.88,2.8-5.01,3-7.25Z"/>
  </g>
  <g>
    <path class="cls-2" d="M304.45,51.49c.18.46,1.02.51,1.43.18.93-.75.23-2.37,1.3-2.47s2.79,2.09,5.77,14.84c2.98,12.75,1.65,13.81,2.63,13.79.54-.01,1.19-5.52-2.79-21.56-3.12-12.59-6.75-17.49-8.4-16.52-1.64.98,1.28,10.07.84,10.66-.44.59-1.02.51-.79,1.08Z"/>
    <path class="cls-2" d="M233.7,3.71c1.96.17,7.73.62,8.26.62s2.11-1.03,1.9-1.23c-.44-.44-8.33-.66-8.52-1.23s.47-.32,1.14-.44c.66-.13.89-.41.95-.73.06-.32-.2-.73-.86-.69-.52.03-.56.57-1.16.87s-2.09.1-3.11,0-3.67.13-3.77,1.11c-.09.98,3.2,1.55,5.16,1.73Z"/>
    <path class="cls-2" d="M240.92,7.52c.5,3.1,19.48,1.68,26.76,2.97,7.27,1.29,12.98,4.22,13.18,4.6.28.53-.59.11-.83.25-.39.21-.17.59-.05.64.48.21.77-.18,1.45,0,.68.18,3.44,2.39,4.1,2.55s3.73.95,3.99-.21c.26-1.16-3.49-4.91-9.48-7.75-5.99-2.84-16.23-4.96-19.77-5.49s-6.2-.76-7.35-.71c-1.16.05-3.2.89-3.07,1.18.13.29,4.96.21,9.27.84,4.31.63,8.35,1.55,8.22,2.02s-15.55-.76-17.36-1.05c-1.81-.29-2.55-.6-2.55-1.05s2.89-2.49,7.77-3.28c4.88-.79,10.45-.63,12.55-.45.21-.13,1.52-.95,1.39-1.18s-6.36-.93-11.6-.74c-7.09.25-17.13,3.76-16.63,6.86Z"/>
    <path class="cls-2" d="M290.69,14.92c-.38.96,4.82,3.64,6.27,2.84,1.24-.69-.96-4.37-5.26-7.17-4.3-2.8-14.98-7.17-16.51-7.26-1.53-.1-2.53.57-2.12,1.08s5.81,1,11.77,4.07c5.95,3.06,8.54,5.95,8.2,6.65-.33.69-1.96-1.15-2.34-.19Z"/>
    <path class="cls-2" d="M268.7,3.14c-.04.57.51.85,1.43,1.08.92.23,2.23.07,2.19-.21-.04-.32-.43-.2-.45-.53-.02-.33.68-.96,3.27-1.17s9.25.6,13.68,3.14c4.43,2.54,7.56,5.77,8.19,7.57.63,1.8.55,2.87,1.5,3.71.95.84,2.93.47,3.14.21.21-.27-.65-1.59-.28-2.68.36-1.09,1.75-2.21,3.46-2.24,1.7-.03,1.64,1.01,2.27.93.63-.08,2.04-2.02,2.63-2.97.6-.95,1.61-2.52,1.61-4.94s-1.66-3.93-2.93-4.43c-1.28-.5-2.4.14-2.41.46-.02.32.35.25.73.36.38.11,1.03.68,1.03,2.07s-1.26,3.82-5.11,3.82-5.6-.84-7.89-1.7c-2.29-.87-6.94-2.67-7.28-2.91s.05-.85-.11-1.03c-.16-.17-2.48-1.39-9.34-1.28-6.85.11-9.27,2.18-9.31,2.75Z"/>
    <path class="cls-2" d="M302.11,6.2c3.52,0,4.43-1.55,4.56-2.38.15-.97-.2-2.06-1.29-1.85-.54.11-.27.89-1.32,1.53-1.13.69-5.02.63-8.93-.2-4.1-.86-6.72-1.91-6.77-1.33-.03.39,10.23,4.23,13.74,4.23Z"/>
    <path class="cls-2" d="M314.57,51.7c.74-.36-.02-8.29-3.61-17.25s-8.79-13.37-10.12-12.93c-.72.24-.21,1.69.39,2.97.75,1.57,1.01,1.46,1.12,2.13.07.39,0,.61.09,1.03.14.56.71.69.95.44.3-.32.05-.83.5-.93.46-.1,3.31,3.39,6.25,10.11,2.94,6.72,3.88,14.69,4.43,14.42Z"/>
    <path class="cls-2" d="M315.55,4c-1.2,1.39-5.27,6.29-5.02,6.6.26.33,6.48-4.08,7.59-4.95s2.08-2.28,1.1-3.15c-.97-.87-2.46.1-3.67,1.5Z"/>
    <path class="cls-2" d="M311.75,7.53c.28-.1,1.28-1.67,2.31-2.92,1.03-1.26,2.9-2.63,2.53-3.08-.23-.27-4.79.18-5.02.54s.49.77.67,2.28c.18,1.51-.86,3.32-.49,3.18Z"/>
    <path class="cls-2" d="M318.25,6.68c-1.52,1.08-5.31,3.21-4.99,3.47.23.19,2.53-.21,3.75.37,1.22.59,1.4,1.14,1.7.99l.31-.16s.41-.97.49-2.85c.08-1.88-.12-2.41-.45-2.41-.33,0-.53.38-.81.59Z"/>
    <path class="cls-2" d="M319.36,13.55c-.91-1.38-3.53-2.59-6.36-2.59s-4.76,2.13-4.99,2.71.44,1.92,0,3.22c-.44,1.29-2.19,2.56-3.06,2.62-.87.06-1.61-1.06-2.16-.68-.55.38.14,2.11.68,2.84.54.73,1.86,1.77,2.59,2.08.73.32,1.14-.13,1.59.13s2.14,1.55,4.51,7.48c2.37,5.93,3.5,11.2,3.59,15.3.09,4.1-.5,6.37-.93,6.37s-.21-.95-.62-.69c-.41.25.16,3.53,1.29,3.6,1.14.06,2.05-4.58,2.05-9.59s-.56-10.63-.69-10.79c-.13-.17-.34.15-.97-.39-.63-.54-1.12-1.66-1.62-3.11-.5-1.45-1.86-6.63-2.09-9.93-.22-3.3.7-5.12,1.9-6.11,1.28-1.06,3.1-.65,3.55-.35.34.22.73.66.81,1.06.1.54-.1.88.23.91,1.24.12,1.89-2.26.69-4.07Z"/>
    <path class="cls-2" d="M317.2,16.64c-.52-.4-1.74-.57-2.57.21-.83.78-1.37,2.47-1.25,6.57s2.64,11.3,3,11.16-.41-2.64-.68-4.83c-.27-2.2-.54-6.36.44-10.5.23-.96.9-1.28,1.4-1.06.18.08.58-.85-.34-1.54Z"/>
  </g>
  <g>
    <path class="cls-2" d="M78.03,4.33c.54,0,6.3-.44,8.26-.62,1.96-.17,5.26-.74,5.16-1.73-.09-.98-2.75-1.2-3.77-1.11s-2.5.29-3.11,0-.64-.84-1.16-.87c-.66-.04-.93.37-.86.69.06.32.28.6.95.73.66.13,1.33-.13,1.14.44s-8.07.79-8.52,1.23c-.21.21,1.36,1.23,1.9,1.23Z"/>
    <path class="cls-2" d="M52.24,2.59c2.1-.18,7.67-.34,12.55.45,4.88.79,7.77,2.84,7.77,3.28s-.74.76-2.55,1.05c-1.81.29-17.23,1.52-17.36,1.05s3.91-1.39,8.22-2.02c4.31-.63,9.14-.55,9.27-.84.13-.29-1.92-1.13-3.07-1.18-1.16-.05-3.81.18-7.35.71s-13.79,2.65-19.77,5.49c-5.99,2.84-9.74,6.59-9.48,7.75.26,1.16,3.33.37,3.99.21s3.41-2.36,4.1-2.55c.68-.18.97.2,1.45,0,.12-.05.35-.43-.05-.64-.24-.13-1.11.28-.83-.25.2-.37,5.91-3.31,13.18-4.6,7.27-1.29,26.26.13,26.76-2.97.5-3.1-9.54-6.6-16.63-6.86-5.25-.19-11.47.5-11.6.74s1.18,1.05,1.39,1.18Z"/>
    <path class="cls-2" d="M35.16,8.46c5.95-3.06,11.36-3.56,11.77-4.07s-.59-1.17-2.12-1.08c-1.53.1-12.2,4.46-16.51,7.26-4.3,2.8-6.5,6.48-5.26,7.17,1.45.81,6.65-1.88,6.27-2.84-.38-.96-2.01.88-2.34.19-.33-.69,2.25-3.59,8.2-6.65Z"/>
    <path class="cls-2" d="M12.91,12.95c.63.08.57-.96,2.27-.93s3.09,1.15,3.46,2.24c.36,1.09-.49,2.41-.28,2.68.21.27,2.19.63,3.14-.21.95-.84.87-1.91,1.5-3.71.63-1.8,3.75-5.03,8.19-7.57,4.43-2.54,11.09-3.34,13.68-3.14s3.28.84,3.27,1.17c-.02.33-.41.21-.45.53-.03.28,1.27.44,2.19.21.92-.23,1.47-.51,1.43-1.08-.04-.57-2.46-2.65-9.31-2.75-6.85-.11-9.18,1.11-9.34,1.28-.16.17.23.79-.11,1.03s-4.99,2.04-7.28,2.91c-2.29.87-4.04,1.7-7.89,1.7s-5.11-2.43-5.11-3.82.65-1.96,1.03-2.07.74-.05.73-.36-1.14-.96-2.41-.46c-1.28.5-2.93,2.02-2.93,4.43s1.01,3.99,1.61,4.94c.6.95,2,2.89,2.63,2.97Z"/>
    <path class="cls-2" d="M13.33,3.82c.13.83,1.04,2.38,4.56,2.38s13.78-3.83,13.74-4.23c-.05-.57-2.67.47-6.77,1.33-3.91.82-7.8.89-8.93.2-1.05-.64-.77-1.42-1.32-1.53-1.09-.21-1.44.88-1.29,1.85Z"/>
    <path class="cls-2" d="M16.61,28.09c.24.25.81.12.95-.44.1-.42.03-.64.09-1.03.11-.67.38-.56,1.12-2.13.61-1.28,1.12-2.73.39-2.97-1.33-.44-6.52,3.97-10.12,12.93-3.6,8.96-4.35,16.89-3.61,17.25.55.27,1.49-7.7,4.43-14.42,2.94-6.72,5.79-10.21,6.25-10.11.46.1.2.61.5.93Z"/>
    <path class="cls-2" d="M1.89,5.66c1.1.87,7.33,5.28,7.59,4.95.24-.32-3.82-5.21-5.02-6.6C3.25,2.61,1.76,1.63.79,2.5c-.97.87,0,2.28,1.1,3.15Z"/>
    <path class="cls-2" d="M5.94,4.61c1.03,1.26,2.03,2.82,2.31,2.92.38.14-.67-1.67-.49-3.18.18-1.51.9-1.92.67-2.28s-4.8-.81-5.02-.54c-.37.44,1.51,1.82,2.53,3.08Z"/>
    <path class="cls-2" d="M.94,6.09c-.34,0-.53.53-.45,2.41.08,1.88.49,2.85.49,2.85l.31.16c.31.16.48-.4,1.7-.99,1.22-.59,3.52-.18,3.75-.37.32-.27-3.47-2.4-4.99-3.47-.29-.2-.48-.59-.81-.59Z"/>
    <path class="cls-2" d="M4.5,55.94c1.14-.06,1.7-3.34,1.29-3.6-.41-.25-.2.69-.62.69s-1.02-2.27-.93-6.37c.09-4.1,1.22-9.37,3.59-15.3s4.05-7.23,4.51-7.48c.45-.25.86.19,1.59-.13.73-.32,2.05-1.36,2.59-2.08.54-.73,1.23-2.46.68-2.84-.55-.38-1.29.74-2.16.68s-2.62-1.33-3.06-2.62c-.44-1.29.22-2.63,0-3.22s-2.16-2.71-4.99-2.71-5.44,1.2-6.36,2.59c-1.2,1.81-.55,4.19.69,4.07.33-.03.13-.37.23-.91.07-.4.47-.83.81-1.06.45-.3,2.27-.71,3.55.35,1.2,1,2.12,2.81,1.9,6.11-.22,3.3-1.58,8.48-2.09,9.93-.5,1.45-.99,2.57-1.62,3.11-.63.54-.84.22-.97.39-.13.17-.69,5.78-.69,10.79s.92,9.66,2.05,9.59Z"/>
    <path class="cls-2" d="M3.86,19.24c.98,4.14.71,8.3.44,10.5-.27,2.2-1.04,4.69-.68,4.83s2.88-7.06,3-11.16-.42-5.79-1.25-6.57c-.83-.78-2.05-.61-2.57-.21-.92.7-.52,1.62-.34,1.54.5-.22,1.17.1,1.4,1.06Z"/>
    <path class="cls-2" d="M15.55,51.49c-.18.46-1.02.51-1.43.18-.93-.75-.23-2.37-1.3-2.47s-2.79,2.09-5.77,14.84c-2.98,12.75-1.65,13.81-2.63,13.79-.54-.01-1.19-5.52,2.79-21.56,3.12-12.59,6.75-17.49,8.4-16.52,1.64.98-1.28,10.07-.84,10.66.44.59,1.02.51.79,1.08Z"/>
  </g>
</svg>