<?xml version="1.0" encoding="UTF-8"?>
<svg id="refs" xmlns="http://www.w3.org/2000/svg" viewBox="0 0 2202.19 2424.37">
  <defs>
    <style>
      .cls-1 {
        fill: #284e42;
      }
    </style>
  </defs>
  <path class="cls-1" d="M1832.97,1925.38l19.02,11.22c8.14-12.53,16.1-25.3,23.87-38.26l-19.79-8.63c-7.47,11.95-15.18,23.88-23.09,35.66Z"/>
  <path class="cls-1" d="M1688.04,2086.78c-46.08,32.18-96.34,72.25-162.24,109.95l19.86,15.3c51.47-29.35,97.96-60.75,140.12-90.47,6.64-4.68,13.2-9.62,19.69-14.8l-9.34-25.84c-2.69,2.02-5.39,3.98-8.1,5.86Z"/>
  <path class="cls-1" d="M1879.59,1862.71c-4.33-2.17-17.69-1.08-25.18-1.44-7.49-.36-12.73-.72-25-7.94-11.12-6.54-30.19-13.92-39.33-10.18-4.57-7.83-10.61-13.94-11.62-18.78-1.62-7.78-.32-13.29-3.57-15.56-3.24-2.27-12.97,1.95-45.72,0-32.75-1.95-70.69-14.92-95.98-26.27-25.29-11.35-40.53-21.73-47.99-24-7.46-2.27-8.11-5.84-11.35-3.57-2.45,1.71,9.73,9.08,12.65,16.86,2.92,7.78,16.54,25.29,37.94,31.78,21.4,6.49,61.61,13.62,91.12,31.78,29.51,18.16,35.02,22.37,40.21,23.67,7.46,17.19,14.59,12,17.19,16.54,2.59,4.54.97,8.75,4.21,8.11,3.24-.65,18.81-8.11,18.16-24.32-.09-2.26-.47-4.4-1.03-6.46,4.48,1.98,9.77,3.92,15.26,5.1,14.81,3.18,37.55,9.75,49.46,15.16,11.91,5.42,13,12.28,24.55,13.72,11.55,1.44,3.97-4.69,4.33-11.19.36-6.5-3.97-10.83-8.3-13Z"/>
  <path class="cls-1" d="M1885.72,2108.29c-3.98-4.4,0-7.33-4.19-10.27,0,0-2.72-1.26-6.7,2.1-3.98,3.35-3.77,9.64-2.51,12.57,1.26,2.93,2.1,13.2,2.51,16.97.42,3.77,14.04,12.99,15.92,13.2,1.89.21,6.08-9.64,6.91-17.81.84-8.17-7.96-12.36-11.94-16.76Z"/>
  <path class="cls-1" d="M1887.9,1893.27c-8.21,3.73-7.13,17.75-3.19,29.46,3.95,11.7,21.7,22.49,30.91,25.34,9.21,2.85,17.75,6.14,16,2.85-1.75-3.29-19.07-8.11-23.89-25.64-4.82-17.53-10.45-36.26-19.83-32Z"/>
  <path class="cls-1" d="M1897.65,1883.77c-4.72.5,2.45,5.73,9.75,10.35,3.38,2.14,8.95,3.81,14.75,4.84,37.88,28.4,74.74,55.35,112.44,59.51,39.78,4.38,89.89-1.88,93.65-17.23,3.76-15.35-51.37-46.23-68.91-54.13-17.54-7.89-98.67-31.56-114.64-30.44-4.92.34-7.52,1.59-10.34,4.87-5.31,6.17,15.66,7.04,30.38,17.69,14.72,10.65,25.37,25.37,21.61,28.19-1.51,1.13-11.31-1.27-22.49-4.56-6.22-4.18-13.75-11.98-26.13-19.08-15.52-8.91-25.99-6.62-26.36-10.23-.36-3.61,16.25-5.05,20.94-15.52,2.29-5.11,5.2-8.83,9.16-11.94-.93,1.99-1.12,3.79-.22,4.96,2.21,2.86,21.3.94,50.11,6.26,28.82,5.32,66.09,15.97,87.7,26.47,21.61,10.5,24.12,30.22,44.48,30.33,20.36.11,24.74-38.64,19.42-49.49-5.32-10.86-18.48-6.06-35.71-3.07-17.23,2.99-55.75-6.74-76.42-19.44-15.07-9.25-41.94-13.54-62.32-10.72,11.61-8.26,22.96-20.72,20.48-22.1-3.25-1.81-7.94,4.69-14.8,11.91-6.86,7.22-24.19,6.14-44.05,13.72-19.86,7.58-37.67,29.28-32.49,38.63,1.52,2.74,9.81,4.34,10.38,7.74.57,3.4-5.67,1.98-10.38,2.49Z"/>
  <path class="cls-1" d="M2028.66,2019c16.39,21.25,33.7,66.18,51.61,72.86,17.91,6.68,37.95-19.73,40.38-31.57,2.43-11.84-21.86-11.84-40.99-20.64-19.13-8.8-63.15-50.7-88.88-61.34h0c4.94-1.2,7.55-3.42,6.37-5.29-2.19-3.47-6.14.84-12.93,0-6.79-.84-9.86-7.42-18.19-7.86-8.33-.44-4.6,1.75-9.21,1.32-4.6-.44-7.23-5.48-21.48-4.82-14.25.66-23.19,4.1-28.93,11.36-3.73,4.72,24.99,10.77,23.01,14.94-1.97,4.16-21.26-7.67-23.01-4.38-1.75,3.29,10.09,35.95,15.35,40.11-.34,9.54,25.24,28.41,52.86,58.77,27.63,30.36,68.61,51.31,86.22,37.87,17.61-13.44-14.57-53.96-32.18-84.93-15.77-27.72-66.21-55.85-79.41-55.92,3.85-1.35,8.1-2.16,12.97-2.24,14.42,5.29,51.7,22.65,66.45,41.77ZM1977.36,2015.64c6.07,7.57,8.8,23.09,2.12,27.95-.8.58-2.24.59-4.13.19,1.25-3.32-.41-8.78-6.47-14.84-8.99-8.99-14.25-8.11-21.26-15.34-7.01-7.23-3.29-15.56-8.11-19.29-4.82-3.73-6.89-5.92,1.49-10.96,1.67-1,3.41-1.89,5.22-2.69-3.99,8.1,25.07,27.42,31.14,34.98Z"/>
  <path class="cls-1" d="M1807.71,2027.5c-13.32-24.14-59.97-68.98-69.57-69.01,3.89-.94,7.79-2.12,10.32-1.76,4.6,5.27,47.05,39.42,65.34,68.73,18.28,29.31,24.09,65.88,38.6,69.36,14.51,3.48,34.25-25.54,32.21-31.92-2.04-6.38-20.31-1.16-27.27-1.16s-17.12-10.45-24.37-28.55c-7.24-18.1-27.58-44.01-46.91-60.25,4.27-1.23,8.11-6.08-10.32-16.31-18.43-10.23-27.52-15.64-42.76-17.85-15.24-2.21-20.64-.84-20.4,1.47.54,5.16,4.42,4.18,7.86,8.6,3.44,4.42,2.21,6.88,7.13,9.83,2.28,1.37,5.84.87,9.5.03-.01,0-.03,0-.05.02-8.28,5.83,31.5,59.18,20.76,66.14-2.39,1.55-6.08.36-10.37-2.42,1.19-2,2.05-4.74,2.05-7.73,0-6.32-10.36-23.75-18.7-34.61-8.34-10.86-13.9-29.06-16.68-29.56-2.78-.51-5.31,9.85-8.59,8.08-3.28-1.77,3.54-16.68-1.01-23.5-4.55-6.82-10.56-3.79-20.06-10.36-9.5-6.57-20.36-16.93-34.76-27.03-14.4-10.11-33.73-16.04-34.36-26.28-.54-8.75,5-7.57,6.61-7.04,51.86,22.78,102.29,49.24,147.04,77.9,41.1,26.32,84.03,64.8,118.93,91.87v-14.24s-48.43-46.29-84.03-73.35c0,0-8.96-9.54-5.76-12,3.19-2.46,16.96,2.95,32.68,11.06,15.73,8.11,39.81,25.8,48.66,35.14,8.85,9.34,16.71,17.69,14.25,21.13-2.46,3.44-.98,27.28-1.23,37.6-.25,10.32,5.41,13.27,4.75,25.8-.66,12.53,9.75,20.15,16.14,27.03,6.39,6.88,7.62,8.11,8.36,0,.74-8.11-7.62-11.55-11.3-21.52-3.69-9.97.49-46.06,0-55.22-.49-9.16-6.14-17.13-8.6-25.73-2.46-8.6,0-17.45-1.23-21.87-1.23-4.42-10.08-1.97-26.79-10.32-16.71-8.36-65.61-35.39-75.69-37.35-10.08-1.97-15.48,9.34-24.41,5.43v.02c-16.94-10.71-37.89-22.58-64.75-36.09h.01s-8.41-4.19-9.49-7.44c-1.08-3.25,4.63-2.38,7.01-5.35,2.38-2.97,4.16-11,8.33-12.33,4.16-1.33,8.62,1.33,10.41-.36,1.78-1.69.59-7.23-6.24-9.02-6.84-1.78-14.27,0-22.3,4.76-8.03,4.76-10.35,18.64-23.68,12.35h0c-25.65-11.96-55.56-25.08-90.74-39.63-78.73-32.55-133.63-50.41-176.35-57.66,0,0,0,0,0,0-2.94-3.65-5.75-6.23,10.85-18.87,16.59-12.64,54.13-13.83,65.19-13.83s28.05,11.46,37.53,6.32c9.48-5.14,21.73-9.88,22.91-4.74,1.19,5.14-7.51,5.93-9.09,7.51-1.58,1.58,10.67,22.12,21.73,31.61,11.06,9.48,24.89,24.89,34.37,33.19,9.48,8.3,24.5,8.3,31.61,10.67,7.11,2.37,8.69,11.85,11.46,13.83,2.77,1.98-.4-13.43-5.53-18.57-5.14-5.14-21.73-4.74-34.77-17.78-13.04-13.04-17.78-26.47-21.33-36.17-3.56-9.7-17.38-15.98-13.04-19.53,4.35-3.56,12.64,1.98,25.29,1.98,0,0,65.7,37.09,118.87,46.17,53.18,9.08,146.24,7.46,120.63-43.13-25.62-50.58-106.36-56.1-146.89-59.66-40.53-3.57-91.44,3.85-91.44,9.08,0,8.43,104.74,25.62,88.85,36.97-1.81,1.29-7.07,1.61-14.11,1.37-2.33-1.49-8.94-1.34-17.83-3.43-13.43-3.16-32.79-13.43-49.78-18.83-16.99-5.4-25.29,2.64-30.03-2.5-4.06-4.4,26.59-18.62,45.92-27.09.02,0,53.83-3.66,86.58-2.04,32.75,1.62,62.58,8.76,90.79,21.08,28.21,12.32,35.67-4.22,42.8-18.81,7.13-14.59,5.51-45.07-8.11-49.29-13.62-4.22-15.56,7.13-25.94,12.32-10.38,5.19-10.05,4.86-36.64,3.24-26.59-1.62-92.09-5.84-118.76,10.81-3.16-2.37-10.67,6.32-22.52,7.9-11.85,1.58-35.16,3.95-48.99,9.48-13.83,5.53-28.05,12.64-20.15,39.51-18.96-10.27-46.62-10.27-66.77,6.32-41.88-4.35-73.88,19.36-95.64,41.75h0c-16.1-1.92-29.36-2.55-40.08-2.55-39.88,0-154.53-17.8-164.5,89.73-6.33,68.31,89.02,158.09,178.03,226.46,89.02,68.37,155.25,133.88,217.2,207.94,61.96,74.06,22.79,96.85-47.71,108.96-70.5,12.11-158.09-34.89-185.16-47.71-26.85-12.72-41.05-33.84-3.73-52.25,61.46-18.28,117.71-42.48,169.27-69.39l-18.51-16.28c-92.1,46.78-213.26,86.63-387.62,97.99-174.36-11.36-295.53-51.22-387.62-97.99l-18.51,16.28c51.56,26.91,107.81,51.11,169.27,69.39,37.32,18.41,23.11,39.54-3.73,52.25-27.06,12.82-114.65,59.82-185.16,47.71-70.5-12.11-109.67-34.89-47.71-108.96,61.96-74.06,128.19-139.58,217.2-207.94,89.02-68.37,184.37-158.15,178.03-226.46-9.97-107.53-124.62-89.73-164.5-89.73-10.72,0-23.98.63-40.08,2.55h0c-21.76-22.4-53.76-46.11-95.64-41.76-20.15-16.59-47.81-16.59-66.77-6.32,7.9-26.87-6.32-33.98-20.15-39.51-13.83-5.53-37.14-7.9-48.99-9.48-11.85-1.58-19.36-10.27-22.52-7.9-26.67-16.64-92.17-12.43-118.76-10.81-26.59,1.62-26.27,1.95-36.64-3.24-10.38-5.19-12.32-16.54-25.94-12.32s-15.24,34.7-8.11,49.29c7.13,14.59,14.59,31.13,42.8,18.81,28.21-12.32,58.04-19.46,90.79-21.08,32.75-1.62,86.56,2.04,86.58,2.04,19.33,8.47,49.98,22.7,45.92,27.09-4.74,5.14-13.04-2.9-30.03,2.5-16.99,5.4-36.35,15.67-49.78,18.83-8.89,2.09-15.5,1.94-17.83,3.43-7.04.24-12.29-.07-14.11-1.37-15.89-11.35,88.85-28.53,88.85-36.97,0-5.23-50.91-12.65-91.44-9.08-40.53,3.57-121.27,9.08-146.89,59.66-25.62,50.58,67.45,52.21,120.63,43.13,53.18-9.08,118.87-46.17,118.87-46.17,12.64,0,20.94-5.53,25.29-1.98,4.35,3.56-9.48,9.83-13.04,19.53-3.56,9.7-8.3,23.13-21.33,36.17-13.04,13.04-29.63,12.64-34.77,17.78-5.14,5.14-8.3,20.54-5.53,18.57s4.35-11.46,11.46-13.83c7.11-2.37,22.12-2.37,31.61-10.67,9.48-8.3,23.31-23.71,34.37-33.19,11.06-9.48,23.31-30.03,21.73-31.61-1.58-1.58-10.27-2.37-9.09-7.51,1.19-5.14,13.43-.4,22.91,4.74,9.48,5.14,26.47-6.32,37.53-6.32s48.6,1.19,65.19,13.83c16.59,12.64,13.79,15.23,10.85,18.87,0,0,0,0,0,0-42.72,7.25-97.62,25.11-176.35,57.66-35.18,14.55-65.09,27.67-90.74,39.63h0c-13.33,6.29-15.65-7.59-23.68-12.35-8.03-4.76-15.46-6.54-22.3-4.76-6.84,1.78-8.03,7.33-6.24,9.02,1.78,1.69,6.24-.97,10.41.36,4.16,1.33,5.95,9.36,8.33,12.33,2.38,2.97,8.09,2.1,7.01,5.35-1.08,3.25-9.49,7.44-9.49,7.44h.01c-26.86,13.51-47.81,25.38-64.76,36.09v-.02c-8.92,3.91-14.33-7.4-24.4-5.43-10.08,1.97-58.98,29-75.69,37.35-16.71,8.36-25.56,5.9-26.79,10.32-1.23,4.42,1.23,13.27-1.23,21.87-2.46,8.6-8.11,16.57-8.6,25.73-.49,9.16,3.69,45.25,0,55.22-3.69,9.97-12.04,13.41-11.3,21.52.74,8.11,1.97,6.88,8.36,0,6.39-6.88,16.8-14.5,16.14-27.03-.66-12.53,5-15.48,4.75-25.8-.25-10.32,1.23-34.16-1.23-37.6-2.46-3.44,5.41-11.8,14.25-21.13,8.85-9.34,32.93-27.03,48.66-35.14,15.73-8.11,29.49-13.52,32.68-11.06,3.19,2.46-5.76,12-5.76,12-35.61,27.06-84.03,73.35-84.03,73.35v14.24c34.89-27.06,77.83-65.54,118.93-91.87,44.75-28.67,95.18-55.12,147.04-77.9,1.62-.53,7.15-1.71,6.61,7.04-.63,10.23-19.96,16.17-34.36,26.28-14.4,10.11-25.27,20.46-34.76,27.03-9.5,6.57-15.51,3.54-20.06,10.36-4.55,6.82,2.27,21.73-1.01,23.5-3.28,1.77-5.81-8.59-8.59-8.08-2.78.51-8.34,18.7-16.68,29.56-8.34,10.86-18.7,28.3-18.7,34.61,0,2.99.86,5.73,2.05,7.73-4.29,2.78-7.98,3.97-10.37,2.42-10.74-6.97,29.04-60.31,20.76-66.14-.01,0-.03,0-.05-.02,3.67.84,7.22,1.34,9.5-.03,4.92-2.95,3.69-5.41,7.13-9.83,3.44-4.42,7.32-3.45,7.86-8.6.24-2.31-5.16-3.69-20.4-1.47-15.24,2.21-24.33,7.62-42.76,17.85-18.43,10.23-14.59,15.08-10.32,16.31-19.32,16.24-39.67,42.15-46.91,60.25-7.24,18.1-17.4,28.55-24.37,28.55s-25.24-5.22-27.27,1.16c-2.04,6.39,17.7,35.41,32.21,31.92,14.51-3.48,20.32-40.05,38.6-69.36,18.28-29.31,60.73-63.46,65.34-68.73,2.53-.36,6.43.81,10.32,1.76-9.6.03-56.25,44.87-69.57,69.01-13.93,25.25-35.7,85.98-19.15,96.97,16.54,10.99,67.62-29.64,83.87-64.18,16.25-34.54,38.55-57.38,37.51-63.85-.34-2.1-.96-4.16-1.64-6.01.2-.15.41-.31.59-.46,9.85-7.83,11.87-19.71,10.11-24.76-1.77-5.05-1.26-6.57,1.26-9.35s11.12,1.26,14.4-2.02c3.28-3.28,4.55-7.83,5.81-18.44,1.26-10.61,66.45-48.26,77.31-59.63,10.86-11.36,7.58-20.71,15.99-28.21,110.52-43.88,222.67-69.51,296.81-62.58,8.81.96,13.2,4.2,12.42,11.02-.84,7.36-20.19,4.42-38.27,9.88-18.08,5.47-30.7,13.88-39.95,17.03-9.25,3.15-14.3-2.1-23.55,3.57-9.25,5.68-16.4,21.24-19.55,18.5-3.15-2.73.42-3.57,1.26-10.3.84-6.73-5.68-10.51-12.4-14.72-6.73-4.21-13.46-8.62-34.06-7.78-10.97.45-31.31,6.7-41.24,10.79h-.01s-.01.01-.01.01c-1.85.76-3.37,1.46-4.36,2.02-6.31,3.57-11.14.21-13.88.84-2.73.63.42,5.89,7.15,6.52-40.29,7.05-58.1,25.62-91.07,49.11-32.97,23.5-79.59,40.17-79.97,46.24-.38,6.06,4.55,19.24,16.3,27.62,11.75,8.38,29.18,11.62,33.35,5.07,4.17-6.54,8.05-29.66,35.86-53.92,27.81-24.26,48.27-34.61,63.43-44.97,15.16-10.36,23.5-16.01,37.14-19.44,13.64-3.43,20.09-.77,27.67-2.29,6.57-1.31,23.68-3.49,27.36-8.49,1.86.27,3.26.83,5.83,3.17,4.84,4.42,7.15,7.57,6.31,10.09-.84,2.52-17.24,2.73-29.65,14.72-12.41,11.98-16.82,33.85-27.33,41.63-10.51,7.78-9.67,3.36-22.08,10.93-8.09,4.94-11.6,9.33-11.73,12.67-8.36,2.63-15.45,3.01-17.94-1.76-7.54-14.46,28.6-31.12,42.12-38.99,13.52-7.87,32.49-34.76,26.4-38.33-9.11-5.34-50.6,16.66-69.46,30.8-18.86,14.14-43.37,28.6-67.57,54.36-24.2,25.75-14.14,50.31-16.66,56.91-2.51,6.6-11.94,7.54-7.23,17.6,4.71,10.06,23.26,11.32,32.37,4.09,0,0,.63,7.54,26.72,6.45,26.09-1.09,53.75-21.23,81.72-42.63,27.97-21.4,45.57-51.83,54.69-62.84,8.31-10.03,14.77-19.04,12.5-32.94,6.68-6.14,11.97-10.9,13.53-10.17,3.57,1.68,3.99,29.44,2.73,51.93-1.26,22.5-11.77,34.9-15.56,42.89-3.78,7.99-2.94,16.4,0,16.4s21.24-40.58,24.18-52.56c2.94-11.98,10.3-33.85,10.3-47.94s-10.3-21.45-7.57-22.71c2.73-1.26,18.29,0,26.7-7.57,8.41-7.57,13.04-19.13,28.17-26.07,15.14-6.94,42.68-3.15,48.15-5.05,5.47-1.89,5.89-5.05,9.46-11.77,3.56-6.7,7.96-12.55,22.43-9.29,17.22,7.27,29.71,18.12,36.14,33.07,43.95,102.3-164.5,239.99-259.22,322.6-94.71,82.61-203.67,187.29-154.53,238.57,49.14,51.27,185.87,40.59,252.1,3.56,66.23-37.03,77.62-45.58,105.4-51.27,27.77-5.7,60.45-9.14,96.09-7.22l-.12-.03c20.29,1.53,41.03,2.36,62.26,2.39h0c.16,0,.31,0,.46,0s.31,0,.46,0h0c21.23-.03,41.97-.86,62.26-2.39l-.12.03c35.64-1.92,68.32,1.52,96.09,7.22,27.77,5.7,39.17,14.24,105.4,51.27,66.23,37.03,202.96,47.71,252.1-3.56,49.14-51.27-59.82-155.96-154.53-238.57-94.71-82.61-303.16-220.3-259.22-322.6,6.42-14.96,18.92-25.81,36.14-33.07,14.47-3.26,18.87,2.6,22.43,9.29,3.57,6.73,4,9.88,9.46,11.77,5.47,1.89,33.01-1.89,48.15,5.05,15.14,6.94,19.76,18.5,28.17,26.07,8.41,7.57,23.97,6.31,26.7,7.57,2.73,1.26-7.57,8.62-7.57,22.71s7.36,35.95,10.3,47.94c2.94,11.98,21.24,52.56,24.18,52.56s3.78-8.41,0-16.4c-3.78-7.99-14.3-20.39-15.56-42.89-1.26-22.5-.84-50.25,2.73-51.93,1.55-.73,6.85,4.03,13.53,10.17-2.26,13.91,4.19,22.91,12.5,32.94,9.11,11,26.72,41.44,54.69,62.84,27.97,21.4,55.63,41.54,81.72,42.63,26.09,1.09,26.72-6.45,26.72-6.45,9.12,7.23,27.66,5.97,32.37-4.09,4.71-10.06-4.71-11-7.23-17.6-2.51-6.6,7.54-31.15-16.66-56.91-24.2-25.75-48.72-40.21-67.57-54.36-18.86-14.14-60.35-36.15-69.46-30.8-6.09,3.57,12.89,30.45,26.4,38.33,13.52,7.87,49.66,24.53,42.12,38.99-2.49,4.77-9.57,4.39-17.94,1.76-.13-3.34-3.64-7.73-11.73-12.67-12.41-7.57-11.56-3.15-22.08-10.93-10.51-7.78-14.93-29.65-27.33-41.63-12.41-11.98-28.81-12.2-29.65-14.72-.84-2.52,1.47-5.68,6.31-10.09,2.57-2.34,3.97-2.9,5.83-3.17,3.69,5,20.79,7.18,27.36,8.49,7.58,1.52,14.02-1.14,27.67,2.29,13.64,3.43,21.98,9.08,37.14,19.44,15.16,10.36,35.62,20.72,63.43,44.97,27.81,24.26,31.69,47.37,35.86,53.92,4.17,6.54,21.6,3.31,33.35-5.07,11.75-8.38,16.68-21.56,16.3-27.62-.38-6.06-46.99-22.74-79.97-46.24-32.97-23.5-50.78-42.07-91.07-49.11,6.73-.63,9.88-5.89,7.15-6.52-2.73-.63-7.57,2.73-13.88-.84-.99-.56-2.52-1.26-4.36-2.02h-.01s-.01-.01-.01-.01c-9.93-4.1-30.27-10.35-41.24-10.79-20.61-.84-27.33,3.57-34.06,7.78-6.73,4.21-13.25,7.99-12.4,14.72.84,6.73,4.42,7.57,1.26,10.3-3.15,2.73-10.3-12.83-19.55-18.5-9.25-5.68-14.3-.42-23.55-3.57-9.25-3.15-21.87-11.56-39.95-17.03-18.08-5.47-37.43-2.52-38.27-9.88-.78-6.82,3.61-10.05,12.42-11.02,74.14-6.92,186.29,18.71,296.81,62.58,8.4,7.5,5.13,16.84,15.99,28.21,10.86,11.37,76.05,49.01,77.31,59.63,1.26,10.61,2.53,15.16,5.81,18.44,3.28,3.28,11.87-.76,14.4,2.02,2.53,2.78,3.03,4.3,1.26,9.35-1.77,5.05.25,16.93,10.11,24.76.19.15.4.31.59.46-.68,1.85-1.3,3.91-1.64,6.01-1.04,6.47,21.26,29.31,37.51,63.85,16.25,34.54,67.33,75.17,83.87,64.18,16.54-10.99-5.22-71.72-19.15-96.97ZM463.89,2015.17c.35-.76.73-1.51,1.21-2.2,1.16-1.69,4.08-4.07,7.79-6.79-2.94,3.14-6,6.23-9,8.99ZM1729.3,2006.18c3.71,2.71,6.64,5.1,7.79,6.79.48.69.86,1.44,1.21,2.2-3.01-2.76-6.06-5.85-9-8.99Z"/>
  <path class="cls-1" d="M1760.4,2102.67c-13.06-13.06-37.73-54.56-47.82-74.59-10.1-20.03-20.08-55.04-23.83-52.67,2.21-5.9.86-14.99-5.41-14.99-5.41,0-13.52,5.9-16.46,26.29-2.95,20.4,3.69,39.81,3.93,51.36s-11.06,29.73-1.97,32.68c9.09,2.95,12.53-56.03,12.78-70.77.22-12.96,3.85-17.57,6.23-22.49.66,1.66,2.95,4.7,1.89,13.73-1.59,13.63.14,38.31,8.26,62.4,8.13,24.09,41.21,69.94,49.54,91.13,8.33,21.19,20.11,40.34,32.59,41.79,12.48,1.45,15.09-29.89,15.21-49.05.12-19.15-21.88-21.77-34.94-34.83Z"/>
  <path class="cls-1" d="M1545.31,2023.68c-8.89-7.18-16.2-4-31.76-10.67-15.56-6.67-54.94-38.81-66.06-52.59-11.12-13.79-23.18-22.23-29.22-30.24-6.03-8-13.97-25.79-18.74-26.74-6.01-1.2,10.48,56.85,33.35,82.89,22.87,26.04,40.33,34.3,53.04,60.02,12.7,25.72,8.26,41,15.24,48.76,6.99,7.77,41.6-9.06,47-31.61,5.4-22.55,6.03-32.65-2.86-39.83Z"/>
  <path class="cls-1" d="M2159.31,2225.88c-7.62-6.77-18.67-22.44-28.6-33.45-9.55-10.58-22.05-26.54-33.91-23.27-5.58-5.34-16.7-14.05-20.46-17.1-5.13-4.17-17.97-13.48-27.28-11.55-9.31,1.93-11.87,2.89-11.23,9.63.28,2.95-8.99,3.8-6.74,10.57,2.25,6.76,4.49,7.41,6.74,13.82-1.49,11.13,18.98,53.9,27.58,64.49,8.61,10.59,58.58,51.66,65.77,49.12,7.2-2.54,7.22-43.49-10.37-67.48-14.52-19.81-31.47-38.88-39.8-50.52,3.93,1.76,7.44,3.34,9.43,4.4,1.1.58,2.17.93,3.19,1.12,3.8,10.61,26.16,31.05,33.48,40.05,9.32,11.45,8.47,27.54,18.63,35.17,10.16,7.62,24.98,3.39,33.03-7.2,8.04-10.59-11.86-11.01-19.48-17.78ZM2069.37,2186.59c-1.39,2.15-5.64-1.02-9.37-4.51-.35-.9-.69-1.9-.99-3.07-2.25-8.66-2.89-13.85-6.42-18.32-3.53-4.47-9.95-6.07-7.7-8.64,1.92-2.19,9.67,3.79,16.49,8.19h0s10.64,22.26,7.98,26.34Z"/>
  <path class="cls-1" d="M2078.99,2269.46c-9.68-8.21-36.66-50.44-46.1-77.26h0c-1.22-4.79-2.76-10.4-2.76-14.47,0-6.42,0-8.66-1.6-11.55-1.3-2.33-5.91-4.63-9.17-5.28,8.5-13.96,7.75-33.83-1.31-36.43-11.23-3.22-33.09-22.89-44.02-33.21-10.93-10.32-25.2-20.95-35.22-29.75-10.02-8.8-17.1-30.88-21.55-28.06-3.64,2.3.61,15.61,6.07,30.49,5.46,14.88,17.91,23.38,23.98,29,6.07,5.62,17,26.56,24.39,36.58,7.38,10.02,12.35,25.2,13.56,34.31,1.21,9.11,10.32,17.91,26.41,5.77,2.1-1.58,3.94-3.47,5.54-5.56,1.33,2.17,3.32,5.3,2.98,9.21-.64,7.38-2.78,44.61.06,47.17,1.52,1.37,5.53-3.42,8.88-8.91,3.34,5.83,8.55,14.54,14.38,22.77,9.97,14.08,18.77,41.64,21.91,55.72,3.14,14.08,8,20.53,15.04,21.7,7.04,1.17,17.3-3.52,22.58-17.3,5.28-13.78-14.37-16.72-24.05-24.93Z"/>
  <path class="cls-1" d="M1949.83,2270.33c8.31,8.04,30.82,8.31,34.84,2.41,4.02-5.9-10.43-19.56-12.99-26.26-2.56-6.7-4.43-25.73-9.79-39.13-4.9-12.26-9.98-24.24-11.44-34.82.2.17.47.33.64.5,4.82,4.82,8.8,16.85,14.04,17.64,5.24.79,5.87,1.72,6.5,0,.63-1.72-3.98-16.98-8.38-21.08-4.4-4.1-14.67-5.15-20.53-11.44-5.87-6.29-5.87-14.04-15.09-23.26-9.22-9.22-19.49-10.06-24.1-4.4-3.2,3.93-6.08,17.81-10.48,19.07-4.4,1.26-13.2-10.48-17.6-13.41-4.4-2.93-18.65,4.4-26.19,11.73-7.54,7.33-7.54,13.03-11.52,21.7-3.98,8.68-17.18,22.57-14.67,26.2,2.14,3.09,24.66-19.87,34.09-31.34-5.68,30.93.04,83.89-3.87,93.34-4.33,10.47-19.5,25.63-7.94,35.38,11.55,9.75,33.58-13.36,37.19-18.05,3.61-4.69,4.33-15.89-1.44-22.75-5.78-6.86-11.19-36.99-11.55-56.59-.28-15.19,1.06-33.97,1.67-41.65,1.43-.16,2.87-.15,4.24-.02-.92,32.49,2.01,81.19,9.89,96.45,8.39,16.25,25.36,48.38,39.08,48.02,13.72-.36,15.53-42.22,15.16-62.99-.33-19.1-10.1-56.43-12.52-73.35,2.23,1,4.64,1.95,7.06,2.88,3.41,21.07,10.89,33.01,10.63,50.57-.27,18.19-3.22,46.59,5.09,54.63ZM1906.08,2195.79c-.82-.35-1.54-.93-2.21-1.58,1.45-6.19,2.23-15.33,3.01-20.56,1.26-8.38,2.3-12.78,0-17.39-2.31-4.61-7.12-8.38-3.56-11.31,1.96-1.61,4.37.65,7.4,4.02,1.45,7.79,2.87,18.09,2.87,28.67,0,21.66-3.1,20.05-7.51,18.15Z"/>
  <path class="cls-1" d="M1985.37,2280.78c-6-.8-6.33,3.22-14.78,3.48-8.45.27-10.85,7.5-10.04,13.13.8,5.63-2.95,19.03-8.31,29.48-5.36,10.45-10.99,12.6-2.14,24.39,8.84,11.79,50.11-8.31,41.54-18.76-8.58-10.45-2.12-51.17-6.27-51.72Z"/>
  <path class="cls-1" d="M2032.11,2224.77c-2.02-1.25-4.42-1.35-6.86-.84-2.4-1.74-8.49.07-10.18-.18-2.17-.31-2.94-.62-2.02-10.54.93-9.92.95-18.96-4.03-17.2-5.27,1.86-8.37,10.85-15.34,16.27-6.97,5.42-14.41,16.43-10.07,22.21,1.1,1.46,2.8,1.35,4.79.38-3.31,9.6-4.56,23.05-.24,26.07,4.37,3.06,15.86-27.18,19.96-38.46,1.45,2.87.35,9.97,1.76,11.61-6.73,13.18-18.77,34.97-18.77,51.24,0,17.15,3.48,57.35,18.49,60.03,15.01,2.68,29.21-58.69,30.82-76.64,1.61-17.96-3.51-40.99-8.31-43.95Z"/>
  <path class="cls-1" d="M2047.89,2268.8s-5.44,15.99-7.18,25.78c-3.56,20,.29,28-7.27,33.56-7.56,5.56-8.89,18.22-7.2,26.72,1.69,8.5,29.43,21.51,34.98,17.06,5.56-4.44,2.89-51.34,1.78-64.9-1.11-13.56-11.33-38.45-15.11-38.23Z"/>
  <path class="cls-1" d="M1445.64,213.23c9.99-1.17,10.98-7.09,21.31-11.69,10.33-4.6,30.03-10.12,42.85-12.76,4.75-.98,9.33-2.62,13.22-4.3-.5,1.78-.84,3.63-.93,5.58-.67,14.01,12.73,20.56,15.52,21.14,2.8.58,1.43-3.07,3.7-6.98,2.27-3.91,8.4.63,14.97-14.17,4.49-1.08,9.29-4.69,34.91-20.18,25.63-15.49,60.42-21.37,78.96-26.83,18.54-5.46,30.43-20.49,33.01-27.2,2.58-6.71,13.15-12.98,11.05-14.48-2.79-1.98-3.37,1.09-9.83,3-6.46,1.91-19.7,10.77-41.64,20.4-21.94,9.63-54.81,20.58-83.13,22.03-28.31,1.45-36.69-2.26-39.51-.32-2.82,1.94-1.74,6.71-3.19,13.43-.91,4.18-6.17,9.41-10.17,16.15-7.87-3.3-24.41,2.95-34.06,8.52-10.66,6.15-15.19,6.43-21.66,6.69-6.48.26-18.01-.77-21.77,1.07s-7.53,5.56-7.27,11.17c.27,5.62-6.33,10.87,3.67,9.7Z"/>
  <path class="cls-1" d="M1437.66,434.38c1.63-.17,13.46-8.04,13.85-11.3.39-3.26,1.18-12.12,2.29-14.65,1.11-2.53,1.33-7.96-2.09-10.88-3.42-2.92-5.78-1.86-5.78-1.86-3.64,2.51-.22,5.07-3.69,8.84-3.47,3.77-11.1,7.33-10.44,14.4.67,7.07,4.22,15.61,5.85,15.44Z"/>
  <path class="cls-1" d="M1403.67,268.22c-1.54,2.83,5.87.05,13.85-2.35,7.97-2.4,23.39-11.59,26.88-21.68,3.49-10.09,4.52-22.2-2.55-25.48-8.07-3.74-13.07,12.4-17.36,27.52-4.29,15.12-19.29,19.17-20.82,22Z"/>
  <path class="cls-1" d="M1238.08,235.07c17.59.05,19.9-16.98,38.65-25.9,18.75-8.92,51.03-17.87,75.97-22.27,24.94-4.4,41.42-2.61,43.35-5.07.79-1.01.63-2.56-.15-4.29,3.4,2.72,5.89,5.95,7.83,10.38,3.98,9.08,18.33,10.44,17.99,13.56-.34,3.12-9.37,1.07-22.85,8.66-10.75,6.05-17.32,12.74-22.72,16.31-9.69,2.76-18.17,4.77-19.47,3.78-3.23-2.46,6.08-15.11,18.87-24.21,12.8-9.1,30.92-9.7,26.38-15.07-2.41-2.85-4.65-3.94-8.9-4.28-13.79-1.08-84.06,18.81-99.28,25.51-15.21,6.7-63.06,33.01-59.92,46.29,3.14,13.29,46.4,19.05,80.81,15.54,32.61-3.33,64.65-26.36,97.58-50.64,5.02-.85,9.84-2.25,12.78-4.08,6.34-3.94,12.57-8.41,8.5-8.88-4.07-.47-9.47.71-8.95-2.22.51-2.93,7.7-4.26,9.02-6.62,4.54-8.05-10.7-26.92-27.81-33.61-17.11-6.69-32.09-5.87-37.97-12.16-5.88-6.29-9.89-11.94-12.71-10.4-2.15,1.17,7.57,12.02,17.55,19.24-17.59-2.58-40.84.94-53.93,8.84-17.95,10.83-51.31,18.97-66.18,16.27-14.87-2.7-26.2-6.94-30.88,2.4-4.68,9.35-1.16,42.86,16.44,42.91Z"/>
  <path class="cls-1" d="M1425.3,287.5c-4.92-6.31-12.62-9.35-24.92-10.02-12.31-.67-14.62,3.67-18.6,4.02-3.98.35-.75-1.52-7.95-1.2s-9.9,5.98-15.78,6.66c-5.88.68-9.26-3.08-11.18-.09-1.04,1.61,1.2,3.54,5.46,4.62h0c-22.31,9.01-60.64,44.91-77.23,52.39-16.59,7.48-37.58,7.31-35.56,17.56,2.02,10.25,19.15,33.21,34.67,27.57,15.53-5.65,30.79-44.36,45.11-62.61,12.88-16.42,45.21-31.16,57.71-35.63,4.2.1,7.88.83,11.19,2.02-11.41-.03-55.2,23.93-69.02,47.77-15.43,26.64-43.52,61.44-28.4,73.17,15.12,11.73,50.69-6.08,74.77-32.13,24.08-26.04,46.32-42.17,46.09-50.42,4.57-3.56,15.04-31.7,13.54-34.56-1.49-2.85-18.24,7.24-19.92,3.63-1.68-3.61,23.19-8.65,19.99-12.75ZM1396.55,305.67c-4.19,3.19-1.03,10.41-7.14,16.61-6.11,6.2-10.65,5.41-18.48,13.11-5.28,5.2-6.76,9.91-5.7,12.78-1.64.33-2.88.31-3.57-.2-5.74-4.24-3.27-17.64,2.03-24.14,5.29-6.49,30.54-22.99,27.15-30.01,1.56.71,3.06,1.48,4.5,2.36,7.2,4.41,5.4,6.29,1.21,9.48Z"/>
  <path class="cls-1" d="M2058.01,124.87c-61.66-17.18-121.48-9.33-145.13-9.52-9.26-.07-20.73.38-34.65,1.93h0c-18.65-19.51-46.14-40.22-82.36-36.75-17.3-14.48-41.2-14.67-57.66-5.93,7.02-23.16-5.23-29.41-17.14-34.28-11.91-4.88-32.04-7.09-42.27-8.53-10.23-1.45-16.66-9.01-19.41-6.98-22.93-14.57-79.56-11.38-102.55-10.16-22.99,1.22-22.71,1.5-31.64-3.06-8.93-4.56-10.53-14.38-22.33-10.83-11.8,3.55-13.41,29.88-7.35,42.54,6.06,12.66,12.39,27,36.86,16.55,24.46-10.45,50.29-16.41,78.61-17.58,28.31-1.17,74.79,2.36,74.8,2.36,16.64,7.45,43.03,19.96,39.5,23.73-4.13,4.41-11.25-2.6-25.96,1.95-14.72,4.55-31.52,13.29-43.15,15.93-7.7,1.75-13.41,1.57-15.43,2.84-6.08.16-10.62-.15-12.18-1.28-13.65-9.92,76.98-24.04,77.04-31.33.04-4.52-43.91-11.28-78.96-8.48-35.05,2.8-104.86,7-127.35,50.54-22.49,43.54,57.92,45.58,103.94,38.11,46.02-7.48,103.05-39.07,103.05-39.07,10.93.09,18.13-4.63,21.86-1.53,3.73,3.1-8.26,8.43-11.4,16.79-3.14,8.36-7.33,19.93-18.69,31.11-11.36,11.18-25.69,10.72-30.17,15.12-4.47,4.4-7.31,17.7-4.91,16.01,2.4-1.69,3.84-9.87,10-11.87,6.16-2,19.14-1.89,27.39-9,8.25-7.1,20.31-20.32,29.93-28.44,9.63-8.12,20.35-25.79,19-27.16-1.35-1.38-8.86-2.12-7.8-6.55,1.06-4.43,11.61-.25,19.77,4.26,8.16,4.5,22.92-5.28,32.48-5.2,9.56.08,41.99,1.36,56.24,12.4,14.25,11.04,11.81,13.26,9.24,16.39,0,0,0,0,0,0-36.97,5.97-84.53,21.02-152.8,48.6-30.5,12.32-56.44,23.46-78.69,33.62h0c-11.56,5.34-13.47-6.67-20.38-10.84-6.91-4.17-13.32-5.76-19.24-4.27-5.92,1.49-6.99,6.28-5.46,7.75,1.53,1.47,5.4-.8,8.99.38,3.59,1.18,5.07,8.13,7.11,10.71,2.04,2.59,6.98,1.87,6.02,4.67-.96,2.8-8.25,6.36-8.25,6.36h0c-23.31,11.49-41.49,21.6-56.21,30.74h0c-7.74,3.3-12.33-6.5-21.05-4.87-8.72,1.63-51.17,24.65-65.67,31.75-14.5,7.1-22.13,4.92-23.22,8.73s.97,11.48-1.21,18.89c-2.18,7.42-7.12,14.26-7.61,22.18-.49,7.91,2.87,39.13-.38,47.72-3.25,8.59-10.5,11.5-9.92,18.52.58,7.01,1.65,5.96,7.22.06,5.57-5.9,14.61-12.41,14.13-23.25-.48-10.84,4.42-13.34,4.28-22.27-.14-8.92,1.3-29.51-.8-32.5-2.1-2.99,4.75-10.16,12.46-18.16,7.71-8.01,28.64-23.13,42.29-30.03,13.65-6.9,25.58-11.48,28.32-9.33,2.74,2.15-5.06,10.33-5.06,10.33-30.96,23.14-73.13,62.8-73.13,62.8l-.1,12.31c30.34-23.14,67.71-56.1,103.41-78.56,38.87-24.46,82.63-46.97,127.61-66.3,1.4-.44,6.19-1.43,5.67,6.13-.61,8.84-17.36,13.83-29.88,22.47-12.51,8.63-21.98,17.51-30.23,23.12-8.25,5.61-13.43,2.95-17.41,8.81-3.98,5.86,1.81,18.79-1.04,20.3-2.85,1.51-4.96-7.46-7.37-7.05-2.4.42-7.33,16.1-14.61,25.43-7.28,9.33-16.35,24.32-16.4,29.78-.02,2.58.71,4.96,1.72,6.7-3.72,2.37-6.92,3.38-8.98,2.02-9.23-6.09,25.51-51.91,18.4-57.01-.01,0-.03,0-.04-.02,3.16.75,6.23,1.21,8.21.04,4.27-2.51,3.22-4.65,6.23-8.45,3-3.8,6.35-2.93,6.86-7.38.23-2-4.43-3.22-17.62-1.42-13.18,1.81-21.08,6.41-37.08,15.13-16,8.71-12.71,12.93-9.03,14.02-16.81,13.9-34.57,36.15-40.95,51.74-6.38,15.59-15.23,24.55-21.25,24.5-6.02-.05-21.77-4.69-23.58.81-1.81,5.5,15.05,30.72,27.61,27.81,12.56-2.91,17.83-34.47,33.84-59.67,16-25.2,52.92-54.42,56.94-58.94,2.19-.3,5.55.75,8.91,1.59-8.29-.04-48.92,38.38-60.6,59.15-12.21,21.72-31.45,74.05-17.23,83.67,14.22,9.61,58.64-25.14,72.93-54.88,14.28-29.73,33.71-49.32,32.86-54.92-.28-1.82-.8-3.6-1.37-5.21.17-.13.35-.27.52-.39,8.57-6.7,10.4-16.95,8.91-21.33-1.49-4.38-1.05-5.69,1.16-8.07,2.2-2.38,9.6,1.17,12.46-1.65,2.86-2.82,3.98-6.74,5.15-15.9,1.17-9.16,57.76-41.24,67.22-50.99,9.46-9.74,6.7-17.84,14.01-24.26,95.81-37.15,192.91-58.52,256.93-52.02,7.61.89,11.38,3.72,10.66,9.6-.78,6.35-17.47,3.68-33.14,8.27-15.66,4.6-26.62,11.78-34.64,14.44-8.02,2.66-12.34-1.92-20.37,2.93-8.03,4.84-14.32,18.24-17.03,15.85-2.71-2.38.39-3.09,1.16-8.89.77-5.81-4.83-9.12-10.62-12.81-5.79-3.68-11.57-7.54-29.38-6.96-9.48.31-27.1,5.57-35.71,9.04h-.01s0,0,0,0c-1.6.65-2.93,1.24-3.78,1.72-5.48,3.04-9.63.1-12,.63-2.37.53.32,5.09,6.13,5.68-34.86,5.81-50.39,21.73-79.04,41.81-28.66,20.08-69.06,34.16-69.43,39.4-.37,5.24,3.8,16.66,13.89,23.98,10.09,7.33,25.14,10.24,28.79,4.62,3.65-5.63,7.16-25.58,31.36-46.34,24.2-20.77,41.96-29.58,55.13-38.42,13.17-8.85,20.42-13.67,32.23-16.54,11.81-2.87,17.36-.53,23.92-1.79,5.69-1.09,20.48-2.85,23.7-7.15,1.61.24,2.81.74,5.02,2.78,4.15,3.85,6.12,6.59,5.38,8.76-.74,2.17-14.92,2.24-25.72,12.51-10.8,10.27-14.77,29.14-23.91,35.79-9.14,6.65-8.38,2.84-19.15,9.29-7.03,4.21-10.09,7.98-10.23,10.87-7.25,2.21-13.37,2.49-15.49-1.65-6.42-12.55,24.93-26.69,36.67-33.4,11.73-6.71,28.32-29.81,23.08-32.94-7.84-4.68-43.84,14.04-60.24,26.14-16.39,12.09-37.68,24.42-58.77,46.5-21.09,22.09-12.57,43.38-14.79,49.06-2.22,5.69-10.37,6.44-6.37,15.16,4,8.72,20.02,9.94,27.95,3.76,0,0,.49,6.52,23.04,5.76,22.55-.76,46.59-17.97,70.91-36.27,24.32-18.3,39.74-44.48,47.7-53.92,7.25-8.61,12.89-16.35,11.03-28.38,5.81-5.26,10.42-9.34,11.76-8.7,3.08,1.48,3.25,25.47,2,44.9-1.25,19.43-10.42,30.08-13.74,36.96-3.33,6.88-2.66,14.15-.11,14.17,2.54.02,18.63-34.92,21.26-45.26,2.63-10.34,9.14-29.18,9.24-41.36.1-12.17-8.75-18.6-6.38-19.68,2.37-1.07,15.81.13,23.13-6.36,7.32-6.48,11.4-16.44,24.53-22.33,13.13-5.89,36.91-2.43,41.64-4.03,4.74-1.6,5.12-4.32,8.26-10.11,3.12-5.76,16.46-19.93,29.06-17.55,149.08,28.16,188.54,81.45,172.7,114.99-22.64,47.92-63.8,68.69-89.57,172.09-9.8,39.33-11.94,83.75-10.72,126.13,1.76,60.9,7.49,123.37,11.01,183.92,8.69,149.26-7.73,438.12-25.6,578.69-17.87,140.57-68.11,301.9-115.45,402.86-17.98,38.35-44.41,90.86-76.5,145.57l16.26,13.23c42.49-75.24,78.76-154.55,108.54-225.95,70.52-169.07,101.44-421.22,111.1-607.67,9.66-186.46-4.53-368.57-8.69-475.3-.32-8.15-.56-16.8-1-25.89-7.49-154.94,48.24-210.06,89.49-273.14,35.89-54.88-51.09-109.96-135.88-133.58Z"/>
  <path class="cls-1" d="M1592.42,336.43c-8.86,17.24-30.47,52.93-41.85,64.12-11.38,11.2-30.41,13.3-30.44,29.85-.03,16.55,2.01,43.66,12.8,42.49,10.79-1.17,21.11-17.64,28.45-35.89,7.35-18.25,36.26-57.65,43.44-78.41s8.85-42.07,7.57-53.86c-.85-7.81,1.15-10.42,1.73-11.85,2.02,4.28,5.13,8.28,5.22,19.48.11,12.74,2.67,63.73,10.55,61.25,7.88-2.49-1.76-18.28-1.47-28.26.29-9.98,6.16-26.71,3.75-44.36-2.41-17.65-9.37-22.8-14.05-22.84-5.41-.04-6.65,7.8-4.78,12.92-3.23-2.08-12.09,28.12-20.96,45.35Z"/>
  <path class="cls-1" d="M1863.8,230.89c-4.12.79-11.11,16.1-16.38,22.98-5.27,6.87-15.76,14.09-25.46,25.93-9.7,11.84-43.96,39.33-57.45,44.99-13.49,5.66-19.78,2.86-27.52,9-7.73,6.14-7.26,14.87-2.75,34.4,4.51,19.52,34.31,34.31,40.4,27.65,6.09-6.66,2.36-19.89,13.51-42.03,11.16-22.14,26.31-29.16,46.25-51.5,19.94-22.35,34.6-72.4,29.39-71.4Z"/>
  <path class="cls-1" d="M1216.54,525.94c8.83-6.52,8.21-20.43,16.34-30.26,6.39-7.72,25.85-25.23,29.21-34.38.88-.16,1.81-.45,2.76-.94,1.73-.9,4.78-2.24,8.18-3.74-7.28,10-22.06,26.36-34.74,43.38-15.36,20.61-15.63,55.99-9.43,58.24,6.2,2.25,49.67-32.9,57.18-41.99,7.51-9.09,25.5-45.9,24.29-55.53,1.99-5.53,3.93-6.07,5.92-11.9,1.99-5.83-6.01-6.63-5.75-9.18.6-5.82-1.61-6.67-9.64-8.4-8.03-1.73-19.19,6.22-23.65,9.79-3.27,2.61-12.94,10.06-17.8,14.63-10.23-2.91-21.14,10.8-29.46,19.88-8.66,9.44-18.31,22.91-24.95,28.71-6.63,5.8-23.83,6.03-16.96,15.23,6.88,9.2,19.66,12.97,28.49,6.45ZM1290.08,448.22c5.92-3.75,12.67-8.87,14.31-6.96,1.92,2.23-3.63,3.58-6.72,7.41-3.08,3.84-3.67,8.31-5.67,15.78-.27,1.01-.57,1.87-.88,2.64-3.24,2.99-6.94,5.69-8.13,3.83-2.27-3.55,7.08-22.71,7.08-22.71h0Z"/>
  <path class="cls-1" d="M1415.52,339.64c-3.83-2.47-10.1,16.56-18.82,24.1-8.72,7.54-21.12,16.62-30.64,25.47-9.52,8.84-28.54,25.69-38.27,28.4-7.85,2.18-8.64,19.35-1.39,31.47-2.82.53-6.83,2.49-7.96,4.5-1.41,2.48-1.42,4.43-1.47,9.97-.03,3.52-1.4,8.35-2.49,12.49h0c-8.34,23.11-31.95,59.41-40.37,66.44-8.42,7.03-25.42,9.43-20.95,21.37,4.47,11.95,13.3,16.07,19.39,15.11,6.09-.97,10.33-6.51,13.14-18.65,2.82-12.14,10.61-35.9,19.32-48,5.09-7.07,9.66-14.56,12.59-19.58,2.86,4.76,6.29,8.94,7.61,7.76,2.47-2.2.88-34.38.38-40.77-.27-3.38,1.47-6.07,2.64-7.94,1.37,1.81,2.95,3.46,4.75,4.84,13.82,10.6,21.75,3.06,22.86-4.81,1.11-7.86,5.51-20.95,11.96-29.55,6.45-8.61,16.04-26.63,21.33-31.44,5.29-4.81,16.1-12.07,20.93-24.89,4.83-12.82,8.59-24.29,5.46-26.3Z"/>
  <path class="cls-1" d="M1405.84,427.24c-8.03,7.9-8.08,14.6-13.2,19.99-5.11,5.39-13.99,6.23-17.82,9.74-3.83,3.52-7.92,16.67-7.39,18.16.53,1.49,1.08.69,5.61.05,4.53-.65,8.06-11.02,12.25-15.15.15-.14.38-.28.56-.43-1.33,9.14-5.8,19.46-10.13,30.01-4.72,11.54-6.48,27.97-8.73,33.74-2.25,5.77-14.84,17.48-11.4,22.6,3.43,5.12,22.89,5.05,30.12-1.84,7.24-6.89,4.89-31.46,4.78-47.18-.1-15.18,6.44-25.45,9.53-43.63,2.1-.78,4.19-1.59,6.12-2.44-2.21,14.6-10.91,46.8-11.33,63.3-.46,17.95.81,54.13,12.67,54.54,11.85.41,26.74-27.24,34.1-41.22,6.92-13.13,9.79-55.2,9.22-83.28,1.19-.11,2.43-.1,3.66.05.48,6.65,1.5,22.88,1.15,36.01-.45,16.93-5.34,42.93-10.38,48.82-5.04,5.89-4.49,15.56-1.41,19.65,3.09,4.08,21.96,24.2,32.01,15.86,10.05-8.34-2.95-21.55-6.62-30.63-3.31-8.19,2-53.92-2.7-80.69,8.07,9.98,27.37,29.98,29.24,27.32,2.2-3.13-9.11-15.22-12.49-22.75-3.38-7.53-3.34-12.45-9.81-18.84-6.47-6.39-18.73-12.83-22.55-10.32-3.82,2.5-11.51,12.58-15.3,11.47-3.79-1.12-6.18-13.13-8.92-16.55-3.94-4.92-12.82-4.27-20.85,3.64ZM1423.62,445.85c-2.02,3.97-1.15,7.78-.12,15.03.64,4.52,1.26,12.43,2.46,17.78-.58.56-1.2,1.05-1.92,1.35-3.82,1.61-6.51,2.98-6.36-15.74.07-9.14,1.37-18.03,2.68-24.76,2.64-2.89,4.74-4.83,6.42-3.42,3.06,2.56-1.13,5.79-3.16,9.75Z"/>
  <path class="cls-1" d="M1384.92,614.06c7.72-10.13,2.88-12.02-1.68-21.09-4.56-9.07-7.71-20.67-6.97-25.53.73-4.86-1.29-11.13-8.59-11.42-7.3-.29-7.56-3.77-12.74-3.11-3.58.45,1.71,35.68-5.77,44.65-7.48,8.97,28.04,26.63,35.77,16.5Z"/>
  <path class="cls-1" d="M1333.55,608.55c12.99-2.21,16.28-36.92,16.4-51.75.11-14.06-10.14-32.97-15.87-44.41,1.23-1.41.33-7.55,1.6-10.02,3.46,9.78,13.18,35.99,16.98,33.38,3.75-2.58,2.76-14.21-.03-22.53,1.72.85,3.19.96,4.15-.3,3.79-4.97-2.56-14.53-8.55-19.26-5.99-4.74-8.61-12.53-13.15-14.17-4.29-1.55-4.34,6.26-3.6,14.84.73,8.58.06,8.84-1.81,9.09-1.46.2-6.71-1.41-8.8.08-2.1-.46-4.17-.39-5.93.68-4.16,2.52-8.75,22.39-7.48,37.92,1.26,15.53,13.11,68.66,26.1,66.45Z"/>
  <path class="cls-1" d="M1307.01,564.45c-1.44-8.47-6.02-22.33-6.02-22.33-3.26-.22-12.27,21.22-13.32,32.93-1.05,11.71-3.68,52.21,1.09,56.09,4.77,3.88,28.83-7.17,30.35-14.5,1.52-7.33.45-18.29-6.04-23.14-6.49-4.85-3.11-11.74-6.05-29.05Z"/>
  <path class="cls-1" d="M350.2,1936.61l19.02-11.22c-7.92-11.79-15.62-23.71-23.09-35.66l-19.79,8.63c7.77,12.95,15.72,25.72,23.87,38.26Z"/>
  <path class="cls-1" d="M676.39,2196.73c-65.91-37.7-116.16-77.77-162.24-109.95-2.7-1.89-5.4-3.84-8.1-5.86l-9.34,25.84c6.49,5.18,13.05,10.12,19.69,14.8,42.16,29.72,88.66,61.12,140.12,90.47l19.86-15.3Z"/>
  <path class="cls-1" d="M425.03,1883.7c3.24.65,1.62-3.57,4.21-8.11,2.59-4.54,9.73.65,17.19-16.54,5.19-1.3,10.7-5.51,40.21-23.67,29.51-18.16,69.72-25.29,91.12-31.78,21.4-6.49,35.02-24,37.94-31.78,2.92-7.78,15.1-15.15,12.65-16.86-3.24-2.27-3.89,1.3-11.35,3.57-7.46,2.27-22.7,12.65-47.99,24-25.29,11.35-63.23,24.32-95.98,26.27-32.75,1.95-42.48-2.27-45.72,0-3.24,2.27-1.95,7.78-3.57,15.56-1.01,4.85-7.05,10.95-11.62,18.78-9.14-3.75-28.21,3.64-39.33,10.18-12.28,7.22-17.51,7.58-25,7.94-7.49.36-20.85-.72-25.18,1.44-4.33,2.17-8.67,6.5-8.3,13,.36,6.5-7.22,12.64,4.33,11.19,11.55-1.44,12.64-8.3,24.55-13.72,11.91-5.42,34.65-11.99,49.46-15.16,5.49-1.18,10.77-3.12,15.26-5.1-.56,2.06-.94,4.21-1.03,6.46-.65,16.21,14.92,23.67,18.16,24.32Z"/>
  <path class="cls-1" d="M311.44,2142.86c1.89-.21,15.51-9.43,15.92-13.2.42-3.77,1.26-14.04,2.51-16.97,1.26-2.93,1.47-9.22-2.51-12.57-3.98-3.35-6.7-2.1-6.7-2.1-4.19,2.93-.21,5.87-4.19,10.27-3.98,4.4-12.78,8.59-11.94,16.76.84,8.17,5.03,18.02,6.91,17.81Z"/>
  <path class="cls-1" d="M317.48,1922.73c3.95-11.7,5.02-25.73-3.19-29.46-9.38-4.26-15.01,14.47-19.83,32-4.82,17.53-22.14,22.36-23.89,25.64-1.75,3.29,6.79,0,16-2.85,9.21-2.85,26.96-13.63,30.91-25.34Z"/>
  <path class="cls-1" d="M237.46,1879.22c14.72-10.65,35.69-11.52,30.38-17.69-2.82-3.28-5.42-4.52-10.34-4.87-15.96-1.12-97.1,22.55-114.64,30.44-17.54,7.89-72.67,38.78-68.91,54.13,3.76,15.35,53.87,21.61,93.65,17.23,37.7-4.16,74.56-31.1,112.44-59.51,5.8-1.03,11.37-2.7,14.75-4.84,7.3-4.62,14.46-9.85,9.75-10.35-4.72-.5-10.95.91-10.38-2.49.57-3.4,8.87-5.01,10.38-7.74,5.18-9.35-12.64-31.05-32.49-38.63-19.86-7.58-37.19-6.5-44.05-13.72-6.86-7.22-11.55-13.72-14.8-11.91-2.48,1.37,8.87,13.83,20.48,22.1-20.38-2.82-47.25,1.47-62.32,10.72-20.67,12.69-59.2,22.42-76.42,19.44-17.23-2.99-30.38-7.79-35.71,3.07-5.32,10.86-.94,49.61,19.42,49.49,20.36-.11,22.86-19.83,44.48-30.33,21.61-10.5,58.88-21.15,87.7-26.47,28.82-5.32,47.9-3.4,50.11-6.26.91-1.17.71-2.97-.22-4.96,3.96,3.11,6.87,6.83,9.16,11.94,4.69,10.47,21.3,11.91,20.94,15.52-.36,3.61-10.83,1.32-26.36,10.23-12.38,7.1-19.92,14.91-26.13,19.08-11.18,3.28-20.98,5.69-22.49,4.56-3.76-2.82,6.89-17.54,21.61-28.19Z"/>
  <path class="cls-1" d="M295.78,1973.02c-5.75-7.26-14.68-10.71-28.93-11.36-14.25-.66-16.88,4.38-21.48,4.82-4.6.44-.88-1.75-9.21-1.32-8.33.44-11.4,7.01-18.19,7.86-6.79.84-10.74-3.47-12.93,0-1.18,1.88,1.42,4.09,6.37,5.29h0c-25.73,10.64-69.75,52.53-88.88,61.34-19.13,8.8-43.41,8.8-40.99,20.64,2.43,11.84,22.47,38.25,40.38,31.57,17.91-6.68,35.22-51.61,51.61-72.86,14.75-19.12,52.02-36.48,66.45-41.77,4.86.07,9.12.89,12.97,2.24-13.21.07-63.65,28.2-79.41,55.92-17.61,30.97-49.79,71.49-32.18,84.93,17.61,13.44,58.59-7.51,86.22-37.87,27.63-30.36,53.21-49.23,52.86-58.77,5.25-4.16,17.1-36.82,15.35-40.11-1.75-3.29-21.04,8.55-23.01,4.38-1.97-4.16,26.75-10.22,23.01-14.94ZM262.68,1994.31c-4.82,3.73-1.1,12.06-8.11,19.29-7.01,7.23-12.27,6.36-21.26,15.34-6.07,6.07-7.73,11.52-6.47,14.84-1.89.4-3.33.39-4.13-.19-6.68-4.86-3.95-20.38,2.12-27.95,6.06-7.56,35.13-26.88,31.14-34.98,1.81.8,3.56,1.69,5.22,2.69,8.38,5.04,6.31,7.23,1.49,10.96Z"/>
  <path class="cls-1" d="M512.45,1991.22c-1.05-9.03,1.23-12.07,1.89-13.73,2.38,4.93,6.01,9.54,6.23,22.49.25,14.74,3.69,73.72,12.78,70.77,9.09-2.95-2.21-21.13-1.97-32.68.25-11.55,6.88-30.96,3.93-51.36-2.95-20.4-11.06-26.29-16.46-26.29-6.27,0-7.62,9.09-5.41,14.99-3.75-2.37-13.73,32.65-23.83,52.67-10.1,20.03-34.76,61.53-47.82,74.59-13.06,13.06-35.06,15.67-34.94,34.83.12,19.15,2.73,50.5,15.21,49.05,12.48-1.45,24.26-20.61,32.59-41.79,8.33-21.19,41.42-67.04,49.54-91.13,8.13-24.09,9.85-48.77,8.26-62.4Z"/>
  <path class="cls-1" d="M701.02,2095.12c6.99-7.77,2.54-23.04,15.24-48.76,12.7-25.72,30.17-33.98,53.04-60.02,22.87-26.04,39.36-84.09,33.35-82.89-4.76.95-12.7,18.74-18.74,26.74-6.03,8-18.1,16.45-29.22,30.24-11.12,13.79-50.5,45.92-66.06,52.59-15.56,6.67-22.87,3.49-31.76,10.67-8.89,7.18-8.26,17.28-2.86,39.83,5.4,22.55,40.02,39.38,47,31.61Z"/>
  <path class="cls-1" d="M136.78,2239.01c8.61-10.59,29.08-53.35,27.58-64.49,2.25-6.42,4.49-7.06,6.74-13.82,2.25-6.76-7.02-7.62-6.74-10.57.64-6.74-1.93-7.7-11.23-9.63-9.31-1.93-22.14,7.38-27.28,11.55-3.76,3.05-14.88,11.76-20.46,17.1-11.86-3.27-24.36,12.69-33.91,23.27-9.93,11.01-20.98,26.68-28.6,33.45-7.62,6.78-27.52,7.2-19.48,17.78,8.05,10.59,22.87,14.82,33.03,7.2,10.16-7.62,9.32-23.71,18.63-35.17,7.32-9,29.68-29.44,33.48-40.05,1.02-.19,2.09-.53,3.19-1.12,2-1.06,5.51-2.64,9.43-4.4-8.33,11.63-25.28,30.7-39.8,50.52-17.58,23.99-17.56,64.94-10.37,67.48,7.2,2.54,57.16-38.53,65.77-49.12ZM140.81,2160.25h0c6.82-4.4,14.58-10.38,16.49-8.19,2.25,2.57-4.17,4.17-7.7,8.64-3.53,4.47-4.17,9.65-6.42,18.32-.3,1.17-.64,2.17-.99,3.07-3.72,3.49-7.97,6.65-9.37,4.51-2.65-4.08,7.98-26.34,7.98-26.34Z"/>
  <path class="cls-1" d="M173.08,2211.51c3.36,5.49,7.37,10.28,8.88,8.91,2.83-2.57.7-39.79.06-47.17-.34-3.9,1.64-7.04,2.98-9.21,1.61,2.08,3.44,3.98,5.54,5.56,16.09,12.14,25.2,3.33,26.41-5.77,1.21-9.11,6.18-24.29,13.56-34.31,7.38-10.02,18.31-30.96,24.39-36.58,6.07-5.62,18.52-14.12,23.98-29,5.46-14.88,9.71-28.19,6.07-30.49-4.46-2.82-11.54,19.25-21.55,28.06-10.02,8.8-24.29,19.43-35.22,29.75-10.93,10.32-32.79,30-44.02,33.21-9.06,2.6-9.81,22.47-1.31,36.43-3.26.64-7.88,2.94-9.17,5.28-1.6,2.89-1.6,5.13-1.6,11.55,0,4.07-1.54,9.68-2.76,14.47h0c-9.44,26.82-36.42,69.05-46.1,77.26-9.68,8.21-29.33,11.14-24.05,24.93,5.28,13.78,15.54,18.48,22.58,17.3,7.04-1.17,11.89-7.62,15.04-21.7,3.15-14.08,11.94-41.64,21.91-55.72,5.83-8.23,11.04-16.94,14.38-22.77Z"/>
  <path class="cls-1" d="M352.93,2147.89c-7.54-7.33-21.79-14.67-26.19-11.73-4.4,2.93-13.2,14.67-17.6,13.41-4.4-1.26-7.28-15.14-10.48-19.07-4.61-5.66-14.88-4.82-24.1,4.4-9.22,9.22-9.22,16.97-15.09,23.26-5.87,6.29-16.13,7.33-20.53,11.44-4.4,4.1-9.01,19.36-8.38,21.08.63,1.72,1.26.79,6.5,0,5.24-.79,9.22-12.83,14.04-17.64.17-.17.44-.33.64-.5-1.45,10.59-6.54,22.57-11.44,34.82-5.36,13.4-7.24,32.43-9.79,39.13-2.56,6.7-17.01,20.37-12.99,26.26,4.02,5.9,26.53,5.63,34.84-2.41,8.31-8.04,5.36-36.45,5.09-54.63-.26-17.56,7.22-29.51,10.63-50.57,2.42-.93,4.83-1.88,7.06-2.88-2.42,16.92-12.19,54.25-12.52,73.35-.36,20.77,1.44,62.63,15.16,62.99,13.72.36,30.69-31.77,39.08-48.02,7.88-15.26,10.81-63.97,9.89-96.45,1.37-.13,2.81-.14,4.24.02.61,7.69,1.95,26.46,1.67,41.65-.36,19.59-5.78,49.73-11.55,56.59-5.78,6.86-5.05,18.05-1.44,22.75,3.61,4.69,25.63,27.8,37.19,18.05,11.55-9.75-3.61-24.91-7.94-35.38-3.91-9.45,1.81-62.41-3.87-93.34,9.43,11.47,31.95,34.43,34.09,31.34,2.51-3.64-10.69-17.53-14.67-26.2-3.98-8.68-3.98-14.37-11.52-21.7ZM295.31,2173.66c.78,5.23,1.57,14.37,3.01,20.56-.67.65-1.38,1.23-2.21,1.58-4.41,1.9-7.51,3.51-7.51-18.15,0-10.58,1.42-20.88,2.87-28.67,3.03-3.37,5.43-5.64,7.4-4.02,3.56,2.93-1.26,6.71-3.56,11.31-2.3,4.61-1.26,9.01,0,17.39Z"/>
  <path class="cls-1" d="M241.64,2297.4c.8-5.63-1.6-12.86-10.04-13.13-8.45-.27-8.78-4.29-14.78-3.48-4.14.56,2.31,41.27-6.27,51.72-8.58,10.45,32.69,30.55,41.54,18.76,8.84-11.79,3.22-13.94-2.14-24.39-5.36-10.45-9.11-23.85-8.31-29.48Z"/>
  <path class="cls-1" d="M192.32,2234.1c1.41-1.64.31-8.74,1.76-11.61,4.1,11.28,15.59,41.52,19.96,38.46,4.32-3.02,3.07-16.47-.24-26.07,2,.97,3.7,1.08,4.79-.38,4.34-5.78-3.1-16.78-10.07-22.21-6.97-5.42-10.07-14.41-15.34-16.27-4.98-1.76-4.96,7.28-4.03,17.2.93,9.92.15,10.23-2.02,10.54-1.69.24-7.78-1.57-10.18.18-2.44-.51-4.83-.41-6.86.84-4.79,2.96-9.92,25.99-8.31,43.95,1.61,17.95,15.81,79.32,30.82,76.64,15.01-2.68,18.49-42.88,18.49-60.03,0-16.27-12.04-38.06-18.77-51.24Z"/>
  <path class="cls-1" d="M168.75,2328.14c-7.56-5.56-3.71-13.56-7.27-33.56-1.74-9.79-7.18-25.78-7.18-25.78-3.78-.22-14,24.67-15.11,38.23-1.11,13.56-3.78,60.45,1.78,64.9,5.56,4.45,33.3-8.56,34.98-17.06,1.69-8.5.35-21.17-7.2-26.72Z"/>
  <path class="cls-1" d="M675.46,176.07c-4-6.73-9.26-11.97-10.17-16.15-1.45-6.71-.37-11.49-3.19-13.43-2.82-1.94-11.2,1.77-39.51.32-28.32-1.45-61.19-12.4-83.13-22.03-21.94-9.63-35.18-18.49-41.64-20.4-6.46-1.91-7.05-4.99-9.83-3-2.1,1.5,8.47,7.78,11.05,14.48,2.58,6.71,14.47,21.74,33.01,27.2,18.54,5.46,53.34,11.34,78.96,26.83,25.63,15.49,30.42,19.09,34.91,20.18,6.56,14.8,12.69,10.27,14.97,14.17,2.27,3.9.9,7.56,3.7,6.98,2.8-.58,16.2-7.14,15.52-21.14-.09-1.95-.44-3.8-.93-5.58,3.89,1.68,8.47,3.32,13.22,4.3,12.82,2.64,32.52,8.16,42.85,12.76,10.33,4.6,11.32,10.52,21.31,11.69,9.99,1.17,3.4-4.08,3.67-9.7.27-5.62-3.51-9.33-7.27-11.17-3.76-1.84-15.3-.81-21.77-1.07-6.48-.26-11-.54-21.66-6.69-9.65-5.57-26.18-11.82-34.06-8.52Z"/>
  <path class="cls-1" d="M764.54,434.38c1.63.17,5.18-8.37,5.85-15.44.67-7.07-6.97-10.63-10.44-14.4-3.47-3.77-.05-6.34-3.69-8.84,0,0-2.36-1.07-5.78,1.86-3.42,2.92-3.19,8.36-2.09,10.88,1.11,2.53,1.9,11.39,2.29,14.65.39,3.26,12.22,11.13,13.85,11.3Z"/>
  <path class="cls-1" d="M757.79,244.19c3.49,10.09,18.91,19.28,26.88,21.68,7.98,2.4,15.39,5.18,13.85,2.35-1.54-2.83-16.54-6.88-20.82-22-4.29-15.12-9.28-31.26-17.36-27.52-7.07,3.28-6.04,15.39-2.55,25.48Z"/>
  <path class="cls-1" d="M777.2,219.31c2.94,1.83,7.76,3.23,12.78,4.08,32.93,24.28,64.97,47.31,97.58,50.64,34.41,3.51,77.67-2.25,80.81-15.54,3.14-13.29-44.71-39.6-59.92-46.29-15.21-6.7-85.49-26.59-99.28-25.51-4.24.33-6.48,1.42-8.9,4.28-4.54,5.37,13.58,5.97,26.38,15.07,12.8,9.1,22.1,21.75,18.87,24.21-1.3.99-9.78-1.02-19.47-3.78-5.4-3.57-11.97-10.26-22.72-16.31-13.48-7.59-22.51-5.54-22.85-8.66-.34-3.12,14-4.48,17.99-13.56,1.94-4.43,4.43-7.67,7.83-10.38-.79,1.72-.94,3.28-.15,4.29,1.93,2.46,18.41.66,43.35,5.07,24.94,4.4,57.22,13.35,75.97,22.27,18.75,8.92,21.05,25.95,38.65,25.9,17.59-.05,21.11-33.56,16.44-42.91-4.68-9.35-16.01-5.1-30.88-2.4-14.87,2.7-48.23-5.44-66.18-16.27-13.09-7.89-36.34-11.41-53.93-8.84,9.98-7.22,19.7-18.07,17.55-19.24-2.82-1.54-6.83,4.11-12.71,10.4-5.88,6.29-20.86,5.47-37.97,12.16-17.11,6.69-32.35,25.56-27.81,33.61,1.33,2.36,8.51,3.69,9.02,6.62.51,2.93-4.88,1.75-8.95,2.22-4.07.47,2.16,4.93,8.5,8.88Z"/>
  <path class="cls-1" d="M776.97,296.62c-1.49,2.85,8.97,30.99,13.54,34.56-.23,8.25,22.01,24.38,46.09,50.42,24.08,26.04,59.65,43.86,74.77,32.13,15.12-11.73-12.97-46.53-28.4-73.17-13.82-23.85-57.6-47.81-69.02-47.77,3.31-1.19,6.99-1.92,11.19-2.02,12.5,4.47,44.83,19.21,57.71,35.63,14.32,18.25,29.58,56.96,45.11,62.61,15.53,5.65,32.66-17.32,34.67-27.57,2.02-10.25-18.97-10.08-35.56-17.56-16.59-7.48-54.92-43.38-77.23-52.39h0c4.26-1.07,6.5-3,5.46-4.62-1.92-2.99-5.3.77-11.18.09-5.88-.68-8.58-6.34-15.78-6.66-7.2-.32-3.97,1.55-7.95,1.2-3.98-.35-6.29-4.69-18.6-4.02-12.31.67-20.01,3.71-24.92,10.02-3.19,4.1,21.67,9.14,19.99,12.75-1.68,3.61-18.43-6.48-19.92-3.63ZM806.85,296.19c1.43-.88,2.94-1.65,4.5-2.36-3.39,7.02,21.86,23.52,27.15,30.01,5.3,6.5,7.77,19.89,2.03,24.14-.68.51-1.93.52-3.57.2,1.06-2.88-.41-7.58-5.7-12.78-7.83-7.7-12.37-6.91-18.48-13.11-6.11-6.2-2.95-13.43-7.14-16.61-4.19-3.19-6-5.07,1.21-9.48Z"/>
  <path class="cls-1" d="M97.79,531.59c-.44,9.09-.68,17.74-1,25.89-4.16,106.72-18.35,288.84-8.69,475.3,9.66,186.46,40.58,438.6,111.1,607.67,29.78,71.39,66.05,150.71,108.54,225.95l16.26-13.23c-32.08-54.71-58.51-107.22-76.5-145.57-47.34-100.96-97.57-262.29-115.45-402.86-17.87-140.57-34.3-429.43-25.6-578.69,3.53-60.56,9.26-123.03,11.01-183.92,1.22-42.38-.92-86.8-10.72-126.13-25.77-103.4-66.93-124.17-89.57-172.09-15.85-33.54,23.62-86.83,172.7-114.99,12.6-2.38,25.94,11.78,29.06,17.55,3.14,5.79,3.52,8.51,8.26,10.11,4.74,1.6,28.51-1.86,41.64,4.03,13.13,5.89,17.21,15.85,24.53,22.33,7.32,6.48,20.76,5.28,23.13,6.36,2.37,1.07-6.48,7.5-6.38,19.68.1,12.17,6.61,31.02,9.24,41.36,2.63,10.34,18.72,45.28,21.26,45.26,2.54-.02,3.21-7.29-.11-14.17-3.33-6.88-12.5-17.53-13.74-36.96-1.25-19.43-1.08-43.42,2-44.9,1.34-.64,5.95,3.43,11.76,8.7-1.86,12.03,3.78,19.77,11.03,28.38,7.95,9.44,23.37,35.62,47.7,53.92,24.32,18.3,48.36,35.51,70.91,36.27,22.55.76,23.04-5.76,23.04-5.76,7.93,6.18,23.94,4.97,27.95-3.76,4-8.72-4.15-9.47-6.37-15.16-2.22-5.69,6.3-26.97-14.79-49.06-21.09-22.09-42.38-34.41-58.77-46.5-16.39-12.09-52.4-30.82-60.24-26.14-5.24,3.13,11.35,26.23,23.08,32.94,11.73,6.71,43.08,20.86,36.67,33.4-2.12,4.14-8.24,3.86-15.49,1.65-.14-2.88-3.2-6.66-10.23-10.87-10.77-6.45-10.02-2.65-19.15-9.29-9.14-6.65-13.11-25.52-23.91-35.79-10.8-10.27-24.98-10.34-25.72-12.51-.74-2.17,1.23-4.92,5.38-8.76,2.2-2.04,3.41-2.54,5.02-2.78,3.22,4.3,18.01,6.06,23.7,7.15,6.56,1.26,12.11-1.08,23.92,1.79,11.81,2.87,19.06,7.69,32.23,16.54,13.17,8.85,30.93,17.66,55.13,38.42,24.2,20.77,27.72,40.72,31.36,46.34,3.65,5.63,18.69,2.71,28.79-4.62,10.09-7.33,14.26-18.74,13.89-23.98-.37-5.24-40.77-19.32-69.43-39.4-28.66-20.08-44.18-36-79.04-41.81,5.81-.59,8.5-5.16,6.13-5.68-2.37-.53-6.52,2.41-12-.63-.86-.48-2.18-1.07-3.79-1.72h0s-.01,0-.01,0c-8.61-3.47-26.23-8.73-35.71-9.04-17.81-.58-23.6,3.28-29.38,6.96-5.78,3.68-11.39,7-10.62,12.81.77,5.81,3.87,6.51,1.16,8.89-2.71,2.38-8.99-11.01-17.03-15.85-8.03-4.84-12.36-.26-20.38-2.93-8.02-2.66-18.98-9.84-34.64-14.44-15.66-4.6-32.36-1.92-33.14-8.27-.72-5.89,3.05-8.71,10.66-9.6,64.02-6.5,161.12,14.87,256.93,52.02,7.31,6.42,4.55,14.52,14.01,24.26,9.47,9.75,66.06,41.83,67.22,50.99,1.17,9.16,2.29,13.08,5.15,15.9,2.86,2.82,10.26-.74,12.46,1.65,2.2,2.38,2.65,3.69,1.16,8.07-1.49,4.38.34,14.63,8.91,21.33.16.13.35.26.52.39-.57,1.61-1.1,3.39-1.37,5.21-.86,5.6,18.57,25.18,32.86,54.92,14.28,29.73,58.71,64.49,72.93,54.88,14.22-9.61-5.01-61.94-17.23-83.67-11.68-20.77-52.3-59.19-60.6-59.15,3.36-.84,6.72-1.89,8.91-1.59,4.02,4.52,40.94,33.74,56.94,58.94,16,25.2,21.27,56.76,33.84,59.67,12.56,2.91,29.42-22.31,27.61-27.81-1.81-5.5-17.56-.86-23.58-.81-6.02.05-14.87-8.91-21.25-24.5-6.38-15.59-24.14-37.84-40.95-51.74,3.68-1.1,6.97-5.31-9.03-14.02-16-8.71-23.89-13.32-37.07-15.13-13.18-1.81-17.84-.58-17.62,1.42.5,4.45,3.85,3.58,6.85,7.38,3,3.8,1.96,5.93,6.23,8.45,1.98,1.17,5.05.71,8.21-.04-.01,0-.03,0-.04.02-7.12,5.1,27.63,50.92,18.4,57.01-2.06,1.36-5.25.35-8.98-2.02,1.01-1.74,1.74-4.11,1.72-6.7-.04-5.46-9.12-20.45-16.4-29.78-7.28-9.33-12.21-25.01-14.62-25.43-2.41-.42-4.52,8.55-7.37,7.05-2.85-1.51,2.94-14.43-1.04-20.3-3.98-5.86-9.15-3.2-17.41-8.81-8.25-5.61-17.71-14.49-30.23-23.12-12.52-8.63-29.26-13.63-29.88-22.47-.53-7.56,4.27-6.58,5.67-6.13,44.98,19.33,88.74,41.84,127.61,66.3,35.7,22.46,73.07,55.42,103.41,78.56l-.1-12.31s-42.17-39.66-73.13-62.8c0,0-7.81-8.18-5.06-10.33,2.74-2.15,14.67,2.43,28.32,9.33,13.65,6.9,34.58,22.02,42.29,30.03,7.71,8.01,14.56,15.17,12.46,18.16-2.1,2.99-.66,23.58-.8,32.5-.14,8.92,4.76,11.43,4.28,22.27-.48,10.84,8.57,17.35,14.13,23.25,5.57,5.9,6.64,6.96,7.22-.06.58-7.01-6.66-9.93-9.92-18.52-3.25-8.59.1-39.81-.38-47.72-.49-7.91-5.43-14.76-7.61-22.18-2.18-7.42-.12-15.08-1.21-18.89-1.09-3.81-8.72-1.63-23.22-8.73-14.5-7.1-56.95-30.12-65.67-31.75-8.72-1.63-13.31,8.18-21.05,4.86h0c-14.72-9.13-32.9-19.24-56.21-30.72h0s-7.29-3.56-8.25-6.36c-.96-2.8,3.99-2.09,6.02-4.67,2.04-2.59,3.52-9.54,7.11-10.71,3.59-1.18,7.46,1.09,8.99-.38,1.53-1.47.46-6.26-5.46-7.75-5.92-1.49-12.33.1-19.24,4.27-6.9,4.17-8.82,16.18-20.38,10.84h0c-22.25-10.15-48.18-21.29-78.69-33.61-68.26-27.58-115.83-42.63-152.8-48.6,0,0,0,0,0,0-2.57-3.13-5.01-5.34,9.24-16.39,14.25-11.04,46.68-12.33,56.24-12.4,9.56-.08,24.32,9.71,32.48,5.2,8.16-4.5,18.71-8.69,19.77-4.26,1.06,4.43-6.45,5.17-7.8,6.55-1.35,1.38,9.37,19.05,19,27.16,9.63,8.12,21.68,21.34,29.93,28.44,8.25,7.1,21.23,7,27.39,9,6.16,2,7.59,10.18,10,11.87,2.4,1.69-.43-11.61-4.91-16.01-4.47-4.4-18.81-3.95-30.17-15.12-11.36-11.18-15.55-22.75-18.69-31.11-3.14-8.36-15.13-13.69-11.4-16.79,3.73-3.1,10.94,1.62,21.86,1.53,0,0,57.03,31.59,103.05,39.07,46.02,7.48,126.43,5.43,103.94-38.11-22.49-43.54-92.3-47.74-127.35-50.54-35.05-2.8-78.99,3.96-78.96,8.48.06,7.29,90.69,21.41,77.04,31.33-1.56,1.13-6.1,1.44-12.18,1.28-2.02-1.27-7.74-1.1-15.43-2.84-11.63-2.64-28.43-11.38-43.15-15.93-14.72-4.55-21.83,2.45-25.97-1.95-3.54-3.77,22.85-16.28,39.5-23.73.01,0,46.49-3.54,74.8-2.36,28.31,1.17,54.14,7.13,78.61,17.58,24.46,10.45,30.79-3.89,36.86-16.55,6.06-12.66,4.45-38.99-7.35-42.54-11.8-3.55-13.4,6.27-22.33,10.83-8.93,4.56-8.65,4.27-31.64,3.06-22.99-1.22-79.62-4.4-102.55,10.16-2.75-2.03-9.17,5.54-19.41,6.98-10.23,1.45-30.36,3.66-42.27,8.53-11.91,4.88-24.15,11.12-17.14,34.28-16.46-8.75-40.36-8.55-57.66,5.93-36.22-3.46-63.71,17.24-82.36,36.75h0c-13.93-1.55-25.39-2-34.65-1.92-23.66.19-83.48-7.66-145.13,9.52C59.39,148.49-27.58,203.57,8.3,258.45c41.25,63.08,96.98,118.2,89.49,273.14Z"/>
  <path class="cls-1" d="M597.36,358.6c7.19,20.76,36.1,60.16,43.44,78.41,7.35,18.25,17.66,34.72,28.45,35.89,10.79,1.17,12.83-25.94,12.8-42.49-.03-16.55-19.06-18.66-30.44-29.85-11.38-11.2-32.98-46.89-41.85-64.12-8.86-17.23-17.73-47.43-20.96-45.35,1.87-5.11.64-12.96-4.78-12.92-4.67.04-11.64,5.19-14.05,22.84-2.41,17.65,3.46,34.38,3.75,44.36.29,9.98-9.35,25.77-1.47,28.26,7.88,2.49,10.44-48.51,10.55-61.25.1-11.2,3.2-15.21,5.22-19.48.58,1.43,2.58,4.04,1.73,11.85-1.28,11.79.38,33.1,7.57,53.86Z"/>
  <path class="cls-1" d="M414.03,353.8c11.16,22.14,7.42,35.37,13.51,42.03,6.09,6.66,35.89-8.12,40.4-27.65,4.51-19.52,4.99-28.26-2.75-34.4-7.73-6.14-14.02-3.34-27.52-9-13.49-5.66-47.75-33.15-57.45-44.99-9.7-11.84-20.19-19.05-25.46-25.93-5.27-6.87-12.25-22.19-16.38-22.98-5.21-1,9.45,49.05,29.39,71.4,19.94,22.35,35.09,29.36,46.25,51.5Z"/>
  <path class="cls-1" d="M942.78,455.68c-4.86-4.58-14.53-12.02-17.8-14.63-4.47-3.57-15.62-11.52-23.65-9.79-8.03,1.73-10.24,2.58-9.64,8.4.26,2.54-7.74,3.35-5.75,9.18,1.99,5.83,3.93,6.37,5.92,11.9-1.21,9.63,16.77,46.45,24.29,55.53,7.51,9.09,50.98,44.24,57.18,41.99,6.2-2.25,5.93-37.63-9.43-58.24-12.69-17.02-27.46-33.38-34.74-43.38,3.4,1.5,6.45,2.83,8.18,3.74.95.5,1.88.79,2.76.94,3.35,9.14,22.82,26.65,29.21,34.38,8.13,9.83,7.51,23.74,16.34,30.26,8.84,6.52,21.61,2.75,28.49-6.45,6.88-9.2-10.32-9.43-16.96-15.23-6.63-5.8-16.29-19.26-24.95-28.71-8.32-9.08-19.23-22.78-29.46-19.88ZM919.2,470.93c-1.19,1.86-4.88-.84-8.13-3.83-.31-.78-.61-1.64-.88-2.64-2-7.47-2.59-11.95-5.67-15.78-3.08-3.84-8.64-5.18-6.72-7.41,1.64-1.91,8.39,3.21,14.31,6.96h0s9.35,19.16,7.08,22.71Z"/>
  <path class="cls-1" d="M929.64,578.96c6.09.96,14.93-3.16,19.39-15.11,4.47-11.95-12.53-14.35-20.95-21.37-8.42-7.03-32.03-43.33-40.37-66.44h0c-1.08-4.13-2.46-8.97-2.49-12.49-.04-5.55-.06-7.49-1.47-9.97-1.14-2.01-5.14-3.96-7.96-4.5,7.25-12.12,6.46-29.29-1.39-31.47-9.73-2.7-28.76-19.55-38.27-28.4-9.52-8.84-21.92-17.93-30.64-25.47-8.72-7.54-14.99-26.56-18.82-24.1-3.13,2.01.63,13.49,5.46,26.3,4.83,12.82,15.64,20.08,20.93,24.89,5.29,4.81,14.88,22.84,21.33,31.44,6.45,8.61,10.85,21.69,11.96,29.55,1.11,7.86,9.04,15.41,22.87,4.81,1.8-1.38,3.38-3.03,4.75-4.84,1.17,1.86,2.9,4.56,2.64,7.94-.5,6.38-2.09,38.57.38,40.77,1.32,1.18,4.75-3,7.61-7.76,2.93,5.02,7.49,12.51,12.59,19.58,8.71,12.1,16.51,35.86,19.32,48,2.82,12.14,7.05,17.68,13.15,18.65Z"/>
  <path class="cls-1" d="M816.48,544.12c7.23,6.89,26.69,6.97,30.12,1.84,3.43-5.12-9.15-16.83-11.41-22.6-2.25-5.77-4.01-22.2-8.73-33.74-4.32-10.56-8.8-20.87-10.13-30.01.18.14.41.28.55.43,4.2,4.13,7.72,14.5,12.25,15.15,4.53.65,5.08,1.45,5.61-.05.53-1.49-3.56-14.65-7.39-18.16-3.83-3.52-12.71-4.35-17.82-9.74-5.11-5.39-5.17-12.09-13.2-19.99-8.03-7.9-16.91-8.56-20.85-3.64-2.74,3.42-5.13,15.43-8.92,16.55-3.79,1.12-11.48-8.96-15.3-11.47-3.82-2.5-16.08,3.93-22.55,10.32-6.47,6.39-6.43,11.31-9.81,18.84-3.38,7.53-14.69,19.62-12.49,22.75,1.87,2.66,21.17-17.34,29.24-27.32-4.69,26.77.62,72.5-2.7,80.69-3.67,9.08-16.67,22.29-6.62,30.63,10.05,8.34,28.92-11.78,32.01-15.86,3.09-4.08,3.63-13.76-1.41-19.65-5.04-5.89-9.93-31.89-10.38-48.82-.35-13.13.68-29.36,1.15-36.01,1.24-.15,2.48-.15,3.66-.05-.57,28.08,2.3,70.15,9.22,83.28,7.36,13.98,22.25,41.63,34.1,41.22,11.85-.41,13.12-36.59,12.67-54.54-.42-16.5-9.12-48.7-11.33-63.3,1.94.85,4.03,1.65,6.12,2.44,3.09,18.18,9.64,28.45,9.53,43.63-.11,15.72-2.46,40.29,4.78,47.18ZM778.15,480.02c-.71-.3-1.34-.79-1.92-1.35,1.21-5.36,1.82-13.26,2.46-17.78,1.03-7.25,1.9-11.06-.12-15.03-2.02-3.97-6.21-7.19-3.16-9.75,1.68-1.41,3.78.53,6.42,3.42,1.31,6.72,2.6,15.61,2.67,24.76.15,18.72-2.54,17.35-6.36,15.74Z"/>
  <path class="cls-1" d="M853.04,597.56c-7.48-8.97-2.19-44.2-5.77-44.65-5.19-.65-5.45,2.82-12.74,3.11-7.3.29-9.32,6.56-8.59,11.42.73,4.86-2.42,16.46-6.97,25.53-4.56,9.07-9.41,10.96-1.68,21.09,7.72,10.13,43.25-7.53,35.77-16.5Z"/>
  <path class="cls-1" d="M868.65,608.55c12.99,2.21,24.84-50.92,26.1-66.45,1.27-15.53-3.32-35.4-7.48-37.92-1.76-1.07-3.83-1.14-5.93-.68-2.09-1.49-7.34.12-8.8-.08-1.88-.25-2.55-.52-1.81-9.09.74-8.58.69-16.39-3.6-14.84-4.54,1.64-7.16,9.43-13.15,14.17-5.99,4.74-12.34,14.3-8.55,19.26.96,1.25,2.42,1.15,4.14.3-2.79,8.32-3.78,19.95-.03,22.53,3.8,2.61,13.52-23.6,16.98-33.38,1.27,2.47.37,8.61,1.6,10.02-5.73,11.44-15.98,30.35-15.87,44.41.12,14.82,3.41,49.53,16.4,51.75Z"/>
  <path class="cls-1" d="M913.45,631.14c4.77-3.88,2.14-44.38,1.09-56.09-1.05-11.71-10.06-33.15-13.32-32.93,0,0-4.59,13.86-6.02,22.33-2.93,17.31.44,24.2-6.05,29.05-6.49,4.85-7.56,15.81-6.04,23.14,1.52,7.33,25.58,18.38,30.35,14.5Z"/>
</svg>