<?xml version="1.0" encoding="UTF-8"?>
<svg id="Layer_1" data-name="Layer 1" xmlns="http://www.w3.org/2000/svg" viewBox="0 0 320 123.51">
  <defs>
    <style>
      .cls-1 {
        fill: #FFF5E9;
      }
    </style>
  </defs>
  <g>
    <g>
      <g>
        <path class="cls-1" d="M78.8,28.3c.24.06.47.41.53.65.06.3.06,1.07.06,1.72-.12.89-.24,1.24-.71,1.66-.47.53-.77.59-2.43.71-1.72.06-1.95.18-2.55.71-.36.36-1.66,1.89-2.84,3.43-1.18,1.54-2.6,3.55-3.2,4.38l-2.19,3.14c-.65.89-1.78,2.55-2.49,3.73-.71,1.18-2.01,3.02-2.84,4.08-.89,1.01-2.01,2.66-2.55,3.67-.53.95-1.18,2.01-1.54,2.31-.36.3-1.3.71-2.07.95-.77.3-1.6.65-1.78.89-.24.18-.47.71-.59,1.18-.12.41-.24,1.07-.24,1.36s.12.89.36,1.24c.18.35.59,1.07.95,1.54.36.47.83,1.07,1.12,1.24s1.24.47,2.07.71c.89.24,2.37.77,3.31,1.24l1.78.95h3.79c3.43,0,3.85-.06,4.79-.47.53-.24,1.54-.95,2.19-1.6.65-.59,1.3-1.36,1.48-1.66.24-.47.3-1.01.18-2.01-.12-1.07-.06-1.48.24-2.07.24-.41.59-.89.89-1.01.35-.18,1.07-.24,1.78-.18,1.12.06,1.3.12,1.95.83s.71.83.71,2.07c0,1.01-.12,1.42-.41,1.89-.3.36-.77.59-1.66.77l-1.72.3c-.24.06-1.07.71-1.89,1.54-.71.77-1.78,1.66-2.31,1.95s-1.54.71-2.31.83c-.83.24-2.37.35-3.85.35-1.36,0-2.96-.12-3.55-.24-.65-.12-1.84-.59-2.72-1.01-.89-.47-2.37-1.01-3.2-1.24-.89-.18-1.95-.59-2.31-.83-.41-.24-1.12-1.07-1.66-1.83-.89-1.3-1.01-1.42-1.78-1.48-.47-.06-1.01.06-1.3.24-.3.18-.71.71-.89,1.18-.24.41-.77,1.07-1.18,1.42-.41.36-1.07.71-1.42.77l-2.72.18c-1.24.06-2.49.3-3.37.53-.83.3-2.13.53-3.49.59-1.36.06-2.37,0-2.9-.18-.41-.12-1.12-.53-1.48-.89-.41-.3-.95-.95-1.18-1.42-.18-.41-.65-.95-.95-1.18-.24-.24-.95-.47-1.48-.53-.59-.06-1.3-.24-1.6-.36-.3-.12-.65-.41-.77-.71-.18-.3-.3-.95-.3-1.42,0-.53.18-1.24.36-1.48.24-.3.71-.71,1.07-.89.41-.12,1.42-.24,2.31-.24,1.24,0,1.89-.18,3.2-.65,1.12-.47,2.07-.71,3.31-.77,1.3-.06,2.31,0,3.97.3l3.73.65c.83.18,1.89.35,2.31.53.41.18,1.3.95,2.01,1.66,1.18,1.24,1.42,1.36,1.95,1.24.35-.06.77-.3.95-.53.18-.18.41-.77.47-1.3.06-.47.36-1.24.59-1.6.3-.41.83-.89,1.24-1.07.35-.18,1.3-.59,1.95-.83,1.24-.47,1.3-.47,2.25-2.31.53-.95,1.66-2.6,2.55-3.67.83-1.01,2.31-3.08,3.2-4.5.89-1.42,2.01-3.14,2.55-3.79l2.07-2.96c.65-1.01,2.07-2.96,3.2-4.38l2.72-3.49c.53-.65.77-1.12.89-2.07.06-.59.18-1.3.36-1.54.06-.18.47-.53.77-.71.35-.18,1.12-.41,1.78-.47.59-.12,1.3-.12,1.6-.06s.71.18.89.3ZM32.98,60.56l-1.54.65c-.35.18-.83.53-.95.83-.12.24-.24,1.12-.24,1.89-.06,1.3.06,1.6.65,2.49.36.59.95,1.24,1.36,1.48.53.3,1.07.41,2.37.41,1.18,0,2.25-.24,3.67-.59,1.36-.41,2.72-.59,4.26-.71,1.3-.06,2.37-.24,2.66-.41.24-.12.65-.65.89-1.12.24-.41.41-1.01.41-1.24,0-.18-.41-.89-.95-1.42-.53-.59-1.3-1.12-1.66-1.24-.36-.12-1.36-.3-2.25-.41l-2.96-.53c-.71-.18-2.13-.3-3.14-.3s-2.19.12-2.6.24ZM73.95,19c.53.12,2.25.53,3.91.77,1.6.3,3.61.77,4.38,1.07.83.3,1.95.83,2.49,1.18.53.35,1.36,1.01,1.83,1.54.47.47,1.12,1.42,1.48,2.13l1.18,2.9c.53,1.6.65,1.78,1.72,2.54.59.47,1.18,1.01,1.3,1.24.12.24.24.89.24,1.48,0,.95-.06,1.12-.83,1.83-.41.41-1.07.95-1.42,1.12-.47.24-.89.77-1.54,2.01-.53,1.12-1.18,1.95-1.89,2.55-.59.53-1.83,1.36-2.78,1.78-.95.47-2.19,1.01-2.78,1.18l-2.31.65c-1.07.3-1.3.47-1.89,1.3-.36.53-.89,1.18-1.18,1.42-.41.41-.71.53-1.66.53s-1.24-.12-1.72-.65c-.53-.53-.65-.77-.65-1.78,0-.65.18-1.48.36-1.89.18-.41.59-.83.95-1.01.3-.18.77-.3,1.07-.3s1.01.24,1.66.53c.95.41,1.36.47,2.43.41.71-.06,1.72-.24,2.31-.47.59-.18,1.84-.71,2.84-1.18,1.12-.53,2.13-1.18,2.72-1.84.53-.53,1.18-1.42,1.36-1.95.35-.89.35-1.18.18-2.19-.18-.65-.24-1.48-.24-1.89s.18-1.12.41-1.6c.24-.53.41-1.24.41-1.6s-.24-1.3-.53-2.13c-.24-.77-.71-1.84-.95-2.37-.3-.53-.71-1.24-1.01-1.6-.3-.36-1.07-1.07-1.78-1.54-.71-.41-1.89-1.01-2.66-1.24s-2.6-.59-4.03-.83c-1.89-.3-3.08-.41-4.2-.3l-4.97.41c-1.84.18-4.08.53-4.91.77-.89.18-2.55.77-3.79,1.3s-2.84,1.3-3.61,1.72c-.71.35-1.95,1.24-2.84,1.89-.77.71-1.84,1.6-2.19,2.13-.36.41-.95,1.3-1.18,1.83-.3.59-.59,1.3-.65,1.66-.06.35-.06,1.12.12,1.78.18,1.01.18,1.42-.12,2.78-.36,1.36-.36,1.78-.12,3.55.12,1.12.41,2.37.59,2.72.24.41.65.95.95,1.18.36.24,1.01.41,1.78.47.71.06,1.66,0,2.07-.12.53-.18,1.12-.41,1.42-.65.36-.3,1.18-1.78,2.07-3.49.83-1.72,1.72-3.61,1.89-4.2.24-.65.41-1.54.41-2.01s-.18-1.3-.41-1.95c-.24-.59-.41-1.3-.41-1.6s.06-.71.18-.95c.12-.18.53-.53.89-.71.3-.18,1.12-.3,1.72-.3.65,0,1.42.06,1.72.18.3.12.65.41.83.71.24.3.41,1.01.41,1.48,0,.53-.12,1.18-.3,1.48-.18.3-.83.83-1.48,1.12-.65.36-1.24.71-1.42.89-.12.18-.41.95-.65,1.72-.3.77-1.12,2.78-1.95,4.44-.83,1.66-1.78,3.31-2.13,3.79-.36.36-1.07.89-1.54,1.07-.41.18-1.3.41-1.89.47-.53.12-1.54.06-2.19-.06-.65-.12-1.48-.47-1.89-.71-.47-.3-1.01-.95-1.24-1.42s-.59-1.72-.71-2.72c-.24-1.01-.47-2.01-.59-2.19-.18-.18-.77-.53-1.42-.83-.71-.3-1.24-.71-1.42-1.12-.18-.3-.3-.95-.3-1.36s.18-1.07.41-1.42c.24-.41.83-.89,1.72-1.24,1.24-.59,1.3-.65,2.19-2.49.47-1.01,1.3-2.37,1.78-2.9.53-.59,1.66-1.6,2.49-2.25.89-.71,2.78-1.84,4.26-2.55,1.42-.71,3.31-1.54,4.14-1.84.83-.3,2.19-.71,3.02-.89.89-.18,2.6-.41,3.97-.53,1.66-.12,2.6-.36,3.43-.71.65-.3,1.3-.53,1.48-.53s.77.12,1.24.35Z"/>
        <path class="cls-1" d="M64.83,71.58c-1.43,0-3.02-.12-3.6-.24-.71-.13-1.94-.63-2.78-1.03-.91-.49-2.39-1.01-3.16-1.23-.88-.17-1.99-.6-2.38-.86-.46-.26-1.2-1.15-1.72-1.9-.9-1.32-.95-1.32-1.59-1.37-.46-.06-.92.06-1.16.2-.24.14-.62.62-.78,1.06-.28.49-.83,1.16-1.25,1.52-.46.39-1.15.76-1.54.83l-2.75.18c-1.49.07-2.82.39-3.33.52-.88.32-2.21.54-3.55.6-1.42.06-2.42,0-2.99-.19-.47-.13-1.21-.58-1.58-.95-.4-.28-.97-.96-1.23-1.48-.16-.36-.58-.87-.88-1.1-.18-.18-.8-.42-1.35-.48-.6-.06-1.33-.24-1.66-.37-.34-.13-.76-.47-.91-.85-.2-.32-.31-1.03-.31-1.51,0-.58.19-1.34.41-1.63.26-.32.76-.76,1.16-.96.46-.13,1.48-.26,2.42-.26,1.17,0,1.78-.15,3.11-.64,1.18-.5,2.16-.73,3.39-.78,1.4-.06,2.42.01,4.02.3l3.73.65c.23.05.47.1.7.14.69.14,1.33.26,1.66.41.49.21,1.43,1.05,2.09,1.71,1.17,1.23,1.33,1.26,1.72,1.18.33-.06.67-.27.8-.44.15-.15.37-.67.43-1.18.06-.49.36-1.3.63-1.71.34-.48.91-.97,1.35-1.16.34-.17,1.29-.59,1.97-.83,1.2-.46,1.22-.47,2.11-2.19.52-.93,1.65-2.61,2.57-3.72.84-1.02,2.33-3.11,3.18-4.47.83-1.33,2-3.13,2.56-3.81l2.06-2.95c.67-1.04,2.11-3.01,3.21-4.39l2.72-3.49c.49-.59.72-1.01.84-1.95.06-.57.17-1.31.38-1.63.13-.29.64-.67.86-.8.41-.21,1.22-.45,1.88-.51.59-.12,1.33-.12,1.67-.06.07.01.64.13.94.31.35.12.6.55.67.82.07.33.07,1.1.07,1.78-.13.97-.26,1.38-.79,1.85-.53.6-.94.65-2.57.77-1.69.06-1.86.16-2.4.65-.33.33-1.63,1.86-2.81,3.4-1.04,1.35-2.28,3.1-2.95,4.03l-.24.34-2.19,3.13c-.67.92-1.78,2.55-2.48,3.71-.72,1.19-2.02,3.03-2.86,4.11-.93,1.05-2.03,2.7-2.52,3.63-.51.9-1.2,2.05-1.6,2.38-.41.34-1.42.76-2.16.99-1.37.53-1.61.75-1.65.8l-.05.05c-.14.11-.37.53-.5,1.04-.12.43-.23,1.04-.23,1.3s.11.8.31,1.1c.18.35.58,1.06.94,1.53.62.82.91,1.1,1.05,1.18.22.13.96.38,2.01.68.88.24,2.38.77,3.36,1.26l1.73.92h3.73c3.44,0,3.79-.06,4.69-.45.48-.21,1.47-.9,2.11-1.55.65-.59,1.28-1.34,1.44-1.61.21-.42.25-.93.14-1.85-.12-1.09-.06-1.56.26-2.21.17-.29.58-.95,1.02-1.13.44-.22,1.27-.25,1.89-.19,1.14.06,1.41.13,2.12.91.71.77.78.96.78,2.24,0,.99-.11,1.48-.45,2.03-.37.44-.9.7-1.82.88l-1.72.3c-.13.04-.87.58-1.76,1.47-.7.76-1.78,1.67-2.36,2-.49.27-1.53.72-2.39.86-.76.22-2.26.36-3.89.36ZM49.37,64.44c.1,0,.19,0,.28.02.89.07,1.06.29,1.95,1.59.57.82,1.23,1.56,1.58,1.76.32.21,1.33.62,2.23.8.81.23,2.33.77,3.26,1.27.87.4,2.03.87,2.65.98.55.11,2.13.23,3.51.23,1.58,0,3.03-.13,3.78-.34.74-.12,1.7-.5,2.26-.81.47-.26,1.51-1.11,2.25-1.9.72-.72,1.66-1.52,2.02-1.61l1.74-.3c.79-.16,1.24-.36,1.51-.68.24-.39.36-.74.36-1.73,0-1.2-.05-1.25-.64-1.9-.59-.65-.7-.69-1.78-.75-.69-.06-1.35,0-1.65.15-.21.08-.52.46-.78.91-.25.51-.32.86-.21,1.92.12,1.03.07,1.62-.2,2.15-.21.35-.89,1.14-1.54,1.73-.69.69-1.72,1.4-2.26,1.64-1.01.44-1.52.5-4.9.5l-3.91-.03-1.78-.95c-.94-.47-2.4-.99-3.26-1.22-.79-.23-1.8-.54-2.14-.74-.27-.16-.65-.57-1.2-1.31-.38-.5-.79-1.22-.97-1.58-.26-.38-.38-1.03-.38-1.35s.13-1.01.25-1.43c.11-.44.35-1.04.66-1.29.14-.16.5-.42,1.86-.94.81-.25,1.7-.65,2-.91.26-.22.8-1.04,1.48-2.24.5-.95,1.64-2.65,2.58-3.71.82-1.06,2.11-2.87,2.81-4.05.7-1.17,1.82-2.83,2.5-3.75l2.43-3.48c.67-.94,1.91-2.69,2.96-4.05,1.21-1.58,2.51-3.1,2.86-3.46.66-.59.96-.72,2.71-.78,1.64-.12,1.85-.18,2.25-.63.42-.37.53-.64.65-1.52,0-.59,0-1.36-.06-1.63-.04-.17-.23-.43-.35-.46l-.08-.03c-.12-.08-.46-.19-.8-.26-.25-.05-.92-.06-1.5.06-.62.06-1.37.28-1.71.45-.29.17-.61.47-.65.57l-.04.07c-.09.13-.23.61-.31,1.42-.13,1.05-.42,1.57-.94,2.21l-2.72,3.49c-1.09,1.38-2.52,3.33-3.18,4.36l-2.08,2.97c-.56.68-1.71,2.46-2.54,3.78-.88,1.4-2.35,3.47-3.21,4.52-.91,1.09-2.01,2.73-2.52,3.63-.95,1.84-1.07,1.92-2.32,2.4l-.06.02c-.65.24-1.59.65-1.93.82-.37.16-.87.59-1.15.99-.2.3-.49,1.03-.55,1.48-.06.55-.31,1.21-.54,1.45-.2.26-.67.53-1.08.6-.69.16-1.03-.11-2.17-1.32-.78-.78-1.6-1.46-1.93-1.6-.28-.12-.93-.25-1.56-.38-.24-.05-.48-.1-.7-.14l-3.72-.65c-1.57-.28-2.56-.36-3.91-.29-1.17.06-2.08.27-3.23.75-1.29.47-1.98.67-3.29.67-.86,0-1.86.12-2.24.23-.28.14-.73.54-.94.8-.12.16-.3.79-.3,1.32,0,.46.12,1.06.26,1.29.1.25.38.5.65.61.25.1.94.28,1.53.34.56.06,1.34.31,1.63.61.27.21.79.78,1,1.26.22.44.73,1.05,1.1,1.32.37.37,1.05.75,1.4.85.36.12,1.13.24,2.82.17,1.26-.05,2.57-.28,3.42-.58.54-.14,1.92-.47,3.45-.55l2.72-.18c.29-.05.89-.38,1.27-.71.38-.33.9-.95,1.13-1.36.17-.47.62-1.06.98-1.27.3-.18.75-.29,1.18-.29ZM34.64,68.56c-1.28,0-1.88-.11-2.49-.45-.45-.26-1.07-.93-1.46-1.57-.61-.92-.75-1.27-.69-2.63,0-.7.11-1.68.26-1.99.16-.4.76-.79,1.06-.94l1.58-.67c.47-.13,1.69-.25,2.67-.25s2.44.11,3.2.3l2.94.53c.81.11,1.88.29,2.28.42.4.13,1.21.69,1.76,1.31.52.51,1.01,1.29,1.01,1.59,0,.31-.21.95-.45,1.37-.23.46-.68,1.07-.99,1.22-.39.23-1.67.39-2.76.44-1.32.1-2.75.26-4.2.7-1.42.35-2.51.6-3.74.6ZM33.07,60.79l-1.52.65c-.36.18-.74.5-.81.69-.09.19-.22,1.01-.22,1.8-.06,1.24.04,1.49.61,2.35.34.57.91,1.19,1.28,1.4.45.25.93.38,2.24.38,1.18,0,2.24-.24,3.61-.58,1.48-.45,2.95-.61,4.3-.72,1.44-.07,2.36-.26,2.56-.38.16-.08.54-.52.79-1.02.23-.4.39-.95.39-1.13-.02-.13-.38-.75-.87-1.24-.53-.59-1.26-1.08-1.56-1.18-.31-.1-1.26-.28-2.2-.4l-2.97-.54c-.65-.16-2.03-.29-3.09-.29-.98,0-2.13.12-2.52.22ZM74.18,48.5c-1,0-1.38-.14-1.9-.74-.57-.57-.71-.86-.71-1.94,0-.7.19-1.56.38-1.99.19-.45.63-.91,1.07-1.13.34-.21.87-.32,1.18-.32.37,0,1.15.28,1.76.56.89.39,1.25.45,2.31.39.68-.06,1.67-.23,2.23-.46.63-.19,1.9-.74,2.83-1.18,1.16-.55,2.1-1.18,2.64-1.78.5-.5,1.14-1.37,1.31-1.87.34-.86.34-1.1.17-2.07-.19-.69-.24-1.57-.24-1.94,0-.46.19-1.22.44-1.71.23-.52.39-1.19.39-1.49s-.21-1.18-.52-2.05c-.23-.75-.69-1.78-.93-2.33-.42-.76-.76-1.3-.98-1.56-.27-.32-1.02-1.02-1.72-1.49-.74-.43-1.88-.99-2.6-1.21-.76-.23-2.6-.59-3.99-.82-1.81-.28-3-.42-4.14-.29l-4.98.41c-1.81.17-4.04.52-4.87.76-.92.19-2.58.79-3.76,1.29-1.28.55-2.86,1.31-3.59,1.71-.79.4-2.31,1.51-2.81,1.88-.16.15-.36.33-.56.51-.62.55-1.31,1.18-1.57,1.56-.36.43-.94,1.29-1.16,1.8-.33.65-.58,1.3-.63,1.6-.05.32-.05,1.05.11,1.67.19,1.05.19,1.49-.12,2.9-.34,1.31-.35,1.67-.11,3.47.12,1.17.42,2.34.57,2.64.23.4.62.9.88,1.1.31.2.93.37,1.64.42.73.06,1.63,0,1.99-.11.63-.21,1.11-.43,1.33-.61.16-.13.63-.75,2.01-3.41,1.08-2.25,1.74-3.69,1.88-4.16.22-.62.4-1.48.4-1.94s-.17-1.24-.4-1.87c-.24-.6-.43-1.34-.43-1.68s.06-.78.21-1.06c.16-.24.61-.63,1-.82.37-.22,1.29-.32,1.83-.32.61,0,1.45.05,1.81.2.36.14.75.48.95.81.26.33.45,1.1.45,1.61s-.11,1.25-.33,1.61c-.22.37-.95.93-1.59,1.22-.83.45-1.24.73-1.35.84-.05.09-.33.78-.59,1.61-.25.66-1.09,2.72-1.97,4.48-.79,1.58-1.76,3.3-2.15,3.83-.42.42-1.15.96-1.65,1.15-.42.18-1.33.42-1.96.49-.54.12-1.58.06-2.26-.06-.65-.12-1.5-.47-1.97-.74-.55-.34-1.1-1.04-1.34-1.53-.25-.5-.61-1.77-.73-2.81-.19-.8-.46-1.92-.55-2.08-.11-.11-.67-.45-1.32-.74-.78-.32-1.34-.78-1.55-1.25-.19-.31-.32-1.01-.32-1.46,0-.48.21-1.18.46-1.56.28-.49.95-.99,1.83-1.34,1.17-.56,1.19-.57,2.06-2.36.49-1.04,1.33-2.42,1.81-2.96.58-.64,1.73-1.66,2.52-2.28.89-.71,2.78-1.84,4.31-2.57,1.46-.73,3.37-1.56,4.17-1.85.85-.3,2.22-.72,3.05-.9.95-.19,2.7-.43,4-.54,1.49-.11,2.46-.31,3.36-.69.45-.2,1.29-.55,1.58-.55.21,0,.82.12,1.33.37l.22.05c.71.16,2.19.5,3.63.71,1.55.29,3.63.77,4.44,1.08.86.31,2,.85,2.54,1.21.57.38,1.4,1.03,1.88,1.58.47.47,1.14,1.44,1.52,2.18l1.19,2.92c.52,1.57.61,1.7,1.63,2.44.36.29,1.21.99,1.38,1.33.15.3.26,1,.26,1.59,0,1.04-.11,1.28-.91,2.02-.41.41-1.08.97-1.48,1.17-.42.21-.82.74-1.43,1.91-.51,1.08-1.17,1.97-1.96,2.62-.59.53-1.84,1.38-2.84,1.81-.98.49-2.22,1.02-2.81,1.19l-2.31.65c-.99.28-1.19.41-1.76,1.21-.34.51-.9,1.2-1.23,1.47-.46.46-.84.59-1.81.59ZM74.18,42.87c-.24,0-.68.1-.94.26-.34.17-.7.55-.85.89-.16.38-.33,1.17-.33,1.79,0,.94.09,1.12.58,1.6.41.46.62.58,1.54.58s1.12-.1,1.48-.46c.28-.22.8-.85,1.15-1.38.64-.9.93-1.1,2.04-1.4l2.31-.65c.55-.17,1.78-.69,2.74-1.17.93-.41,2.16-1.23,2.73-1.74.73-.61,1.35-1.44,1.84-2.47.67-1.29,1.12-1.86,1.65-2.13.3-.15.92-.65,1.35-1.08.73-.67.76-.79.76-1.66,0-.61-.12-1.2-.21-1.37-.07-.14-.49-.56-1.24-1.16-1.1-.79-1.25-1.02-1.8-2.66l-1.18-2.89c-.34-.68-.98-1.61-1.42-2.05-.45-.5-1.24-1.14-1.8-1.51-.5-.34-1.62-.87-2.43-1.16-.78-.3-2.82-.77-4.34-1.06-1.45-.21-2.95-.55-3.67-.71l-.31-.08c-.43-.22-.99-.33-1.13-.33-.11,0-.67.19-1.38.51-.96.41-1.97.62-3.52.73-1.28.11-3.01.34-3.93.53-.81.17-2.15.58-2.98.88-.78.28-2.66,1.1-4.12,1.82-1.5.72-3.35,1.82-4.22,2.52-.86.68-1.96,1.67-2.46,2.22-.45.51-1.26,1.84-1.74,2.84-.91,1.88-1,1.98-2.31,2.61-.78.31-1.38.74-1.61,1.14-.21.31-.38.91-.38,1.3,0,.42.12,1,.26,1.23.16.37.66.75,1.3,1.02.66.3,1.29.67,1.5.88.16.23.32.88.66,2.3.12.99.46,2.22.69,2.68.21.42.71,1.04,1.15,1.32.37.21,1.17.56,1.81.68.62.12,1.6.17,2.09.06.59-.06,1.46-.29,1.85-.46.43-.16,1.11-.66,1.46-1.01.31-.42,1.24-2.03,2.08-3.72.87-1.74,1.7-3.78,1.94-4.42.21-.68.52-1.53.68-1.77.26-.26.96-.67,1.51-.97.65-.29,1.25-.81,1.39-1.03.14-.24.26-.84.26-1.35,0-.45-.17-1.09-.36-1.33-.16-.27-.47-.53-.73-.63-.23-.09-.93-.16-1.62-.16-.6,0-1.36.12-1.59.26-.34.17-.72.5-.81.63-.07.15-.14.51-.14.81,0,.24.16.92.4,1.5.25.69.43,1.55.43,2.05s-.19,1.43-.43,2.1c-.15.49-.79,1.92-1.9,4.23-1.63,3.15-2.01,3.47-2.14,3.58-.35.28-1.01.53-1.5.7-.46.13-1.45.19-2.17.13-.8-.06-1.5-.25-1.89-.51-.37-.29-.8-.87-1.03-1.27-.2-.4-.5-1.65-.62-2.82-.23-1.75-.25-2.22.12-3.64.29-1.34.28-1.73.11-2.68-.17-.62-.19-1.43-.12-1.86.07-.43.41-1.2.67-1.73.24-.55.84-1.45,1.22-1.89.27-.41.96-1.03,1.63-1.63.2-.18.4-.36.58-.52.9-.66,2.16-1.57,2.9-1.93.73-.4,2.33-1.17,3.62-1.72,1.2-.51,2.9-1.13,3.84-1.32.83-.24,3.1-.6,4.94-.77l4.98-.41c1.18-.12,2.41,0,4.26.3,1.46.24,3.27.59,4.06.84.76.23,1.94.81,2.72,1.27.72.48,1.51,1.2,1.84,1.59.24.29.59.84,1.03,1.64.27.6.73,1.64.97,2.42.26.73.54,1.76.54,2.21,0,.4-.19,1.15-.44,1.7-.21.43-.39,1.11-.39,1.5,0,.34.05,1.17.23,1.83.19,1.06.19,1.4-.19,2.35-.19.58-.87,1.49-1.42,2.04-.58.63-1.57,1.3-2.79,1.88-.94.44-2.24,1.01-2.88,1.2-.61.25-1.66.42-2.36.48-1.13.06-1.59-.01-2.55-.43-.7-.32-1.34-.51-1.56-.51Z"/>
      </g>
      <path class="cls-1" d="M86.1,63.01v-12.94c0-1.92-.27-2.61-1.42-2.61-.31,0-.65.08-1.08.12v-.38l4.3-1.04h.5v16.9c0,1.8.58,1.8,2.5,2.15v.38h-7.3v-.38c1.92-.35,2.5-.42,2.5-2.19Z"/>
      <path class="cls-1" d="M95.05,62.75v-12.67c0-1.92-.27-2.61-1.42-2.61-.31,0-.65.08-1.08.12v-.38l4.3-1.04h.5v5.22h.04c.65-2.34,2.27-5.8,5.11-5.8,1.84,0,2.88,1.5,3.38,2.42l-2.53,5.99h-.19c.42-1.42.73-2.65.73-3.92,0-1.73-.81-2.88-2.04-2.88-2.34,0-3.96,4.3-4.49,7.68v7.87c0,1.8.58,2.11,2.57,2.46v.38h-7.37v-.38c1.92-.35,2.5-.73,2.5-2.46Z"/>
      <path class="cls-1" d="M107.49,60.98c0-5.91,8.1-7.26,11.33-7.87v-1.31c0-3.69-1.77-5.3-4.22-5.3-2.69,0-4.8,1.92-4.8,4.88,0,.65.12,1.46.35,2.23h-.23l-2-4.99c1.11-1.27,3.19-3.03,7.22-3.03s5.99,1.77,5.99,5.76v10.68c0,1.54.23,2.07,1.27,2.07.38,0,.77-.08,1.19-.12v.38l-4.42,1.23h-.35v-4.57c-.42,1.34-2.5,4.99-6.41,4.99-2.88,0-4.92-2-4.92-5.03ZM113.29,64.63c2.73,0,4.76-2.84,5.53-4.68v-6.18c-2.19.54-8.83,1.73-8.83,6.84,0,2.15,1.04,4.03,3.3,4.03Z"/>
      <path class="cls-1" d="M127.5,60.59v-13.48h-2.92v-.5c3.38-.35,4.49-1.69,4.68-7.18h.54v6.72h5.07v.96h-5.07v13.29c0,3.11.81,4.42,2.61,4.42,1.11,0,2.77-.58,3.73-3.38h.23c-.85,3.11-2.69,4.57-4.95,4.57-2.46,0-3.92-1.61-3.92-5.41Z"/>
      <path class="cls-1" d="M138.36,60.98c0-5.91,8.1-7.26,11.33-7.87v-1.31c0-3.69-1.77-5.3-4.22-5.3-2.69,0-4.8,1.92-4.8,4.88,0,.65.12,1.46.35,2.23h-.23l-2-4.99c1.11-1.27,3.19-3.03,7.22-3.03s5.99,1.77,5.99,5.76v10.68c0,1.54.23,2.07,1.27,2.07.38,0,.77-.08,1.19-.12v.38l-4.42,1.23h-.35v-4.57c-.42,1.34-2.5,4.99-6.41,4.99-2.88,0-4.92-2-4.92-5.03ZM144.16,64.63c2.73,0,4.76-2.84,5.53-4.68v-6.18c-2.19.54-8.83,1.73-8.83,6.84,0,2.15,1.04,4.03,3.3,4.03Z"/>
    </g>
    <g>
      <path class="cls-1" d="M221.39,87.89c2.92,0,5.61-1.92,7.07-5.72h.23c-1.23,4.03-4.11,7.18-8.49,7.18-5.57,0-8.79-4.92-8.79-10.06,0-5.72,4.07-10.37,8.95-10.37,4.07,0,7.18,3.15,7.18,8.29v.73h-14.09v.04c0,5.49,3.46,9.91,7.95,9.91ZM225.08,76.91c0-3.92-1.8-6.72-5.15-6.72-3.69,0-6.07,2.88-6.45,6.72h11.6Z"/>
      <path class="cls-1" d="M232.61,86.09v-12.67c0-1.92-.27-2.61-1.42-2.61-.31,0-.65.08-1.08.12v-.38l4.3-1.04h.5v5.22h.04c.65-2.34,2.27-5.8,5.11-5.8,1.84,0,2.88,1.5,3.38,2.42l-2.53,5.99h-.19c.42-1.42.73-2.65.73-3.92,0-1.73-.81-2.88-2.04-2.88-2.34,0-3.96,4.3-4.49,7.68v7.87c0,1.8.58,2.11,2.57,2.46v.38h-7.37v-.38c1.92-.35,2.5-.73,2.5-2.46Z"/>
      <path class="cls-1" d="M254.57,87.89c2.92,0,5.61-1.92,7.07-5.72h.23c-1.23,4.03-4.11,7.18-8.49,7.18-5.57,0-8.79-4.92-8.79-10.06,0-5.72,4.07-10.37,8.95-10.37,4.07,0,7.18,3.15,7.18,8.29v.73h-14.09v.04c0,5.49,3.46,9.91,7.95,9.91ZM258.26,76.91c0-3.92-1.8-6.72-5.15-6.72-3.69,0-6.07,2.88-6.45,6.72h11.6Z"/>
      <path class="cls-1" d="M265.78,86.35v-12.94c0-1.92-.27-2.61-1.42-2.61-.31,0-.65.08-1.08.12v-.38l4.3-1.04h.5v16.9c0,1.8.58,1.8,2.5,2.15v.38h-7.3v-.38c1.92-.35,2.5-.42,2.5-2.19ZM266.63,61.32c1.11,0,1.88.84,1.88,1.92s-.77,1.88-1.88,1.88-1.88-.81-1.88-1.88.77-1.92,1.88-1.92Z"/>
      <path class="cls-1" d="M273.19,84.32c0-5.91,8.1-7.26,11.33-7.87v-1.31c0-3.69-1.77-5.3-4.22-5.3-2.69,0-4.8,1.92-4.8,4.88,0,.65.12,1.46.35,2.23h-.23l-2-4.99c1.11-1.27,3.19-3.03,7.22-3.03s5.99,1.77,5.99,5.76v10.68c0,1.54.23,2.07,1.27,2.07.38,0,.77-.08,1.19-.12v.38l-4.42,1.23h-.35v-4.57c-.42,1.34-2.5,4.99-6.41,4.99-2.88,0-4.92-2-4.92-5.03ZM278.99,87.97c2.73,0,4.76-2.84,5.53-4.68v-6.18c-2.19.54-8.83,1.73-8.83,6.84,0,2.15,1.04,4.03,3.3,4.03Z"/>
      <g>
        <path class="cls-1" d="M211.47,49.94c.72.12,1.29.35,1.93.86.58.4,1.17.97,1.36,1.34.24.31.63,1.17.9,1.86.33.8.56,1.72.62,2.65.08,1.2.05,1.59-.38,2.45-.29.62-.79,1.26-1.26,1.63l-1.62,1.27c-.47.36-1.08,1.12-1.47,1.81-.34.68-.89,1.49-1.14,1.78-.36.35-.99.78-1.74,1.05-.7.27-1.4.48-1.62.49s-.59.21-.9.5c-.42.36-1.66.66-1.55,1.43.03.49.26,1.47.53,2.16.32.69.46,1.84.67,2.54.21.65.39,1.73.43,2.34.04.66-.05,1.71-.11,2.37-.17.67-.19,2.05-.45,3.06-.68,2.14-.04,2.7-1.4,3.73-1.26.91-1.32.75-2.05,2.23-.43.96-1.13,2-1.69,2.59-.51.53-1.66,1.43-2.45,1.98-.84.55-2.22,1.36-3.13,1.75-.85.39-2.4,1.04-3.48,1.39-1.78.56-2.16.64-6.54.94-4.27.29-4.82.27-6.33,0-.95-.16-2.17-.4-2.79-.58-.67-.17-1.47-.56-1.87-.86-.4-.25-.88-.76-1.12-1.13-.25-.37-.63-1.22-.95-1.86-.27-.7-.82-1.48-1.17-1.85-.35-.31-.81-.55-1.08-.53s-.96.45-1.63,1.05c-.62.54-1.49,1.53-1.95,2.11-.4.63-1.05,1.61-1.33,2.29-.29.62-.6,1.69-.72,2.36s-.19,1.99-.13,2.92.25,2.07.39,2.5c.19.43.45.9.68,1.05.18.15,1.01.32,1.89.31,1.11.09,1.66.16,1.95.42.23.2.49.68.57,1.12.14.49.07,1.04-.11,1.6-.18.56-.48.97-.8,1.15-.32.19-1.02.34-1.62.39-.55.04-1.27-.02-1.55-.11-.28-.15-.75-.5-.99-.81-.42-.47-.55-.84-.63-1.94-.05-.71-.23-1.69-.42-2.17-.2-.54-.44-1.57-.6-2.38-.11-.87-.15-2.19-.1-3.07.11-.83.35-2.11.58-2.79s.76-1.81,1.2-2.5c.39-.69,1.41-1.97,2.28-2.85,1.44-1.53,1.49-1.59,1.43-2.41-.03-.49-.38-1.57-.77-2.42-.46-1.07-.74-1.98-.79-2.64-.04-.6.06-1.49.19-1.99.08-.5.41-1.18.72-1.59.25-.35.93-.89,1.46-1.2.79-.49,1-.73,1.67-2.15.53-1.14,1.07-2,1.74-2.65.56-.59,1.77-1.44,2.78-2,.95-.56,2.49-1.32,3.41-1.66.86-.33,2.26-.76,3.12-.98.92-.17,2.29-.32,3.72-.36,1.21-.03,2.7.09,3.26.22.61.12,1.46.45,1.87.75.46.35,1.18,1.24,1.8,2.24.87,1.48,1.05,1.69,1.55,1.71.33-.02,1.3-.31,2.31-.76.9-.45,2.35-.99,3.21-1.26s1.61-.6,1.76-.78c.09-.23.23-.62.32-.96.04-.28-.1-1.53-.35-2.67l-.58-3.7c-.19-1.2-.17-1.75.06-2.37.13-.5.39-1.57.54-2.51.16-.89.57-2.18.85-2.81.29-.62.94-1.55,1.4-2.07.56-.64,1.35-1.25,2.3-1.7.8-.44,1.97-.9,2.62-1.06l1.69-.28c.33-.02.99-.01,1.6.06ZM180.37,69.83l-2.89,1.13c-.85.39-2.12,1.13-2.86,1.62-.79.49-1.62,1.27-1.92,1.67-.31.35-.74,1.21-1.03,1.78-.43.91-.47,1.19-.31,2.72.09,1.26.03,1.98-.19,2.87-.17.67-.28,1.5-.26,1.89.04.55.17.87.57,1.17.52.4.63.4,1.56.22.6-.1,1.4-.37,1.83-.56.42-.25,1.36-.97,2.03-1.62.67-.65,1.5-1.37,1.82-1.55l2.72-1.29c1.39-.59,2.66-1.39,3.91-2.3,1-.73,2.26-1.58,2.74-1.78.53-.26,1.39-.53,1.88-.68.54-.15,1.13-.41,1.39-.53.26-.24.41-.47.38-.91-.02-.33-.3-1.13-.67-1.77-.32-.64-.81-1.37-1.05-1.69-.24-.26-.81-.6-1.32-.79-.84-.27-1.4-.34-3.92-.17-2.47.11-3.23.22-4.42.58ZM199.28,72.11c-.81.22-2.04.74-2.9,1.08-.85.44-1.59.93-1.74,1.16-.25.4-.22.79-.07,2.2.2,1.36.19,1.97-.06,3.19-.17.78-.26,1.89-.22,2.44.04.66-.03,1.1-.29,1.45-.2.23-.62.54-.94.67-.32.08-.98.12-1.42.1-.55-.07-1.07-.31-1.53-.67-.46-.35-.71-.72-.74-1.1-.02-.27.06-.72.21-.95.2-.23.68-.49,1.38-.7.65-.15,1.35-.42,1.55-.6.26-.18.57-.59.71-.93.14-.34.2-1.17.15-1.77-.06-.93-.14-1.2-.55-1.56-.46-.3-.69-.39-1.17-.25-.38.08-1.29.42-2.1.69-1.02.34-2.02.96-3.54,2.06-1.36.97-2.79,1.84-3.96,2.36-1.02.4-2.13.97-2.56,1.22-.43.19-1.26.91-1.93,1.56-.67.65-1.5,1.37-1.98,1.62-.42.25-1.45.54-2.32.71-1.14.24-1.57.38-1.82.67-.15.23-.28.68-.26,1.01s.34.91.7,1.38c.3.42.92,1.37,1.24,2.11s.77,1.6,1.01,1.91c.24.31.76.72,1.22.91.45.19,1.63.49,2.57.65.89.21,2.61.37,3.77.46,1.49,0,2.8-.08,4.98-.34,1.63-.22,3.64-.63,4.45-.91.86-.22,2.2-.75,2.95-1.14.85-.39,2.18-1.14,3.07-1.69.84-.55,1.94-1.4,2.35-1.87.46-.47,1.16-1.56,1.59-2.53.72-1.59.76-1.81.66-3.23-.06-.88-.05-2.36,0-3.35s.25-2.77.45-3.94c.14-1.16.27-2.44.25-2.77-.03-.38-.17-.87-.35-1.13-.19-.32-.53-.57-.76-.61-.28-.04-.5-.08-.61-.07l-1.45.48ZM208,51.5c-.43.08-1.29.42-1.88.73-.53.31-1.42.98-1.87,1.56-.46.53-1.16,1.56-1.44,2.24-.47,1.13-.51,1.46-.42,2.78.06.82.27,2.4.47,3.6.19,1.14.49,2.28.61,2.54.07.27.42.58.71.78.23.2.63.4.86.44.17.1.99-.07,1.74-.23.76-.22,1.67-.55,2.04-.74.43-.19.83-.72,1.22-1.4.29-.57.89-1.44,1.25-1.9.41-.47,1.08-1.06,1.56-1.37.42-.3,1.04-.84,1.35-1.19.36-.41.64-1.09.78-1.48.12-.61.09-1.16-.14-2.03-.16-.7-.5-1.67-.81-2.25-.26-.53-.69-1.22-1.04-1.52-.3-.31-.81-.66-1.21-.74-.34-.14-1.17-.2-1.82-.1-.6.04-1.47.16-1.96.3Z"/>
        <path class="cls-1" d="M166.43,108.85c-.49,0-1.01-.05-1.27-.14-.36-.18-.85-.55-1.11-.9-.46-.51-.6-.94-.68-2.07-.05-.73-.23-1.67-.41-2.09-.23-.61-.48-1.78-.62-2.42-.11-.86-.16-2.21-.1-3.14.11-.88.36-2.16.59-2.85.23-.67.76-1.83,1.23-2.56.41-.71,1.45-2.01,2.31-2.89q1.41-1.5,1.36-2.22c-.03-.45-.37-1.49-.75-2.33-.49-1.14-.76-2.06-.81-2.73-.04-.64.07-1.56.2-2.07.08-.53.44-1.25.76-1.68.29-.4,1-.95,1.53-1.27.73-.45.91-.65,1.57-2.04.56-1.21,1.13-2.08,1.8-2.72.62-.65,1.89-1.52,2.83-2.04.89-.53,2.47-1.32,3.44-1.68.85-.33,2.27-.76,3.15-.99,1.04-.19,2.44-.33,3.77-.37,1.26-.03,2.76.1,3.32.22.6.12,1.5.45,1.96.8.51.39,1.24,1.29,1.87,2.31.86,1.46.99,1.58,1.34,1.59.26-.02,1.19-.29,2.2-.74.97-.48,2.47-1.02,3.24-1.27.91-.29,1.49-.57,1.63-.68.09-.22.21-.58.29-.88.02-.18-.09-1.35-.35-2.56l-.58-3.71c-.2-1.24-.18-1.82.07-2.5.08-.3.36-1.44.53-2.46.17-.95.59-2.25.87-2.87.3-.65.97-1.59,1.44-2.13.62-.71,1.44-1.31,2.39-1.76.76-.42,1.97-.91,2.67-1.08l1.7-.28c.37-.02,1.05-.02,1.67.05h.01c.8.13,1.39.39,2.04.91.51.36,1.19.96,1.42,1.42.24.31.64,1.2.91,1.89.35.86.58,1.81.64,2.73.09,1.25.05,1.68-.41,2.58-.3.64-.82,1.32-1.33,1.71l-1.62,1.26c-.43.33-1.02,1.06-1.41,1.73-.35.71-.92,1.53-1.17,1.82-.46.46-1.15.87-1.85,1.12-.62.24-1.4.49-1.68.51-.13,0-.45.15-.74.43-.15.13-.36.24-.58.36-.54.28-.94.52-.89.85.03.46.25,1.4.52,2.11.21.44.33,1.05.46,1.64.07.34.14.66.22.92.21.66.4,1.77.44,2.39.05.67-.04,1.7-.11,2.41-.08.32-.13.77-.18,1.24-.06.6-.13,1.28-.28,1.86-.25.78-.32,1.34-.37,1.79-.1.82-.17,1.36-1.12,2.08-.22.16-.41.29-.56.4-.73.5-.84.58-1.41,1.74-.42.94-1.12,2.01-1.74,2.65-.52.54-1.68,1.45-2.49,2.01-.91.6-2.29,1.4-3.17,1.78-.98.45-2.5,1.07-3.5,1.4-1.8.57-2.2.65-6.6.95-4.32.29-4.88.27-6.39-.01-.91-.15-2.17-.4-2.81-.59-.65-.17-1.49-.56-1.95-.9-.42-.26-.92-.8-1.18-1.19-.19-.28-.45-.82-.7-1.33-.09-.19-.18-.38-.27-.55-.26-.66-.77-1.42-1.12-1.78-.33-.29-.7-.47-.89-.46-.17.01-.78.36-1.49.98-.64.55-1.51,1.57-1.92,2.08l-.19.3c-.39.61-.88,1.38-1.11,1.93-.3.64-.59,1.7-.7,2.31-.11.63-.19,1.93-.13,2.86.07.95.25,2.05.38,2.44.32.7.51.88.57.92.14.11.84.27,1.72.27h.04c1.18.09,1.77.17,2.12.48.28.25.56.78.65,1.26.14.47.1,1.04-.12,1.73-.19.59-.52,1.06-.91,1.29-.4.23-1.18.38-1.73.42-.12,0-.24.01-.37.01ZM185.6,68.14c-.12,0-.24,0-.35,0-1.3.04-2.68.17-3.67.36-.85.22-2.24.64-3.08.97-.85.31-2.36,1.05-3.37,1.64-1.04.58-2.21,1.42-2.72,1.96-.62.6-1.16,1.42-1.7,2.58-.67,1.42-.91,1.72-1.76,2.25-.54.32-1.17.83-1.39,1.13-.27.37-.6,1.01-.67,1.48-.13.49-.23,1.35-.19,1.94.04.6.31,1.49.77,2.56.41.91.75,1.99.79,2.5.06.93-.05,1.06-1.5,2.6-.84.85-1.85,2.11-2.25,2.8-.46.7-.97,1.82-1.19,2.46-.22.64-.46,1.9-.57,2.74-.05.89,0,2.19.1,3.01.12.61.37,1.75.59,2.32.22.54.39,1.56.44,2.24.07,1.07.21,1.39.56,1.79.22.29.65.62.92.76.2.06.89.12,1.42.09.58-.04,1.25-.19,1.51-.35.28-.17.54-.54.69-1.02.19-.58.22-1.07.11-1.46-.08-.43-.32-.85-.5-1-.23-.2-.74-.27-1.81-.36h-.04c-.77,0-1.72-.14-1.99-.37-.2-.13-.45-.5-.74-1.14-.17-.51-.35-1.68-.41-2.59-.07-.97.02-2.32.13-2.98.11-.64.43-1.75.74-2.42.24-.58.74-1.37,1.14-2l.2-.32c.45-.57,1.33-1.59,2-2.17.6-.53,1.39-1.08,1.78-1.11.41-.04.93.3,1.26.59.4.4.96,1.21,1.24,1.94.08.15.17.34.26.54.24.5.49,1.02.66,1.27.23.35.68.84,1.05,1.06.38.28,1.15.66,1.8.83.63.18,1.87.43,2.77.58,1.48.28,1.98.3,6.27,0,4.34-.3,4.73-.38,6.48-.93.99-.32,2.48-.94,3.45-1.38.86-.37,2.2-1.15,3.09-1.73.77-.54,1.91-1.44,2.41-1.95.57-.6,1.25-1.63,1.64-2.52.61-1.25.78-1.39,1.58-1.94.16-.11.34-.23.55-.39.77-.58.82-.97.92-1.74.06-.47.13-1.06.39-1.86.13-.52.2-1.19.27-1.77.05-.51.1-.95.18-1.27.03-.37.15-1.59.11-2.29-.04-.59-.22-1.65-.42-2.28-.08-.28-.15-.61-.23-.96-.12-.56-.24-1.14-.43-1.55-.27-.71-.52-1.71-.55-2.25-.1-.7.63-1.07,1.16-1.35.2-.1.38-.2.48-.28.33-.31.75-.54,1.05-.56.17-.01.83-.21,1.54-.48.75-.27,1.35-.69,1.66-1,.23-.26.77-1.06,1.1-1.72.43-.75,1.06-1.52,1.54-1.89l1.62-1.26c.45-.34.93-.96,1.19-1.53.42-.81.44-1.17.36-2.33-.06-.87-.27-1.76-.6-2.57-.3-.79-.67-1.55-.86-1.81-.19-.36-.74-.89-1.3-1.28-.59-.47-1.12-.7-1.82-.82-.58-.06-1.23-.08-1.55-.05l-1.66.28c-.65.16-1.8.62-2.54,1.03-.9.42-1.67.99-2.24,1.64-.44.5-1.08,1.42-1.36,2.02-.26.58-.67,1.85-.83,2.75-.17,1.04-.46,2.2-.55,2.53-.23.61-.24,1.13-.05,2.27l.58,3.7c.22,1.05.39,2.39.35,2.74-.1.39-.24.79-.34,1.02l-.04.07c-.29.33-1.61.77-1.87.85-.91.29-2.33.83-3.18,1.25-1.03.46-2.03.76-2.41.79-.69-.03-.94-.4-1.78-1.83-.59-.95-1.29-1.83-1.74-2.17-.36-.26-1.15-.58-1.76-.71-.49-.11-1.74-.22-2.85-.22ZM181.91,95.45c-.07,0-.13,0-.2,0-1.03-.08-2.87-.24-3.83-.46-.91-.15-2.11-.45-2.61-.66-.47-.2-1.04-.62-1.32-.99-.28-.36-.74-1.28-1.04-1.96-.31-.71-.9-1.62-1.22-2.07-.32-.42-.72-1.07-.75-1.51-.03-.39.13-.9.3-1.16.33-.38.8-.53,1.98-.78.94-.18,1.88-.47,2.24-.68.41-.21,1.16-.83,1.93-1.58.66-.64,1.53-1.4,2-1.61.43-.25,1.57-.83,2.57-1.22,1.09-.48,2.48-1.31,3.91-2.33,1.45-1.04,2.5-1.72,3.61-2.09l.66-.23c.6-.21,1.17-.41,1.46-.47.59-.17.91,0,1.36.29.53.46.6.84.66,1.75.04.62-.01,1.49-.17,1.88-.17.4-.5.83-.79,1.04-.25.22-1.04.5-1.64.64-.6.18-1.07.42-1.25.62-.09.15-.16.54-.15.77.02.31.24.62.64.92.46.35.93.55,1.41.62.4.02,1.03-.02,1.33-.09.24-.1.63-.38.81-.59.19-.27.27-.66.23-1.27-.04-.6.06-1.73.22-2.5.24-1.2.25-1.78.05-3.1-.16-1.46-.19-1.9.1-2.37.21-.33,1.12-.88,1.83-1.25.23-.09.45-.18.69-.27.76-.3,1.62-.65,2.25-.82l1.45-.48c.17-.02.31,0,.5.03l.22.03c.33.06.73.37.94.73.19.27.36.79.39,1.24.03.42-.17,2.11-.25,2.81-.21,1.24-.41,2.99-.44,3.92-.04.95-.05,2.44,0,3.33.1,1.48.05,1.73-.68,3.35-.43.97-1.13,2.09-1.64,2.6-.42.48-1.55,1.35-2.39,1.9-.87.54-2.21,1.31-3.11,1.71-.71.36-2.06.91-2.99,1.15-.81.28-2.83.69-4.48.91-2.11.25-3.4.34-4.82.34ZM192.06,76.06c-.09,0-.19.02-.32.06-.28.06-.83.25-1.42.46l-.67.23c-1.05.35-2.07,1.01-3.48,2.02-1.45,1.04-2.88,1.88-4.01,2.38-.99.39-2.09.95-2.53,1.21-.36.16-1.11.77-1.88,1.53-.64.62-1.51,1.38-2.04,1.66-.46.27-1.56.57-2.39.73-1.12.24-1.49.37-1.68.59-.1.16-.22.55-.2.83.02.25.3.79.65,1.25.34.47.95,1.42,1.27,2.17.33.76.76,1.58.98,1.86.2.26.68.65,1.11.83.41.17,1.55.47,2.52.63.94.23,2.75.38,3.75.46,1.45,0,2.75-.08,4.93-.34,1.59-.22,3.61-.63,4.4-.9.88-.23,2.21-.76,2.92-1.12.88-.4,2.2-1.15,3.06-1.68.79-.52,1.89-1.36,2.29-1.82.47-.48,1.14-1.56,1.55-2.47.7-1.55.73-1.72.64-3.12-.06-.91-.05-2.42,0-3.38.04-.94.24-2.72.45-3.97.17-1.41.27-2.45.25-2.71-.02-.35-.16-.79-.31-1-.17-.28-.46-.48-.59-.51l-.21-.03c-.14-.02-.26-.03-.34-.04l-1.4.48c-.6.16-1.46.5-2.21.81-.24.09-.46.18-.67.26-.95.5-1.53.93-1.62,1.07-.2.32-.18.62-.03,2.04.2,1.37.19,2.01-.06,3.27-.17.81-.25,1.88-.21,2.37.05.74-.05,1.22-.33,1.61-.25.29-.71.61-1.05.75-.38.09-1.07.14-1.53.12-.59-.08-1.14-.32-1.67-.72-.52-.4-.8-.83-.83-1.29-.02-.32.07-.82.25-1.1.34-.39,1.01-.65,1.52-.8.68-.16,1.31-.42,1.46-.55.24-.17.51-.53.64-.83.11-.27.18-1.05.14-1.66-.06-.9-.13-1.09-.46-1.39-.27-.17-.43-.26-.62-.26ZM172.24,85.26c-.32,0-.54-.11-.91-.39-.51-.38-.63-.8-.67-1.35-.03-.42.09-1.29.26-1.97.22-.9.26-1.61.18-2.79-.16-1.56-.12-1.88.33-2.84.32-.63.75-1.46,1.07-1.83.32-.43,1.17-1.22,1.98-1.72.75-.5,2.02-1.24,2.89-1.64l2.92-1.14c1.23-.37,2.03-.47,4.48-.59,2.46-.17,3.1-.11,4.01.18.55.2,1.16.57,1.43.86.27.35.77,1.1,1.09,1.75.38.65.67,1.49.7,1.86.04.57-.2.87-.46,1.11l-.06.04c-.13.06-.79.38-1.44.55-.57.17-1.36.43-1.84.66-.47.19-1.72,1.04-2.7,1.76-1.5,1.08-2.72,1.8-3.96,2.33l-2.71,1.28c-.27.16-1.08.85-1.75,1.51-.67.65-1.63,1.4-2.08,1.66-.49.22-1.31.5-1.92.6-.37.07-.63.12-.84.12ZM180.45,70.06l-2.88,1.13c-.8.37-2.06,1.1-2.81,1.6-.8.5-1.59,1.26-1.86,1.61-.29.34-.72,1.17-1,1.72-.41.85-.45,1.07-.29,2.59.08,1.25.04,1.99-.2,2.96-.18.71-.27,1.49-.25,1.81.04.5.15.74.48.99.44.34.47.34,1.36.18.55-.09,1.33-.35,1.77-.55.4-.24,1.32-.95,1.96-1.58.63-.62,1.5-1.38,1.87-1.59l2.74-1.3c1.22-.52,2.41-1.22,3.88-2.28.96-.7,2.26-1.59,2.79-1.81.49-.24,1.3-.51,1.9-.69.56-.15,1.15-.42,1.32-.5.2-.19.29-.35.27-.68-.02-.27-.27-1.04-.64-1.66-.32-.63-.79-1.35-1.03-1.66-.2-.21-.75-.54-1.21-.71-.79-.25-1.29-.33-3.81-.16-2.4.11-3.17.21-4.35.56ZM205.22,66.44c-.12,0-.2-.01-.26-.04-.28-.06-.7-.27-.94-.49-.24-.16-.69-.52-.79-.9-.13-.26-.43-1.44-.62-2.57-.19-1.21-.41-2.8-.47-3.62-.09-1.33-.07-1.69.43-2.89.29-.7,1-1.76,1.48-2.31.49-.63,1.45-1.32,1.93-1.61.61-.33,1.48-.67,1.94-.76.5-.14,1.38-.26,2-.3.66-.1,1.54-.05,1.93.11.41.08.97.47,1.29.8.37.32.83,1.05,1.08,1.59.31.57.66,1.55.83,2.31.23.9.27,1.48.14,2.13-.12.34-.41,1.11-.84,1.6-.33.37-.98.93-1.39,1.23-.46.3-1.12.88-1.51,1.33-.31.41-.92,1.28-1.21,1.85-.48.84-.91,1.32-1.34,1.52-.39.2-1.33.54-2.07.76-.87.19-1.34.27-1.63.27ZM210.67,51.4c-.23,0-.46.01-.67.05-.62.04-1.46.16-1.93.29h-.02c-.41.08-1.25.42-1.8.71-.48.28-1.36.94-1.79,1.49-.46.52-1.14,1.54-1.41,2.19-.46,1.11-.48,1.4-.4,2.67.05.81.27,2.38.46,3.58.19,1.14.48,2.24.59,2.47.06.2.31.45.63.68.22.19.58.37.76.4l.08.03c.17.04,1.19-.17,1.57-.26.77-.22,1.65-.55,1.98-.72.34-.16.71-.58,1.12-1.3.3-.59.92-1.48,1.26-1.93.44-.5,1.13-1.11,1.62-1.43.38-.28.99-.8,1.3-1.15.38-.43.66-1.18.73-1.4.11-.54.07-1.06-.14-1.88-.16-.72-.5-1.66-.79-2.2-.25-.52-.66-1.18-.98-1.46-.28-.29-.75-.61-1.09-.69-.21-.08-.62-.14-1.06-.14Z"/>
      </g>
    </g>
    <g>
      <path class="cls-1" d="M165.9,76.24c-.42-.11-1-.29-1.31-.42-.34-.16-.89-.47-1.23-.68-.37-.24-1-.74-1.42-1.13-.58-.55-.84-.74-1.05-.76-.16-.03-.39-.03-.55,0-.26.05-.37.18-.84.79-.32.39-.74.84-.95,1-.18.16-.71.45-1.1.66-.42.21-.95.42-1.21.5-.34.11-.71.13-1.63.13-1.08,0-1.23-.03-1.81-.21-.32-.11-.81-.32-1.08-.5-.32-.18-.55-.42-.74-.71l-.5-.76c-.16-.29-.26-.34-.74-.53-.37-.13-.6-.26-.74-.42-.08-.13-.24-.42-.29-.63-.11-.26-.13-.53-.11-.84,0-.29.11-.63.24-.89.11-.26.32-.55.45-.68.13-.13.39-.29.58-.34.21-.08.45-.21.53-.29.08-.08.24-.29.32-.47.08-.16.34-.53.58-.79.21-.29.55-.63.74-.79l.95-.63c.34-.21.81-.47,1.05-.58.26-.13.71-.32,1.02-.39.32-.08.68-.21.79-.26.11-.05.24-.21.29-.32.05-.11.05-.32,0-.58-.05-.24-.26-.79-.47-1.23l-.42-.81v-.84c-.03-.79-.03-.84.13-1.08.13-.18.32-.32.68-.45.45-.18.5-.24.76-.68.13-.26.32-.55.39-.66.08-.13.32-.34.53-.47.21-.16.55-.34.76-.42.24-.08.63-.18.89-.24.29-.05.76-.11,1.1-.11s.74.03.92.08c.16.03.42.16.58.26s.42.39.6.66c.24.37.34.47.58.53.16.05.45.08.63.13.18.03.42.13.55.24.18.16.24.26.26.58.03.21,0,.5-.05.63-.05.16-.18.34-.32.45s-.42.21-.68.26c-.26.05-.55.16-.63.24-.11.08-.32.37-.47.66-.16.29-.39.6-.55.74-.16.13-.58.45-.97.66-.37.24-.84.5-1.08.6-.21.11-.66.29-1.02.37l-.76.24c-.08.03-.18.13-.24.24s-.13.32-.16.42c-.03.13.03.53.11.95.11.39.24.84.32.95l.39.66c.16.26.34.66.39.97.08.29.21.66.32.81.11.16.26.34.37.39.16.08.29.08.68.03.26-.05.71-.08.95-.08.37,0,.5-.05.66-.18.11-.08.34-.47.5-.84.18-.39.6-1.13,1.02-1.73.6-.87.89-1.21,1.76-2.02.79-.74,1.18-1.05,1.52-1.21.37-.21.55-.24,1.21-.26.42,0,.89.03,1.08.05.16.05.45.18.63.32.16.13.39.39.53.6.11.18.26.45.34.53.11.16.29.21.63.26.26.05.6.16.74.24.13.11.29.29.37.42s.13.42.13.6c0,.21-.03.42-.08.5-.03.08-.16.18-.29.26-.11.05-.39.13-.63.18-.24.05-.58.18-.74.29-.18.11-.5.42-.68.71-.18.26-.45.55-.58.6-.16.08-.24.08-.39,0-.11-.05-.26-.18-.34-.29s-.16-.32-.16-.5c0-.16.03-.32.05-.37.03-.05.29-.21.58-.34.42-.21.55-.34.66-.58.11-.16.21-.58.26-.89.08-.58.08-.6-.13-1.02-.11-.24-.29-.53-.39-.66-.13-.11-.32-.26-.45-.32-.16-.11-.42-.13-.95-.13-.68,0-.76.03-1.16.21-.26.13-.84.6-1.37,1.1-.79.71-1.08,1.02-1.73,1.94-.47.68-.87,1.34-1,1.68-.11.29-.34.71-.47.92-.21.29-.34.63-.53,1.31-.16.63-.21,1-.18,1.13.05.13.32.45.68.81.34.32.92.76,1.26,1,.37.24.87.53,1.13.63.26.13.76.29,1.1.39.45.08.89.13,1.55.13s1.08-.05,1.52-.13c.34-.08.79-.24,1.02-.34.24-.08.58-.32.76-.47.21-.18.42-.47.55-.74.11-.21.24-.6.29-.87.08-.42.08-.47-.08-.84-.08-.21-.16-.47-.16-.55s.08-.24.16-.34l.58-.53c.24-.21.47-.34.6-.34.11,0,.26.11.37.18.16.16.18.26.18.6v.45l-.53.47c-.53.45-.55.47-.66,1.02-.05.29-.21.76-.34,1-.11.26-.37.6-.55.79s-.55.42-.84.55c-.26.13-.76.32-1.1.39-.37.11-.92.16-1.52.18-.79.03-1.1,0-1.71-.11ZM155.98,75.74c.24-.05.6-.18.79-.26.21-.08.58-.26.84-.42.24-.13.6-.39.79-.55.18-.16.53-.55.74-.84.24-.29.45-.63.5-.74.05-.11.05-.39,0-.81-.05-.34-.11-.76-.16-.89-.03-.16-.18-.37-.34-.53-.16-.13-.34-.37-.42-.53-.08-.16-.21-.5-.26-.79-.08-.37-.26-.71-.55-1.18-.29-.47-.45-.79-.53-1.18-.05-.29-.13-.63-.18-.74-.05-.11-.18-.21-.32-.26-.13-.05-.29-.08-.39-.08-.08,0-.6.16-1.13.34-.66.21-1.23.47-1.81.79-.63.37-1.02.66-1.47,1.1-.37.34-.71.76-.87,1.02-.13.26-.24.58-.24.71,0,.16.05.42.11.63.08.21.13.63.13,1.02,0,.47-.05.84-.18,1.29-.16.55-.18.66-.08.92.05.18.18.47.34.68.11.21.34.47.5.6.16.13.45.29.66.39.21.11.6.21.84.29.29.05.79.11,1.37.11s1.08-.05,1.34-.11ZM158.73,64.32c.32-.08.71-.24.92-.34l1.02-.58c.37-.21.79-.53.97-.71.16-.16.37-.47.47-.71.18-.37.18-.42.11-.95-.05-.45-.05-.63.03-.95.05-.21.11-.5.11-.6s-.11-.37-.24-.55c-.13-.21-.37-.42-.47-.5-.18-.13-.34-.16-1.05-.18-.66,0-1,.03-1.42.13-.29.08-.66.18-.76.26-.13.05-.39.24-.55.37-.18.16-.42.47-.55.71-.16.34-.21.5-.18.74.03.18.11.5.21.74.11.29.16.58.16.92,0,.29-.05.76-.08,1.05-.05.29-.08.63-.05.76s.13.29.21.39c.08.11.24.16.39.16.13,0,.47-.08.76-.16Z"/>
      <path class="cls-1" d="M167.12,76.6c-.49,0-.8-.04-1.27-.12h-.02c-.45-.12-1.03-.3-1.35-.44-.34-.16-.9-.47-1.27-.7-.39-.25-1.03-.76-1.46-1.16-.49-.47-.76-.68-.91-.7-.14-.02-.35-.02-.48,0-.16.03-.23.11-.68.7-.29.36-.74.85-.99,1.04-.15.13-.51.34-1.14.68-.44.22-.98.44-1.25.52-.36.11-.73.14-1.7.14-1.07,0-1.27-.02-1.89-.22-.3-.1-.84-.32-1.14-.53-.32-.19-.59-.44-.8-.78l-.5-.76c-.12-.23-.17-.25-.62-.43-.42-.15-.67-.3-.84-.49-.06-.1-.27-.45-.34-.73-.1-.26-.14-.55-.11-.92,0-.28.1-.66.26-.98.11-.27.33-.59.49-.75.16-.16.46-.34.68-.4.18-.07.38-.19.42-.23.06-.06.2-.24.26-.39.1-.21.38-.59.62-.86.21-.3.58-.66.76-.81l.97-.65c.33-.2.82-.48,1.09-.6.27-.14.73-.32,1.06-.41.31-.08.66-.2.74-.24.04-.02.14-.13.18-.2.01-.03.03-.16-.02-.42-.04-.19-.24-.71-.45-1.18l-.44-.92v-.84c-.03-.79-.03-.91.17-1.22.17-.25.41-.4.81-.54.38-.16.39-.17.63-.57.13-.27.33-.57.41-.68.1-.16.38-.4.59-.53.2-.15.56-.35.81-.44.26-.09.67-.2.93-.25.3-.06.79-.11,1.15-.11.33,0,.76.02.99.09.19.03.5.19.65.29.2.13.49.46.67.72.24.37.29.4.43.42.1.03.2.05.31.07.12.02.24.04.34.07.19.03.47.14.64.28.25.21.32.38.35.75.03.24,0,.57-.07.74-.06.19-.22.41-.39.55-.19.15-.55.26-.79.31-.25.05-.47.14-.51.17-.07.06-.26.29-.42.59-.17.31-.43.65-.61.81-.17.14-.6.46-1.01.69-.35.22-.83.5-1.09.61-.21.1-.68.3-1.07.38l-.74.23s-.06.05-.09.11c-.04.09-.12.28-.14.37,0,.04,0,.28.11.84.19.69.26.82.27.84l.41.67c.17.28.37.7.43,1.06.08.28.2.6.28.72.11.16.23.29.27.31.08.04.15.05.54,0,.27-.05.74-.08.98-.08.33,0,.4-.04.5-.13.07-.06.27-.38.43-.75.19-.4.62-1.16,1.05-1.78.63-.91.93-1.25,1.79-2.06.82-.77,1.22-1.08,1.59-1.25.39-.23.61-.26,1.3-.29h0c.41,0,.91.02,1.12.06.23.07.54.21.74.36.18.15.44.43.59.67.18.32.28.45.3.48.08.11.19.15.49.19.28.06.66.17.83.27.18.14.35.34.45.5.12.19.17.55.17.73s-.02.46-.1.61c-.05.12-.18.24-.38.37-.2.1-.65.2-.71.21-.21.05-.52.17-.65.25-.16.09-.45.38-.61.63-.02.03-.41.59-.69.7-.21.11-.37.1-.6,0-.14-.07-.33-.23-.43-.36-.12-.16-.21-.43-.21-.65,0-.12.02-.36.08-.48.06-.12.29-.27.7-.46.38-.19.46-.29.53-.45.08-.12.18-.45.25-.83q.07-.51-.11-.87c-.1-.23-.28-.5-.37-.61h-.01c-.1-.09-.25-.21-.33-.24-.16-.1-.45-.11-.85-.11-.65,0-.69.02-1.05.19-.22.11-.78.57-1.3,1.06-.8.72-1.07,1.02-1.7,1.91-.47.68-.85,1.32-.97,1.62-.12.32-.38.77-.49.96-.19.27-.32.58-.5,1.25-.21.83-.18,1.01-.18,1.02.01.02.21.28.61.69.32.3.89.74,1.23.97.35.22.83.51,1.08.6.28.14.82.31,1.08.39.34.06.78.12,1.47.12s1.11-.06,1.48-.13c.31-.07.74-.22.96-.32.21-.07.52-.28.7-.43.17-.15.37-.41.49-.66.09-.19.22-.57.27-.8q.07-.38-.06-.69s-.18-.47-.18-.65.13-.39.21-.49l.61-.56c.14-.12.49-.41.77-.41.09,0,.24.02.52.24.26.25.28.45.28.8v.56l-.61.55q-.49.42-.58.89c-.05.29-.22.8-.37,1.07-.1.26-.38.63-.59.84-.22.22-.63.47-.91.6-.25.13-.77.32-1.15.41-.34.1-.84.16-1.57.19-.19,0-.35,0-.49,0ZM165.95,75.99c.57.1.88.12,1.65.1.04,0,.07,0,.11,0-.12,0-.24,0-.36,0-.62,0-1.04-.05-1.4-.1,0,0,0,0,0,0ZM168.84,75.97c-.16.03-.32.05-.47.07.18-.02.33-.04.47-.07ZM156.02,75.98c-.09.02-.21.04-.35.05.14-.01.25-.03.35-.05ZM170.01,75.59s-.03,0-.04.01c-.17.08-.47.19-.76.27.27-.08.58-.19.8-.29ZM156.48,66.19c-.07,0-.52.14-1.05.33-.6.19-1.16.44-1.77.77-.63.37-1,.64-1.41,1.06-.38.36-.7.75-.83.98-.13.26-.2.52-.2.58,0,.11.04.33.1.57.08.21.14.65.14,1.08,0,.49-.06.89-.19,1.36-.16.55-.16.58-.09.76.05.19.17.44.31.63.11.21.32.44.46.56.11.09.33.22.61.36.13.07.37.14.57.2.09.03.17.05.24.08.23.04.72.09,1.29.09s1.05-.05,1.29-.1c.22-.05.58-.18.74-.25.21-.08.56-.25.81-.41.23-.13.58-.38.75-.53.16-.14.49-.51.7-.8.23-.29.43-.61.48-.7h0s.04-.13-.02-.67l-.03-.22c-.03-.22-.08-.53-.11-.61-.03-.12-.12-.28-.29-.44-.16-.13-.37-.39-.47-.59-.08-.17-.23-.53-.28-.86-.07-.32-.24-.63-.52-1.09-.29-.48-.47-.82-.56-1.26-.06-.35-.14-.62-.16-.67-.02-.04-.09-.11-.18-.14-.1-.04-.23-.06-.3-.06ZM171.37,74.38c-.15.27-.36.53-.55.7-.12.1-.31.25-.51.36.23-.13.47-.29.59-.41.16-.16.37-.44.47-.65ZM158.56,74.69h0c-.1.09-.25.2-.41.31.13-.08.2-.13.24-.17.05-.04.1-.09.17-.15ZM158.78,69.67c.05.16.11.31.15.39.06.12.22.33.36.44.13.12.38.41.43.68.04.07.07.3.12.67l.03.23c.09.73,0,.9-.02.96-.06.12-.28.48-.53.78-.1.14-.25.32-.4.49.13-.14.26-.29.38-.44.48-.62.63-.81.99-.88.19-.03.46-.03.64,0,.23.03.48.18.95.6-.21-.22-.42-.48-.48-.63-.03-.12-.07-.32.17-1.28.2-.74.34-1.09.57-1.4.04-.07.1-.17.17-.29-.1.16-.2.3-.29.37-.21.18-.41.23-.81.23-.22,0-.66.03-.9.07-.42.06-.62.07-.84-.05-.21-.1-.42-.42-.46-.48-.08-.12-.16-.3-.22-.48ZM150.88,69.28c-.09.17-.22.33-.3.41-.12.12-.41.27-.61.35-.16.05-.38.18-.49.28-.1.1-.3.36-.39.6-.14.28-.22.58-.22.8-.03.31,0,.53.09.75.05.18.17.42.27.59.08.08.28.2.6.31.5.2.67.27.87.64l.15.23c-.07-.14-.13-.29-.16-.41-.13-.32-.08-.49.08-1.06.12-.43.17-.77.17-1.22,0-.41-.06-.78-.12-.94-.05-.2-.12-.51-.12-.72,0-.16.08-.4.17-.62ZM172.59,70.94s-.2.08-.43.28l-.58.52s-.07.14-.08.17c0,.03.06.24.14.45.14.33.17.46.13.74.1-.38.22-.5.68-.89l.44-.39v-.33c0-.32-.02-.34-.11-.43-.13-.1-.2-.11-.2-.11ZM168.69,68.65s-.02.13-.02.23c0,.13.06.29.11.35.06.08.19.18.25.22.09.04.09.04.17,0,.08-.04.3-.26.48-.52.19-.3.53-.65.76-.78.17-.11.54-.26.81-.32.27-.06.51-.13.57-.16.1-.06.16-.12.17-.14.03-.06.06-.19.06-.4,0-.17-.05-.4-.1-.48-.07-.11-.21-.27-.31-.35-.06-.03-.36-.13-.63-.19-.34-.05-.62-.11-.79-.37h0s-.1-.1-.35-.54c-.05-.08-.12-.17-.19-.25.14.18.28.42.37.63.23.47.23.55.15,1.16-.02.13-.13.74-.3,1-.11.27-.3.44-.75.66-.23.11-.4.21-.47.25ZM157.91,67.73c.06.11.12.22.2.34.15.25.27.45.37.65-.06-.14-.13-.26-.19-.36l-.38-.63ZM152.47,67.48l-.29.19c-.14.12-.43.41-.62.66.11-.12.23-.24.34-.34.19-.19.37-.36.57-.51ZM157.59,66.86c.01.06.02.1.02.12.04.19.1.37.19.55-.05-.12-.11-.32-.21-.67ZM154.94,66.16c-.27.09-.59.22-.79.32-.06.03-.12.06-.2.1.34-.16.67-.3,1-.42ZM156.48,65.69c.15,0,.34.04.49.1.19.08.37.23.45.38.03.07.07.19.1.31-.11-.65-.08-.8-.07-.85.03-.13.12-.36.18-.48.07-.13.21-.31.38-.36l.48-.15c-.18.04-.39.08-.5.08-.25,0-.47-.1-.59-.26-.15-.2-.23-.36-.26-.5-.04-.19,0-.57.05-.85l.02-.17c.03-.28.06-.62.06-.84,0-.3-.05-.57-.14-.83-.11-.25-.19-.58-.22-.79-.03-.28.03-.48.15-.75-.29.5-.39.58-.88.78-.35.13-.48.23-.57.36-.11.16-.11.17-.08.92v.79l.39.76c.22.47.44,1.04.5,1.29.07.33.06.58-.02.74-.06.12-.21.32-.38.42.22-.07.42-.12.5-.12ZM166.33,64.87c-.1.07-.2.16-.32.26.11-.09.22-.18.32-.26ZM169.29,64.59c.08.05.17.12.25.19-.04-.04-.09-.08-.12-.11-.04-.03-.08-.05-.13-.08ZM160.59,58.5c-.65,0-.97.03-1.35.12-.48.13-.63.19-.67.22l-.06.03c-.09.04-.33.2-.48.33-.14.12-.37.41-.49.64-.14.31-.17.42-.16.59.02.16.1.45.19.66.12.34.18.66.18,1.02,0,.24-.03.6-.06.89l-.02.19c-.06.33-.07.61-.06.69,0,.03.03.12.17.3.02.02.09.06.19.06.08,0,.34-.05.69-.15h0c.29-.07.67-.22.87-.32l1.01-.57c.36-.21.76-.51.92-.67.14-.14.33-.43.42-.63q.16-.32.09-.81c-.05-.47-.06-.69.03-1.04.05-.22.1-.47.1-.54,0-.05-.08-.26-.19-.41-.11-.18-.32-.37-.42-.45-.12-.08-.22-.11-.91-.13ZM160.73,63.65l-.89.5c.22-.11.57-.3.89-.5ZM162.23,58.65s.07.1.1.15c.13.18.27.5.27.68,0,.15-.07.48-.11.66-.07.27-.07.42-.02.86.08.55.08.66-.13,1.08-.11.26-.34.59-.52.77-.19.19-.54.46-.87.66.36-.21.69-.46.8-.55.11-.1.33-.38.49-.66.15-.28.39-.62.54-.74.12-.13.52-.24.73-.28.26-.05.5-.15.58-.21.09-.07.2-.22.23-.33.04-.09.07-.33.04-.52-.02-.28-.06-.31-.18-.42-.09-.08-.29-.16-.42-.18-.11-.03-.22-.05-.32-.06-.13-.02-.26-.05-.35-.08-.32-.07-.47-.25-.71-.63-.05-.07-.1-.14-.16-.2ZM157.82,58.73c-.18.13-.35.28-.39.36-.05.06-.12.17-.19.29.14-.21.31-.42.47-.56.03-.03.07-.06.11-.09ZM161.85,58.27c.08.07.2.17.3.29-.12-.14-.23-.24-.3-.29,0,0,0,0,0,0ZM160.6,58c.43.02.68.03.87.08-.04-.01-.07-.02-.09-.03-.17-.05-.53-.08-.88-.08-.23,0-.53.03-.78.06.24-.03.51-.03.89-.03Z"/>
    </g>
  </g>
  <g>
    <path class="cls-1" d="M78.91,108.41c0,.81-1.3,1.15-1.94,2-.29.38.03.92.35.93.69.02.43-.72,1.13-1.1,1.32-.73,9.66.6,9.66-1.21s-4.83-5.13-16.91-5.13-24.16,4.53-33.22,7.85c-9.06,3.32-19.63,6.95-23.56,7.85s-4.53.6-4.83.3,2.11-3.02,2.72-4.53.75-3.72,1.21-4.9c.46-1.18,1.34-2.56.82-2.95-.51-.39-3.03,1.97-3.44,2.74s.1,1.03-.72,2.83c-.82,1.8-1.49,2.98-3.03,4.93-1.54,1.95-5.55,4.11-5.5,4.78.05.67,3.08,1.18,8.64,0,5.55-1.18,16.09-5.71,28.22-9.97,12.13-4.27,24.01-6.73,31.15-6.73s9.25,1.13,9.25,2.31Z"/>
    <path class="cls-1" d="M2.52,120.43c.64.25,2.91-7.66,8.04-12.06s8.04-5.56,11.55-5.6,3.85,1.97,4.79,2.01c.94.04,2.27-1.67,2.18-2.91-.09-1.24-1.5-2.91-4.66-2.91s-9.67,2.22-14.2,7.06c-4.53,4.83-8.81,13.99-7.7,14.42Z"/>
    <path class="cls-1" d="M6.37,108.25c.06-.97-.74.17-.52-1.26.23-1.43,2.29-5.09,4.86-7.78,2.58-2.69,5.61-4.24,6.81-4.41s1.66.29,1.89,0c.23-.29.46-1.72-.74-3.32-1.2-1.6-2.48-2.4-2.95-2-.48.4.23.36-.43,1.41-.66,1.04-5.44,7.98-6.25,7.63s2.27-4.78,1.62-11.07c-.66-6.28-3.62-8.21-6.48-8.1-2.85.12-3.49,1.31-3.71,2.7s.16,1.85.36,1.85.08-1.47,2.51-1.31c2.43.15,4.47,4.67,4.16,9.21-.31,4.55-1.16,7.79-2.04,9.14s-1.08.62-1.58,1.35c-.5.73-2.93,7.33-3.47,10.26-.54,2.93-.56,9.05.07,9.15,1.19.2,1.37-5.15,2.58-8.41,1.2-3.26,3.26-4.06,3.32-5.04Z"/>
    <path class="cls-1" d="M18.46,95.82c-1.08.21-3.93,1.44-6.73,4.34-2.8,2.9-5.71,6.91-4.76,7.43.51.28,2.83-3.69,6.53-6.45,2.96-2.2,4.19-1.99,5.32-2.18s1.47-1.19,1.39-1.88c-.08-.69-.67-1.47-1.75-1.26Z"/>
    <path class="cls-1" d="M4.56,100.06c.64,0,1.9-4.96,1.9-8.3s-1.29-7.04-2.78-7.9c-1.18-.67-2.08.42-2.03,1.01.2,2.24,2.38,1.37,3,7.25.57,5.33-.79,7.95-.1,7.94Z"/>
    <path class="cls-1" d="M245.5,108c-.12-.27-.38-.45-.67-.42l-1.64.16c-.44.04-.73.49-.59.9.2.56.65,1.26,1.65,1.59,1.81.6,11.78.3,11.78,2.11s-37.45,5.44-96.04,5.38c-58.59.05-96.04-3.57-96.04-5.38s9.97-1.51,11.78-2.11c1-.33,1.45-1.03,1.65-1.59.15-.41-.15-.86-.59-.9l-1.64-.16c-.29-.03-.54.15-.67.42-1.27,2.71-21.71-1.15-21.71,3.44,0,3.62,18.72,8.75,107.21,8.75s107.21-5.13,107.21-8.75c0-4.59-20.44-.73-21.71-3.44Z"/>
    <path class="cls-1" d="M312.85,118.02c-1.54-1.95-2.21-3.14-3.03-4.93-.82-1.8-.31-2.06-.72-2.83-.41-.77-2.93-3.14-3.44-2.74-.51.39.36,1.77.82,2.95.46,1.18.6,3.39,1.21,4.9s3.02,4.23,2.72,4.53-.91.6-4.83-.3-14.5-4.53-23.56-7.85c-9.06-3.32-21.14-7.85-33.22-7.85s-16.91,3.32-16.91,5.13,8.34.48,9.66,1.21c.7.39.44,1.12,1.13,1.1.32,0,.64-.54.35-.93-.64-.85-1.94-1.2-1.94-2,0-1.18,2.11-2.31,9.25-2.31s19.02,2.47,31.15,6.73c12.13,4.27,22.67,8.79,28.22,9.97,5.55,1.18,8.58.67,8.64,0,.05-.67-3.96-2.83-5.5-4.78Z"/>
    <path class="cls-1" d="M293.1,104.78c.94-.04,1.28-2.05,4.79-2.01s6.42,1.2,11.55,5.6c5.13,4.41,7.4,12.31,8.04,12.06,1.11-.43-3.17-9.58-7.7-14.42-4.53-4.83-11.04-7.06-14.2-7.06s-4.58,1.67-4.66,2.91c-.09,1.24,1.24,2.95,2.18,2.91Z"/>
    <path class="cls-1" d="M316.13,102.29c-.5-.73-.69,0-1.58-1.35s-1.73-4.59-2.04-9.14c-.31-4.55,1.73-9.06,4.16-9.21,2.43-.15,2.31,1.31,2.51,1.31s.58-.46.36-1.85c-.22-1.39-.86-2.58-3.71-2.7-2.85-.12-5.82,1.81-6.48,8.1-.66,6.28,2.43,10.72,1.62,11.07s-5.59-6.59-6.25-7.63c-.66-1.04.05-1-.43-1.41-.48-.4-1.75.4-2.95,2-1.2,1.6-.97,3.03-.74,3.32.23.29.69-.17,1.89,0,1.2.17,4.24,1.72,6.81,4.41,2.58,2.69,4.64,6.35,4.86,7.78.23,1.43-.57.29-.52,1.26.06.97,2.12,1.77,3.32,5.04,1.2,3.26,1.39,8.61,2.58,8.41.63-.1.61-6.22.07-9.15-.54-2.93-2.97-9.52-3.47-10.26Z"/>
    <path class="cls-1" d="M301.54,95.82c-1.08-.21-1.67.57-1.75,1.26-.08.69.26,1.7,1.39,1.88s2.36-.03,5.32,2.18c3.7,2.76,6.02,6.73,6.53,6.45.95-.51-1.95-4.52-4.76-7.43-2.8-2.9-5.65-4.14-6.73-4.34Z"/>
    <path class="cls-1" d="M318.35,84.87c.05-.59-.85-1.69-2.03-1.01-1.49.86-2.78,4.56-2.78,7.9s1.26,8.3,1.9,8.3c.69,0-.66-2.62-.1-7.94.63-5.88,2.8-5.01,3-7.25Z"/>
  </g>
  <g>
    <path class="cls-1" d="M304.45,51.49c.18.46,1.02.51,1.43.18.93-.75.23-2.37,1.3-2.47s2.79,2.09,5.77,14.84c2.98,12.75,1.65,13.81,2.63,13.79.54-.01,1.19-5.52-2.79-21.56-3.12-12.59-6.75-17.49-8.4-16.52-1.64.98,1.28,10.07.84,10.66-.44.59-1.02.51-.79,1.08Z"/>
    <path class="cls-1" d="M233.7,3.71c1.96.17,7.73.62,8.26.62s2.11-1.03,1.9-1.23c-.44-.44-8.33-.66-8.52-1.23s.47-.32,1.14-.44c.66-.13.89-.41.95-.73.06-.32-.2-.73-.86-.69-.52.03-.56.57-1.16.87s-2.09.1-3.11,0-3.67.13-3.77,1.11c-.09.98,3.2,1.55,5.16,1.73Z"/>
    <path class="cls-1" d="M240.92,7.52c.5,3.1,19.48,1.68,26.76,2.97,7.27,1.29,12.98,4.22,13.18,4.6.28.53-.59.11-.83.25-.39.21-.17.59-.05.64.48.21.77-.18,1.45,0,.68.18,3.44,2.39,4.1,2.55s3.73.95,3.99-.21c.26-1.16-3.49-4.91-9.48-7.75-5.99-2.84-16.23-4.96-19.77-5.49s-6.2-.76-7.35-.71c-1.16.05-3.2.89-3.07,1.18.13.29,4.96.21,9.27.84,4.31.63,8.35,1.55,8.22,2.02s-15.55-.76-17.36-1.05c-1.81-.29-2.55-.6-2.55-1.05s2.89-2.49,7.77-3.28c4.88-.79,10.45-.63,12.55-.45.21-.13,1.52-.95,1.39-1.18s-6.36-.93-11.6-.74c-7.09.25-17.13,3.76-16.63,6.86Z"/>
    <path class="cls-1" d="M290.69,14.92c-.38.96,4.82,3.64,6.27,2.84,1.24-.69-.96-4.37-5.26-7.17s-14.98-7.17-16.51-7.26c-1.53-.1-2.53.57-2.12,1.08s5.81,1,11.77,4.07c5.95,3.06,8.54,5.95,8.2,6.65-.33.69-1.96-1.15-2.34-.19Z"/>
    <path class="cls-1" d="M268.7,3.14c-.04.57.51.85,1.43,1.08.92.23,2.23.07,2.19-.21-.04-.32-.43-.2-.45-.53-.02-.33.68-.96,3.27-1.17s9.25.6,13.68,3.14c4.43,2.54,7.56,5.77,8.19,7.57.63,1.8.55,2.87,1.5,3.71.95.84,2.93.47,3.14.21.21-.27-.65-1.59-.28-2.68.36-1.09,1.75-2.21,3.46-2.24,1.7-.03,1.64,1.01,2.27.93.63-.08,2.04-2.02,2.63-2.97.6-.95,1.61-2.52,1.61-4.94s-1.66-3.93-2.93-4.43c-1.28-.5-2.4.14-2.41.46-.02.32.35.25.73.36.38.11,1.03.68,1.03,2.07s-1.26,3.82-5.11,3.82-5.6-.84-7.89-1.7c-2.29-.87-6.94-2.67-7.28-2.91s.05-.85-.11-1.03c-.16-.17-2.48-1.39-9.34-1.28-6.85.11-9.27,2.18-9.31,2.75Z"/>
    <path class="cls-1" d="M302.11,6.2c3.52,0,4.43-1.55,4.56-2.38.15-.97-.2-2.06-1.29-1.85-.54.11-.27.89-1.32,1.53-1.13.69-5.02.63-8.93-.2-4.1-.86-6.72-1.91-6.77-1.33-.03.39,10.23,4.23,13.74,4.23Z"/>
    <path class="cls-1" d="M314.57,51.7c.74-.36-.02-8.29-3.61-17.25s-8.79-13.37-10.12-12.93c-.72.24-.21,1.69.39,2.97.75,1.57,1.01,1.46,1.12,2.13.07.39,0,.61.09,1.03.14.56.71.69.95.44.3-.32.05-.83.5-.93.46-.1,3.31,3.39,6.25,10.11,2.94,6.72,3.88,14.69,4.43,14.42Z"/>
    <path class="cls-1" d="M315.55,4c-1.2,1.39-5.27,6.29-5.02,6.6.26.33,6.48-4.08,7.59-4.95,1.1-.87,2.08-2.28,1.1-3.15-.97-.87-2.46.1-3.67,1.5Z"/>
    <path class="cls-1" d="M311.75,7.53c.28-.1,1.28-1.67,2.31-2.92,1.03-1.26,2.9-2.63,2.53-3.08-.23-.27-4.79.18-5.02.54s.49.77.67,2.28c.18,1.51-.86,3.32-.49,3.18Z"/>
    <path class="cls-1" d="M318.25,6.68c-1.52,1.08-5.31,3.21-4.99,3.47.23.19,2.53-.21,3.75.37,1.22.59,1.4,1.14,1.7.99l.31-.16s.41-.97.49-2.85c.08-1.88-.12-2.41-.45-2.41-.33,0-.53.38-.81.59Z"/>
    <path class="cls-1" d="M319.36,13.55c-.91-1.38-3.53-2.59-6.36-2.59s-4.76,2.13-4.99,2.71.44,1.92,0,3.22c-.44,1.29-2.19,2.56-3.06,2.62-.87.06-1.61-1.06-2.16-.68-.55.38.14,2.11.68,2.84.54.73,1.86,1.77,2.59,2.08.73.32,1.14-.13,1.59.13s2.14,1.55,4.51,7.48c2.37,5.93,3.5,11.2,3.59,15.3.09,4.1-.5,6.37-.93,6.37s-.21-.95-.62-.69c-.41.25.16,3.53,1.29,3.6,1.14.06,2.05-4.58,2.05-9.59s-.56-10.63-.69-10.79c-.13-.17-.34.15-.97-.39-.63-.54-1.12-1.66-1.62-3.11-.5-1.45-1.86-6.63-2.09-9.93-.22-3.3.7-5.12,1.9-6.11,1.28-1.06,3.1-.65,3.55-.35.34.22.73.66.81,1.06.1.54-.1.88.23.91,1.24.12,1.89-2.26.69-4.07Z"/>
    <path class="cls-1" d="M317.2,16.64c-.52-.4-1.74-.57-2.57.21-.83.78-1.37,2.47-1.25,6.57s2.64,11.3,3,11.16-.41-2.64-.68-4.83c-.27-2.2-.54-6.36.44-10.5.23-.96.9-1.28,1.4-1.06.18.08.58-.85-.34-1.54Z"/>
  </g>
  <g>
    <path class="cls-1" d="M78.03,4.33c.54,0,6.3-.44,8.26-.62,1.96-.17,5.26-.74,5.16-1.73-.09-.98-2.75-1.2-3.77-1.11s-2.5.29-3.11,0-.64-.84-1.16-.87c-.66-.04-.93.37-.86.69.06.32.28.6.95.73.66.13,1.33-.13,1.14.44s-8.07.79-8.52,1.23c-.21.21,1.36,1.23,1.9,1.23Z"/>
    <path class="cls-1" d="M52.24,2.59c2.1-.18,7.67-.34,12.55.45,4.88.79,7.77,2.84,7.77,3.28s-.74.76-2.55,1.05c-1.81.29-17.23,1.52-17.36,1.05s3.91-1.39,8.22-2.02c4.31-.63,9.14-.55,9.27-.84.13-.29-1.92-1.13-3.07-1.18-1.16-.05-3.81.18-7.35.71s-13.79,2.65-19.77,5.49c-5.99,2.84-9.74,6.59-9.48,7.75.26,1.16,3.33.37,3.99.21s3.41-2.36,4.1-2.55c.68-.18.97.2,1.45,0,.12-.05.35-.43-.05-.64-.24-.13-1.11.28-.83-.25.2-.37,5.91-3.31,13.18-4.6,7.27-1.29,26.26.13,26.76-2.97.5-3.1-9.54-6.6-16.63-6.86-5.25-.19-11.47.5-11.6.74s1.18,1.05,1.39,1.18Z"/>
    <path class="cls-1" d="M35.16,8.46c5.95-3.06,11.36-3.56,11.77-4.07s-.59-1.17-2.12-1.08c-1.53.1-12.2,4.46-16.51,7.26-4.3,2.8-6.5,6.48-5.26,7.17,1.45.81,6.65-1.88,6.27-2.84-.38-.96-2.01.88-2.34.19-.33-.69,2.25-3.59,8.2-6.65Z"/>
    <path class="cls-1" d="M12.91,12.95c.63.08.57-.96,2.27-.93s3.09,1.15,3.46,2.24c.36,1.09-.49,2.41-.28,2.68.21.27,2.19.63,3.14-.21.95-.84.87-1.91,1.5-3.71.63-1.8,3.75-5.03,8.19-7.57,4.43-2.54,11.09-3.34,13.68-3.14s3.28.84,3.27,1.17c-.02.33-.41.21-.45.53-.03.28,1.27.44,2.19.21.92-.23,1.47-.51,1.43-1.08-.04-.57-2.46-2.65-9.31-2.75-6.85-.11-9.18,1.11-9.34,1.28-.16.17.23.79-.11,1.03s-4.99,2.04-7.28,2.91c-2.29.87-4.04,1.7-7.89,1.7s-5.11-2.43-5.11-3.82.65-1.96,1.03-2.07.74-.05.73-.36-1.14-.96-2.41-.46c-1.28.5-2.93,2.02-2.93,4.43s1.01,3.99,1.61,4.94c.6.95,2,2.89,2.63,2.97Z"/>
    <path class="cls-1" d="M13.33,3.82c.13.83,1.04,2.38,4.56,2.38s13.78-3.83,13.74-4.23c-.05-.57-2.67.47-6.77,1.33-3.91.82-7.8.89-8.93.2-1.05-.64-.77-1.42-1.32-1.53-1.09-.21-1.44.88-1.29,1.85Z"/>
    <path class="cls-1" d="M16.61,28.09c.24.25.81.12.95-.44.1-.42.03-.64.09-1.03.11-.67.38-.56,1.12-2.13.61-1.28,1.12-2.73.39-2.97-1.33-.44-6.52,3.97-10.12,12.93-3.6,8.96-4.35,16.89-3.61,17.25.55.27,1.49-7.7,4.43-14.42,2.94-6.72,5.79-10.21,6.25-10.11.46.1.2.61.5.93Z"/>
    <path class="cls-1" d="M1.89,5.66c1.1.87,7.33,5.28,7.59,4.95.24-.32-3.82-5.21-5.02-6.6C3.25,2.61,1.76,1.63.79,2.5c-.97.87,0,2.28,1.1,3.15Z"/>
    <path class="cls-1" d="M5.94,4.61c1.03,1.26,2.03,2.82,2.31,2.92.38.14-.67-1.67-.49-3.18.18-1.51.9-1.92.67-2.28s-4.8-.81-5.02-.54c-.37.44,1.51,1.82,2.53,3.08Z"/>
    <path class="cls-1" d="M.94,6.09c-.34,0-.53.53-.45,2.41.08,1.88.49,2.85.49,2.85l.31.16c.31.16.48-.4,1.7-.99,1.22-.59,3.52-.18,3.75-.37.32-.27-3.47-2.4-4.99-3.47-.29-.2-.48-.59-.81-.59Z"/>
    <path class="cls-1" d="M4.5,55.94c1.14-.06,1.7-3.34,1.29-3.6-.41-.25-.2.69-.62.69s-1.02-2.27-.93-6.37c.09-4.1,1.22-9.37,3.59-15.3s4.05-7.23,4.51-7.48c.45-.25.86.19,1.59-.13.73-.32,2.05-1.36,2.59-2.08.54-.73,1.23-2.46.68-2.84-.55-.38-1.29.74-2.16.68s-2.62-1.33-3.06-2.62c-.44-1.29.22-2.63,0-3.22s-2.16-2.71-4.99-2.71-5.44,1.2-6.36,2.59c-1.2,1.81-.55,4.19.69,4.07.33-.03.13-.37.23-.91.07-.4.47-.83.81-1.06.45-.3,2.27-.71,3.55.35,1.2,1,2.12,2.81,1.9,6.11-.22,3.3-1.58,8.48-2.09,9.93-.5,1.45-.99,2.57-1.62,3.11-.63.54-.84.22-.97.39-.13.17-.69,5.78-.69,10.79s.92,9.66,2.05,9.59Z"/>
    <path class="cls-1" d="M3.86,19.24c.98,4.14.71,8.3.44,10.5-.27,2.2-1.04,4.69-.68,4.83s2.88-7.06,3-11.16-.42-5.79-1.25-6.57c-.83-.78-2.05-.61-2.57-.21-.92.7-.52,1.62-.34,1.54.5-.22,1.17.1,1.4,1.06Z"/>
    <path class="cls-1" d="M15.55,51.49c-.18.46-1.02.51-1.43.18-.93-.75-.23-2.37-1.3-2.47s-2.79,2.09-5.77,14.84c-2.98,12.75-1.65,13.81-2.63,13.79-.54-.01-1.19-5.52,2.79-21.56,3.12-12.59,6.75-17.49,8.4-16.52,1.64.98-1.28,10.07-.84,10.66.44.59,1.02.51.79,1.08Z"/>
  </g>
</svg>