<?xml version="1.0" encoding="UTF-8"?>
<svg id="Layer_1" data-name="Layer 1" xmlns="http://www.w3.org/2000/svg" viewBox="0 0 320 123.51">
  <defs>
    <style>
      .cls-1 {
        fill: #FFF5E9;
        stroke-miterlimit: 10;
        stroke-width: 1.2px;
      }

      .cls-1, .cls-2 {
        fill: #FFF5E9;
      }
    </style>
  </defs>
  <g>
    <path class="cls-1" d="M94.23,37.27c.26.06.51.45.58.71.06.32.06,1.16.06,1.86-.13.96-.26,1.35-.77,1.8-.51.58-.84.64-2.64.77-1.86.06-2.12.19-2.76.77-.39.39-1.8,2.06-3.09,3.73s-2.83,3.86-3.47,4.76l-2.38,3.41c-.71.96-1.93,2.76-2.7,4.05s-2.19,3.28-3.09,4.44c-.96,1.09-2.19,2.89-2.76,3.99-.58,1.03-1.29,2.19-1.67,2.51s-1.41.77-2.25,1.03c-.84.32-1.74.71-1.93.96-.26.19-.51.77-.64,1.29-.13.45-.26,1.16-.26,1.48s.13.96.39,1.35c.19.39.64,1.16,1.03,1.67s.9,1.16,1.22,1.35c.32.19,1.35.51,2.25.77.96.26,2.57.84,3.6,1.35l1.93,1.03h4.11c3.73,0,4.18-.06,5.21-.51.58-.26,1.67-1.03,2.38-1.74.71-.64,1.41-1.48,1.61-1.8.26-.51.32-1.09.19-2.19-.13-1.16-.06-1.61.26-2.25.26-.45.64-.96.96-1.09.39-.19,1.16-.26,1.93-.19,1.22.06,1.41.13,2.12.9.71.77.77.9.77,2.25,0,1.09-.13,1.54-.45,2.06-.32.39-.84.64-1.8.84l-1.86.32c-.26.07-1.16.77-2.06,1.67-.77.84-1.93,1.8-2.51,2.12-.58.32-1.67.77-2.51.9-.9.26-2.57.39-4.18.39-1.48,0-3.21-.13-3.86-.26-.71-.13-1.99-.64-2.96-1.09-.96-.51-2.57-1.09-3.47-1.35-.96-.19-2.12-.64-2.51-.9-.45-.26-1.22-1.16-1.8-1.99-.96-1.41-1.09-1.54-1.93-1.61-.51-.06-1.09.06-1.41.26-.32.19-.77.77-.96,1.29-.26.45-.84,1.16-1.29,1.54s-1.16.77-1.54.84l-2.96.19c-1.35.06-2.7.32-3.66.58-.9.32-2.31.58-3.79.64-1.48.06-2.57,0-3.15-.19-.45-.13-1.22-.58-1.61-.96-.45-.32-1.03-1.03-1.29-1.54-.19-.45-.71-1.03-1.03-1.29-.26-.26-1.03-.51-1.61-.58-.64-.06-1.41-.26-1.74-.39-.32-.13-.71-.45-.84-.77-.19-.32-.32-1.03-.32-1.54,0-.58.19-1.35.38-1.61.26-.32.77-.77,1.16-.96.45-.13,1.54-.26,2.51-.26,1.35,0,2.06-.19,3.47-.71,1.22-.51,2.25-.77,3.6-.84,1.41-.06,2.51,0,4.31.32l4.05.71c.9.19,2.06.39,2.51.58.45.19,1.41,1.03,2.19,1.8,1.29,1.35,1.54,1.48,2.12,1.35.39-.07.84-.32,1.03-.58.19-.19.45-.84.51-1.41.06-.51.39-1.35.64-1.74.32-.45.9-.96,1.35-1.16.39-.19,1.41-.64,2.12-.9,1.35-.51,1.41-.51,2.44-2.51.58-1.03,1.8-2.83,2.76-3.98.9-1.09,2.51-3.34,3.47-4.89.96-1.54,2.19-3.41,2.76-4.11l2.25-3.21c.71-1.09,2.25-3.21,3.47-4.76l2.96-3.79c.58-.71.84-1.22.96-2.25.07-.64.19-1.41.39-1.67.07-.19.51-.58.84-.77.39-.19,1.22-.45,1.93-.51.64-.13,1.41-.13,1.74-.07.32.07.77.19.96.32ZM44.47,72.3l-1.67.71c-.39.19-.9.58-1.03.9-.13.26-.26,1.22-.26,2.06-.07,1.41.06,1.74.71,2.7.39.64,1.03,1.35,1.48,1.61.58.32,1.16.45,2.57.45,1.29,0,2.44-.26,3.99-.64,1.48-.45,2.96-.64,4.63-.77,1.41-.06,2.57-.26,2.89-.45.26-.13.71-.71.96-1.22.26-.45.45-1.09.45-1.35,0-.19-.45-.96-1.03-1.54-.58-.64-1.41-1.22-1.8-1.35s-1.48-.32-2.44-.45l-3.21-.58c-.77-.19-2.31-.32-3.41-.32s-2.38.13-2.83.26ZM88.96,27.18c.58.13,2.44.58,4.24.84,1.74.32,3.92.84,4.76,1.16.9.32,2.12.9,2.7,1.29.58.39,1.48,1.09,1.99,1.67.51.51,1.22,1.54,1.61,2.31l1.29,3.15c.58,1.74.71,1.93,1.86,2.76.64.51,1.29,1.09,1.41,1.35s.26.96.26,1.61c0,1.03-.06,1.22-.9,1.99-.45.45-1.16,1.03-1.54,1.22-.51.26-.96.84-1.67,2.19-.58,1.22-1.29,2.12-2.06,2.76-.64.58-1.99,1.48-3.02,1.93-1.03.51-2.38,1.09-3.02,1.29l-2.51.71c-1.16.32-1.41.51-2.06,1.41-.39.58-.96,1.29-1.29,1.54-.45.45-.77.58-1.8.58s-1.35-.13-1.86-.71c-.58-.58-.71-.84-.71-1.93,0-.71.19-1.61.39-2.06.19-.45.64-.9,1.03-1.09.32-.19.84-.32,1.16-.32s1.09.26,1.8.58c1.03.45,1.48.51,2.64.45.77-.07,1.86-.26,2.51-.51.64-.19,1.99-.77,3.09-1.29,1.22-.58,2.31-1.29,2.96-1.99.58-.58,1.29-1.54,1.48-2.12.39-.96.39-1.29.19-2.38-.19-.71-.26-1.61-.26-2.06s.19-1.22.45-1.74c.26-.58.45-1.35.45-1.74s-.26-1.41-.58-2.31c-.26-.84-.77-1.99-1.03-2.57-.32-.58-.77-1.35-1.09-1.74s-1.16-1.16-1.93-1.67c-.77-.45-2.06-1.09-2.89-1.35-.84-.26-2.83-.64-4.37-.9-2.06-.32-3.34-.45-4.56-.32l-5.4.45c-1.99.19-4.44.58-5.34.84-.96.19-2.76.84-4.11,1.41-1.35.58-3.09,1.41-3.92,1.86-.77.39-2.12,1.35-3.09,2.06-.84.77-1.99,1.74-2.38,2.31-.39.45-1.03,1.41-1.29,1.99-.32.64-.64,1.41-.71,1.8-.06.39-.06,1.22.13,1.93.19,1.09.19,1.54-.13,3.02-.39,1.48-.39,1.93-.13,3.86.13,1.22.45,2.57.64,2.96.26.45.71,1.03,1.03,1.29.39.26,1.09.45,1.93.51.77.07,1.8,0,2.25-.13.58-.19,1.22-.45,1.54-.71.38-.32,1.29-1.93,2.25-3.79.9-1.86,1.86-3.92,2.06-4.56.26-.71.45-1.67.45-2.19s-.19-1.41-.45-2.12c-.26-.64-.45-1.41-.45-1.74s.06-.77.19-1.03c.13-.19.58-.58.96-.77.32-.19,1.22-.32,1.86-.32.71,0,1.54.06,1.86.19.32.13.71.45.9.77.26.32.45,1.09.45,1.61,0,.58-.13,1.29-.32,1.61-.19.32-.9.9-1.61,1.22-.71.39-1.35.77-1.54.96-.13.19-.45,1.03-.71,1.86-.32.84-1.22,3.02-2.12,4.82s-1.93,3.6-2.31,4.11c-.39.39-1.16.96-1.67,1.16-.45.19-1.41.45-2.06.51-.58.13-1.67.06-2.38-.06-.71-.13-1.61-.51-2.06-.77-.51-.32-1.09-1.03-1.35-1.54s-.64-1.86-.77-2.96c-.26-1.09-.51-2.19-.64-2.38-.19-.19-.84-.58-1.54-.9-.77-.32-1.35-.77-1.54-1.22-.19-.32-.32-1.03-.32-1.48s.19-1.16.45-1.54c.26-.45.9-.96,1.86-1.35,1.35-.64,1.41-.71,2.38-2.7.51-1.09,1.41-2.57,1.93-3.15.58-.64,1.8-1.74,2.7-2.44.96-.77,3.02-1.99,4.63-2.76,1.54-.77,3.6-1.67,4.5-1.99s2.38-.77,3.28-.96c.96-.19,2.83-.45,4.31-.58,1.8-.13,2.83-.39,3.73-.77.71-.32,1.41-.58,1.61-.58s.84.13,1.35.39Z"/>
    <path class="cls-2" d="M103.54,77.22v-15.91c0-2.41-.34-3.28-1.78-3.28-.38,0-.82.1-1.35.14v-.48l5.4-1.3h.63v6.56h.05c.82-2.94,2.85-7.28,6.41-7.28,2.31,0,3.62,1.88,4.24,3.04l-3.18,7.52h-.24c.53-1.78.92-3.33.92-4.92,0-2.17-1.01-3.62-2.56-3.62-2.94,0-4.97,5.4-5.64,9.64v9.88c0,2.27.72,2.65,3.23,3.09v.48h-9.26v-.48c2.41-.43,3.13-.92,3.13-3.09Z"/>
    <path class="cls-2" d="M121.66,77.56v-16.25c0-2.41-.34-3.28-1.78-3.28-.38,0-.82.1-1.35.14v-.48l5.4-1.3h.63v21.22c0,2.27.72,2.27,3.13,2.7v.48h-9.16v-.48c2.41-.43,3.13-.53,3.13-2.75ZM122.72,46.12c1.4,0,2.36,1.06,2.36,2.41s-.96,2.36-2.36,2.36-2.36-1.01-2.36-2.36.96-2.41,2.36-2.41Z"/>
    <path class="cls-2" d="M132.9,77.37v-16.06c0-2.41-.34-3.28-1.78-3.28-.39,0-.82.1-1.35.14v-.48l5.4-1.3h.63v5.3c.72-1.74,3.33-6.03,8.1-6.03,3.09,0,5.01,1.69,5.45,5.55,1.11-2.31,3.57-5.55,8.05-5.55,3.28,0,5.79,1.98,5.79,7.09v14.61c0,2.07.77,2.51,3.13,2.94v.48h-9.02v-.48c2.22-.39,2.99-.87,2.99-2.94v-13.31c0-4.87-1.78-6.65-4.24-6.65-2.99,0-5.35,2.51-6.65,5.5v14.47c0,2.07.82,2.51,3.13,2.94v.48h-9.02v-.48c2.31-.43,2.99-.87,2.99-2.94v-13.31c0-4.87-1.59-6.65-3.91-6.65-3.13,0-5.88,3.38-6.8,6.41v13.55c0,2.07.72,2.51,2.99,2.94v.48h-9.02v-.48c2.41-.43,3.13-.87,3.13-2.94Z"/>
    <path class="cls-2" d="M169.59,75c0-7.43,10.17-9.11,14.22-9.88v-1.64c0-4.63-2.22-6.65-5.3-6.65-3.37,0-6.03,2.41-6.03,6.12,0,.82.14,1.83.43,2.8h-.29l-2.51-6.27c1.4-1.59,4-3.81,9.07-3.81s7.52,2.22,7.52,7.23v13.41c0,1.93.29,2.6,1.59,2.6.48,0,.96-.1,1.5-.14v.48l-5.55,1.54h-.43v-5.74c-.53,1.69-3.13,6.27-8.05,6.27-3.62,0-6.17-2.51-6.17-6.32ZM176.87,79.58c3.42,0,5.98-3.57,6.94-5.88v-7.76c-2.75.68-11.09,2.17-11.09,8.58,0,2.7,1.3,5.06,4.15,5.06Z"/>
    <path class="cls-2" d="M189.69,56.87v-.48h10.56v.48c-3.47.53-4,.82-3.33,2.6l6.8,17.99,6.32-18.13c.67-1.78.1-2.07-3.57-2.46v-.48h9.45v.48c-2.56.29-3.76.53-4.48,2.56l-7.67,21.36h-1.83l-8.15-21.31c-.68-1.78-1.54-2.31-4.1-2.6Z"/>
    <path class="cls-2" d="M228.75,79.49c3.66,0,7.04-2.41,8.87-7.18h.29c-1.54,5.06-5.16,9.02-10.66,9.02-6.99,0-11.04-6.17-11.04-12.63,0-7.18,5.11-13.02,11.24-13.02,5.11,0,9.02,3.95,9.02,10.42v.92h-17.7v.05c0,6.89,4.34,12.44,9.98,12.44ZM233.38,65.7c0-4.92-2.27-8.44-6.46-8.44-4.63,0-7.62,3.62-8.1,8.44h14.56Z"/>
    <path class="cls-2" d="M242.83,77.22v-15.91c0-2.41-.34-3.28-1.78-3.28-.38,0-.82.1-1.35.14v-.48l5.4-1.3h.63v6.56h.05c.82-2.94,2.85-7.28,6.41-7.28,2.31,0,3.62,1.88,4.24,3.04l-3.18,7.52h-.24c.53-1.78.92-3.33.92-4.92,0-2.17-1.01-3.62-2.56-3.62-2.94,0-4.97,5.4-5.64,9.64v9.88c0,2.27.72,2.65,3.23,3.09v.48h-9.26v-.48c2.41-.43,3.13-.92,3.13-3.09Z"/>
    <path class="cls-2" d="M258.45,75c0-7.43,10.17-9.11,14.22-9.88v-1.64c0-4.63-2.22-6.65-5.3-6.65-3.37,0-6.03,2.41-6.03,6.12,0,.82.14,1.83.43,2.8h-.29l-2.51-6.27c1.4-1.59,4-3.81,9.07-3.81s7.52,2.22,7.52,7.23v13.41c0,1.93.29,2.6,1.59,2.6.48,0,.96-.1,1.5-.14v.48l-5.55,1.54h-.43v-5.74c-.53,1.69-3.13,6.27-8.05,6.27-3.62,0-6.17-2.51-6.17-6.32ZM265.73,79.58c3.42,0,5.98-3.57,6.94-5.88v-7.76c-2.75.68-11.09,2.17-11.09,8.58,0,2.7,1.3,5.06,4.15,5.06Z"/>
  </g>
  <g>
    <path class="cls-2" d="M78.91,108.41c0,.81-1.3,1.15-1.94,2-.29.38.03.92.35.93.69.02.43-.72,1.13-1.1,1.32-.73,9.66.6,9.66-1.21s-4.83-5.13-16.91-5.13-24.16,4.53-33.22,7.85-19.63,6.95-23.56,7.85-4.53.6-4.83.3,2.11-3.02,2.72-4.53.75-3.72,1.21-4.9c.46-1.18,1.34-2.56.82-2.95-.51-.39-3.03,1.97-3.44,2.74s.1,1.03-.72,2.83c-.82,1.8-1.49,2.98-3.03,4.93-1.54,1.95-5.55,4.11-5.5,4.78.05.67,3.08,1.18,8.64,0,5.55-1.18,16.09-5.71,28.22-9.97,12.13-4.27,24.01-6.73,31.15-6.73s9.25,1.13,9.25,2.31Z"/>
    <path class="cls-2" d="M2.52,120.43c.64.25,2.91-7.66,8.04-12.06,5.13-4.41,8.04-5.56,11.55-5.6,3.51-.04,3.85,1.97,4.79,2.01.94.04,2.27-1.67,2.18-2.91-.09-1.24-1.5-2.91-4.66-2.91s-9.67,2.22-14.2,7.06c-4.53,4.83-8.81,13.99-7.7,14.42Z"/>
    <path class="cls-2" d="M6.37,108.25c.06-.97-.74.17-.52-1.26.23-1.43,2.29-5.09,4.86-7.78,2.58-2.69,5.61-4.24,6.81-4.41s1.66.29,1.89,0c.23-.29.46-1.72-.74-3.32-1.2-1.6-2.48-2.4-2.95-2-.48.4.23.36-.43,1.41-.66,1.04-5.44,7.98-6.25,7.63s2.27-4.78,1.62-11.07c-.66-6.28-3.62-8.21-6.48-8.1-2.85.12-3.49,1.31-3.71,2.7s.16,1.85.36,1.85.08-1.47,2.51-1.31c2.43.15,4.47,4.67,4.16,9.21-.31,4.55-1.16,7.79-2.04,9.14s-1.08.62-1.58,1.35c-.5.73-2.93,7.33-3.47,10.26-.54,2.93-.56,9.05.07,9.15,1.19.2,1.37-5.15,2.58-8.41,1.2-3.26,3.26-4.06,3.32-5.04Z"/>
    <path class="cls-2" d="M18.46,95.82c-1.08.21-3.93,1.44-6.73,4.34-2.8,2.9-5.71,6.91-4.76,7.43.51.28,2.83-3.69,6.53-6.45,2.96-2.2,4.19-1.99,5.32-2.18s1.47-1.19,1.39-1.88c-.08-.69-.67-1.47-1.75-1.26Z"/>
    <path class="cls-2" d="M4.56,100.06c.64,0,1.9-4.96,1.9-8.3s-1.29-7.04-2.78-7.9c-1.18-.67-2.08.42-2.03,1.01.2,2.24,2.38,1.37,3,7.25.57,5.33-.79,7.95-.1,7.94Z"/>
    <path class="cls-2" d="M245.5,108c-.12-.27-.38-.45-.67-.42l-1.64.16c-.44.04-.73.49-.59.9.2.56.65,1.26,1.65,1.59,1.81.6,11.78.3,11.78,2.11s-37.45,5.44-96.04,5.38c-58.59.05-96.04-3.57-96.04-5.38s9.97-1.51,11.78-2.11c1-.33,1.45-1.03,1.65-1.59.15-.41-.15-.86-.59-.9l-1.64-.16c-.29-.03-.54.15-.67.42-1.27,2.71-21.71-1.15-21.71,3.44,0,3.62,18.72,8.75,107.21,8.75s107.21-5.13,107.21-8.75c0-4.59-20.44-.73-21.71-3.44Z"/>
    <path class="cls-2" d="M312.85,118.02c-1.54-1.95-2.21-3.14-3.03-4.93-.82-1.8-.31-2.06-.72-2.83-.41-.77-2.93-3.14-3.44-2.74-.51.39.36,1.77.82,2.95.46,1.18.6,3.39,1.21,4.9s3.02,4.23,2.72,4.53-.91.6-4.83-.3-14.5-4.53-23.56-7.85c-9.06-3.32-21.14-7.85-33.22-7.85s-16.91,3.32-16.91,5.13,8.34.48,9.66,1.21c.7.39.44,1.12,1.13,1.1.32,0,.64-.54.35-.93-.64-.85-1.94-1.2-1.94-2,0-1.18,2.11-2.31,9.25-2.31s19.02,2.47,31.15,6.73c12.13,4.27,22.67,8.79,28.22,9.97,5.55,1.18,8.58.67,8.64,0,.05-.67-3.96-2.83-5.5-4.78Z"/>
    <path class="cls-2" d="M293.1,104.78c.94-.04,1.28-2.05,4.79-2.01,3.51.04,6.42,1.2,11.55,5.6,5.13,4.41,7.4,12.31,8.04,12.06,1.11-.43-3.17-9.58-7.7-14.42-4.53-4.83-11.04-7.06-14.2-7.06s-4.58,1.67-4.66,2.91c-.09,1.24,1.24,2.95,2.18,2.91Z"/>
    <path class="cls-2" d="M316.13,102.29c-.5-.73-.69,0-1.58-1.35s-1.73-4.59-2.04-9.14c-.31-4.55,1.73-9.06,4.16-9.21,2.43-.15,2.31,1.31,2.51,1.31s.58-.46.36-1.85-.86-2.58-3.71-2.7c-2.85-.12-5.82,1.81-6.48,8.1-.66,6.28,2.43,10.72,1.62,11.07s-5.59-6.59-6.25-7.63c-.66-1.04.05-1-.43-1.41-.48-.4-1.75.4-2.95,2-1.2,1.6-.97,3.03-.74,3.32.23.29.69-.17,1.89,0,1.2.17,4.24,1.72,6.81,4.41,2.58,2.69,4.64,6.35,4.86,7.78.23,1.43-.57.29-.52,1.26s2.12,1.77,3.32,5.04c1.2,3.26,1.39,8.61,2.58,8.41.63-.1.61-6.22.07-9.15-.54-2.93-2.97-9.52-3.47-10.26Z"/>
    <path class="cls-2" d="M301.54,95.82c-1.08-.21-1.67.57-1.75,1.26-.08.69.26,1.7,1.39,1.88s2.36-.03,5.32,2.18c3.7,2.76,6.02,6.73,6.53,6.45.95-.51-1.95-4.52-4.76-7.43-2.8-2.9-5.65-4.14-6.73-4.34Z"/>
    <path class="cls-2" d="M318.35,84.87c.05-.59-.85-1.69-2.03-1.01-1.49.86-2.78,4.56-2.78,7.9s1.26,8.3,1.9,8.3c.69,0-.66-2.62-.1-7.94.63-5.88,2.8-5.01,3-7.25Z"/>
  </g>
  <g>
    <path class="cls-2" d="M304.45,51.49c.18.46,1.02.51,1.43.18.93-.75.23-2.37,1.3-2.47s2.79,2.09,5.77,14.84c2.98,12.75,1.65,13.81,2.63,13.79.54-.01,1.19-5.52-2.79-21.56-3.12-12.59-6.75-17.49-8.4-16.52-1.64.98,1.28,10.07.84,10.66-.44.59-1.02.51-.79,1.08Z"/>
    <path class="cls-2" d="M233.7,3.71c1.96.17,7.73.62,8.26.62s2.11-1.03,1.9-1.23c-.44-.44-8.33-.66-8.52-1.23s.47-.32,1.14-.44c.66-.13.89-.41.95-.73.06-.32-.2-.73-.86-.69-.52.03-.56.57-1.16.87s-2.09.1-3.11,0-3.67.13-3.77,1.11c-.09.98,3.2,1.55,5.16,1.73Z"/>
    <path class="cls-2" d="M240.92,7.52c.5,3.1,19.48,1.68,26.76,2.97,7.27,1.29,12.98,4.22,13.18,4.6.28.53-.59.11-.83.25-.39.21-.17.59-.05.64.48.21.77-.18,1.45,0,.68.18,3.44,2.39,4.1,2.55s3.73.95,3.99-.21c.26-1.16-3.49-4.91-9.48-7.75-5.99-2.84-16.23-4.96-19.77-5.49s-6.2-.76-7.35-.71c-1.16.05-3.2.89-3.07,1.18.13.29,4.96.21,9.27.84,4.31.63,8.35,1.55,8.22,2.02s-15.55-.76-17.36-1.05c-1.81-.29-2.55-.6-2.55-1.05s2.89-2.49,7.77-3.28c4.88-.79,10.45-.63,12.55-.45.21-.13,1.52-.95,1.39-1.18s-6.36-.93-11.6-.74c-7.09.25-17.13,3.76-16.63,6.86Z"/>
    <path class="cls-2" d="M290.69,14.92c-.38.96,4.82,3.64,6.27,2.84,1.24-.69-.96-4.37-5.26-7.17-4.3-2.8-14.98-7.17-16.51-7.26-1.53-.1-2.53.57-2.12,1.08s5.81,1,11.77,4.07c5.95,3.06,8.54,5.95,8.2,6.65-.33.69-1.96-1.15-2.34-.19Z"/>
    <path class="cls-2" d="M268.7,3.14c-.04.57.51.85,1.43,1.08.92.23,2.23.07,2.19-.21-.04-.32-.43-.2-.45-.53-.02-.33.68-.96,3.27-1.17s9.25.6,13.68,3.14c4.43,2.54,7.56,5.77,8.19,7.57.63,1.8.55,2.87,1.5,3.71.95.84,2.93.47,3.14.21.21-.27-.65-1.59-.28-2.68.36-1.09,1.75-2.21,3.46-2.24,1.7-.03,1.64,1.01,2.27.93.63-.08,2.04-2.02,2.63-2.97.6-.95,1.61-2.52,1.61-4.94s-1.66-3.93-2.93-4.43c-1.28-.5-2.4.14-2.41.46-.02.32.35.25.73.36.38.11,1.03.68,1.03,2.07s-1.26,3.82-5.11,3.82-5.6-.84-7.89-1.7c-2.29-.87-6.94-2.67-7.28-2.91s.05-.85-.11-1.03c-.16-.17-2.48-1.39-9.34-1.28-6.85.11-9.27,2.18-9.31,2.75Z"/>
    <path class="cls-2" d="M302.11,6.2c3.52,0,4.43-1.55,4.56-2.38.15-.97-.2-2.06-1.29-1.85-.54.11-.27.89-1.32,1.53-1.13.69-5.02.63-8.93-.2-4.1-.86-6.72-1.91-6.77-1.33-.03.39,10.23,4.23,13.74,4.23Z"/>
    <path class="cls-2" d="M314.57,51.7c.74-.36-.02-8.29-3.61-17.25-3.6-8.96-8.79-13.37-10.12-12.93-.72.24-.21,1.69.39,2.97.75,1.57,1.01,1.46,1.12,2.13.07.39,0,.61.09,1.03.14.56.71.69.95.44.3-.32.05-.83.5-.93.46-.1,3.31,3.39,6.25,10.11,2.94,6.72,3.88,14.69,4.43,14.42Z"/>
    <path class="cls-2" d="M315.55,4c-1.2,1.39-5.27,6.29-5.02,6.6.26.33,6.48-4.08,7.59-4.95s2.08-2.28,1.1-3.15c-.97-.87-2.46.1-3.67,1.5Z"/>
    <path class="cls-2" d="M311.75,7.53c.28-.1,1.28-1.67,2.31-2.92,1.03-1.26,2.9-2.63,2.53-3.08-.23-.27-4.79.18-5.02.54s.49.77.67,2.28c.18,1.51-.86,3.32-.49,3.18Z"/>
    <path class="cls-2" d="M318.25,6.68c-1.52,1.08-5.31,3.21-4.99,3.47.23.19,2.53-.21,3.75.37,1.22.59,1.4,1.14,1.7.99l.31-.16s.41-.97.49-2.85c.08-1.88-.12-2.41-.45-2.41-.33,0-.53.38-.81.59Z"/>
    <path class="cls-2" d="M319.36,13.55c-.91-1.38-3.53-2.59-6.36-2.59s-4.76,2.13-4.99,2.71.44,1.92,0,3.22c-.44,1.29-2.19,2.56-3.06,2.62-.87.06-1.61-1.06-2.16-.68-.55.38.14,2.11.68,2.84.54.73,1.86,1.77,2.59,2.08.73.32,1.14-.13,1.59.13s2.14,1.55,4.51,7.48c2.37,5.93,3.5,11.2,3.59,15.3.09,4.1-.5,6.37-.93,6.37s-.21-.95-.62-.69c-.41.25.16,3.53,1.29,3.6,1.14.06,2.05-4.58,2.05-9.59s-.56-10.63-.69-10.79c-.13-.17-.34.15-.97-.39-.63-.54-1.12-1.66-1.62-3.11-.5-1.45-1.86-6.63-2.09-9.93-.22-3.3.7-5.12,1.9-6.11,1.28-1.06,3.1-.65,3.55-.35.34.22.73.66.81,1.06.1.54-.1.88.23.91,1.24.12,1.89-2.26.69-4.07Z"/>
    <path class="cls-2" d="M317.2,16.64c-.52-.4-1.74-.57-2.57.21-.83.78-1.37,2.47-1.25,6.57s2.64,11.3,3,11.16-.41-2.64-.68-4.83c-.27-2.2-.54-6.36.44-10.5.23-.96.9-1.28,1.4-1.06.18.08.58-.85-.34-1.54Z"/>
  </g>
  <g>
    <path class="cls-2" d="M78.03,4.33c.54,0,6.3-.44,8.26-.62s5.26-.74,5.16-1.73c-.09-.98-2.75-1.2-3.77-1.11s-2.5.29-3.11,0-.64-.84-1.16-.87c-.66-.04-.93.37-.86.69.06.32.28.6.95.73.66.13,1.33-.13,1.14.44s-8.07.79-8.52,1.23c-.21.21,1.36,1.23,1.9,1.23Z"/>
    <path class="cls-2" d="M52.24,2.59c2.1-.18,7.67-.34,12.55.45,4.88.79,7.77,2.84,7.77,3.28s-.74.76-2.55,1.05c-1.81.29-17.23,1.52-17.36,1.05s3.91-1.39,8.22-2.02c4.31-.63,9.14-.55,9.27-.84.13-.29-1.92-1.13-3.07-1.18-1.16-.05-3.81.18-7.35.71s-13.79,2.65-19.77,5.49c-5.99,2.84-9.74,6.59-9.48,7.75.26,1.16,3.33.37,3.99.21s3.41-2.36,4.1-2.55c.68-.18.97.2,1.45,0,.12-.05.35-.43-.05-.64-.24-.13-1.11.28-.83-.25.2-.37,5.91-3.31,13.18-4.6,7.27-1.29,26.26.13,26.76-2.97.5-3.1-9.54-6.6-16.63-6.86-5.25-.19-11.47.5-11.6.74s1.18,1.05,1.39,1.18Z"/>
    <path class="cls-2" d="M35.16,8.46c5.95-3.06,11.36-3.56,11.77-4.07s-.59-1.17-2.12-1.08c-1.53.1-12.2,4.46-16.51,7.26s-6.5,6.48-5.26,7.17c1.45.81,6.65-1.88,6.27-2.84-.38-.96-2.01.88-2.34.19-.33-.69,2.25-3.59,8.2-6.65Z"/>
    <path class="cls-2" d="M12.91,12.95c.63.08.57-.96,2.27-.93s3.09,1.15,3.46,2.24c.36,1.09-.49,2.41-.28,2.68.21.27,2.19.63,3.14-.21.95-.84.87-1.91,1.5-3.71.63-1.8,3.75-5.03,8.19-7.57,4.43-2.54,11.09-3.34,13.68-3.14s3.28.84,3.27,1.17c-.02.33-.41.21-.45.53-.03.28,1.27.44,2.19.21.92-.23,1.47-.51,1.43-1.08-.04-.57-2.46-2.65-9.31-2.75-6.85-.11-9.18,1.11-9.34,1.28-.16.17.23.79-.11,1.03s-4.99,2.04-7.28,2.91c-2.29.87-4.04,1.7-7.89,1.7s-5.11-2.43-5.11-3.82.65-1.96,1.03-2.07.74-.05.73-.36-1.14-.96-2.41-.46c-1.28.5-2.93,2.02-2.93,4.43s1.01,3.99,1.61,4.94c.6.95,2,2.89,2.63,2.97Z"/>
    <path class="cls-2" d="M13.33,3.82c.13.83,1.04,2.38,4.56,2.38s13.78-3.83,13.74-4.23c-.05-.57-2.67.47-6.77,1.33-3.91.82-7.8.89-8.93.2-1.05-.64-.77-1.42-1.32-1.53-1.09-.21-1.44.88-1.29,1.85Z"/>
    <path class="cls-2" d="M16.61,28.09c.24.25.81.12.95-.44.1-.42.03-.64.09-1.03.11-.67.38-.56,1.12-2.13.61-1.28,1.12-2.73.39-2.97-1.33-.44-6.52,3.97-10.12,12.93-3.6,8.96-4.35,16.89-3.61,17.25.55.27,1.49-7.7,4.43-14.42,2.94-6.72,5.79-10.21,6.25-10.11.46.1.2.61.5.93Z"/>
    <path class="cls-2" d="M1.89,5.66c1.1.87,7.33,5.28,7.59,4.95.24-.32-3.82-5.21-5.02-6.6C3.25,2.61,1.76,1.63.79,2.5c-.97.87,0,2.28,1.1,3.15Z"/>
    <path class="cls-2" d="M5.94,4.61c1.03,1.26,2.03,2.82,2.31,2.92.38.14-.67-1.67-.49-3.18.18-1.51.9-1.92.67-2.28s-4.8-.81-5.02-.54c-.37.44,1.51,1.82,2.53,3.08Z"/>
    <path class="cls-2" d="M.94,6.09c-.34,0-.53.53-.45,2.41.08,1.88.49,2.85.49,2.85l.31.16c.31.16.48-.4,1.7-.99,1.22-.59,3.52-.18,3.75-.37.32-.27-3.47-2.4-4.99-3.47-.29-.2-.48-.59-.81-.59Z"/>
    <path class="cls-2" d="M4.5,55.94c1.14-.06,1.7-3.34,1.29-3.6-.41-.25-.2.69-.62.69s-1.02-2.27-.93-6.37c.09-4.1,1.22-9.37,3.59-15.3s4.05-7.23,4.51-7.48c.45-.25.86.19,1.59-.13.73-.32,2.05-1.36,2.59-2.08.54-.73,1.23-2.46.68-2.84-.55-.38-1.29.74-2.16.68s-2.62-1.33-3.06-2.62c-.44-1.29.22-2.63,0-3.22s-2.16-2.71-4.99-2.71-5.44,1.2-6.36,2.59c-1.2,1.81-.55,4.19.69,4.07.33-.03.13-.37.23-.91.07-.4.47-.83.81-1.06.45-.3,2.27-.71,3.55.35,1.2,1,2.12,2.81,1.9,6.11-.22,3.3-1.58,8.48-2.09,9.93-.5,1.45-.99,2.57-1.62,3.11-.63.54-.84.22-.97.39-.13.17-.69,5.78-.69,10.79s.92,9.66,2.05,9.59Z"/>
    <path class="cls-2" d="M3.86,19.24c.98,4.14.71,8.3.44,10.5-.27,2.2-1.04,4.69-.68,4.83s2.88-7.06,3-11.16-.42-5.79-1.25-6.57c-.83-.78-2.05-.61-2.57-.21-.92.7-.52,1.62-.34,1.54.5-.22,1.17.1,1.4,1.06Z"/>
    <path class="cls-2" d="M15.55,51.49c-.18.46-1.02.51-1.43.18-.93-.75-.23-2.37-1.3-2.47s-2.79,2.09-5.77,14.84c-2.98,12.75-1.65,13.81-2.63,13.79-.54-.01-1.19-5.52,2.79-21.56,3.12-12.59,6.75-17.49,8.4-16.52,1.64.98-1.28,10.07-.84,10.66.44.59,1.02.51.79,1.08Z"/>
  </g>
</svg>