<?xml version="1.0" encoding="UTF-8"?>
<svg id="refs" xmlns="http://www.w3.org/2000/svg" viewBox="0 0 1392.47 964.54">
  <defs>
    <style>
      .cls-1 {
        fill: #284e42;
      }
    </style>
  </defs>
  <path class="cls-1" d="M374.4,856.63c0,3.2-5.14,4.55-7.69,7.95-1.14,1.52.12,3.65,1.4,3.68,2.73.06,1.71-2.86,4.48-4.38,5.26-2.9,38.36,2.4,38.36-4.79s-19.18-20.38-67.13-20.38-95.9,17.98-131.86,31.17c-35.96,13.19-77.91,27.57-93.5,31.17-15.58,3.6-17.98,2.4-19.18,1.2s8.39-11.99,10.79-17.98c2.4-5.99,2.96-14.77,4.79-19.46,1.84-4.69,5.3-10.15,3.26-11.71-2.04-1.56-12.04,7.83-13.67,10.89-1.63,3.06.41,4.08-2.86,11.22-3.26,7.14-5.92,11.83-12.04,19.59-6.12,7.75-22.04,16.32-21.83,18.98.2,2.65,12.24,4.69,34.28,0,22.04-4.69,63.86-22.65,112.01-39.58,48.15-16.93,95.28-26.73,123.64-26.73s36.73,4.49,36.73,9.18Z"/>
  <path class="cls-1" d="M71.19,904.35c2.56.98,11.55-30.39,31.92-47.88,20.37-17.49,31.92-22.07,45.84-22.24,13.92-.17,15.28,7.81,19.02,7.98,3.74.17,9-6.62,8.66-11.55-.34-4.92-5.94-11.55-18.51-11.55s-38.37,8.83-56.37,28.02c-18,19.19-34.98,55.52-30.56,57.22Z"/>
  <path class="cls-1" d="M86.45,855.99c.23-3.86-2.95.68-2.04-5,.91-5.68,9.09-20.22,19.31-30.89,10.22-10.68,22.26-16.81,27.03-17.49,4.77-.68,6.59,1.14,7.5,0,.91-1.14,1.82-6.81-2.95-13.18-4.77-6.36-9.83-9.54-11.73-7.95-1.9,1.59.89,1.45-1.71,5.58-2.6,4.13-21.58,31.68-24.79,30.3s9.03-18.98,6.43-43.92c-2.6-24.94-14.38-32.59-25.71-32.13-11.32.46-13.85,5.2-14.73,10.71-.88,5.51.65,7.35,1.42,7.35s.31-5.81,9.95-5.2c9.64.61,17.75,18.52,16.53,36.57-1.22,18.06-4.59,30.91-8.11,36.27-3.52,5.36-4.28,2.45-6.27,5.36-1.99,2.91-11.63,29.07-13.77,40.7-2.14,11.63-2.23,35.9.26,36.31,4.71.78,5.45-20.44,10.22-33.39,4.77-12.95,12.95-16.13,13.18-19.99Z"/>
  <path class="cls-1" d="M134.46,806.64c-4.28.82-15.61,5.71-26.73,17.24-11.12,11.53-22.65,27.44-18.87,29.48,2.02,1.09,11.22-14.66,25.92-25.61,11.75-8.74,16.62-7.9,21.1-8.64,4.49-.74,5.81-4.72,5.51-7.48-.31-2.75-2.65-5.81-6.94-5Z"/>
  <path class="cls-1" d="M79.27,823.48c2.55-.02,7.55-19.69,7.55-32.95s-5.11-27.95-11.03-31.35c-4.66-2.68-8.26,1.69-8.05,4.01.79,8.9,9.43,5.43,11.91,28.78,2.25,21.14-3.14,31.54-.38,31.52Z"/>
  <path class="cls-1" d="M123.21,240.76c-7.96-4.74-25.59,19.03-40.71,80.1-19.27,77.82-18.72,144.12-16.09,144.18,4.74.1.9-44.67,15.34-106.49,14.44-61.82,22.79-72.42,27.97-71.97,5.19.45,1.79,8.33,6.32,11.96,1.99,1.6,6.04,1.36,6.92-.87,1.09-2.75-1.71-2.37-3.84-5.22-2.13-2.85,12.04-46.95,4.09-51.69Z"/>
  <path class="cls-1" d="M425.97,68.98c2.61,0,30.56-2.15,40.08-2.99,9.52-.84,25.49-3.61,25.03-8.37-.46-4.76-13.36-5.84-18.27-5.37s-12.15,1.41-15.06-.03-3.12-4.07-5.63-4.22c-3.22-.2-4.49,1.79-4.18,3.33.31,1.54,1.38,2.92,4.61,3.53,3.22.61,6.45-.61,5.53,2.15-.92,2.76-39.16,3.84-41.31,5.99-1,1,6.6,5.99,9.21,5.99Z"/>
  <path class="cls-1" d="M300.9,60.51c10.19-.89,37.19-1.66,60.87,2.17,23.69,3.82,37.69,13.75,37.69,15.92s-3.57,3.69-12.35,5.09c-8.79,1.4-83.54,7.39-84.18,5.09-.64-2.29,18.97-6.75,39.86-9.81,20.88-3.06,44.32-2.67,44.95-4.08.64-1.4-9.3-5.48-14.9-5.73-5.6-.25-18.47.89-35.66,3.44s-66.86,12.86-95.89,26.62c-29.03,13.75-47.25,31.96-45.97,37.57,1.27,5.6,16.17,1.78,19.36,1.02,3.18-.76,16.56-11.46,19.87-12.35,3.31-.89,4.71.97,7.05-.04.6-.26,1.68-2.08-.22-3.1-1.18-.64-5.39,1.37-4.03-1.19.96-1.8,28.65-16.05,63.93-22.29,35.27-6.24,127.35.64,129.77-14.39,2.42-15.03-46.28-32.02-80.64-33.25-25.44-.91-55.62,2.43-56.26,3.58s5.73,5.09,6.75,5.73Z"/>
  <path class="cls-1" d="M218.07,89c28.88-14.84,55.09-17.28,57.06-19.71s-2.86-5.68-10.28-5.22c-7.42.46-59.18,21.62-80.06,35.22-20.87,13.6-31.54,31.41-25.51,34.77,7.02,3.92,32.24-9.11,30.38-13.75-1.86-4.64-9.74,4.29-11.37.93-1.62-3.36,10.9-17.4,39.78-32.24Z"/>
  <path class="cls-1" d="M110.15,110.77c3.06.38,2.75-4.67,11.02-4.51,8.26.15,15,5.59,16.76,10.86,1.76,5.28-2.37,11.71-1.38,13.01.99,1.3,10.64,3.06,15.23-.99,4.59-4.06,4.21-9.26,7.27-17.98,3.06-8.72,18.21-24.41,39.71-36.73,21.5-12.32,53.79-16.22,66.34-15.23,12.55.99,15.91,4.06,15.84,5.66-.08,1.61-1.99,1-2.18,2.56-.17,1.36,6.15,2.14,10.62,1.04,4.47-1.1,7.13-2.46,6.93-5.25-.19-2.79-11.92-12.83-45.16-13.35-33.24-.52-44.51,5.38-45.29,6.22-.78.84,1.1,3.82-.52,4.99-1.62,1.17-24.19,9.91-35.28,14.11-11.09,4.21-19.59,8.26-38.26,8.26s-24.79-11.78-24.79-18.52,3.14-9.49,4.97-10.02,3.6-.23,3.52-1.76-5.51-4.67-11.71-2.22c-6.2,2.45-14.23,9.79-14.23,21.5s4.9,19.36,7.8,23.95c2.91,4.59,9.72,14,12.78,14.38Z"/>
  <path class="cls-1" d="M112.2,66.48c.65,4.05,5.06,11.55,22.11,11.55s66.81-18.59,66.65-20.51c-.24-2.78-12.93,2.28-32.81,6.46-18.98,4-37.82,4.3-43.31.95-5.08-3.09-3.75-6.89-6.39-7.41-5.27-1.03-7,4.26-6.25,8.96Z"/>
  <path class="cls-1" d="M128.09,184.22c1.15,1.22,3.94.6,4.6-2.13.49-2.05.13-3.1.45-5,.55-3.27,1.82-2.71,5.44-10.34,2.94-6.21,5.42-13.23,1.91-14.39-6.47-2.13-31.64,19.24-49.08,62.7-17.44,43.46-21.11,81.92-17.52,83.65,2.67,1.29,7.25-37.36,21.48-69.94,14.23-32.59,28.08-49.54,30.29-49.04,2.21.49.97,2.93,2.44,4.5Z"/>
  <path class="cls-1" d="M56.71,75.41c5.34,4.23,35.55,25.61,36.79,23.99,1.18-1.54-18.52-25.27-24.36-32.03-5.84-6.76-13.05-11.48-17.77-7.26-4.72,4.23,0,11.06,5.34,15.29Z"/>
  <path class="cls-1" d="M76.33,70.31c4.99,6.09,9.83,13.67,11.2,14.17,1.83.66-3.23-8.08-2.36-15.41.87-7.33,4.35-9.32,3.23-11.06-1.12-1.74-23.26-3.94-24.36-2.61-1.78,2.15,7.3,8.82,12.29,14.92Z"/>
  <path class="cls-1" d="M52.1,77.53c-1.63,0-2.58,2.58-2.2,11.69.39,9.1,2.39,13.82,2.39,13.82l1.48.77c1.48.77,2.32-1.94,8.26-4.78,5.94-2.84,17.07-.86,18.21-1.81,1.55-1.29-16.85-11.62-24.21-16.85-1.38-.98-2.32-2.84-3.94-2.84Z"/>
  <path class="cls-1" d="M69.37,319.26c5.51-.31,8.26-16.22,6.27-17.44-1.99-1.22-.96,3.37-3.01,3.37s-4.95-11.02-4.49-30.91c.46-19.89,5.94-45.45,17.43-74.22,11.49-28.77,19.66-35.04,21.85-36.27,2.19-1.22,4.18.92,7.7-.61,3.52-1.53,9.95-6.58,12.55-10.1,2.6-3.52,5.97-11.94,3.29-13.77-2.68-1.84-6.27,3.6-10.48,3.29s-12.7-6.43-14.84-12.7c-2.14-6.27,1.07-12.78,0-15.61s-10.48-13.16-24.18-13.16-26.4,5.84-30.83,12.55c-5.81,8.8-2.69,20.33,3.35,19.75,1.62-.16.62-1.78,1.12-4.41.36-1.92,2.27-4.03,3.91-5.12,2.19-1.45,11.02-3.44,17.21,1.71,5.8,4.83,10.3,13.64,9.22,29.64-1.08,15.99-7.68,41.11-10.12,48.16-2.44,7.05-4.79,12.47-7.86,15.09-3.07,2.62-4.07,1.08-4.7,1.9-.63.81-3.33,28.02-3.33,52.35s4.44,46.83,9.95,46.52Z"/>
  <path class="cls-1" d="M66.23,141.3c4.73,20.09,3.43,40.26,2.13,50.92-1.3,10.66-5.04,22.73-3.29,23.44s13.94-34.22,14.54-54.11-2.01-28.06-6.04-31.85c-4.03-3.79-9.94-2.95-12.47-1.02-4.46,3.38-2.53,7.87-1.66,7.48,2.42-1.06,5.69.47,6.79,5.14Z"/>
  <path class="cls-1" d="M1035.6,855.01c-.5-1.06-1.49-1.79-2.66-1.67l-6.49.65c-1.74.17-2.92,1.93-2.32,3.57.8,2.23,2.58,4.99,6.54,6.31,7.19,2.4,46.75,1.2,46.75,8.39s-148.64,21.58-381.18,21.37c-232.55.2-381.18-14.18-381.18-21.37s39.56-5.99,46.75-8.39c3.96-1.32,5.74-4.09,6.54-6.31.59-1.64-.58-3.4-2.32-3.57l-6.49-.65c-1.16-.12-2.16.61-2.66,1.67-5.03,10.76-86.17-4.56-86.17,13.66,0,14.38,74.32,34.73,425.53,34.73s425.53-20.34,425.53-34.73c0-18.22-81.14-2.9-86.17-13.66Z"/>
  <path class="cls-1" d="M1302.9,894.79c-6.12-7.75-8.77-12.45-12.04-19.59-3.26-7.14-1.22-8.16-2.86-11.22-1.63-3.06-11.63-12.45-13.67-10.89-2.04,1.56,1.43,7.01,3.26,11.71,1.84,4.69,2.4,13.47,4.79,19.46,2.4,5.99,11.99,16.78,10.79,17.98s-3.6,2.4-19.18-1.2c-15.58-3.6-57.54-17.98-93.5-31.17-35.96-13.19-83.91-31.17-131.86-31.17s-67.13,13.19-67.13,20.38,33.1,1.89,38.36,4.79c2.77,1.53,1.75,4.45,4.48,4.38,1.28-.03,2.54-2.16,1.4-3.68-2.54-3.39-7.69-4.75-7.69-7.95,0-4.69,8.37-9.18,36.73-9.18s75.49,9.79,123.64,26.73c48.15,16.93,89.98,34.89,112.01,39.58,22.04,4.69,34.07,2.65,34.28,0,.2-2.65-15.71-11.22-21.83-18.98Z"/>
  <path class="cls-1" d="M1224.49,842.21c3.74-.17,5.09-8.15,19.02-7.98,13.92.17,25.47,4.75,45.84,22.24,20.37,17.49,29.37,48.86,31.92,47.88,4.41-1.7-12.56-38.03-30.56-57.22-18-19.19-43.81-28.02-56.37-28.02s-18.17,6.62-18.51,11.55c-.34,4.92,4.92,11.72,8.66,11.55Z"/>
  <path class="cls-1" d="M1315.9,832.35c-1.99-2.91-2.75,0-6.27-5.36-3.52-5.36-6.89-18.21-8.11-36.27-1.22-18.06,6.89-35.96,16.53-36.57,9.64-.61,9.18,5.2,9.95,5.2s2.3-1.84,1.42-7.35c-.88-5.51-3.41-10.25-14.73-10.71-11.32-.46-23.11,7.19-25.71,32.13-2.6,24.94,9.64,42.54,6.43,43.92s-22.19-26.17-24.79-30.3c-2.6-4.13.19-3.99-1.71-5.58-1.9-1.59-6.96,1.59-11.73,7.95-4.77,6.36-3.86,12.04-2.95,13.18.91,1.14,2.73-.68,7.5,0,4.77.68,16.81,6.81,27.03,17.49,10.22,10.68,18.4,25.21,19.31,30.89.91,5.68-2.27,1.14-2.04,5s8.41,7.04,13.18,19.99c4.77,12.95,5.52,34.17,10.22,33.39,2.49-.41,2.41-24.68.26-36.31-2.14-11.63-11.78-37.8-13.77-40.7Z"/>
  <path class="cls-1" d="M1258.01,806.64c-4.28-.82-6.63,2.24-6.94,5-.31,2.75,1.02,6.73,5.51,7.48,4.49.74,9.36-.1,21.1,8.64,14.7,10.94,23.9,26.7,25.92,25.61,3.77-2.04-7.75-17.95-18.87-29.48-11.12-11.53-22.44-16.42-26.73-17.24Z"/>
  <path class="cls-1" d="M1324.73,763.18c.21-2.33-3.39-6.69-8.05-4.01-5.92,3.4-11.03,18.09-11.03,31.35s5,32.93,7.55,32.95c2.75.03-2.63-10.38-.38-31.52,2.48-23.34,11.12-19.87,11.91-28.78Z"/>
  <path class="cls-1" d="M1269.5,297.67c.88,2.23,4.93,2.47,6.92.87,4.52-3.63,1.13-11.51,6.32-11.96s13.54,10.15,27.97,71.97c14.44,61.82,10.6,106.59,15.34,106.49,2.63-.06,3.19-66.36-16.09-144.18-15.12-61.07-32.76-84.84-40.71-80.1-7.96,4.74,6.22,48.85,4.09,51.69-2.13,2.85-4.93,2.47-3.84,5.22Z"/>
  <path class="cls-1" d="M926.42,65.98c9.52.84,37.47,2.99,40.08,2.99s10.21-4.99,9.21-5.99c-2.15-2.15-40.39-3.22-41.31-5.99s2.3-1.54,5.53-2.15c3.22-.61,4.3-2,4.61-3.53.31-1.54-.96-3.53-4.18-3.33-2.51.16-2.71,2.79-5.63,4.22s-10.15.49-15.06.03c-4.91-.46-17.81.61-18.27,5.37-.46,4.76,15.51,7.52,25.03,8.37Z"/>
  <path class="cls-1" d="M961.41,84.45c2.42,15.03,94.49,8.15,129.77,14.39,35.27,6.24,62.97,20.49,63.93,22.29,1.36,2.56-2.85.55-4.03,1.19-1.9,1.03-.82,2.85-.22,3.1,2.34,1,3.74-.86,7.05.04,3.31.89,16.68,11.59,19.87,12.35,3.18.76,18.08,4.58,19.36-1.02,1.27-5.6-16.94-23.81-45.97-37.57-29.03-13.75-78.7-24.07-95.89-26.62-17.19-2.55-30.05-3.69-35.66-3.44-5.6.25-15.54,4.33-14.9,5.73.64,1.4,24.07,1.02,44.95,4.08,20.88,3.06,40.5,7.51,39.86,9.81s-75.39-3.69-84.18-5.09c-8.79-1.4-12.35-2.93-12.35-5.09s14.01-12.1,37.69-15.92c23.69-3.82,50.68-3.06,60.87-2.17,1.02-.64,7.39-4.58,6.75-5.73s-30.82-4.49-56.26-3.58c-34.36,1.23-83.06,18.23-80.64,33.25Z"/>
  <path class="cls-1" d="M1202.81,120.31c-1.86,4.64,23.36,17.67,30.38,13.75,6.03-3.36-4.64-21.17-25.51-34.77-20.87-13.6-72.64-34.76-80.06-35.22-7.42-.46-12.25,2.78-10.28,5.22s28.18,4.87,57.06,19.71c28.88,14.84,41.4,28.88,39.78,32.24-1.62,3.36-9.51-5.57-11.37-.93Z"/>
  <path class="cls-1" d="M1096.16,63.21c-.19,2.79,2.46,4.15,6.93,5.25,4.47,1.1,10.79.32,10.62-1.04-.19-1.57-2.1-.96-2.18-2.56-.08-1.61,3.29-4.67,15.84-5.66,12.55-.99,44.84,2.91,66.34,15.23,21.5,12.32,36.65,28,39.71,36.73,3.06,8.72,2.68,13.93,7.27,17.98,4.59,4.05,14.23,2.3,15.23.99.99-1.3-3.14-7.73-1.38-13.01,1.76-5.28,8.49-10.71,16.76-10.86,8.26-.15,7.96,4.9,11.02,4.51,3.06-.38,9.87-9.79,12.78-14.38,2.91-4.59,7.8-12.24,7.8-23.95s-8.03-19.05-14.23-21.5c-6.2-2.45-11.63.69-11.71,2.22-.08,1.53,1.68,1.22,3.52,1.76,1.84.54,4.97,3.29,4.97,10.02s-6.12,18.52-24.79,18.52-27.16-4.06-38.26-8.26c-11.09-4.21-33.66-12.95-35.28-14.11-1.62-1.17.26-4.15-.52-4.99-.78-.84-12.05-6.74-45.29-6.22-33.24.52-44.96,10.56-45.16,13.35Z"/>
  <path class="cls-1" d="M1258.16,78.03c17.05,0,21.46-7.5,22.11-11.55.75-4.7-.98-9.99-6.25-8.96-2.64.52-1.31,4.32-6.39,7.41-5.5,3.35-24.33,3.05-43.31-.95-19.88-4.18-32.57-9.24-32.81-6.46-.16,1.92,49.6,20.51,66.65,20.51Z"/>
  <path class="cls-1" d="M1318.58,298.71c3.59-1.73-.07-40.2-17.52-83.65-17.44-43.46-42.62-64.83-49.08-62.7-3.51,1.16-1.04,8.18,1.91,14.39,3.62,7.63,4.9,7.07,5.44,10.34.32,1.9-.05,2.95.45,5,.66,2.73,3.45,3.35,4.6,2.13,1.47-1.56.22-4,2.44-4.5,2.21-.49,16.05,16.46,30.29,49.04,14.23,32.59,18.81,71.23,21.48,69.94Z"/>
  <path class="cls-1" d="M1323.33,67.37c-5.84,6.76-25.55,30.48-24.36,32.03,1.24,1.62,31.45-19.77,36.79-23.99s10.07-11.06,5.34-15.29c-4.72-4.23-11.93.5-17.77,7.26Z"/>
  <path class="cls-1" d="M1304.93,84.48c1.37-.5,6.21-8.08,11.2-14.17,4.99-6.09,14.07-12.76,12.29-14.92-1.1-1.33-23.24.87-24.36,2.61s2.36,3.73,3.23,11.06c.87,7.33-4.19,16.08-2.36,15.41Z"/>
  <path class="cls-1" d="M1336.43,80.37c-7.36,5.23-25.76,15.56-24.21,16.85,1.13.94,12.27-1.03,18.21,1.81,5.94,2.84,6.78,5.55,8.26,4.78l1.49-.77s2-4.71,2.39-13.82c.39-9.1-.57-11.68-2.2-11.69-1.61,0-2.55,1.86-3.94,2.84Z"/>
  <path class="cls-1" d="M1341.84,113.67c-4.43-6.71-17.14-12.55-30.83-12.55s-23.11,10.33-24.18,13.16,2.14,9.33,0,15.61c-2.14,6.27-10.64,12.39-14.84,12.7-4.21.31-7.8-5.13-10.48-3.29-2.68,1.84.69,10.25,3.29,13.77,2.6,3.52,9.03,8.57,12.55,10.1,3.52,1.53,5.51-.61,7.7.61,2.19,1.22,10.36,7.5,21.85,36.27,11.49,28.77,16.97,54.32,17.43,74.22.46,19.89-2.45,30.91-4.49,30.91s-1.02-4.59-3.01-3.37c-1.99,1.22.77,17.14,6.27,17.44,5.51.31,9.95-22.19,9.95-46.52s-2.69-51.53-3.33-52.35c-.63-.81-1.63.72-4.7-1.9-3.07-2.62-5.42-8.04-7.86-15.09-2.44-7.05-9.04-32.17-10.12-48.16-1.08-15.99,3.41-24.81,9.22-29.64,6.19-5.15,15.02-3.17,17.21-1.71,1.64,1.08,3.55,3.2,3.91,5.12.5,2.64-.5,4.26,1.12,4.41,6.03.58,9.16-10.95,3.35-19.75Z"/>
  <path class="cls-1" d="M1331.36,128.67c-2.54-1.93-8.45-2.77-12.47,1.02-4.03,3.79-6.63,11.96-6.04,31.85.59,19.89,12.79,54.82,14.54,54.11s-1.99-12.79-3.29-23.44c-1.3-10.66-2.6-30.83,2.13-50.92,1.1-4.67,4.37-6.19,6.79-5.14.88.38,2.8-4.1-1.66-7.48Z"/>
</svg>