<?xml version="1.0" encoding="UTF-8"?>
<svg id="Layer_1" data-name="Layer 1" xmlns="http://www.w3.org/2000/svg" viewBox="0 0 320 123.66">
  <defs>
    <style>
      .cls-1 {
        fill: #FFF5E9;
      }
    </style>
  </defs>
  <g>
    <g>
      <path class="cls-1" d="M111.7,15.21c.55.24,1.37.74,1.71,1.15l2.54,3.69c1.66,2.59,1.94,3.08,2.11,4.49.15,1.26.06,1.8-.43,2.76l-1.35,2.64c-.5.89-1.14,1.86-1.56,2.06-.42.28-1.21.59-1.88.67-.89.1-1.43.02-2.09-.51-.65-.38-1.1-1.07-1.51-1.93-.32-.79-.57-1.66-.61-2.03s.03-.98.31-1.24c.19-.32.53-.59.68-.61.22-.03,1.24.31,2.41.7,1.17.39,2.26.71,2.56.68.22-.03.77-.47,1.24-.97.57-.89.63-1.05.42-2.23-.18-.88-.86-2.16-2.21-4.1-1.08-1.53-2.31-3.04-2.72-3.29-.65-.38-1.26-.45-2.07-.36-.74.09-1.82.51-2.45.89-.63.38-1.51,1.23-1.97,1.81-.46.58-1.26,2.1-1.72,3.29-.46,1.18-1.38,3.02-2,4.07-.63,1.05-1.98,3.62-2.95,5.61-.96,2.07-3.15,5.86-4.79,8.54-1.73,2.61-4.82,8.31-7.02,12.63-2.12,4.39-4.75,9.51-5.81,11.44-1.04,2-2.32,4.63-2.84,5.9-.53,1.27-1.56,3.34-2.25,4.55-.68,1.28-1.84,2.92-2.57,3.76l-2.41,2.54c-.53.59-1.58,1.92-2.2,3.04-.63,1.05-1.46,2.28-1.95,2.64-.4.42-1.17.96-1.73,1.26-.5.21-2.03.61-3.3.76-1.56.18-2.69.16-3.39-.05-.55-.16-1.26-.45-1.59-.72-.32-.19-.85-.8-1.21-1.36-.29-.57-.63-1.51-.71-2.17-.09-.74-.11-1.57.06-2.04.02-.45.39-1.17.78-1.67.33-.41,1.36-1.21,2.28-1.7.91-.56,1.96-1.28,2.21-1.69.46-.58.54-1.19.46-3.14-.02-1.43.1-3.02.26-3.57.15-.62.75-1.97,1.3-3.01s1.36-3.17,1.85-4.73c.41-1.63,1.57-4.55,2.46-6.61l1.89-4.43c.16-.55.97-1.99,1.87-3.3.83-1.3,1.79-3.37,2.18-4.47.4-1.1.99-2.45,1.24-2.93.32-.49,1.33-1.51,2.23-2.14.98-.64,2-1.51,2.26-1.92.33-.41.6-1.27.69-1.81,0-.6-.08-1.34-.19-1.63-.19-.35-.76-.74-1.3-.83l-3.35-.36c-1.29-.08-3.05-.32-3.83-.6-.79-.28-1.89-.76-2.39-1.15-.49-.32-2.09-1.79-3.53-3.2-1.61-1.54-3.1-2.72-3.82-3.09-.95-.42-1.71-.48-3.65-.32-1.34.08-3.49.41-4.8.79-1.32.31-3.33,1.07-4.62,1.67-1.28.6-2.97,1.63-3.72,2.24-.76.61-1.82,1.79-2.41,2.54-.51.81-.98,1.92-1.06,2.53-.2.85-.11,1.59.34,2.89.39,1.38.49,2.27.42,3.56-.07,1.29.04,2.25.46,3.93.29,1.17.75,2.55,1.03,3.04.28.49.88,1.1,1.29,1.35.56.31,1.32.37,2.43.17.89-.1,2.56-.6,3.71-1.04,1.07-.5,2.56-1.28,3.26-1.74.61-.52,1.77-1.56,2.49-2.47.73-.84,1.61-2.3,1.94-3.31.51-1.41.9-1.91,1.81-2.54.76-.54,1.56-.79,2.75-.92.82-.1,1.8-.06,2.05.14.25.2.66.52.77.81.18.28.48.92.55,1.44.13.51.24,1.4.23,1.93.06.52-.09,1.14-.49,1.64-.32.49-.89.78-1.41.84-.44.05-1.66-.03-2.66-.22-.99-.11-2.13-.2-2.42-.09-.29.11-1.17.89-2.04,1.82-.79.92-1.94,2.03-2.64,2.49-.69.53-2.33,1.33-3.62,1.85-1.36.61-3.18,1.12-4.14,1.24-.89.1-2.1.02-2.58-.15-.54-.09-1.27-.53-1.69-.93-.5-.39-1.03-1.08-1.23-1.51l-1.02-2.89c-.36-1.16-.8-2.31-1.05-2.51-.17-.21-.97-.56-1.67-.78s-1.51-.65-1.91-.9c-.5-.39-.7-.82-.8-1.71-.08-.67.04-1.58.21-2.06.23-.63.76-1.22,1.81-1.87,1.48-.85,1.68-1.1,2.42-3.07.46-1.18,1.28-2.56,1.8-3.22.47-.51,1.77-1.56,2.82-2.29,1.04-.72,2.66-1.67,3.59-2.08.92-.48,2.44-1.04,3.37-1.37.95-.26,3.22-.75,5.15-.98,3.27-.38,3.56-.42,5.06.16,1.18.46,2.17,1.18,3.43,2.31l3.53,3.2c1,.86,2.31,1.76,2.87,2,.63.23,2.31.48,3.83.6,1.45.13,3.19.3,3.81.46.84.13,1.21.08,1.85-.29.43-.2,1.37-1.14,2.03-1.97,1.24-1.58,1.31-1.66,1.26-3.38-.04-.97.12-2.2.3-2.59.11-.39.57-.89.92-1.16.35-.27,1.15-.44,1.82-.51.74-.09,1.51.05,2.15.35.49.32,1.15.84,1.34,1.2.27.34.53,1.29.62,2.11.15,1.26.03,1.58-.55,2.32-.58.82-.87.93-2.43,1.11-.89.1-2.06.39-2.41.58-.35.19-1.38,1.06-2.33,1.93-1.15,1.11-1.73,1.93-1.81,2.54-.1.46-.21,1.45-.21,2.06,0,.68-.33,1.69-.63,2.33-.44.73-1.24,1.58-2.43,2.39-.97.72-1.99,1.66-2.37,2.23-.32.49-.86,1.68-1.11,2.69-.34.94-1.25,2.85-2.07,4.15-.9,1.31-1.88,3.23-2.35,4.34l-1.83,4.28c-.6,1.27-1.45,3.71-2,5.42-.49,1.64-1.47,4.16-2.07,5.43-.68,1.28-1.26,2.71-1.28,3.16-.1.46-.08,1.89-.08,3.17.03,1.5-.15,2.58-.38,3.13-.25.41-.93,1.09-1.56,1.46l-2.38,1.56c-1.04.72-1.31.98-1.42,1.97-.25,1.08-.21,1.38.34,2.22.36.49.96,1.17,1.44,1.41.72.37,1.18.46,3.11.24s2.51-.44,3.48-1.09c.69-.53,1.53-1.68,2.35-3.06.81-1.45,1.86-2.78,3.14-3.98,1.08-1.03,2.48-2.62,3.17-3.76l2.51-4.88c.63-1.65,2.22-4.77,3.32-7.01,1.17-2.17,3.81-7.29,5.81-11.36,2.08-4.08,5.12-9.63,6.77-12.23,1.64-2.67,3.69-6.38,4.6-8.21.9-1.91,2.33-4.49,3.08-5.85.75-1.29,1.85-3.45,2.45-4.8.58-1.42,1.52-3.04,2.05-3.7.61-.6,1.63-1.47,2.41-1.86.71-.38,1.93-.83,2.82-.93,1.04-.12,1.88,0,2.66.22Z"/>
      <path class="cls-1" d="M59.42,90.22c-.7,0-1.27-.07-1.71-.21-.44-.13-1.32-.45-1.78-.82-.43-.24-1.05-1.07-1.34-1.5-.35-.67-.71-1.68-.8-2.43-.08-.68-.13-1.6.07-2.23.07-.62.49-1.4.9-1.92.41-.52,1.54-1.37,2.48-1.86,1.25-.76,1.87-1.3,1.98-1.47.36-.46.44-.89.37-2.8-.02-1.32.08-3.07.28-3.76.17-.7.83-2.14,1.35-3.12.56-1.05,1.35-3.17,1.81-4.63.4-1.6,1.55-4.5,2.48-6.66l1.89-4.43c.16-.57,1-2.06,1.93-3.41.76-1.19,1.71-3.21,2.11-4.33.41-1.13,1.01-2.49,1.27-3,.39-.61,1.46-1.69,2.42-2.36,1.04-.68,1.93-1.49,2.09-1.75.28-.35.53-1.1.61-1.59,0-.51-.09-1.15-.16-1.32-.06-.09-.45-.38-.84-.45l-3.32-.35c-1.26-.07-3.11-.32-3.97-.64-.43-.16-1.87-.7-2.56-1.24-.51-.33-2.2-1.89-3.58-3.24-1.7-1.63-3.1-2.69-3.67-2.98-.81-.35-1.47-.41-3.33-.26-1.24.08-3.38.39-4.68.77-1.35.31-3.33,1.08-4.53,1.64-1.21.57-2.85,1.56-3.6,2.16-.68.55-1.71,1.68-2.32,2.45-.43.7-.87,1.72-.93,2.24-.18.79-.1,1.43.31,2.62.42,1.49.53,2.44.45,3.79-.07,1.22.04,2.13.44,3.75.31,1.25.75,2.5.97,2.89.24.42.77.95,1.08,1.14.42.23,1.06.26,2,.09.88-.1,2.52-.59,3.61-1.01,1-.47,2.47-1.23,3.14-1.68.32-.28,1.6-1.39,2.35-2.34.73-.84,1.55-2.24,1.84-3.13.54-1.48.99-2.12,2.03-2.85.81-.57,1.69-.87,3.02-1.03.19-.02,1.9-.21,2.49.26.38.3.76.63.93,1,.22.35.54,1.03.61,1.65.13.49.24,1.43.23,2.01.08.63-.15,1.4-.61,1.99-.36.55-1.06.98-1.81,1.07-.54.07-1.84-.04-2.83-.22-1.73-.19-2.09-.12-2.12-.11-.13.07-.85.65-1.79,1.66-.76.88-1.96,2.06-2.75,2.58-.72.56-2.39,1.36-3.72,1.91-1.45.65-3.33,1.17-4.3,1.28-.93.11-2.19.03-2.8-.16-.7-.13-1.5-.65-1.95-1.08-.55-.43-1.13-1.21-1.36-1.69l-1.04-2.95c-.44-1.41-.78-2.14-.88-2.27-.14-.13-.72-.42-1.45-.65-.74-.23-1.57-.67-2.05-.97-.77-.6-.98-1.26-1.08-2.15-.09-.78.05-1.8.24-2.33.29-.79.94-1.48,2.06-2.17,1.34-.77,1.46-.87,2.18-2.77.5-1.27,1.35-2.69,1.89-3.38.53-.57,1.83-1.63,2.95-2.41,1.1-.76,2.76-1.72,3.69-2.13.88-.46,2.29-.99,3.41-1.39,1.04-.29,3.33-.78,5.28-1.01,3.29-.39,3.71-.43,5.34.2,1.35.53,2.42,1.35,3.61,2.42l3.54,3.2c.98.84,2.24,1.69,2.7,1.89.51.18,2.13.43,3.65.56,1.57.14,3.26.31,3.91.47.67.1.91.07,1.4-.22.3-.14,1.15-.92,1.86-1.82q1.17-1.49,1.13-2.99c-.04-.92.09-2.29.35-2.86.13-.51.75-1.12,1.1-1.39.51-.4,1.55-.57,2.12-.64.84-.1,1.72.05,2.47.4.27.17,1.29.85,1.62,1.45.32.4.6,1.51.69,2.32.16,1.36.04,1.85-.68,2.76-.7.99-1.19,1.14-2.83,1.34-.91.11-1.96.39-2.2.52-.22.12-1.06.79-2.21,1.84-1.26,1.22-1.58,1.86-1.62,2.18-.09.46-.2,1.42-.21,1.98,0,.88-.43,2.04-.69,2.58-.56.93-1.46,1.82-2.63,2.63-.92.68-1.88,1.58-2.21,2.07-.26.4-.78,1.52-1.03,2.5-.39,1.09-1.33,3.05-2.14,4.33-.85,1.24-1.82,3.11-2.3,4.25l-1.83,4.28c-.59,1.24-1.41,3.59-1.98,5.37-.5,1.67-1.51,4.25-2.1,5.51-.73,1.39-1.22,2.66-1.23,2.93-.08.43-.08,1.63-.08,2.6v.54c.03,1.45-.13,2.65-.43,3.36-.34.57-1.09,1.32-1.81,1.74l-2.35,1.54c-.98.68-1.08.81-1.16,1.54-.23,1.01-.21,1.14.24,1.82.4.53.91,1.05,1.21,1.2.55.28.88.4,2.77.18,1.98-.23,2.38-.44,3.22-.99.54-.42,1.32-1.44,2.16-2.86.83-1.48,1.92-2.87,3.25-4.11,1-.95,2.38-2.51,3.07-3.63l2.49-4.84c.49-1.29,1.61-3.56,2.6-5.56l.71-1.44c1.17-2.16,3.78-7.23,5.81-11.37,2.01-3.94,5.1-9.61,6.8-12.28,1.62-2.64,3.67-6.35,4.57-8.16.78-1.65,1.96-3.81,2.74-5.25l.34-.62c.75-1.29,1.83-3.42,2.43-4.76.6-1.46,1.57-3.13,2.13-3.83.7-.7,1.77-1.6,2.62-2.03.71-.39,2.03-.88,3.02-.99.97-.12,1.86-.04,2.88.23l.08.03c.62.26,1.51.82,1.94,1.32l2.58,3.74c1.67,2.6,2.03,3.21,2.21,4.76.16,1.36.06,2.03-.49,3.1l-1.35,2.64c-1.12,2-1.65,2.24-1.84,2.33-.4.27-1.29.63-2.06.72-.95.11-1.67.04-2.53-.63-.61-.35-1.15-1.02-1.68-2.15-.33-.82-.61-1.76-.67-2.22-.04-.38,0-1.2.42-1.68.24-.38.69-.79,1.09-.83.3-.04.78.09,2.67.72,1.87.62,2.26.65,2.32.65h0s.39-.3.81-.75c.47-.74.48-.77.3-1.75-.16-.79-.85-2.05-2.11-3.87-1.2-1.69-2.29-2.96-2.54-3.13-.49-.28-.95-.36-1.68-.27-.66.08-1.66.48-2.22.81-.55.33-1.38,1.12-1.81,1.67-.42.53-1.2,2.02-1.63,3.13-.46,1.17-1.38,3.04-2.05,4.16-.63,1.06-2,3.66-2.93,5.57-.96,2.07-3.17,5.91-4.82,8.59-1.74,2.63-4.84,8.37-7,12.59-2.16,4.47-4.81,9.61-5.81,11.45-1.04,2-2.31,4.62-2.82,5.84-.51,1.22-1.55,3.33-2.28,4.62-.69,1.31-1.89,3-2.64,3.86l-2.43,2.56c-.49.54-1.51,1.83-2.11,2.92-.41.68-1.38,2.25-2.07,2.79-.5.51-1.3,1.06-1.86,1.34-.6.25-2.19.67-3.5.83-.73.09-1.37.13-1.93.13ZM57.88,24.18c1,0,1.63.13,2.34.45.85.43,2.41,1.68,4,3.2,1.52,1.48,3.03,2.85,3.45,3.13.45.35,1.45.79,2.27,1.09.65.23,2.29.49,3.66.57l3.38.36c.73.12,1.48.61,1.76,1.14.19.48.27,1.33.26,1.92-.09.63-.38,1.63-.82,2.18-.31.5-1.48,1.45-2.4,2.05-.86.6-1.8,1.57-2.06,1.97-.18.37-.77,1.68-1.17,2.8-.43,1.18-1.4,3.27-2.24,4.59-.92,1.34-1.67,2.7-1.8,3.15l-1.91,4.5c-.92,2.13-2.04,4.96-2.43,6.52-.49,1.55-1.31,3.75-1.91,4.87-.55,1.04-1.11,2.33-1.25,2.87-.13.46-.26,1.92-.24,3.42.08,1.97,0,2.76-.59,3.52-.31.5-1.46,1.27-2.37,1.83-.95.5-1.88,1.25-2.13,1.56-.38.48-.64,1.07-.65,1.33l-.04.17c-.11.31-.12.98-.03,1.77.07.58.38,1.46.64,1.97.37.56.82,1.02.98,1.12.3.23.91.5,1.46.66.43.13,1.32.25,3.15.03,1.18-.14,2.67-.53,3.14-.72.49-.25,1.19-.76,1.53-1.12l.08-.07c.33-.25,1.07-1.26,1.79-2.46.64-1.17,1.71-2.52,2.27-3.14l2.42-2.55c.69-.79,1.81-2.38,2.47-3.63.72-1.27,1.73-3.32,2.23-4.5.53-1.27,1.79-3.88,2.87-5.95,1-1.84,3.64-6.95,5.8-11.42,2.17-4.26,5.31-10.05,7.06-12.7,1.62-2.63,3.8-6.42,4.75-8.46.96-1.98,2.33-4.57,2.98-5.67.63-1.06,1.53-2.88,1.96-3.98.49-1.24,1.31-2.81,1.81-3.44.51-.64,1.44-1.54,2.14-1.96.67-.4,1.83-.87,2.69-.97.99-.12,1.72.01,2.44.44.65.4,2.18,2.44,2.91,3.46,1.4,2.01,2.11,3.34,2.31,4.33.25,1.36.14,1.67-.5,2.67l-.06.08c-.24.26-1.05,1.1-1.61,1.16-.18.02-.51.06-2.82-.7-.62-.21-1.74-.58-2.12-.65-.08.06-.19.17-.27.3l-.11.13c-.07.08-.16.44-.12.73.03.27.25,1.07.58,1.88.4.86.79,1.37,1.25,1.64.57.44.93.52,1.72.43.56-.07,1.26-.35,1.62-.58.21-.11.65-.58,1.37-1.86l1.33-2.62c.43-.85.5-1.28.37-2.42-.15-1.26-.37-1.66-2.02-4.24l-2.53-3.67c-.21-.24-.88-.69-1.42-.92-.58-.15-1.37-.31-2.39-.19-.81.1-1.96.51-2.61.86-.69.35-1.66,1.16-2.28,1.76-.46.58-1.37,2.17-1.91,3.5-.61,1.39-1.72,3.57-2.48,4.87l-.33.61c-.77,1.42-1.94,3.56-2.72,5.19-.91,1.83-2.94,5.51-4.64,8.27-1.69,2.65-4.75,8.28-6.74,12.18-2.04,4.14-4.66,9.23-5.82,11.38l-.7,1.42c-.98,1.98-2.09,4.22-2.58,5.52l-2.54,4.94c-.76,1.25-2.23,2.91-3.29,3.92-1.24,1.16-2.26,2.45-3.03,3.84-.66,1.11-1.62,2.56-2.51,3.24-1.12.74-1.71.96-3.78,1.21-2.01.24-2.6.14-3.46-.3-.73-.37-1.51-1.39-1.65-1.59-.69-1.05-.71-1.52-.44-2.71.12-1.16.53-1.54,1.67-2.33l2.39-1.57c.6-.36,1.19-.98,1.38-1.28.04-.12.33-.94.29-2.8v-.55c0-1.43,0-2.32.09-2.75.02-.59.82-2.32,1.34-3.32.56-1.19,1.54-3.69,2.03-5.32.59-1.83,1.43-4.24,2.03-5.51l1.82-4.26c.52-1.22,1.52-3.14,2.41-4.44.83-1.3,1.7-3.18,2-4.02.25-1,.81-2.26,1.18-2.81.49-.72,1.64-1.74,2.52-2.39,1.03-.71,1.83-1.5,2.27-2.22.25-.54.55-1.46.54-2.02,0-.66.12-1.69.22-2.18.09-.72.71-1.62,1.98-2.85.45-.41,1.93-1.73,2.46-2.02.47-.26,1.77-.55,2.63-.65,1.52-.18,1.58-.26,2.01-.86.5-.63.58-.78.45-1.91-.1-.88-.36-1.63-.5-1.81-.15-.26-.63-.69-1.2-1.06-.48-.22-1.14-.33-1.75-.26-.82.1-1.37.27-1.52.39-.34.27-.66.66-.7.84-.15.36-.31,1.48-.28,2.41.06,1.89-.06,2.1-1.39,3.78-.53.67-1.6,1.84-2.24,2.14-.76.46-1.3.48-2.19.34-.7-.17-2.94-.37-3.78-.45-1.38-.11-3.21-.36-3.98-.64-.67-.28-2.02-1.22-3.05-2.1l-3.55-3.21c-1.31-1.18-2.22-1.79-3.25-2.19-1.36-.52-1.55-.5-4.76-.12-1.88.22-4.13.71-5.07.96-.6.22-2.3.82-3.26,1.33-.9.4-2.5,1.32-3.53,2.04-1.02.71-2.29,1.73-2.72,2.2-.47.6-1.25,1.92-1.69,3.03-.8,2.1-1.07,2.44-2.68,3.37-.86.53-1.36,1.03-1.55,1.55-.14.38-.25,1.21-.18,1.78.09.8.25,1.05.58,1.31.39.24,1.13.62,1.72.8.06.02,1.43.45,1.9.92.16.14.52.55,1.21,2.77l1.01,2.87c.14.29.61.9,1.04,1.24.42.4,1.05.75,1.41.81l.11.03c.37.13,1.48.21,2.3.12.86-.1,2.62-.58,3.97-1.19,1.27-.52,2.87-1.29,3.5-1.78.63-.42,1.74-1.46,2.55-2.41.61-.66,1.76-1.79,2.28-1.99.18-.07.5-.18,2.7.06,1.06.19,2.18.26,2.52.22.39-.05.78-.27.97-.57.3-.38.44-.84.39-1.24,0-.55-.09-1.39-.21-1.85-.06-.47-.31-1.02-.47-1.26l-.06-.12c-.06-.14-.45-.45-.58-.55-.1-.04-.8-.11-1.61-.02-1.14.13-1.83.36-2.47.82-.79.55-1.11.94-1.59,2.26-.37,1.14-1.34,2.68-2.06,3.5-.78.99-2.05,2.11-2.56,2.54-.8.53-2.33,1.33-3.39,1.82-1.19.45-2.93.98-3.9,1.09-1.19.22-2.09.15-2.79-.24-.54-.34-1.2-1.02-1.52-1.58-.34-.59-.82-2.09-1.1-3.19-.43-1.73-.56-2.77-.48-4.11.07-1.22-.03-2.04-.4-3.37-.48-1.38-.57-2.22-.34-3.19.09-.72.64-1.92,1.13-2.71.68-.86,1.77-2.06,2.54-2.69.82-.67,2.55-1.71,3.85-2.32,1.26-.59,3.34-1.39,4.74-1.71,1.37-.4,3.57-.72,4.9-.8.63-.05,1.14-.08,1.58-.08Z"/>
    </g>
    <path class="cls-1" d="M94.57,74.09c0-8.63,11.82-10.59,16.53-11.49v-1.91c0-5.38-2.58-7.73-6.16-7.73-3.92,0-7.01,2.8-7.01,7.12,0,.95.17,2.13.5,3.25h-.34l-2.91-7.29c1.63-1.85,4.65-4.43,10.53-4.43s8.74,2.58,8.74,8.41v15.58c0,2.24.34,3.03,1.85,3.03.56,0,1.12-.11,1.74-.17v.56l-6.44,1.79h-.5v-6.67c-.62,1.96-3.64,7.28-9.36,7.28-4.2,0-7.17-2.91-7.17-7.34ZM103.04,79.42c3.98,0,6.95-4.15,8.07-6.84v-9.02c-3.19.78-12.89,2.52-12.89,9.98,0,3.14,1.51,5.88,4.82,5.88Z"/>
    <path class="cls-1" d="M123.99,76.84v-18.66c0-2.8-.39-3.81-2.07-3.81-.45,0-.95.11-1.57.17v-.56l6.28-1.51h.73v6.16c.84-2.02,3.87-7,9.41-7,3.59,0,5.83,1.96,6.33,6.44,1.29-2.69,4.15-6.44,9.36-6.44,3.81,0,6.72,2.3,6.72,8.24v16.98c0,2.41.9,2.91,3.64,3.42v.56h-10.48v-.56c2.58-.45,3.47-1.01,3.47-3.42v-15.47c0-5.66-2.07-7.73-4.93-7.73-3.47,0-6.22,2.91-7.73,6.39v16.81c0,2.41.95,2.91,3.64,3.42v.56h-10.48v-.56c2.69-.5,3.47-1.01,3.47-3.42v-15.47c0-5.66-1.85-7.73-4.54-7.73-3.64,0-6.84,3.92-7.9,7.45v15.75c0,2.41.84,2.91,3.47,3.42v.56h-10.48v-.56c2.8-.5,3.64-1.01,3.64-3.42Z"/>
    <path class="cls-1" d="M168.65,87.88v-29.81c0-2.69-.28-3.59-1.79-3.59-.56,0-1.12.06-1.85.17v-.62l5.72-1.63c2.13-.5,4.26-.78,5.94-.78,10.14,0,13.95,8.29,13.95,15.63s-3.92,14.18-10.87,14.18c-3.75,0-5.94-1.96-7.73-4.03v10.48c0,2.63.9,3.08,3.92,3.59v.56h-10.93v-.56c2.8-.5,3.64-1.01,3.64-3.59ZM178.96,79.47c4.6,0,8.18-5.1,8.18-12.33s-3.64-14.18-11.49-14.18c-1.23,0-2.3.17-3.64.5v22.64c1.57,1.68,4.09,3.36,6.95,3.36Z"/>
    <path class="cls-1" d="M197.68,77.06v-18.88c0-2.8-.39-3.81-2.07-3.81-.45,0-.95.11-1.57.17v-.56l6.28-1.51h.73v24.66c0,2.63.84,2.63,3.64,3.14v.56h-10.65v-.56c2.8-.5,3.64-.62,3.64-3.19ZM198.91,40.53c1.63,0,2.75,1.23,2.75,2.8s-1.12,2.75-2.75,2.75-2.75-1.18-2.75-2.75,1.12-2.8,2.75-2.8Z"/>
    <path class="cls-1" d="M210.73,76.67v-18.49c0-2.8-.39-3.81-2.07-3.81-.45,0-.95.11-1.57.17v-.56l6.28-1.51h.73v7.62h.06c.95-3.42,3.31-8.46,7.45-8.46,2.69,0,4.2,2.19,4.93,3.53l-3.7,8.74h-.28c.62-2.07,1.06-3.87,1.06-5.72,0-2.52-1.18-4.2-2.97-4.2-3.42,0-5.77,6.28-6.56,11.21v11.49c0,2.63.84,3.08,3.75,3.59v.56h-10.76v-.56c2.8-.5,3.64-1.06,3.64-3.59Z"/>
    <path class="cls-1" d="M228.89,74.09c0-8.63,11.82-10.59,16.53-11.49v-1.91c0-5.38-2.58-7.73-6.16-7.73-3.92,0-7.01,2.8-7.01,7.12,0,.95.17,2.13.5,3.25h-.34l-2.91-7.29c1.63-1.85,4.65-4.43,10.53-4.43s8.74,2.58,8.74,8.41v15.58c0,2.24.34,3.03,1.85,3.03.56,0,1.12-.11,1.74-.17v.56l-6.44,1.79h-.5v-6.67c-.62,1.96-3.64,7.28-9.36,7.28-4.2,0-7.17-2.91-7.17-7.34ZM237.35,79.42c3.98,0,6.95-4.15,8.07-6.84v-9.02c-3.19.78-12.89,2.52-12.89,9.98,0,3.14,1.51,5.88,4.82,5.88Z"/>
    <path class="cls-1" d="M255.44,77.4l3.19-8.01h.28c-.39,1.29-.62,2.52-.62,3.64,0,4.2,2.69,6.67,7.62,6.67,4.65,0,7.68-2.69,7.68-5.77,0-3.31-3.47-4.6-9.47-6.28-4.99-1.4-7.45-3.81-7.45-7.96,0-5.04,4.09-8.07,9.08-8.07,4.2,0,6.95,1.96,8.46,3.7l-2.69,6.39h-.34c.28-.95.45-1.85.45-2.69,0-3.53-2.63-5.66-6.5-5.66-3.53,0-6.61,1.96-6.61,5.21,0,2.63,2.07,3.98,7.17,5.38,5.16,1.4,9.41,2.52,9.41,8.29,0,6.28-4.65,9.19-9.64,9.19-5.38,0-8.69-2.63-10.03-4.03Z"/>
  </g>
  <g>
    <path class="cls-1" d="M78.03,4.33c.54,0,6.3-.44,8.26-.62,1.96-.17,5.26-.74,5.16-1.73-.09-.98-2.75-1.2-3.77-1.11s-2.5.29-3.11,0-.64-.84-1.16-.87c-.66-.04-.93.37-.86.69.06.32.28.6.95.73.66.13,1.33-.13,1.14.44s-8.07.79-8.52,1.23c-.21.21,1.36,1.23,1.9,1.23Z"/>
    <path class="cls-1" d="M52.24,2.59c2.1-.18,7.67-.34,12.55.45,4.88.79,7.77,2.84,7.77,3.28s-.74.76-2.55,1.05c-1.81.29-17.23,1.52-17.36,1.05s3.91-1.39,8.22-2.02c4.31-.63,9.14-.55,9.27-.84.13-.29-1.92-1.13-3.07-1.18-1.16-.05-3.81.18-7.35.71s-13.79,2.65-19.77,5.49c-5.99,2.84-9.74,6.59-9.48,7.75.26,1.16,3.33.37,3.99.21s3.41-2.36,4.1-2.55c.68-.18.97.2,1.45,0,.12-.05.35-.43-.05-.64-.24-.13-1.11.28-.83-.25.2-.37,5.91-3.31,13.18-4.6,7.27-1.29,26.26.13,26.76-2.97.5-3.1-9.54-6.6-16.63-6.86-5.25-.19-11.47.5-11.6.74s1.18,1.05,1.39,1.18Z"/>
    <path class="cls-1" d="M35.16,8.46c5.95-3.06,11.36-3.56,11.77-4.07s-.59-1.17-2.12-1.08c-1.53.1-12.2,4.46-16.51,7.26-4.3,2.8-6.5,6.48-5.26,7.17,1.45.81,6.65-1.88,6.27-2.84-.38-.96-2.01.88-2.34.19-.33-.69,2.25-3.59,8.2-6.65Z"/>
    <path class="cls-1" d="M12.91,12.95c.63.08.57-.96,2.27-.93s3.09,1.15,3.46,2.24c.36,1.09-.49,2.41-.28,2.68.21.27,2.19.63,3.14-.21.95-.84.87-1.91,1.5-3.71.63-1.8,3.75-5.03,8.19-7.57,4.43-2.54,11.09-3.34,13.68-3.14s3.28.84,3.27,1.17c-.02.33-.41.21-.45.53-.03.28,1.27.44,2.19.21.92-.23,1.47-.51,1.43-1.08-.04-.57-2.46-2.65-9.31-2.75-6.85-.11-9.18,1.11-9.34,1.28-.16.17.23.79-.11,1.03s-4.99,2.04-7.28,2.91c-2.29.87-4.04,1.7-7.89,1.7s-5.11-2.43-5.11-3.82.65-1.96,1.03-2.07.74-.05.73-.36-1.14-.96-2.41-.46c-1.28.5-2.93,2.02-2.93,4.43s1.01,3.99,1.61,4.94c.6.95,2,2.89,2.63,2.97Z"/>
    <path class="cls-1" d="M13.33,3.82c.13.83,1.04,2.38,4.56,2.38s13.78-3.83,13.74-4.23c-.05-.57-2.67.47-6.77,1.33-3.91.82-7.8.89-8.93.2-1.05-.64-.77-1.42-1.32-1.53-1.09-.21-1.44.88-1.29,1.85Z"/>
    <path class="cls-1" d="M16.61,28.09c.24.25.81.12.95-.44.1-.42.03-.64.09-1.03.11-.67.38-.56,1.12-2.13.61-1.28,1.12-2.73.39-2.97-1.33-.44-6.52,3.97-10.12,12.93-3.6,8.96-4.35,16.89-3.61,17.25.55.27,1.49-7.7,4.43-14.42,2.94-6.72,5.79-10.21,6.25-10.11.46.1.2.61.5.93Z"/>
    <path class="cls-1" d="M1.89,5.66c1.1.87,7.33,5.28,7.59,4.95.24-.32-3.82-5.21-5.02-6.6C3.25,2.61,1.76,1.63.79,2.5c-.97.87,0,2.28,1.1,3.15Z"/>
    <path class="cls-1" d="M5.94,4.61c1.03,1.26,2.03,2.82,2.31,2.92.38.14-.67-1.67-.49-3.18.18-1.51.9-1.92.67-2.28s-4.8-.81-5.02-.54c-.37.44,1.51,1.82,2.53,3.08Z"/>
    <path class="cls-1" d="M.94,6.09c-.34,0-.53.53-.45,2.41.08,1.88.49,2.85.49,2.85l.31.16c.31.16.48-.4,1.7-.99,1.22-.59,3.52-.18,3.75-.37.32-.27-3.47-2.4-4.99-3.47-.29-.2-.48-.59-.81-.59Z"/>
    <path class="cls-1" d="M4.5,55.94c1.14-.06,1.7-3.34,1.29-3.6-.41-.25-.2.69-.62.69s-1.02-2.27-.93-6.37c.09-4.1,1.22-9.37,3.59-15.3s4.05-7.23,4.51-7.48c.45-.25.86.19,1.59-.13.73-.32,2.05-1.36,2.59-2.08.54-.73,1.23-2.46.68-2.84-.55-.38-1.29.74-2.16.68s-2.62-1.33-3.06-2.62c-.44-1.29.22-2.63,0-3.22s-2.16-2.71-4.99-2.71-5.44,1.2-6.36,2.59c-1.2,1.81-.55,4.19.69,4.07.33-.03.13-.37.23-.91.07-.4.47-.83.81-1.06.45-.3,2.27-.71,3.55.35,1.2,1,2.12,2.81,1.9,6.11-.22,3.3-1.58,8.48-2.09,9.93-.5,1.45-.99,2.57-1.62,3.11-.63.54-.84.22-.97.39-.13.17-.69,5.78-.69,10.79s.92,9.66,2.05,9.59Z"/>
    <path class="cls-1" d="M3.86,19.24c.98,4.14.71,8.3.44,10.5-.27,2.2-1.04,4.69-.68,4.83s2.88-7.06,3-11.16-.42-5.79-1.25-6.57c-.83-.78-2.05-.61-2.57-.21-.92.7-.52,1.62-.34,1.54.5-.22,1.17.1,1.4,1.06Z"/>
  </g>
  <g>
    <path class="cls-1" d="M78.91,108.41c0,.81-1.3,1.15-1.94,2-.29.38.03.92.35.93.69.02.43-.72,1.13-1.1,1.32-.73,9.66.6,9.66-1.21s-4.83-5.13-16.91-5.13-24.16,4.53-33.22,7.85c-9.06,3.32-19.63,6.95-23.56,7.85s-4.53.6-4.83.3,2.11-3.02,2.72-4.53c.6-1.51.75-3.72,1.21-4.9.46-1.18,1.34-2.56.82-2.95-.51-.39-3.03,1.97-3.44,2.74s.1,1.03-.72,2.83c-.82,1.8-1.49,2.98-3.03,4.93-1.54,1.95-5.55,4.11-5.5,4.78.05.67,3.08,1.18,8.64,0,5.55-1.18,16.09-5.71,28.22-9.97,12.13-4.27,24.01-6.73,31.15-6.73s9.25,1.13,9.25,2.31Z"/>
    <path class="cls-1" d="M2.52,120.43c.64.25,2.91-7.66,8.04-12.06,5.13-4.41,8.04-5.56,11.55-5.6s3.85,1.97,4.79,2.01c.94.04,2.27-1.67,2.18-2.91-.09-1.24-1.5-2.91-4.66-2.91s-9.67,2.22-14.2,7.06c-4.53,4.83-8.81,13.99-7.7,14.42Z"/>
    <path class="cls-1" d="M6.37,108.25c.06-.97-.74.17-.52-1.26.23-1.43,2.29-5.09,4.86-7.78,2.58-2.69,5.61-4.24,6.81-4.41s1.66.29,1.89,0c.23-.29.46-1.72-.74-3.32-1.2-1.6-2.48-2.4-2.95-2-.48.4.23.36-.43,1.41-.66,1.04-5.44,7.98-6.25,7.63s2.27-4.78,1.62-11.07c-.66-6.28-3.62-8.21-6.48-8.1-2.85.12-3.49,1.31-3.71,2.7-.22,1.39.16,1.85.36,1.85s.08-1.47,2.51-1.31c2.43.15,4.47,4.67,4.16,9.21-.31,4.55-1.16,7.79-2.04,9.14-.89,1.35-1.08.62-1.58,1.35-.5.73-2.93,7.33-3.47,10.26-.54,2.93-.56,9.05.07,9.15,1.19.2,1.37-5.15,2.58-8.41,1.2-3.26,3.26-4.06,3.32-5.04Z"/>
    <path class="cls-1" d="M18.46,95.82c-1.08.21-3.93,1.44-6.73,4.34-2.8,2.9-5.71,6.91-4.76,7.43.51.28,2.83-3.69,6.53-6.45,2.96-2.2,4.19-1.99,5.32-2.18s1.47-1.19,1.39-1.88c-.08-.69-.67-1.47-1.75-1.26Z"/>
    <path class="cls-1" d="M4.56,100.06c.64,0,1.9-4.96,1.9-8.3s-1.29-7.04-2.78-7.9c-1.18-.67-2.08.42-2.03,1.01.2,2.24,2.38,1.37,3,7.25.57,5.33-.79,7.95-.1,7.94Z"/>
    <path class="cls-1" d="M245.5,108c-.12-.27-.38-.45-.67-.42l-1.64.16c-.44.04-.73.49-.59.9.2.56.65,1.26,1.65,1.59,1.81.6,11.78.3,11.78,2.11s-37.45,5.44-96.04,5.38c-58.59.05-96.04-3.57-96.04-5.38s9.97-1.51,11.78-2.11c1-.33,1.45-1.03,1.65-1.59.15-.41-.15-.86-.59-.9l-1.64-.16c-.29-.03-.54.15-.67.42-1.27,2.71-21.71-1.15-21.71,3.44,0,3.62,18.72,8.75,107.21,8.75s107.21-5.13,107.21-8.75c0-4.59-20.44-.73-21.71-3.44Z"/>
    <path class="cls-1" d="M312.85,118.02c-1.54-1.95-2.21-3.14-3.03-4.93-.82-1.8-.31-2.06-.72-2.83-.41-.77-2.93-3.14-3.44-2.74-.51.39.36,1.77.82,2.95.46,1.18.6,3.39,1.21,4.9s3.02,4.23,2.72,4.53-.91.6-4.83-.3-14.5-4.53-23.56-7.85c-9.06-3.32-21.14-7.85-33.22-7.85s-16.91,3.32-16.91,5.13,8.34.48,9.66,1.21c.7.39.44,1.12,1.13,1.1.32,0,.64-.54.35-.93-.64-.85-1.94-1.2-1.94-2,0-1.18,2.11-2.31,9.25-2.31s19.02,2.47,31.15,6.73c12.13,4.27,22.67,8.79,28.22,9.97,5.55,1.18,8.58.67,8.64,0,.05-.67-3.96-2.83-5.5-4.78Z"/>
    <path class="cls-1" d="M293.1,104.78c.94-.04,1.28-2.05,4.79-2.01s6.42,1.2,11.55,5.6c5.13,4.41,7.4,12.31,8.04,12.06,1.11-.43-3.17-9.58-7.7-14.42-4.53-4.83-11.04-7.06-14.2-7.06s-4.58,1.67-4.66,2.91c-.09,1.24,1.24,2.95,2.18,2.91Z"/>
    <path class="cls-1" d="M316.13,102.29c-.5-.73-.69,0-1.58-1.35s-1.73-4.59-2.04-9.14c-.31-4.55,1.73-9.06,4.16-9.21,2.43-.15,2.31,1.31,2.51,1.31s.58-.46.36-1.85c-.22-1.39-.86-2.58-3.71-2.7-2.85-.12-5.82,1.81-6.48,8.1-.66,6.28,2.43,10.72,1.62,11.07s-5.59-6.59-6.25-7.63c-.66-1.04.05-1-.43-1.41-.48-.4-1.75.4-2.95,2-1.2,1.6-.97,3.03-.74,3.32.23.29.69-.17,1.89,0,1.2.17,4.24,1.72,6.81,4.41,2.58,2.69,4.64,6.35,4.86,7.78.23,1.43-.57.29-.52,1.26.06.97,2.12,1.77,3.32,5.04,1.2,3.26,1.39,8.61,2.58,8.41.63-.1.61-6.22.07-9.15-.54-2.93-2.97-9.52-3.47-10.26Z"/>
    <path class="cls-1" d="M301.54,95.82c-1.08-.21-1.67.57-1.75,1.26-.08.69.26,1.7,1.39,1.88s2.36-.03,5.32,2.18c3.7,2.76,6.02,6.73,6.53,6.45.95-.51-1.95-4.52-4.76-7.43-2.8-2.9-5.65-4.14-6.73-4.34Z"/>
    <path class="cls-1" d="M318.35,84.87c.05-.59-.85-1.69-2.03-1.01-1.49.86-2.78,4.56-2.78,7.9s1.26,8.3,1.9,8.3c.69,0-.66-2.62-.1-7.94.63-5.88,2.8-5.01,3-7.25Z"/>
  </g>
  <g>
    <path class="cls-1" d="M304.45,51.49c.18.46,1.02.51,1.43.18.93-.75.23-2.37,1.3-2.47s2.79,2.09,5.77,14.84c2.98,12.75,1.65,13.81,2.63,13.79.54-.01,1.19-5.52-2.79-21.56-3.12-12.59-6.75-17.49-8.4-16.52-1.64.98,1.28,10.07.84,10.66-.44.59-1.02.51-.79,1.08Z"/>
    <path class="cls-1" d="M233.7,3.71c1.96.17,7.73.62,8.26.62s2.11-1.03,1.9-1.23c-.44-.44-8.33-.66-8.52-1.23s.47-.32,1.14-.44c.66-.13.89-.41.95-.73.06-.32-.2-.73-.86-.69-.52.03-.56.57-1.16.87s-2.09.1-3.11,0-3.67.13-3.77,1.11c-.09.98,3.2,1.55,5.16,1.73Z"/>
    <path class="cls-1" d="M240.92,7.52c.5,3.1,19.48,1.68,26.76,2.97,7.27,1.29,12.98,4.22,13.18,4.6.28.53-.59.11-.83.25-.39.21-.17.59-.05.64.48.21.77-.18,1.45,0,.68.18,3.44,2.39,4.1,2.55s3.73.95,3.99-.21c.26-1.16-3.49-4.91-9.48-7.75-5.99-2.84-16.23-4.96-19.77-5.49s-6.2-.76-7.35-.71c-1.16.05-3.2.89-3.07,1.18.13.29,4.96.21,9.27.84,4.31.63,8.35,1.55,8.22,2.02s-15.55-.76-17.36-1.05c-1.81-.29-2.55-.6-2.55-1.05s2.89-2.49,7.77-3.28c4.88-.79,10.45-.63,12.55-.45.21-.13,1.52-.95,1.39-1.18s-6.36-.93-11.6-.74c-7.09.25-17.13,3.76-16.63,6.86Z"/>
    <path class="cls-1" d="M290.69,14.92c-.38.96,4.82,3.64,6.27,2.84,1.24-.69-.96-4.37-5.26-7.17s-14.98-7.17-16.51-7.26c-1.53-.1-2.53.57-2.12,1.08s5.81,1,11.77,4.07c5.95,3.06,8.54,5.95,8.2,6.65-.33.69-1.96-1.15-2.34-.19Z"/>
    <path class="cls-1" d="M268.7,3.14c-.04.57.51.85,1.43,1.08.92.23,2.23.07,2.19-.21-.04-.32-.43-.2-.45-.53-.02-.33.68-.96,3.27-1.17s9.25.6,13.68,3.14c4.43,2.54,7.56,5.77,8.19,7.57.63,1.8.55,2.87,1.5,3.71.95.84,2.93.47,3.14.21.21-.27-.65-1.59-.28-2.68.36-1.09,1.75-2.21,3.46-2.24,1.7-.03,1.64,1.01,2.27.93.63-.08,2.04-2.02,2.63-2.97.6-.95,1.61-2.52,1.61-4.94s-1.66-3.93-2.93-4.43c-1.28-.5-2.4.14-2.41.46-.02.32.35.25.73.36.38.11,1.03.68,1.03,2.07s-1.26,3.82-5.11,3.82-5.6-.84-7.89-1.7c-2.29-.87-6.94-2.67-7.28-2.91s.05-.85-.11-1.03c-.16-.17-2.48-1.39-9.34-1.28-6.85.11-9.27,2.18-9.31,2.75Z"/>
    <path class="cls-1" d="M302.11,6.2c3.52,0,4.43-1.55,4.56-2.38.15-.97-.2-2.06-1.29-1.85-.54.11-.27.89-1.32,1.53-1.13.69-5.02.63-8.93-.2-4.1-.86-6.72-1.91-6.77-1.33-.03.39,10.23,4.23,13.74,4.23Z"/>
    <path class="cls-1" d="M314.57,51.7c.74-.36-.02-8.29-3.61-17.25s-8.79-13.37-10.12-12.93c-.72.24-.21,1.69.39,2.97.75,1.57,1.01,1.46,1.12,2.13.07.39,0,.61.09,1.03.14.56.71.69.95.44.3-.32.05-.83.5-.93.46-.1,3.31,3.39,6.25,10.11,2.94,6.72,3.88,14.69,4.43,14.42Z"/>
    <path class="cls-1" d="M315.55,4c-1.2,1.39-5.27,6.29-5.02,6.6.26.33,6.48-4.08,7.59-4.95,1.1-.87,2.08-2.28,1.1-3.15-.97-.87-2.46.1-3.67,1.5Z"/>
    <path class="cls-1" d="M311.75,7.53c.28-.1,1.28-1.67,2.31-2.92,1.03-1.26,2.9-2.63,2.53-3.08-.23-.27-4.79.18-5.02.54s.49.77.67,2.28c.18,1.51-.86,3.32-.49,3.18Z"/>
    <path class="cls-1" d="M318.25,6.68c-1.52,1.08-5.31,3.21-4.99,3.47.23.19,2.53-.21,3.75.37,1.22.59,1.4,1.14,1.7.99l.31-.16s.41-.97.49-2.85c.08-1.88-.12-2.41-.45-2.41-.33,0-.53.38-.81.59Z"/>
    <path class="cls-1" d="M319.36,13.55c-.91-1.38-3.53-2.59-6.36-2.59s-4.76,2.13-4.99,2.71.44,1.92,0,3.22c-.44,1.29-2.19,2.56-3.06,2.62-.87.06-1.61-1.06-2.16-.68-.55.38.14,2.11.68,2.84.54.73,1.86,1.77,2.59,2.08.73.32,1.14-.13,1.59.13s2.14,1.55,4.51,7.48c2.37,5.93,3.5,11.2,3.59,15.3.09,4.1-.5,6.37-.93,6.37s-.21-.95-.62-.69c-.41.25.16,3.53,1.29,3.6,1.14.06,2.05-4.58,2.05-9.59s-.56-10.63-.69-10.79c-.13-.17-.34.15-.97-.39-.63-.54-1.12-1.66-1.62-3.11-.5-1.45-1.86-6.63-2.09-9.93-.22-3.3.7-5.12,1.9-6.11,1.28-1.06,3.1-.65,3.55-.35.34.22.73.66.81,1.06.1.54-.1.88.23.91,1.24.12,1.89-2.26.69-4.07Z"/>
    <path class="cls-1" d="M317.2,16.64c-.52-.4-1.74-.57-2.57.21-.83.78-1.37,2.47-1.25,6.57s2.64,11.3,3,11.16-.41-2.64-.68-4.83c-.27-2.2-.54-6.36.44-10.5.23-.96.9-1.28,1.4-1.06.18.08.58-.85-.34-1.54Z"/>
  </g>
  <path class="cls-1" d="M15.55,51.49c-.18.46-1.02.51-1.43.18-.93-.75-.23-2.37-1.3-2.47s-2.79,2.09-5.77,14.84c-2.98,12.75-1.65,13.81-2.63,13.79-.54-.01-1.19-5.52,2.79-21.56,3.12-12.59,6.75-17.49,8.4-16.52,1.64.98-1.28,10.07-.84,10.66.44.59,1.02.51.79,1.08Z"/>
</svg>