<?xml version="1.0" encoding="UTF-8"?>
<svg id="Layer_1" data-name="Layer 1" xmlns="http://www.w3.org/2000/svg" viewBox="0 0 320 124">
  <defs>
    <style>
      .cls-1 {
        fill: #FFF5E9;
      }
    </style>
  </defs>
  <g>
    <path class="cls-1" d="M93.75,73.29c0-8.77,12.01-10.76,16.79-11.67v-1.94c0-5.47-2.62-7.86-6.26-7.86-3.98,0-7.12,2.85-7.12,7.23,0,.97.17,2.16.51,3.3h-.34l-2.96-7.4c1.65-1.88,4.72-4.5,10.7-4.5s8.88,2.62,8.88,8.54v15.83c0,2.28.34,3.07,1.88,3.07.57,0,1.14-.11,1.77-.17v.57l-6.55,1.82h-.51v-6.77c-.63,1.99-3.7,7.4-9.51,7.4-4.27,0-7.29-2.96-7.29-7.46ZM102.34,78.7c4.04,0,7.06-4.21,8.2-6.95v-9.17c-3.24.8-13.09,2.56-13.09,10.13,0,3.19,1.54,5.98,4.9,5.98Z"/>
    <path class="cls-1" d="M123.63,76.08v-18.96c0-2.85-.4-3.87-2.11-3.87-.46,0-.97.11-1.59.17v-.57l6.38-1.54h.74v6.26c.85-2.05,3.93-7.12,9.56-7.12,3.64,0,5.92,1.99,6.43,6.55,1.31-2.73,4.21-6.55,9.51-6.55,3.87,0,6.83,2.33,6.83,8.37v17.25c0,2.45.91,2.96,3.7,3.47v.57h-10.65v-.57c2.62-.46,3.53-1.02,3.53-3.47v-15.71c0-5.75-2.11-7.86-5.01-7.86-3.53,0-6.32,2.96-7.86,6.49v17.08c0,2.45.97,2.96,3.7,3.47v.57h-10.65v-.57c2.73-.51,3.53-1.02,3.53-3.47v-15.71c0-5.75-1.88-7.86-4.61-7.86-3.7,0-6.95,3.98-8.03,7.57v16c0,2.45.85,2.96,3.53,3.47v.57h-10.65v-.57c2.85-.51,3.7-1.02,3.7-3.47Z"/>
    <path class="cls-1" d="M169,87.3v-30.29c0-2.73-.28-3.64-1.82-3.64-.57,0-1.14.06-1.88.17v-.63l5.81-1.65c2.16-.51,4.33-.8,6.03-.8,10.3,0,14.17,8.43,14.17,15.88s-3.98,14.4-11.04,14.4c-3.81,0-6.03-1.99-7.86-4.1v10.65c0,2.68.91,3.13,3.98,3.64v.57h-11.1v-.57c2.85-.51,3.7-1.02,3.7-3.64ZM179.47,78.76c4.67,0,8.31-5.18,8.31-12.52s-3.7-14.4-11.67-14.4c-1.25,0-2.33.17-3.7.51v23c1.59,1.71,4.16,3.42,7.06,3.42Z"/>
    <path class="cls-1" d="M198.49,76.31v-19.18c0-2.85-.4-3.87-2.11-3.87-.46,0-.97.11-1.59.17v-.57l6.38-1.54h.74v25.05c0,2.68.85,2.68,3.7,3.19v.57h-10.82v-.57c2.85-.51,3.7-.63,3.7-3.24ZM199.74,39.19c1.65,0,2.79,1.25,2.79,2.85s-1.14,2.79-2.79,2.79-2.79-1.2-2.79-2.79,1.14-2.85,2.79-2.85Z"/>
    <path class="cls-1" d="M211.75,75.91v-18.79c0-2.85-.4-3.87-2.11-3.87-.46,0-.97.11-1.59.17v-.57l6.38-1.54h.74v7.74h.06c.97-3.47,3.36-8.6,7.57-8.6,2.73,0,4.27,2.22,5.01,3.59l-3.76,8.88h-.29c.63-2.11,1.08-3.93,1.08-5.81,0-2.56-1.2-4.27-3.02-4.27-3.47,0-5.86,6.38-6.66,11.39v11.67c0,2.68.85,3.13,3.81,3.64v.57h-10.93v-.57c2.85-.51,3.7-1.08,3.7-3.64Z"/>
    <path class="cls-1" d="M229.45,65.55c0-6.49,4.21-15.09,13.66-15.09s13.09,8.6,13.09,14.74-3.81,15.54-13.26,15.54-13.49-8.54-13.49-15.2ZM244.2,78.98c4.9,0,8.54-4.84,8.54-11.5,0-7.51-4.04-15.26-10.76-15.26-5.41,0-9.22,4.78-9.22,11.22,0,7.69,4.67,15.54,11.44,15.54Z"/>
    <path class="cls-1" d="M260.25,76.65l3.25-8.14h.28c-.4,1.31-.63,2.56-.63,3.7,0,4.27,2.73,6.77,7.74,6.77,4.73,0,7.8-2.73,7.8-5.86,0-3.36-3.53-4.67-9.62-6.38-5.07-1.42-7.57-3.87-7.57-8.08,0-5.12,4.16-8.2,9.22-8.2,4.27,0,7.06,1.99,8.6,3.76l-2.73,6.49h-.34c.28-.97.46-1.88.46-2.73,0-3.59-2.68-5.75-6.6-5.75-3.59,0-6.72,1.99-6.72,5.29,0,2.68,2.11,4.04,7.29,5.47,5.24,1.42,9.56,2.56,9.56,8.43,0,6.38-4.73,9.34-9.79,9.34-5.47,0-8.82-2.68-10.19-4.1Z"/>
    <g>
      <path class="cls-1" d="M111.14,14.69c.56.24,1.39.75,1.74,1.17l2.58,3.75c1.68,2.63,1.97,3.13,2.14,4.56.15,1.28.06,1.83-.44,2.8l-1.37,2.68c-.51.9-1.15,1.89-1.59,2.1-.43.28-1.23.6-1.91.68-.9.11-1.45.02-2.12-.52-.66-.38-1.12-1.09-1.53-1.96-.32-.8-.58-1.69-.62-2.07s.04-1,.31-1.26c.19-.33.54-.6.69-.62.23-.03,1.26.31,2.45.71,1.19.39,2.3.72,2.6.69.23-.03.78-.47,1.26-.99.58-.91.64-1.07.42-2.27-.18-.9-.87-2.19-2.25-4.17-1.1-1.55-2.35-3.09-2.76-3.34-.66-.38-1.28-.46-2.11-.36-.75.09-1.85.52-2.49.9-.64.38-1.53,1.25-2,1.84-.47.59-1.28,2.14-1.75,3.34-.47,1.2-1.4,3.07-2.04,4.14-.64,1.07-2.01,3.68-3,5.7-.98,2.1-3.2,5.95-4.87,8.67-1.75,2.65-4.89,8.45-7.13,12.83-2.15,4.46-4.83,9.66-5.9,11.62-1.06,2.03-2.35,4.71-2.89,5.99-.54,1.29-1.59,3.4-2.29,4.62-.69,1.3-1.87,2.97-2.61,3.82l-2.45,2.58c-.54.6-1.61,1.95-2.24,3.09-.64,1.07-1.49,2.31-1.98,2.68-.41.43-1.18.98-1.76,1.28-.51.21-2.07.62-3.35.77-1.58.19-2.73.17-3.45-.05-.55-.16-1.28-.46-1.61-.73-.33-.19-.86-.82-1.23-1.38-.3-.58-.64-1.53-.72-2.21-.09-.75-.11-1.59.06-2.07.02-.46.4-1.19.79-1.7.33-.42,1.38-1.23,2.32-1.72.93-.57,1.99-1.3,2.24-1.71.47-.59.55-1.21.47-3.19-.02-1.45.1-3.07.26-3.62.16-.63.76-2,1.32-3.06.56-1.06,1.38-3.22,1.88-4.81.42-1.65,1.6-4.62,2.5-6.71l1.92-4.5c.16-.55.99-2.03,1.9-3.36.84-1.32,1.81-3.42,2.22-4.54.4-1.12,1.01-2.49,1.26-2.97.32-.5,1.35-1.53,2.27-2.18.99-.65,2.04-1.54,2.29-1.95.33-.42.61-1.3.7-1.84,0-.61-.08-1.37-.19-1.66-.19-.36-.77-.75-1.32-.84l-3.4-.36c-1.31-.08-3.1-.33-3.89-.61-.8-.29-1.92-.77-2.43-1.17-.5-.32-2.12-1.81-3.59-3.25-1.64-1.57-3.15-2.76-3.88-3.14-.97-.42-1.74-.48-3.71-.33-1.37.08-3.54.42-4.87.8-1.34.31-3.39,1.09-4.69,1.7-1.3.61-3.02,1.65-3.78,2.28-.77.62-1.85,1.82-2.45,2.58-.51.82-.99,1.95-1.07,2.57-.2.86-.12,1.62.34,2.94.39,1.41.5,2.31.42,3.62-.08,1.31.04,2.29.47,4,.29,1.19.76,2.59,1.05,3.09.29.5.9,1.12,1.31,1.37.57.32,1.34.38,2.46.17.91-.11,2.6-.61,3.77-1.05,1.09-.51,2.6-1.3,3.31-1.76.62-.53,1.8-1.59,2.53-2.51.74-.85,1.64-2.33,1.97-3.37.52-1.44.92-1.94,1.84-2.58.78-.55,1.59-.8,2.79-.94.83-.1,1.83-.06,2.08.14.25.2.67.53.78.82.19.28.49.94.55,1.46.14.52.24,1.42.23,1.96.06.53-.09,1.16-.49,1.66-.32.5-.9.79-1.43.86-.45.05-1.68-.03-2.7-.22-1.01-.11-2.16-.2-2.46-.09-.29.11-1.19.9-2.08,1.85-.81.93-1.97,2.07-2.68,2.53-.7.54-2.36,1.35-3.68,1.88-1.38.62-3.23,1.14-4.21,1.26-.91.11-2.14.02-2.62-.15-.55-.09-1.29-.54-1.72-.94-.5-.4-1.05-1.1-1.25-1.53l-1.03-2.94c-.37-1.18-.81-2.35-1.06-2.55-.18-.21-.98-.57-1.7-.79s-1.53-.66-1.94-.92c-.51-.4-.71-.83-.82-1.74-.08-.68.04-1.61.21-2.09.23-.64.77-1.24,1.84-1.9,1.5-.86,1.7-1.12,2.46-3.12.47-1.2,1.3-2.6,1.83-3.27.48-.51,1.8-1.59,2.86-2.32,1.06-.74,2.71-1.69,3.65-2.11.94-.49,2.47-1.05,3.43-1.4.96-.27,3.27-.77,5.23-1,3.32-.39,3.62-.42,5.14.16,1.2.47,2.2,1.19,3.48,2.34l3.59,3.25c1.02.87,2.35,1.79,2.91,2.03.64.23,2.35.49,3.89.61,1.47.13,3.25.31,3.88.46.86.13,1.23.09,1.88-.3.43-.2,1.39-1.16,2.06-2,1.26-1.6,1.33-1.68,1.28-3.44-.04-.99.12-2.23.3-2.63.11-.39.58-.91.93-1.18.35-.27,1.17-.44,1.85-.52.75-.09,1.53.05,2.18.36.5.32,1.17.86,1.37,1.22.27.35.54,1.31.63,2.14.15,1.28.04,1.6-.56,2.36-.59.83-.88.94-2.47,1.13-.91.11-2.09.4-2.45.59-.36.19-1.4,1.08-2.37,1.96-1.17,1.13-1.76,1.96-1.84,2.58-.1.47-.21,1.48-.21,2.09,0,.69-.33,1.72-.64,2.37-.45.74-1.26,1.6-2.47,2.43-.98.73-2.02,1.69-2.41,2.27-.32.5-.87,1.71-1.13,2.73-.35.96-1.26,2.9-2.1,4.22-.91,1.33-1.91,3.28-2.39,4.41l-1.86,4.34c-.61,1.29-1.47,3.76-2.03,5.51-.49,1.66-1.49,4.22-2.1,5.52-.69,1.3-1.28,2.75-1.31,3.21-.1.47-.08,1.92-.08,3.22.03,1.53-.15,2.62-.39,3.18-.26.41-.94,1.1-1.58,1.48l-2.41,1.58c-1.06.74-1.34,1-1.45,2-.25,1.1-.22,1.4.34,2.25.36.49.98,1.18,1.47,1.43.73.37,1.2.47,3.16.24s2.55-.45,3.54-1.1c.7-.54,1.56-1.71,2.39-3.11.82-1.47,1.89-2.82,3.19-4.04,1.1-1.05,2.52-2.66,3.22-3.82l2.55-4.96c.64-1.68,2.26-4.85,3.37-7.12,1.19-2.2,3.87-7.41,5.91-11.54,2.11-4.15,5.2-9.78,6.87-12.42,1.67-2.72,3.75-6.48,4.68-8.34.92-1.94,2.37-4.56,3.12-5.94.76-1.31,1.88-3.51,2.49-4.88.59-1.45,1.55-3.09,2.08-3.76.62-.61,1.66-1.49,2.45-1.89.72-.39,1.96-.84,2.87-.95,1.05-.12,1.91,0,2.7.22Z"/>
      <path class="cls-1" d="M58.03,90.89c-.71,0-1.29-.07-1.73-.21-.6-.18-1.4-.5-1.81-.83-.44-.25-1.07-1.08-1.36-1.52-.35-.68-.72-1.71-.81-2.47-.08-.69-.13-1.62.07-2.26.07-.63.5-1.42.92-1.95.41-.52,1.56-1.38,2.51-1.88,1.27-.78,1.91-1.33,2.01-1.5.37-.47.46-.91.38-2.85-.02-1.34.08-3.12.29-3.82.17-.71.84-2.17,1.37-3.17.57-1.06,1.37-3.22,1.84-4.71.41-1.62,1.57-4.56,2.52-6.77l1.92-4.5c.17-.58,1.02-2.1,1.96-3.46.77-1.21,1.73-3.26,2.15-4.4.4-1.12,1.02-2.52,1.29-3.04.4-.61,1.48-1.71,2.46-2.39,1.06-.7,1.96-1.51,2.13-1.78.28-.36.54-1.12.62-1.62,0-.52-.1-1.17-.16-1.35-.06-.09-.46-.39-.86-.46l-3.37-.36c-1.28-.07-3.15-.33-4.03-.65-.31-.11-1.88-.7-2.6-1.26-.54-.35-2.27-1.96-3.64-3.29-1.73-1.65-3.15-2.73-3.74-3.03-.83-.36-1.5-.41-3.39-.27-1.26.08-3.43.4-4.75.78-1.37.32-3.39,1.09-4.6,1.66-1.22.57-2.9,1.58-3.66,2.2-.69.56-1.74,1.71-2.36,2.49-.44.71-.88,1.76-.95,2.28-.19.8-.1,1.46.32,2.66.42,1.51.54,2.47.46,3.85-.07,1.24.04,2.17.45,3.81.31,1.27.76,2.54.99,2.93.24.42.78.96,1.11,1.17.42.23,1.08.27,2.04.09.89-.11,2.55-.6,3.67-1.03,1-.47,2.5-1.25,3.19-1.7.32-.28,1.62-1.41,2.39-2.38.75-.86,1.58-2.28,1.88-3.18.54-1.5,1-2.15,2.06-2.89.82-.58,1.71-.88,3.07-1.04.2-.02,1.92-.21,2.52.26.39.31.77.64.95,1.02.22.35.54,1.05.62,1.67.14.49.25,1.45.23,2.04.08.64-.15,1.42-.62,2.02-.36.56-1.08.99-1.83,1.08-.55.06-1.87-.04-2.88-.22-1.76-.19-2.12-.12-2.16-.12-.13.07-.87.66-1.83,1.69-.77.9-1.99,2.1-2.79,2.62-.73.56-2.48,1.41-3.78,1.94-1.47.66-3.38,1.18-4.37,1.3-.95.11-2.22.04-2.84-.16-.71-.13-1.52-.66-1.98-1.09-.56-.44-1.15-1.23-1.38-1.72l-1.05-2.99c-.45-1.44-.79-2.18-.9-2.31-.15-.13-.73-.43-1.47-.66-.75-.23-1.59-.67-2.08-.98-.78-.61-.99-1.28-1.09-2.18-.09-.8.05-1.83.24-2.36.29-.8.96-1.5,2.09-2.21,1.37-.79,1.48-.89,2.22-2.82.5-1.29,1.37-2.73,1.92-3.43.53-.58,1.86-1.66,2.99-2.44,1.12-.77,2.8-1.75,3.75-2.16.9-.48,2.41-1.04,3.47-1.41,1.06-.29,3.38-.79,5.36-1.03,3.34-.39,3.77-.44,5.43.2,1.37.54,2.46,1.37,3.67,2.46l3.59,3.25c.99.85,2.27,1.72,2.75,1.92.52.19,2.17.44,3.71.57,1.6.15,3.31.32,3.97.48.69.1.93.07,1.43-.23.3-.15,1.17-.94,1.89-1.85q1.2-1.51,1.15-3.05c-.04-.94.1-2.33.36-2.9.13-.52.76-1.14,1.11-1.41.52-.4,1.57-.58,2.15-.64.85-.1,1.74.05,2.51.41.28.17,1.31.87,1.64,1.47.33.41.6,1.53.7,2.36.16,1.38.04,1.88-.69,2.8-.71,1-1.21,1.16-2.87,1.35-.92.11-1.99.39-2.24.52-.23.12-1.07.81-2.25,1.88-1.28,1.24-1.6,1.89-1.64,2.22-.09.46-.2,1.44-.21,2.02,0,.89-.44,2.07-.7,2.62-.57.94-1.48,1.85-2.67,2.67-.94.69-1.91,1.6-2.25,2.11-.26.41-.79,1.55-1.05,2.54-.4,1.11-1.36,3.1-2.18,4.39-.86,1.26-1.85,3.16-2.34,4.32l-1.86,4.35c-.6,1.26-1.43,3.64-2.01,5.46-.51,1.71-1.53,4.32-2.13,5.59-.75,1.41-1.23,2.7-1.25,2.98-.08.44-.08,1.66-.08,2.65v.54c.03,1.47-.13,2.69-.44,3.41-.35.57-1.1,1.33-1.83,1.77l-2.39,1.57c-1,.69-1.1.82-1.18,1.57-.23,1.02-.21,1.16.25,1.86.4.54.93,1.07,1.24,1.23.56.29.89.4,2.82.18,2.02-.24,2.42-.44,3.28-1.01.55-.42,1.34-1.47,2.2-2.91.84-1.5,1.95-2.91,3.3-4.17,1.02-.97,2.42-2.55,3.12-3.69l2.53-4.92c.49-1.3,1.62-3.59,2.62-5.61l.74-1.5c1.18-2.18,3.83-7.33,5.91-11.54,2.04-3.99,5.17-9.75,6.91-12.48,1.65-2.69,3.74-6.46,4.65-8.29.79-1.67,1.99-3.86,2.78-5.31l.36-.65c.76-1.31,1.86-3.47,2.46-4.83.61-1.48,1.6-3.18,2.16-3.89.71-.71,1.79-1.62,2.65-2.06.73-.4,2.06-.89,3.07-1.01,1-.12,1.9-.04,2.93.24l.08.03c.63.27,1.53.83,1.96,1.33l2.62,3.8c1.69,2.64,2.06,3.26,2.24,4.83.16,1.38.06,2.06-.5,3.14l-1.37,2.68c-1.14,2.03-1.69,2.28-1.87,2.37-.41.27-1.3.64-2.09.73-.96.11-1.7.05-2.56-.64-.82-.46-1.34-1.41-1.7-2.18-.34-.83-.62-1.79-.68-2.25-.05-.38-.01-1.21.43-1.7.25-.39.7-.79,1.1-.84.3-.04.79.09,2.71.73,1.9.63,2.3.66,2.36.66h0s.4-.3.83-.76c.48-.75.49-.79.31-1.79-.16-.8-.87-2.09-2.15-3.93-1.22-1.72-2.33-3.01-2.59-3.18-.49-.29-.98-.37-1.72-.28-.67.08-1.69.49-2.26.83-.56.33-1.4,1.14-1.84,1.7-.43.54-1.22,2.06-1.66,3.18-.47,1.19-1.4,3.09-2.08,4.22-.64,1.08-2.03,3.72-2.97,5.66-.98,2.1-3.22,6-4.9,8.72-1.77,2.67-4.92,8.5-7.11,12.79-2.2,4.56-4.89,9.77-5.91,11.63-1.06,2.04-2.35,4.71-2.86,5.94-.52,1.24-1.58,3.39-2.32,4.69-.7,1.33-1.92,3.04-2.68,3.92l-2.46,2.6c-.5.55-1.54,1.86-2.15,2.97-.41.69-1.41,2.29-2.1,2.84-.5.51-1.32,1.07-1.89,1.36-.61.26-2.22.68-3.55.84-.74.09-1.4.13-1.96.13ZM56.47,23.82c1.01,0,1.65.14,2.38.46.87.44,2.45,1.71,4.06,3.25,1.55,1.51,3.08,2.91,3.5,3.18.46.36,1.48.81,2.31,1.11.66.24,2.33.5,3.72.58l3.43.37c.74.12,1.49.61,1.79,1.15.19.49.27,1.35.27,1.95-.1.64-.39,1.65-.83,2.21-.32.51-1.5,1.47-2.43,2.08-.88.61-1.83,1.6-2.09,2-.22.44-.81,1.78-1.2,2.85-.43,1.2-1.43,3.32-2.28,4.66-.93,1.36-1.7,2.75-1.83,3.21l-1.94,4.57c-.93,2.16-2.07,5.04-2.47,6.62-.5,1.57-1.34,3.81-1.94,4.94-.56,1.06-1.13,2.37-1.27,2.92-.14.46-.26,1.95-.25,3.47.08,2,0,2.81-.6,3.57-.31.5-1.48,1.29-2.4,1.85-.97.51-1.92,1.27-2.16,1.58-.38.48-.65,1.09-.67,1.36l-.04.17c-.11.31-.12,1-.03,1.8.07.59.39,1.48.66,2,.34.51.81,1.03,1,1.14.3.23.92.51,1.48.67.44.14,1.35.25,3.2.03,1.19-.14,2.71-.53,3.19-.73.5-.26,1.21-.78,1.55-1.14l.08-.07c.34-.25,1.09-1.28,1.82-2.5.65-1.18,1.74-2.56,2.3-3.18l2.46-2.59c.68-.79,1.85-2.43,2.51-3.69.73-1.29,1.76-3.37,2.26-4.57.54-1.28,1.81-3.93,2.91-6.04,1.02-1.86,3.69-7.05,5.89-11.6,2.21-4.33,5.39-10.21,7.17-12.9,1.65-2.68,3.86-6.53,4.82-8.59.97-2,2.36-4.63,3.03-5.76.64-1.07,1.55-2.92,1.99-4.05.49-1.26,1.33-2.86,1.84-3.49.51-.65,1.46-1.57,2.17-1.98.68-.4,1.86-.88,2.73-.98,1-.12,1.74.01,2.48.44.65.41,2.21,2.48,2.95,3.52,1.42,2.04,2.14,3.39,2.34,4.4.25,1.38.14,1.7-.51,2.71l-.06.08c-.31.33-1.08,1.11-1.63,1.18-.25.04-.7,0-2.86-.71-.64-.21-1.77-.59-2.16-.66-.08.06-.2.17-.28.31l-.11.13c-.08.08-.16.45-.13.75.03.28.25,1.09.58,1.92.41.87.81,1.39,1.27,1.66.58.45.94.54,1.75.44.57-.07,1.29-.35,1.65-.59.21-.11.66-.58,1.39-1.89l1.36-2.66c.44-.87.51-1.31.37-2.46-.15-1.28-.37-1.69-2.05-4.31l-2.57-3.73c-.21-.25-.9-.7-1.45-.94-.86-.23-1.61-.29-2.43-.19-.82.1-2,.52-2.65.88-.7.35-1.69,1.18-2.32,1.79-.46.59-1.39,2.2-1.95,3.56-.62,1.41-1.75,3.62-2.52,4.95l-.35.64c-.78,1.44-1.97,3.61-2.75,5.26-.93,1.86-3.04,5.68-4.71,8.4-1.72,2.71-4.83,8.42-6.85,12.38-2.08,4.22-4.74,9.39-5.91,11.56l-.73,1.48c-.99,2-2.11,4.26-2.61,5.57l-2.58,5.02c-.81,1.32-2.29,2.98-3.34,3.98-1.26,1.18-2.3,2.49-3.08,3.9-.67,1.13-1.65,2.6-2.55,3.29-1.13.75-1.73.98-3.83,1.22-2.04.24-2.64.14-3.5-.3-.75-.38-1.53-1.41-1.68-1.61-.7-1.06-.72-1.54-.44-2.74.13-1.17.54-1.56,1.69-2.36l2.43-1.59c.61-.36,1.21-1,1.4-1.3.04-.12.33-.95.3-2.85v-.55c0-1.45,0-2.37.09-2.8.02-.6.83-2.36,1.36-3.37.57-1.21,1.56-3.74,2.06-5.41.6-1.86,1.45-4.3,2.06-5.6l1.85-4.32c.53-1.24,1.54-3.19,2.45-4.51.84-1.32,1.72-3.23,2.03-4.08.26-1.01.82-2.29,1.19-2.85.5-.74,1.67-1.77,2.55-2.42,1.05-.72,1.86-1.52,2.31-2.26.26-.55.56-1.49.55-2.05,0-.68.12-1.73.23-2.21.09-.73.71-1.64,2-2.89.59-.53,1.98-1.77,2.5-2.06.48-.26,1.79-.56,2.67-.66,1.5-.18,1.6-.25,2.05-.88.5-.64.59-.79.46-1.94-.11-.9-.37-1.66-.51-1.84-.15-.26-.64-.7-1.22-1.08-.49-.22-1.17-.33-1.78-.26-.83.1-1.39.28-1.55.4-.32.25-.66.66-.72.86-.16.37-.32,1.5-.28,2.45.06,1.92-.06,2.13-1.41,3.83-.53.68-1.62,1.86-2.27,2.17-.78.46-1.32.48-2.22.35-.71-.17-2.98-.38-3.84-.46-1.44-.12-3.29-.38-4.04-.65-.68-.29-2.06-1.24-3.1-2.14l-3.6-3.26c-1.33-1.2-2.26-1.82-3.3-2.23-1.38-.53-1.58-.51-4.85-.12-1.9.22-4.19.72-5.14.98-.98.35-2.44.89-3.31,1.35-.93.41-2.52,1.33-3.59,2.07-1.03.72-2.33,1.76-2.76,2.24-.48.61-1.27,1.95-1.71,3.08-.81,2.12-1.09,2.48-2.72,3.42-.88.54-1.38,1.05-1.58,1.58-.14.39-.25,1.23-.18,1.82.1.82.26,1.08.59,1.34.29.18,1.07.6,1.75.82.06.02,1.46.46,1.93.93.16.14.53.56,1.23,2.81l1.03,2.92c.14.29.62.92,1.05,1.26.43.41,1.06.76,1.44.82l.11.03c.37.14,1.5.22,2.34.12.87-.1,2.66-.59,4.03-1.21,1.29-.53,2.91-1.31,3.56-1.81.65-.43,1.75-1.47,2.6-2.45.62-.67,1.79-1.82,2.32-2.02.18-.07.5-.19,2.74.06,1.07.2,2.23.26,2.56.22.4-.05.79-.28,1-.59.3-.39.45-.86.4-1.27,0-.56-.09-1.42-.21-1.88-.06-.48-.31-1.04-.48-1.29l-.06-.12c-.06-.14-.46-.46-.58-.56-.14-.06-.88-.11-1.65-.02-1.16.14-1.86.37-2.52.83-.8.56-1.13.95-1.62,2.3-.38,1.15-1.36,2.72-2.09,3.55-.8,1.01-2.08,2.14-2.6,2.58-.83.55-2.38,1.35-3.44,1.85-1.21.46-2.98.99-3.96,1.11-1.21.23-2.12.15-2.83-.24-.55-.34-1.21-1.04-1.54-1.6-.34-.6-.84-2.12-1.11-3.24-.44-1.75-.56-2.81-.48-4.17.07-1.25-.03-2.08-.4-3.42-.49-1.4-.58-2.25-.35-3.24.09-.73.65-1.95,1.15-2.75.69-.88,1.8-2.09,2.58-2.73.83-.68,2.59-1.74,3.91-2.36,1.27-.6,3.39-1.41,4.81-1.74,1.39-.4,3.63-.73,4.97-.81.64-.05,1.16-.08,1.6-.08Z"/>
    </g>
  </g>
  <g>
    <path class="cls-1" d="M78.03,4.33c.54,0,6.3-.44,8.26-.62,1.96-.17,5.26-.74,5.16-1.73-.09-.98-2.75-1.2-3.77-1.11s-2.5.29-3.11,0-.64-.84-1.16-.87c-.66-.04-.93.37-.86.69.06.32.28.6.95.73.66.13,1.33-.13,1.14.44s-8.07.79-8.52,1.23c-.21.21,1.36,1.23,1.9,1.23Z"/>
    <path class="cls-1" d="M52.24,2.59c2.1-.18,7.67-.34,12.55.45,4.88.79,7.77,2.84,7.77,3.28s-.74.76-2.55,1.05c-1.81.29-17.23,1.52-17.36,1.05s3.91-1.39,8.22-2.02c4.31-.63,9.14-.55,9.27-.84.13-.29-1.92-1.13-3.07-1.18-1.16-.05-3.81.18-7.35.71s-13.79,2.65-19.77,5.49c-5.99,2.84-9.74,6.59-9.48,7.75.26,1.16,3.33.37,3.99.21s3.41-2.36,4.1-2.55c.68-.18.97.2,1.45,0,.12-.05.35-.43-.05-.64-.24-.13-1.11.28-.83-.25.2-.37,5.91-3.31,13.18-4.6,7.27-1.29,26.26.13,26.76-2.97.5-3.1-9.54-6.6-16.63-6.86-5.25-.19-11.47.5-11.6.74s1.18,1.05,1.39,1.18Z"/>
    <path class="cls-1" d="M35.16,8.46c5.95-3.06,11.36-3.56,11.77-4.07s-.59-1.17-2.12-1.08c-1.53.1-12.2,4.46-16.51,7.26-4.3,2.8-6.5,6.48-5.26,7.17,1.45.81,6.65-1.88,6.27-2.84-.38-.96-2.01.88-2.34.19-.33-.69,2.25-3.59,8.2-6.65Z"/>
    <path class="cls-1" d="M12.91,12.95c.63.08.57-.96,2.27-.93s3.09,1.15,3.46,2.24c.36,1.09-.49,2.41-.28,2.68.21.27,2.19.63,3.14-.21.95-.84.87-1.91,1.5-3.71.63-1.8,3.75-5.03,8.19-7.57,4.43-2.54,11.09-3.34,13.68-3.14s3.28.84,3.27,1.17c-.02.33-.41.21-.45.53-.03.28,1.27.44,2.19.21.92-.23,1.47-.51,1.43-1.08-.04-.57-2.46-2.65-9.31-2.75-6.85-.11-9.18,1.11-9.34,1.28-.16.17.23.79-.11,1.03s-4.99,2.04-7.28,2.91c-2.29.87-4.04,1.7-7.89,1.7s-5.11-2.43-5.11-3.82.65-1.96,1.03-2.07.74-.05.73-.36-1.14-.96-2.41-.46c-1.28.5-2.93,2.02-2.93,4.43s1.01,3.99,1.61,4.94c.6.95,2,2.89,2.63,2.97Z"/>
    <path class="cls-1" d="M13.33,3.82c.13.83,1.04,2.38,4.56,2.38s13.78-3.83,13.74-4.23c-.05-.57-2.67.47-6.77,1.33-3.91.82-7.8.89-8.93.2-1.05-.64-.77-1.42-1.32-1.53-1.09-.21-1.44.88-1.29,1.85Z"/>
    <path class="cls-1" d="M16.61,28.09c.24.25.81.12.95-.44.1-.42.03-.64.09-1.03.11-.67.38-.56,1.12-2.13.61-1.28,1.12-2.73.39-2.97-1.33-.44-6.52,3.97-10.12,12.93-3.6,8.96-4.35,16.89-3.61,17.25.55.27,1.49-7.7,4.43-14.42,2.94-6.72,5.79-10.21,6.25-10.11.46.1.2.61.5.93Z"/>
    <path class="cls-1" d="M1.89,5.66c1.1.87,7.33,5.28,7.59,4.95.24-.32-3.82-5.21-5.02-6.6C3.25,2.61,1.76,1.63.79,2.5c-.97.87,0,2.28,1.1,3.15Z"/>
    <path class="cls-1" d="M5.94,4.61c1.03,1.26,2.03,2.82,2.31,2.92.38.14-.67-1.67-.49-3.18.18-1.51.9-1.92.67-2.28s-4.8-.81-5.02-.54c-.37.44,1.51,1.82,2.53,3.08Z"/>
    <path class="cls-1" d="M.94,6.09c-.34,0-.53.53-.45,2.41.08,1.88.49,2.85.49,2.85l.31.16c.31.16.48-.4,1.7-.99,1.22-.59,3.52-.18,3.75-.37.32-.27-3.47-2.4-4.99-3.47-.29-.2-.48-.59-.81-.59Z"/>
    <path class="cls-1" d="M4.5,55.94c1.14-.06,1.7-3.34,1.29-3.6-.41-.25-.2.69-.62.69s-1.02-2.27-.93-6.37c.09-4.1,1.22-9.37,3.59-15.3s4.05-7.23,4.51-7.48c.45-.25.86.19,1.59-.13.73-.32,2.05-1.36,2.59-2.08.54-.73,1.23-2.46.68-2.84-.55-.38-1.29.74-2.16.68s-2.62-1.33-3.06-2.62c-.44-1.29.22-2.63,0-3.22s-2.16-2.71-4.99-2.71-5.44,1.2-6.36,2.59c-1.2,1.81-.55,4.19.69,4.07.33-.03.13-.37.23-.91.07-.4.47-.83.81-1.06.45-.3,2.27-.71,3.55.35,1.2,1,2.12,2.81,1.9,6.11-.22,3.3-1.58,8.48-2.09,9.93-.5,1.45-.99,2.57-1.62,3.11-.63.54-.84.22-.97.39-.13.17-.69,5.78-.69,10.79s.92,9.66,2.05,9.59Z"/>
    <path class="cls-1" d="M3.86,19.24c.98,4.14.71,8.3.44,10.5-.27,2.2-1.04,4.69-.68,4.83s2.88-7.06,3-11.16-.42-5.79-1.25-6.57c-.83-.78-2.05-.61-2.57-.21-.92.7-.52,1.62-.34,1.54.5-.22,1.17.1,1.4,1.06Z"/>
  </g>
  <g>
    <path class="cls-1" d="M78.91,108.41c0,.81-1.3,1.15-1.94,2-.29.38.03.92.35.93.69.02.43-.72,1.13-1.1,1.32-.73,9.66.6,9.66-1.21s-4.83-5.13-16.91-5.13-24.16,4.53-33.22,7.85c-9.06,3.32-19.63,6.95-23.56,7.85s-4.53.6-4.83.3,2.11-3.02,2.72-4.53c.6-1.51.75-3.72,1.21-4.9.46-1.18,1.34-2.56.82-2.95-.51-.39-3.03,1.97-3.44,2.74s.1,1.03-.72,2.83c-.82,1.8-1.49,2.98-3.03,4.93-1.54,1.95-5.55,4.11-5.5,4.78.05.67,3.08,1.18,8.64,0,5.55-1.18,16.09-5.71,28.22-9.97,12.13-4.27,24.01-6.73,31.15-6.73s9.25,1.13,9.25,2.31Z"/>
    <path class="cls-1" d="M2.52,120.43c.64.25,2.91-7.66,8.04-12.06,5.13-4.41,8.04-5.56,11.55-5.6s3.85,1.97,4.79,2.01c.94.04,2.27-1.67,2.18-2.91-.09-1.24-1.5-2.91-4.66-2.91s-9.67,2.22-14.2,7.06c-4.53,4.83-8.81,13.99-7.7,14.42Z"/>
    <path class="cls-1" d="M6.37,108.25c.06-.97-.74.17-.52-1.26.23-1.43,2.29-5.09,4.86-7.78,2.58-2.69,5.61-4.24,6.81-4.41s1.66.29,1.89,0c.23-.29.46-1.72-.74-3.32-1.2-1.6-2.48-2.4-2.95-2-.48.4.23.36-.43,1.41-.66,1.04-5.44,7.98-6.25,7.63s2.27-4.78,1.62-11.07c-.66-6.28-3.62-8.21-6.48-8.1-2.85.12-3.49,1.31-3.71,2.7-.22,1.39.16,1.85.36,1.85s.08-1.47,2.51-1.31c2.43.15,4.47,4.67,4.16,9.21-.31,4.55-1.16,7.79-2.04,9.14-.89,1.35-1.08.62-1.58,1.35-.5.73-2.93,7.33-3.47,10.26-.54,2.93-.56,9.05.07,9.15,1.19.2,1.37-5.15,2.58-8.41,1.2-3.26,3.26-4.06,3.32-5.04Z"/>
    <path class="cls-1" d="M18.46,95.82c-1.08.21-3.93,1.44-6.73,4.34-2.8,2.9-5.71,6.91-4.76,7.43.51.28,2.83-3.69,6.53-6.45,2.96-2.2,4.19-1.99,5.32-2.18s1.47-1.19,1.39-1.88c-.08-.69-.67-1.47-1.75-1.26Z"/>
    <path class="cls-1" d="M4.56,100.06c.64,0,1.9-4.96,1.9-8.3s-1.29-7.04-2.78-7.9c-1.18-.67-2.08.42-2.03,1.01.2,2.24,2.38,1.37,3,7.25.57,5.33-.79,7.95-.1,7.94Z"/>
    <path class="cls-1" d="M245.5,108c-.12-.27-.38-.45-.67-.42l-1.64.16c-.44.04-.73.49-.59.9.2.56.65,1.26,1.65,1.59,1.81.6,11.78.3,11.78,2.11s-37.45,5.44-96.04,5.38c-58.59.05-96.04-3.57-96.04-5.38s9.97-1.51,11.78-2.11c1-.33,1.45-1.03,1.65-1.59.15-.41-.15-.86-.59-.9l-1.64-.16c-.29-.03-.54.15-.67.42-1.27,2.71-21.71-1.15-21.71,3.44,0,3.62,18.72,8.75,107.21,8.75s107.21-5.13,107.21-8.75c0-4.59-20.44-.73-21.71-3.44Z"/>
    <path class="cls-1" d="M312.85,118.02c-1.54-1.95-2.21-3.14-3.03-4.93-.82-1.8-.31-2.06-.72-2.83-.41-.77-2.93-3.14-3.44-2.74-.51.39.36,1.77.82,2.95.46,1.18.6,3.39,1.21,4.9s3.02,4.23,2.72,4.53-.91.6-4.83-.3-14.5-4.53-23.56-7.85c-9.06-3.32-21.14-7.85-33.22-7.85s-16.91,3.32-16.91,5.13,8.34.48,9.66,1.21c.7.39.44,1.12,1.13,1.1.32,0,.64-.54.35-.93-.64-.85-1.94-1.2-1.94-2,0-1.18,2.11-2.31,9.25-2.31s19.02,2.47,31.15,6.73c12.13,4.27,22.67,8.79,28.22,9.97,5.55,1.18,8.58.67,8.64,0,.05-.67-3.96-2.83-5.5-4.78Z"/>
    <path class="cls-1" d="M293.1,104.78c.94-.04,1.28-2.05,4.79-2.01s6.42,1.2,11.55,5.6c5.13,4.41,7.4,12.31,8.04,12.06,1.11-.43-3.17-9.58-7.7-14.42-4.53-4.83-11.04-7.06-14.2-7.06s-4.58,1.67-4.66,2.91c-.09,1.24,1.24,2.95,2.18,2.91Z"/>
    <path class="cls-1" d="M316.13,102.29c-.5-.73-.69,0-1.58-1.35s-1.73-4.59-2.04-9.14c-.31-4.55,1.73-9.06,4.16-9.21,2.43-.15,2.31,1.31,2.51,1.31s.58-.46.36-1.85c-.22-1.39-.86-2.58-3.71-2.7-2.85-.12-5.82,1.81-6.48,8.1-.66,6.28,2.43,10.72,1.62,11.07s-5.59-6.59-6.25-7.63c-.66-1.04.05-1-.43-1.41-.48-.4-1.75.4-2.95,2-1.2,1.6-.97,3.03-.74,3.32.23.29.69-.17,1.89,0,1.2.17,4.24,1.72,6.81,4.41,2.58,2.69,4.64,6.35,4.86,7.78.23,1.43-.57.29-.52,1.26.06.97,2.12,1.77,3.32,5.04,1.2,3.26,1.39,8.61,2.58,8.41.63-.1.61-6.22.07-9.15-.54-2.93-2.97-9.52-3.47-10.26Z"/>
    <path class="cls-1" d="M301.54,95.82c-1.08-.21-1.67.57-1.75,1.26-.08.69.26,1.7,1.39,1.88s2.36-.03,5.32,2.18c3.7,2.76,6.02,6.73,6.53,6.45.95-.51-1.95-4.52-4.76-7.43-2.8-2.9-5.65-4.14-6.73-4.34Z"/>
    <path class="cls-1" d="M318.35,84.87c.05-.59-.85-1.69-2.03-1.01-1.49.86-2.78,4.56-2.78,7.9s1.26,8.3,1.9,8.3c.69,0-.66-2.62-.1-7.94.63-5.88,2.8-5.01,3-7.25Z"/>
  </g>
  <g>
    <path class="cls-1" d="M304.45,51.49c.18.46,1.02.51,1.43.18.93-.75.23-2.37,1.3-2.47s2.79,2.09,5.77,14.84c2.98,12.75,1.65,13.81,2.63,13.79.54-.01,1.19-5.52-2.79-21.56-3.12-12.59-6.75-17.49-8.4-16.52-1.64.98,1.28,10.07.84,10.66-.44.59-1.02.51-.79,1.08Z"/>
    <path class="cls-1" d="M233.7,3.71c1.96.17,7.73.62,8.26.62s2.11-1.03,1.9-1.23c-.44-.44-8.33-.66-8.52-1.23s.47-.32,1.14-.44c.66-.13.89-.41.95-.73.06-.32-.2-.73-.86-.69-.52.03-.56.57-1.16.87s-2.09.1-3.11,0-3.67.13-3.77,1.11c-.09.98,3.2,1.55,5.16,1.73Z"/>
    <path class="cls-1" d="M240.92,7.52c.5,3.1,19.48,1.68,26.76,2.97,7.27,1.29,12.98,4.22,13.18,4.6.28.53-.59.11-.83.25-.39.21-.17.59-.05.64.48.21.77-.18,1.45,0,.68.18,3.44,2.39,4.1,2.55s3.73.95,3.99-.21c.26-1.16-3.49-4.91-9.48-7.75-5.99-2.84-16.23-4.96-19.77-5.49s-6.2-.76-7.35-.71c-1.16.05-3.2.89-3.07,1.18.13.29,4.96.21,9.27.84,4.31.63,8.35,1.55,8.22,2.02s-15.55-.76-17.36-1.05c-1.81-.29-2.55-.6-2.55-1.05s2.89-2.49,7.77-3.28c4.88-.79,10.45-.63,12.55-.45.21-.13,1.52-.95,1.39-1.18s-6.36-.93-11.6-.74c-7.09.25-17.13,3.76-16.63,6.86Z"/>
    <path class="cls-1" d="M290.69,14.92c-.38.96,4.82,3.64,6.27,2.84,1.24-.69-.96-4.37-5.26-7.17s-14.98-7.17-16.51-7.26c-1.53-.1-2.53.57-2.12,1.08s5.81,1,11.77,4.07c5.95,3.06,8.54,5.95,8.2,6.65-.33.69-1.96-1.15-2.34-.19Z"/>
    <path class="cls-1" d="M268.7,3.14c-.04.57.51.85,1.43,1.08.92.23,2.23.07,2.19-.21-.04-.32-.43-.2-.45-.53-.02-.33.68-.96,3.27-1.17s9.25.6,13.68,3.14c4.43,2.54,7.56,5.77,8.19,7.57.63,1.8.55,2.87,1.5,3.71.95.84,2.93.47,3.14.21.21-.27-.65-1.59-.28-2.68.36-1.09,1.75-2.21,3.46-2.24,1.7-.03,1.64,1.01,2.27.93.63-.08,2.04-2.02,2.63-2.97.6-.95,1.61-2.52,1.61-4.94s-1.66-3.93-2.93-4.43c-1.28-.5-2.4.14-2.41.46-.02.32.35.25.73.36.38.11,1.03.68,1.03,2.07s-1.26,3.82-5.11,3.82-5.6-.84-7.89-1.7c-2.29-.87-6.94-2.67-7.28-2.91s.05-.85-.11-1.03c-.16-.17-2.48-1.39-9.34-1.28-6.85.11-9.27,2.18-9.31,2.75Z"/>
    <path class="cls-1" d="M302.11,6.2c3.52,0,4.43-1.55,4.56-2.38.15-.97-.2-2.06-1.29-1.85-.54.11-.27.89-1.32,1.53-1.13.69-5.02.63-8.93-.2-4.1-.86-6.72-1.91-6.77-1.33-.03.39,10.23,4.23,13.74,4.23Z"/>
    <path class="cls-1" d="M314.57,51.7c.74-.36-.02-8.29-3.61-17.25s-8.79-13.37-10.12-12.93c-.72.24-.21,1.69.39,2.97.75,1.57,1.01,1.46,1.12,2.13.07.39,0,.61.09,1.03.14.56.71.69.95.44.3-.32.05-.83.5-.93.46-.1,3.31,3.39,6.25,10.11,2.94,6.72,3.88,14.69,4.43,14.42Z"/>
    <path class="cls-1" d="M315.55,4c-1.2,1.39-5.27,6.29-5.02,6.6.26.33,6.48-4.08,7.59-4.95,1.1-.87,2.08-2.28,1.1-3.15-.97-.87-2.46.1-3.67,1.5Z"/>
    <path class="cls-1" d="M311.75,7.53c.28-.1,1.28-1.67,2.31-2.92,1.03-1.26,2.9-2.63,2.53-3.08-.23-.27-4.79.18-5.02.54s.49.77.67,2.28c.18,1.51-.86,3.32-.49,3.18Z"/>
    <path class="cls-1" d="M318.25,6.68c-1.52,1.08-5.31,3.21-4.99,3.47.23.19,2.53-.21,3.75.37,1.22.59,1.4,1.14,1.7.99l.31-.16s.41-.97.49-2.85c.08-1.88-.12-2.41-.45-2.41-.33,0-.53.38-.81.59Z"/>
    <path class="cls-1" d="M319.36,13.55c-.91-1.38-3.53-2.59-6.36-2.59s-4.76,2.13-4.99,2.71.44,1.92,0,3.22c-.44,1.29-2.19,2.56-3.06,2.62-.87.06-1.61-1.06-2.16-.68-.55.38.14,2.11.68,2.84.54.73,1.86,1.77,2.59,2.08.73.32,1.14-.13,1.59.13s2.14,1.55,4.51,7.48c2.37,5.93,3.5,11.2,3.59,15.3.09,4.1-.5,6.37-.93,6.37s-.21-.95-.62-.69c-.41.25.16,3.53,1.29,3.6,1.14.06,2.05-4.58,2.05-9.59s-.56-10.63-.69-10.79c-.13-.17-.34.15-.97-.39-.63-.54-1.12-1.66-1.62-3.11-.5-1.45-1.86-6.63-2.09-9.93-.22-3.3.7-5.12,1.9-6.11,1.28-1.06,3.1-.65,3.55-.35.34.22.73.66.81,1.06.1.54-.1.88.23.91,1.24.12,1.89-2.26.69-4.07Z"/>
    <path class="cls-1" d="M317.2,16.64c-.52-.4-1.74-.57-2.57.21-.83.78-1.37,2.47-1.25,6.57s2.64,11.3,3,11.16-.41-2.64-.68-4.83c-.27-2.2-.54-6.36.44-10.5.23-.96.9-1.28,1.4-1.06.18.08.58-.85-.34-1.54Z"/>
  </g>
  <path class="cls-1" d="M15.55,51.49c-.18.46-1.02.51-1.43.18-.93-.75-.23-2.37-1.3-2.47s-2.79,2.09-5.77,14.84c-2.98,12.75-1.65,13.81-2.63,13.79-.54-.01-1.19-5.52,2.79-21.56,3.12-12.59,6.75-17.49,8.4-16.52,1.64.98-1.28,10.07-.84,10.66.44.59,1.02.51.79,1.08Z"/>
</svg>